solid v3d.csg
  facet normal 0.0 0.0 -1.0
    outer loop
      vertex -1.836970237518721E-18 -0.009999999776482582 0.0
      vertex -0.009999999776482582 1.224646790546622E-18 0.0
      vertex 6.12323395273311E-19 0.009999999776482582 0.0
    endloop
  endfacet
  facet normal 0.0 0.0 -1.0
    outer loop
      vertex -1.836970237518721E-18 -0.009999999776482582 0.0
      vertex 6.12323395273311E-19 0.009999999776482582 0.0
      vertex 0.009999999776482582 0.0 0.0
    endloop
  endfacet
  facet normal 0.7071067811865476 0.7071067811865476 0.0
    outer loop
      vertex 0.009999999776482582 0.0 0.0
      vertex 6.12323395273311E-19 0.009999999776482582 0.0
      vertex 6.12323395273311E-19 0.009999999776482582 1.0
    endloop
  endfacet
  facet normal 0.7071067811865476 0.7071067811865476 -0.0
    outer loop
      vertex 0.009999999776482582 0.0 0.0
      vertex 6.12323395273311E-19 0.009999999776482582 1.0
      vertex 0.009999999776482582 0.0 1.0
    endloop
  endfacet
  facet normal -0.7071067811865475 0.7071067811865476 0.0
    outer loop
      vertex 6.12323395273311E-19 0.009999999776482582 0.0
      vertex -0.009999999776482582 1.224646790546622E-18 0.0
      vertex -0.009999999776482582 1.224646790546622E-18 1.0
    endloop
  endfacet
  facet normal -0.7071067811865475 0.7071067811865476 0.0
    outer loop
      vertex 6.12323395273311E-19 0.009999999776482582 0.0
      vertex -0.009999999776482582 1.224646790546622E-18 1.0
      vertex 6.12323395273311E-19 0.009999999776482582 1.0
    endloop
  endfacet
  facet normal -0.7071067811865477 -0.7071067811865474 0.0
    outer loop
      vertex -0.009999999776482582 1.224646790546622E-18 0.0
      vertex -1.836970237518721E-18 -0.009999999776482582 0.0
      vertex -1.836970237518721E-18 -0.009999999776482582 1.0
    endloop
  endfacet
  facet normal -0.7071067811865477 -0.7071067811865474 0.0
    outer loop
      vertex -0.009999999776482582 1.224646790546622E-18 0.0
      vertex -1.836970237518721E-18 -0.009999999776482582 1.0
      vertex -0.009999999776482582 1.224646790546622E-18 1.0
    endloop
  endfacet
  facet normal 0.7071067811865475 -0.7071067811865476 0.0
    outer loop
      vertex -1.836970237518721E-18 -0.009999999776482582 0.0
      vertex 0.009999999776482582 0.0 0.0
      vertex 0.009999999776482582 0.0 1.0
    endloop
  endfacet
  facet normal 0.7071067811865475 -0.7071067811865476 0.0
    outer loop
      vertex -1.836970237518721E-18 -0.009999999776482582 0.0
      vertex 0.009999999776482582 0.0 1.0
      vertex -1.836970237518721E-18 -0.009999999776482582 1.0
    endloop
  endfacet
  facet normal 0.0 0.0 1.0
    outer loop
      vertex 0.009999999776482582 0.0 1.0
      vertex 6.12323395273311E-19 0.009999999776482582 1.0
      vertex -0.009999999776482582 1.224646790546622E-18 1.0
    endloop
  endfacet
  facet normal 0.0 0.0 1.0
    outer loop
      vertex 0.009999999776482582 0.0 1.0
      vertex -0.009999999776482582 1.224646790546622E-18 1.0
      vertex -1.836970237518721E-18 -0.009999999776482582 1.0
    endloop
  endfacet
endsolid v3d.csg
