solid v3d.csg
  facet normal 0.0 0.0 -1.0
    outer loop
      vertex 1.2999999523162842 9.899999618530273 0.0
      vertex 0.6000000238418579 7.099999904632568 0.0
      vertex 0.0 8.600000381469727 0.0
    endloop
  endfacet
  facet normal 0.0 0.0 -1.0
    outer loop
      vertex 10.899999618530273 0.0 0.0
      vertex 0.6000000238418579 7.099999904632568 0.0
      vertex 1.2999999523162842 9.899999618530273 0.0
    endloop
  endfacet
  facet normal 0.0 0.0 -1.0
    outer loop
      vertex 0.6000000238418579 7.099999904632568 0.0
      vertex 0.0 7.099999904632568 0.0
      vertex 0.0 8.600000381469727 0.0
    endloop
  endfacet
  facet normal 0.0 0.0 -1.0
    outer loop
      vertex 10.899999618530273 0.0 0.0
      vertex 0.6000000238418579 6.0 0.0
      vertex 0.6000000238418579 7.099999904632568 0.0
    endloop
  endfacet
  facet normal 0.0 0.0 -1.0
    outer loop
      vertex 10.899999618530273 0.0 0.0
      vertex 1.2999999523162842 9.899999618530273 0.0
      vertex 10.899999618530273 14.899999618530273 0.0
    endloop
  endfacet
  facet normal 0.0 0.0 -1.0
    outer loop
      vertex 0.0 0.0 0.0
      vertex 0.6000000238418579 6.0 0.0
      vertex 10.899999618530273 0.0 0.0
    endloop
  endfacet
  facet normal 0.0 0.0 -1.0
    outer loop
      vertex 1.2999999523162842 9.899999618530273 0.0
      vertex 1.2999999523162842 14.899999618530273 0.0
      vertex 10.899999618530273 14.899999618530273 0.0
    endloop
  endfacet
  facet normal 0.0 0.0 -1.0
    outer loop
      vertex 0.0 0.0 0.0
      vertex 0.0 5.400000095367432 0.0
      vertex 0.6000000238418579 6.0 0.0
    endloop
  endfacet
  facet normal 0.0 -1.0 0.0
    outer loop
      vertex 10.899999618530273 0.0 0.0
      vertex 10.899999618530273 0.0 0.6000000238418579
      vertex 0.0 0.0 0.6000000238418579
    endloop
  endfacet
  facet normal 0.0 -1.0 0.0
    outer loop
      vertex 10.899999618530273 0.0 0.0
      vertex 0.0 0.0 0.6000000238418579
      vertex 0.0 0.0 0.0
    endloop
  endfacet
  facet normal 1.0 0.0 -0.0
    outer loop
      vertex 10.899999618530273 14.899999618530273 0.0
      vertex 10.899999618530273 14.899999618530273 0.6000000238418579
      vertex 10.899999618530273 0.0 0.6000000238418579
    endloop
  endfacet
  facet normal 1.0 0.0 0.0
    outer loop
      vertex 10.899999618530273 14.899999618530273 0.0
      vertex 10.899999618530273 0.0 0.6000000238418579
      vertex 10.899999618530273 0.0 0.0
    endloop
  endfacet
  facet normal 0.0 1.0 0.0
    outer loop
      vertex 1.2999999523162842 14.899999618530273 0.0
      vertex 1.2999999523162842 14.899999618530273 0.6000000238418579
      vertex 10.899999618530273 14.899999618530273 0.6000000238418579
    endloop
  endfacet
  facet normal 0.0 1.0 0.0
    outer loop
      vertex 1.2999999523162842 14.899999618530273 0.0
      vertex 10.899999618530273 14.899999618530273 0.6000000238418579
      vertex 10.899999618530273 14.899999618530273 0.0
    endloop
  endfacet
  facet normal -1.0 0.0 0.0
    outer loop
      vertex 1.2999999523162842 9.899999618530273 0.0
      vertex 1.2999999523162842 9.899999618530273 0.6000000238418579
      vertex 1.2999999523162842 14.899999618530273 0.6000000238418579
    endloop
  endfacet
  facet normal -1.0 0.0 0.0
    outer loop
      vertex 1.2999999523162842 9.899999618530273 0.0
      vertex 1.2999999523162842 14.899999618530273 0.6000000238418579
      vertex 1.2999999523162842 14.899999618530273 0.0
    endloop
  endfacet
  facet normal -0.707106586662544 0.7071069757104976 0.0
    outer loop
      vertex 0.0 8.600000381469727 0.0
      vertex 0.0 8.600000381469727 0.6000000238418579
      vertex 1.2999999523162842 9.899999618530273 0.6000000238418579
    endloop
  endfacet
  facet normal -0.707106586662544 0.7071069757104976 0.0
    outer loop
      vertex 0.0 8.600000381469727 0.0
      vertex 1.2999999523162842 9.899999618530273 0.6000000238418579
      vertex 1.2999999523162842 9.899999618530273 0.0
    endloop
  endfacet
  facet normal -1.0 0.0 0.0
    outer loop
      vertex 0.0 7.099999904632568 0.0
      vertex 0.0 7.099999904632568 0.6000000238418579
      vertex 0.0 8.600000381469727 0.6000000238418579
    endloop
  endfacet
  facet normal -1.0 0.0 0.0
    outer loop
      vertex 0.0 7.099999904632568 0.0
      vertex 0.0 8.600000381469727 0.6000000238418579
      vertex 0.0 8.600000381469727 0.0
    endloop
  endfacet
  facet normal 0.0 -1.0 0.0
    outer loop
      vertex 0.6000000238418579 7.099999904632568 0.0
      vertex 0.6000000238418579 7.099999904632568 0.6000000238418579
      vertex 0.0 7.099999904632568 0.6000000238418579
    endloop
  endfacet
  facet normal 0.0 -1.0 0.0
    outer loop
      vertex 0.6000000238418579 7.099999904632568 0.0
      vertex 0.0 7.099999904632568 0.6000000238418579
      vertex 0.0 7.099999904632568 0.0
    endloop
  endfacet
  facet normal -1.0 0.0 0.0
    outer loop
      vertex 0.6000000238418579 6.0 0.0
      vertex 0.6000000238418579 6.0 0.6000000238418579
      vertex 0.6000000238418579 7.099999904632568 0.6000000238418579
    endloop
  endfacet
  facet normal -1.0 0.0 0.0
    outer loop
      vertex 0.6000000238418579 6.0 0.0
      vertex 0.6000000238418579 7.099999904632568 0.6000000238418579
      vertex 0.6000000238418579 7.099999904632568 0.0
    endloop
  endfacet
  facet normal -0.7071067109417923 0.7071068514312957 0.0
    outer loop
      vertex 0.0 5.400000095367432 0.0
      vertex 0.0 5.400000095367432 0.6000000238418579
      vertex 0.6000000238418579 6.0 0.6000000238418579
    endloop
  endfacet
  facet normal -0.7071067109417923 0.7071068514312957 0.0
    outer loop
      vertex 0.0 5.400000095367432 0.0
      vertex 0.6000000238418579 6.0 0.6000000238418579
      vertex 0.6000000238418579 6.0 0.0
    endloop
  endfacet
  facet normal -1.0 0.0 0.0
    outer loop
      vertex 0.0 0.0 0.0
      vertex 0.0 0.0 0.6000000238418579
      vertex 0.0 5.400000095367432 0.6000000238418579
    endloop
  endfacet
  facet normal -1.0 0.0 0.0
    outer loop
      vertex 0.0 0.0 0.0
      vertex 0.0 5.400000095367432 0.6000000238418579
      vertex 0.0 5.400000095367432 0.0
    endloop
  endfacet
  facet normal -0.0 0.0 1.0
    outer loop
      vertex 0.0 8.600000381469727 0.6000000238418579
      vertex 0.6000000238418579 7.099999904632568 0.6000000238418579
      vertex 1.2999999523162842 9.899999618530273 0.6000000238418579
    endloop
  endfacet
  facet normal 0.0 0.0 1.0
    outer loop
      vertex 1.2999999523162842 9.899999618530273 0.6000000238418579
      vertex 0.6000000238418579 7.099999904632568 0.6000000238418579
      vertex 10.899999618530273 0.0 0.6000000238418579
    endloop
  endfacet
  facet normal 0.0 0.0 1.0
    outer loop
      vertex 0.0 8.600000381469727 0.6000000238418579
      vertex 0.0 7.099999904632568 0.6000000238418579
      vertex 0.6000000238418579 7.099999904632568 0.6000000238418579
    endloop
  endfacet
  facet normal 0.0 0.0 1.0
    outer loop
      vertex 0.6000000238418579 7.099999904632568 0.6000000238418579
      vertex 0.6000000238418579 6.0 0.6000000238418579
      vertex 10.899999618530273 0.0 0.6000000238418579
    endloop
  endfacet
  facet normal 0.0 0.0 1.0
    outer loop
      vertex 10.899999618530273 14.899999618530273 0.6000000238418579
      vertex 1.2999999523162842 9.899999618530273 0.6000000238418579
      vertex 10.899999618530273 0.0 0.6000000238418579
    endloop
  endfacet
  facet normal 0.0 0.0 1.0
    outer loop
      vertex 10.899999618530273 0.0 0.6000000238418579
      vertex 0.6000000238418579 6.0 0.6000000238418579
      vertex 0.0 0.0 0.6000000238418579
    endloop
  endfacet
  facet normal 0.0 0.0 1.0
    outer loop
      vertex 10.899999618530273 14.899999618530273 0.6000000238418579
      vertex 1.2999999523162842 14.899999618530273 0.6000000238418579
      vertex 1.2999999523162842 9.899999618530273 0.6000000238418579
    endloop
  endfacet
  facet normal 0.0 0.0 1.0
    outer loop
      vertex 0.6000000238418579 6.0 0.6000000238418579
      vertex 0.0 5.400000095367432 0.6000000238418579
      vertex 0.0 0.0 0.6000000238418579
    endloop
  endfacet
endsolid v3d.csg
