solid v3d.csg
  facet normal -1.1102230246251565E-16 4.566151542451634E-17 -1.0
    outer loop
      vertex 6.516414165496826 18.0 -7.234673044528102E-16
      vertex 5.570523738861084 18.0 -6.184523714104588E-16
      vertex 6.545544624328613 18.462139129638672 -7.055994620678359E-16
    endloop
  endfacet
  facet normal -1.1102230246251565E-16 4.5661484512062933E-17 -1.0
    outer loop
      vertex 5.570523738861084 18.0 -6.184523714104588E-16
      vertex 2.2081003189086914 18.0 -2.45148381473458E-16
      vertex 6.755827903747559 21.798141479492188 -5.766187905741082E-16
    endloop
  endfacet
  facet normal -1.1102228526719438E-16 4.566147914583684E-17 -1.0
    outer loop
      vertex 5.570523738861084 18.0 -6.184523714104588E-16
      vertex 6.755827903747559 21.798141479492188 -5.766187905741082E-16
      vertex 6.545544624328613 18.462139129638672 -7.055994620678359E-16
    endloop
  endfacet
  facet normal -1.1102230246251565E-16 4.5661484453253686E-17 -1.0
    outer loop
      vertex 2.2081003189086914 18.0 -2.45148381473458E-16
      vertex 0.3222862780094147 18.0 -3.5780964636679643E-17
      vertex 6.105951309204102 25.416454315185547 -3.3925045966074017E-16
    endloop
  endfacet
  facet normal -1.1102231272126765E-16 4.566148984492535E-17 -1.0
    outer loop
      vertex 2.2081003189086914 18.0 -2.45148381473458E-16
      vertex 6.105951309204102 25.416454315185547 -3.3925045966074017E-16
      vertex 6.810105800628662 22.659223556518555 -5.433265840987516E-16
    endloop
  endfacet
  facet normal -1.1102227956620238E-16 4.566145709702429E-17 -1.0
    outer loop
      vertex 2.2081003189086914 18.0 -2.45148381473458E-16
      vertex 6.810105800628662 22.659223556518555 -5.433265840987516E-16
      vertex 6.755827903747559 21.798141479492188 -5.766187905741082E-16
    endloop
  endfacet
  facet normal -1.1102230246251565E-16 4.566148132625067E-17 -1.0
    outer loop
      vertex 0.3222862780094147 18.0 -3.5780964636679643E-17
      vertex -1.1126933097839355 18.0 1.2353377318684972E-16
      vertex 5.018723011016846 29.673675537109375 -2.4152866558270556E-17
    endloop
  endfacet
  facet normal -1.1102229417977275E-16 4.566147799402014E-17 -1.0
    outer loop
      vertex 0.3222862780094147 18.0 -3.5780964636679643E-17
      vertex 5.018723011016846 29.673675537109375 -2.4152866558270556E-17
      vertex 6.105951309204102 25.416454315185547 -3.3925045966074017E-16
    endloop
  endfacet
  facet normal -1.1102230246251565E-16 1.5823872473910813E-17 -1.0
    outer loop
      vertex -1.1126933097839355 18.0 1.2353377318684972E-16
      vertex -2.394700288772583 18.0 2.658651397671833E-16
      vertex 1.7103452682495117 30.0 0.0
    endloop
  endfacet
  facet normal 0.0 -1.0294481098904143E-17 -1.0
    outer loop
      vertex -1.1126933097839355 18.0 1.2353377318684972E-16
      vertex 1.7103452682495117 30.0 0.0
      vertex 4.935384750366211 30.0 0.0
    endloop
  endfacet
  facet normal -1.1102231270467201E-16 4.566148670578383E-17 -1.0
    outer loop
      vertex -1.1126933097839355 18.0 1.2353377318684972E-16
      vertex 4.935384750366211 30.0 0.0
      vertex 5.018723011016846 29.673675537109375 -2.4152866558270556E-17
    endloop
  endfacet
  facet normal 0.0 0.0 -1.0
    outer loop
      vertex 4.935384750366211 30.0 0.0
      vertex 1.7103452682495117 30.0 0.0
      vertex 4.801909923553467 39.03736114501953 0.0
    endloop
  endfacet
  facet normal -1.1102230246251565E-16 -1.2312326440408184E-17 -1.0
    outer loop
      vertex -2.394700288772583 18.0 2.658651397671833E-16
      vertex -3.6604974269866943 18.0 4.063968525021771E-16
      vertex -1.3307949304580688 30.0 0.0
    endloop
  endfacet
  facet normal 0.0 -2.215542831393194E-17 -1.0
    outer loop
      vertex -2.394700288772583 18.0 2.658651397671833E-16
      vertex -1.3307949304580688 30.0 0.0
      vertex 1.7103452682495117 30.0 0.0
    endloop
  endfacet
  facet normal 0.0 0.0 -1.0
    outer loop
      vertex 1.7103452682495117 30.0 0.0
      vertex -1.3307949304580688 30.0 0.0
      vertex 0.9989075660705566 42.0 0.0
    endloop
  endfacet
  facet normal 0.0 0.0 -1.0
    outer loop
      vertex 1.7103452682495117 30.0 0.0
      vertex 0.9989075660705566 42.0 0.0
      vertex 4.758153915405273 42.0 0.0
    endloop
  endfacet
  facet normal 0.0 0.0 -1.0
    outer loop
      vertex 1.7103452682495117 30.0 0.0
      vertex 4.758153915405273 42.0 0.0
      vertex 4.801909923553467 39.03736114501953 0.0
    endloop
  endfacet
  facet normal 0.0 0.0 -1.0
    outer loop
      vertex 4.758153915405273 42.0 0.0
      vertex 0.9989075660705566 42.0 0.0
      vertex 3.3286101818084717 54.0 0.0
    endloop
  endfacet
  facet normal 0.0 0.0 -1.0
    outer loop
      vertex 4.758153915405273 42.0 0.0
      vertex 3.3286101818084717 54.0 0.0
      vertex 4.521846294403076 54.0 0.0
    endloop
  endfacet
  facet normal 0.0 0.0 -1.0
    outer loop
      vertex 4.521846294403076 54.0 0.0
      vertex 3.3286101818084717 54.0 0.0
      vertex 4.387578964233398 59.454612731933594 0.0
    endloop
  endfacet
  facet normal -1.1102230246251565E-16 -3.929423341167135E-17 -1.0
    outer loop
      vertex -3.6604974269866943 18.0 4.063968525021771E-16
      vertex -5.0035858154296875 18.0 5.555096177977878E-16
      vertex -4.247171878814697 30.0 0.0
    endloop
  endfacet
  facet normal 0.0 -3.386640437518142E-17 -1.0
    outer loop
      vertex -3.6604974269866943 18.0 4.063968525021771E-16
      vertex -4.247171878814697 30.0 0.0
      vertex -1.3307949304580688 30.0 0.0
    endloop
  endfacet
  facet normal 0.0 0.0 -1.0
    outer loop
      vertex -1.3307949304580688 30.0 0.0
      vertex -4.247171878814697 30.0 0.0
      vertex -3.490758180618286 42.0 0.0
    endloop
  endfacet
  facet normal 0.0 0.0 -1.0
    outer loop
      vertex -1.3307949304580688 30.0 0.0
      vertex -3.490758180618286 42.0 0.0
      vertex 0.9989075660705566 42.0 0.0
    endloop
  endfacet
  facet normal 0.0 0.0 -1.0
    outer loop
      vertex 0.9989075660705566 42.0 0.0
      vertex -3.490758180618286 42.0 0.0
      vertex -2.734344005584717 54.0 0.0
    endloop
  endfacet
  facet normal 0.0 0.0 -1.0
    outer loop
      vertex 0.9989075660705566 42.0 0.0
      vertex -2.734344005584717 54.0 0.0
      vertex 3.3286101818084717 54.0 0.0
    endloop
  endfacet
  facet normal 0.0 0.0 -1.0
    outer loop
      vertex 3.3286101818084717 54.0 0.0
      vertex -2.734344005584717 54.0 0.0
      vertex -1.9779300689697266 66.0 0.0
    endloop
  endfacet
  facet normal 0.0 0.0 -1.0
    outer loop
      vertex 3.3286101818084717 54.0 0.0
      vertex -1.9779300689697266 66.0 0.0
      vertex 4.226461410522461 66.0 0.0
    endloop
  endfacet
  facet normal 0.0 0.0 -1.0
    outer loop
      vertex 3.3286101818084717 54.0 0.0
      vertex 4.226461410522461 66.0 0.0
      vertex 4.387578964233398 59.454612731933594 0.0
    endloop
  endfacet
  facet normal 0.0 1.167489113420747E-17 -1.0
    outer loop
      vertex 4.226461410522461 66.0 0.0
      vertex -1.9779300689697266 66.0 0.0
      vertex -1.2215161323547363 78.0 1.4009869361048964E-16
    endloop
  endfacet
  facet normal -1.1469246208057564E-16 -4.0395272011815076E-17 -1.0
    outer loop
      vertex 4.226461410522461 66.0 0.0
      vertex -1.2215161323547363 78.0 1.4009869361048964E-16
      vertex 3.871999979019165 78.0 -4.440892098500626E-16
    endloop
  endfacet
  facet normal -1.1469246208057564E-16 -4.44530945416285E-18 -1.0
    outer loop
      vertex 3.871999979019165 78.0 -4.440892098500626E-16
      vertex -1.2215161323547363 78.0 1.4009869361048964E-16
      vertex -0.4651021659374237 90.0 0.0
    endloop
  endfacet
  facet normal 0.0 3.700743415417188E-17 -1.0
    outer loop
      vertex 3.871999979019165 78.0 -4.440892098500626E-16
      vertex -0.4651021659374237 90.0 0.0
      vertex 3.4584615230560303 90.0 0.0
    endloop
  endfacet
  facet normal 0.0 0.0 -1.0
    outer loop
      vertex 3.4584615230560303 90.0 0.0
      vertex -0.4651021659374237 90.0 0.0
      vertex 0.2913118302822113 102.0 0.0
    endloop
  endfacet
  facet normal 0.0 0.0 -1.0
    outer loop
      vertex 3.4584615230560303 90.0 0.0
      vertex 0.2913118302822113 102.0 0.0
      vertex 2.9858460426330566 102.0 0.0
    endloop
  endfacet
  facet normal 0.0 0.0 -1.0
    outer loop
      vertex 2.9858460426330566 102.0 0.0
      vertex 0.2913118302822113 102.0 0.0
      vertex 1.047725796699524 114.0 0.0
    endloop
  endfacet
  facet normal 0.0 0.0 -1.0
    outer loop
      vertex 2.9858460426330566 102.0 0.0
      vertex 1.047725796699524 114.0 0.0
      vertex 2.4541537761688232 114.0 0.0
    endloop
  endfacet
  facet normal -0.0 -1.7915406373103527E-17 -1.0
    outer loop
      vertex 2.4541537761688232 114.0 0.0
      vertex 1.047725796699524 114.0 0.0
      vertex 1.8041397333145142 126.0 -2.1498487647724233E-16
    endloop
  endfacet
  facet normal -1.191618499964791E-16 -2.437014602895437E-17 -1.0
    outer loop
      vertex 2.4541537761688232 114.0 0.0
      vertex 1.8041397333145142 126.0 -2.1498487647724233E-16
      vertex 1.8633846044540405 126.0 -2.220446049250313E-16
    endloop
  endfacet
  facet normal -1.191618499964791E-16 1.2050589356646965E-17 -1.0
    outer loop
      vertex 1.8633846044540405 126.0 -2.220446049250313E-16
      vertex 1.8041397333145142 126.0 -2.1498487647724233E-16
      vertex 1.836006999015808 126.50555419921875 -2.1269001276022422E-16
    endloop
  endfacet
  facet normal -1.1102230246251565E-16 -4.566147971215702E-17 -1.0
    outer loop
      vertex -5.0035858154296875 18.0 5.555096177977878E-16
      vertex -6.516414165496826 18.0 7.234673044528102E-16
      vertex -6.810105800628662 22.659223556518555 5.433265840987516E-16
    endloop
  endfacet
  facet normal -1.1102230711795962E-16 -4.566148151721155E-17 -1.0
    outer loop
      vertex -5.0035858154296875 18.0 5.555096177977878E-16
      vertex -6.810105800628662 22.659223556518555 5.433265840987516E-16
      vertex -4.935384750366211 30.0 0.0
    endloop
  endfacet
  facet normal 0.0 -4.629246814981565E-17 -1.0
    outer loop
      vertex -5.0035858154296875 18.0 5.555096177977878E-16
      vertex -4.935384750366211 30.0 0.0
      vertex -4.247171878814697 30.0 0.0
    endloop
  endfacet
  facet normal 0.0 0.0 -1.0
    outer loop
      vertex -4.247171878814697 30.0 0.0
      vertex -4.935384750366211 30.0 0.0
      vertex -4.758153915405273 42.0 0.0
    endloop
  endfacet
  facet normal 0.0 0.0 -1.0
    outer loop
      vertex -4.247171878814697 30.0 0.0
      vertex -4.758153915405273 42.0 0.0
      vertex -3.490758180618286 42.0 0.0
    endloop
  endfacet
  facet normal 0.0 0.0 -1.0
    outer loop
      vertex -3.490758180618286 42.0 0.0
      vertex -4.758153915405273 42.0 0.0
      vertex -4.521846294403076 54.0 0.0
    endloop
  endfacet
  facet normal 0.0 0.0 -1.0
    outer loop
      vertex -3.490758180618286 42.0 0.0
      vertex -4.521846294403076 54.0 0.0
      vertex -2.734344005584717 54.0 0.0
    endloop
  endfacet
  facet normal 0.0 0.0 -1.0
    outer loop
      vertex -2.734344005584717 54.0 0.0
      vertex -4.521846294403076 54.0 0.0
      vertex -4.226461410522461 66.0 0.0
    endloop
  endfacet
  facet normal 0.0 0.0 -1.0
    outer loop
      vertex -2.734344005584717 54.0 0.0
      vertex -4.226461410522461 66.0 0.0
      vertex -1.9779300689697266 66.0 0.0
    endloop
  endfacet
  facet normal 0.0 3.700743415417188E-17 -1.0
    outer loop
      vertex -1.9779300689697266 66.0 0.0
      vertex -4.226461410522461 66.0 0.0
      vertex -3.871999979019165 78.0 4.440892098500626E-16
    endloop
  endfacet
  facet normal -1.146924613866777E-16 1.8904472485670775E-17 -1.0
    outer loop
      vertex -1.9779300689697266 66.0 0.0
      vertex -3.871999979019165 78.0 4.440892098500626E-16
      vertex -1.2215161323547363 78.0 1.4009869361048964E-16
    endloop
  endfacet
  facet normal -1.146924613866777E-16 -3.3054955538133704E-17 -1.0
    outer loop
      vertex -1.2215161323547363 78.0 1.4009869361048964E-16
      vertex -3.871999979019165 78.0 4.440892098500626E-16
      vertex -3.4584615230560303 90.0 0.0
    endloop
  endfacet
  facet normal 0.0 -1.167489113420747E-17 -1.0
    outer loop
      vertex -1.2215161323547363 78.0 1.4009869361048964E-16
      vertex -3.4584615230560303 90.0 0.0
      vertex -0.4651021659374237 90.0 0.0
    endloop
  endfacet
  facet normal 0.0 0.0 -1.0
    outer loop
      vertex -0.4651021659374237 90.0 0.0
      vertex -3.4584615230560303 90.0 0.0
      vertex -2.9858460426330566 102.0 0.0
    endloop
  endfacet
  facet normal 0.0 0.0 -1.0
    outer loop
      vertex -0.4651021659374237 90.0 0.0
      vertex -2.9858460426330566 102.0 0.0
      vertex 0.2913118302822113 102.0 0.0
    endloop
  endfacet
  facet normal 0.0 0.0 -1.0
    outer loop
      vertex 0.2913118302822113 102.0 0.0
      vertex -2.9858460426330566 102.0 0.0
      vertex -2.4541537761688232 114.0 0.0
    endloop
  endfacet
  facet normal 0.0 0.0 -1.0
    outer loop
      vertex 0.2913118302822113 102.0 0.0
      vertex -2.4541537761688232 114.0 0.0
      vertex 1.047725796699524 114.0 0.0
    endloop
  endfacet
  facet normal 0.0 1.850371707708594E-17 -1.0
    outer loop
      vertex 1.047725796699524 114.0 0.0
      vertex -2.4541537761688232 114.0 0.0
      vertex -1.8633846044540405 126.0 2.220446049250313E-16
    endloop
  endfacet
  facet normal -1.1916198534845363E-16 -1.040409083708006E-17 -1.0
    outer loop
      vertex 1.047725796699524 114.0 0.0
      vertex -1.8633846044540405 126.0 2.220446049250313E-16
      vertex 1.8041397333145142 126.0 -2.1498487647724233E-16
    endloop
  endfacet
  facet normal -1.1916198534845363E-16 -1.2050636834810226E-17 -1.0
    outer loop
      vertex 1.8041397333145142 126.0 -2.1498487647724233E-16
      vertex -1.8633846044540405 126.0 2.220446049250313E-16
      vertex -1.213538408279419 138.0 0.0
    endloop
  endfacet
  facet normal 0.0 1.7915406373103527E-17 -1.0
    outer loop
      vertex 1.8041397333145142 126.0 -2.1498487647724233E-16
      vertex -1.213538408279419 138.0 0.0
      vertex 1.213538408279419 138.0 0.0
    endloop
  endfacet
  facet normal -1.191623382589073E-16 1.2050620133937622E-17 -1.0
    outer loop
      vertex 1.8041397333145142 126.0 -2.1498487647724233E-16
      vertex 1.213538408279419 138.0 0.0
      vertex 1.836006999015808 126.50555419921875 -2.1269001276022422E-16
    endloop
  endfacet
  facet normal -1.1102230246251565E-16 -4.566147971215702E-17 -1.0
    outer loop
      vertex -6.516414165496826 18.0 7.234673044528102E-16
      vertex -8.0 18.0 8.881784197001252E-16
      vertex -6.810105800628662 22.659223556518555 5.433265840987516E-16
    endloop
  endfacet
  facet normal -1.1102230246251565E-16 4.566147971215702E-17 -1.0
    outer loop
      vertex 8.0 18.0 -8.881784197001252E-16
      vertex 6.516414165496826 18.0 -7.234673044528102E-16
      vertex 6.810105800628662 22.659223556518555 -5.433265840987516E-16
    endloop
  endfacet
  facet normal 0.0 0.0 -1.0
    outer loop
      vertex 5.649322986602783 7.755813121795654 0.0
      vertex 5.816422462463379 6.895105838775635 0.0
      vertex 5.760000228881836 6.0 0.0
    endloop
  endfacet
  facet normal 0.0 0.0 -1.0
    outer loop
      vertex 5.3215460777282715 9.444150924682617 0.0
      vertex 5.875100135803223 7.825984477996826 0.0
      vertex 5.816422462463379 6.895105838775635 0.0
    endloop
  endfacet
  facet normal 0.0 0.0 -1.0
    outer loop
      vertex 4.789265155792236 11.00013256072998 0.0
      vertex 5.937391757965088 8.814200401306152 0.0
      vertex 5.875100135803223 7.825984477996826 0.0
    endloop
  endfacet
  facet normal 0.0 0.0 -1.0
    outer loop
      vertex 4.072935104370117 12.363961219787598 0.0
      vertex 6.004981994628906 9.886476516723633 0.0
      vertex 5.937391757965088 8.814200401306152 0.0
    endloop
  endfacet
  facet normal 0.0 0.0 -1.0
    outer loop
      vertex 3.2000844478607178 13.483226776123047 0.0
      vertex 6.080084323883057 11.077926635742188 0.0
      vertex 6.004981994628906 9.886476516723633 0.0
    endloop
  endfacet
  facet normal 0.0 0.0 -1.0
    outer loop
      vertex 2.204256534576416 14.314915657043457 0.0
      vertex 6.165768146514893 12.437241554260254 0.0
      vertex 6.080084323883057 11.077926635742188 0.0
    endloop
  endfacet
  facet normal 0.0 0.0 -1.0
    outer loop
      vertex 1.1237202882766724 14.827067375183105 0.0
      vertex 6.26652193069458 14.035627365112305 0.0
      vertex 6.165768146514893 12.437241554260254 0.0
    endloop
  endfacet
  facet normal 0.0 0.0 -1.0
    outer loop
      vertex 6.217248937900877E-15 15.0 0.0
      vertex 6.3892903327941895 15.98326587677002 0.0
      vertex 6.26652193069458 14.035627365112305 0.0
    endloop
  endfacet
  facet normal -0.0 0.0 -1.0
    outer loop
      vertex 6.3892903327941895 15.98326587677002 0.0
      vertex -1.1237202882766724 14.827067375183105 0.0
      vertex 5.570523738861084 18.0 0.0
    endloop
  endfacet
  facet normal 0.0 0.0 -1.0
    outer loop
      vertex 6.3892903327941895 15.98326587677002 0.0
      vertex 5.570523738861084 18.0 0.0
      vertex 6.516414165496826 18.0 0.0
    endloop
  endfacet
  facet normal 0.0 0.0 -1.0
    outer loop
      vertex -2.204256534576416 14.314915657043457 0.0
      vertex 2.2081003189086914 18.0 0.0
      vertex 5.570523738861084 18.0 0.0
    endloop
  endfacet
  facet normal 0.0 0.0 -1.0
    outer loop
      vertex -3.2000844478607178 13.483226776123047 0.0
      vertex 0.3222862780094147 18.0 0.0
      vertex 2.2081003189086914 18.0 0.0
    endloop
  endfacet
  facet normal 0.0 0.0 -1.0
    outer loop
      vertex -4.072935104370117 12.363961219787598 0.0
      vertex -1.1126933097839355 18.0 0.0
      vertex 0.3222862780094147 18.0 0.0
    endloop
  endfacet
  facet normal 0.0 0.0 -1.0
    outer loop
      vertex -4.789265155792236 11.00013256072998 0.0
      vertex -2.394700288772583 18.0 0.0
      vertex -1.1126933097839355 18.0 0.0
    endloop
  endfacet
  facet normal 0.0 0.0 -1.0
    outer loop
      vertex -5.3215460777282715 9.444150924682617 0.0
      vertex -3.6604974269866943 18.0 0.0
      vertex -2.394700288772583 18.0 0.0
    endloop
  endfacet
  facet normal 0.0 0.0 -1.0
    outer loop
      vertex -5.649322986602783 7.755813121795654 0.0
      vertex -5.0035858154296875 18.0 0.0
      vertex -3.6604974269866943 18.0 0.0
    endloop
  endfacet
  facet normal 0.0 0.0 -1.0
    outer loop
      vertex -5.760000228881836 6.0 0.0
      vertex -6.516414165496826 18.0 0.0
      vertex -5.0035858154296875 18.0 0.0
    endloop
  endfacet
  facet normal 0.0 0.0 -1.0
    outer loop
      vertex -5.649322986602783 4.244186878204346 0.0
      vertex -8.0 16.352222442626953 0.0
      vertex -8.0 18.0 0.0
    endloop
  endfacet
  facet normal 0.0 0.0 -1.0
    outer loop
      vertex -5.649322986602783 4.244186878204346 0.0
      vertex -8.0 18.0 0.0
      vertex -6.516414165496826 18.0 0.0
    endloop
  endfacet
  facet normal 0.0 0.0 -1.0
    outer loop
      vertex -5.3215460777282715 2.555849075317383 0.0
      vertex -8.0 10.385590553283691 0.0
      vertex -8.0 16.352222442626953 0.0
    endloop
  endfacet
  facet normal 0.0 0.0 -1.0
    outer loop
      vertex -4.789265155792236 0.9998679161071777 0.0
      vertex -8.0 7.112823963165283 0.0
      vertex -8.0 10.385590553283691 0.0
    endloop
  endfacet
  facet normal 0.0 0.0 -1.0
    outer loop
      vertex -7.088259696960449 0.0 0.0
      vertex -8.0 0.0 0.0
      vertex -8.0 0.43214601278305054 0.0
    endloop
  endfacet
  facet normal 0.0 0.0 -1.0
    outer loop
      vertex -4.976034164428711 0.0 0.0
      vertex -7.088259696960449 0.0 0.0
      vertex -8.0 0.43214601278305054 0.0
    endloop
  endfacet
  facet normal 0.0 0.0 -1.0
    outer loop
      vertex -4.976034164428711 0.0 0.0
      vertex -8.0 0.43214601278305054 0.0
      vertex -8.0 2.525536298751831 0.0
    endloop
  endfacet
  facet normal 0.0 0.0 -1.0
    outer loop
      vertex -4.356767177581787 0.0 0.0
      vertex -4.976034164428711 0.0 0.0
      vertex -8.0 2.525536298751831 0.0
    endloop
  endfacet
  facet normal 0.0 0.0 -1.0
    outer loop
      vertex -4.356767177581787 0.0 0.0
      vertex -8.0 2.525536298751831 0.0
      vertex -8.0 4.671755790710449 0.0
    endloop
  endfacet
  facet normal 0.0 0.0 -1.0
    outer loop
      vertex -4.264100074768066 0.0 0.0
      vertex -4.356767177581787 0.0 0.0
      vertex -8.0 4.671755790710449 0.0
    endloop
  endfacet
  facet normal 0.0 0.0 -1.0
    outer loop
      vertex -4.264100074768066 0.0 0.0
      vertex -8.0 4.671755790710449 0.0
      vertex -8.0 7.112823963165283 0.0
    endloop
  endfacet
  facet normal 0.0 0.0 -1.0
    outer loop
      vertex 4.789265155792236 0.9998679161071777 0.0
      vertex 4.44722318649292 0.0 0.0
      vertex 4.264100074768066 0.0 0.0
    endloop
  endfacet
  facet normal 0.0 0.0 -1.0
    outer loop
      vertex 5.3215460777282715 2.555849075317383 0.0
      vertex 4.825348854064941 0.0 0.0
      vertex 4.44722318649292 0.0 0.0
    endloop
  endfacet
  facet normal 0.0 0.0 -1.0
    outer loop
      vertex 5.649322986602783 4.244186878204346 0.0
      vertex 5.381793022155762 0.0 0.0
      vertex 4.825348854064941 0.0 0.0
    endloop
  endfacet
  facet normal 0.0 0.0 -1.0
    outer loop
      vertex 5.381793022155762 0.0 0.0
      vertex 6.516414165496826 18.0 0.0
      vertex 8.0 18.0 0.0
    endloop
  endfacet
  facet normal 0.0 0.0 -1.0
    outer loop
      vertex 5.381793022155762 0.0 0.0
      vertex 8.0 18.0 0.0
      vertex 8.0 0.0 0.0
    endloop
  endfacet
  facet normal -0.0 0.538134946263751 0.8428586949244278
    outer loop
      vertex 5.570523738861084 18.0 20.0
      vertex 6.516414165496826 18.0 20.0
      vertex 6.545544624328613 18.462139129638672 19.704940795898438
    endloop
  endfacet
  facet normal -0.0 0.538134946263751 0.8428586949244279
    outer loop
      vertex 2.2081003189086914 18.0 20.0
      vertex 5.570523738861084 18.0 20.0
      vertex 6.545544624328613 18.462139129638672 19.704940795898438
    endloop
  endfacet
  facet normal 2.1513930350191233E-7 0.5381335117962615 0.8428596107785546
    outer loop
      vertex 2.2081003189086914 18.0 20.0
      vertex 6.545544624328613 18.462139129638672 19.704940795898438
      vertex 6.755827903747559 21.798141479492188 17.575031280517578
    endloop
  endfacet
  facet normal -1.0104090027562062E-7 0.5381335917299079 0.8428595597440054
    outer loop
      vertex 6.810105800628662 22.659223556518555 17.025264739990234
      vertex 6.105951309204102 25.416454315185547 15.264878273010254
      vertex 0.3222862780094147 18.0 20.0
    endloop
  endfacet
  facet normal 0.0 0.5381334917775855 0.842859623559738
    outer loop
      vertex 6.810105800628662 22.659223556518555 17.025264739990234
      vertex 0.3222862780094147 18.0 20.0
      vertex 2.2081003189086914 18.0 20.0
    endloop
  endfacet
  facet normal 1.3632041583206174E-6 0.5381325352326672 0.8428602342750571
    outer loop
      vertex 6.810105800628662 22.659223556518555 17.025264739990234
      vertex 2.2081003189086914 18.0 20.0
      vertex 6.755827903747559 21.798141479492188 17.575031280517578
    endloop
  endfacet
  facet normal 2.4826679463779697E-7 0.5381333640846144 0.8428597050867447
    outer loop
      vertex 6.105951309204102 25.416454315185547 15.264878273010254
      vertex 5.018723011016846 29.673675537109375 12.546807289123535
      vertex -1.1126933097839355 18.0 20.0
    endloop
  endfacet
  facet normal 0.0 0.5381335357522848 0.8428595954835801
    outer loop
      vertex 6.105951309204102 25.416454315185547 15.264878273010254
      vertex -1.1126933097839355 18.0 20.0
      vertex 0.3222862780094147 18.0 20.0
    endloop
  endfacet
  facet normal 0.0 0.538133086589973 0.8428598822563265
    outer loop
      vertex 5.018723011016846 29.673675537109375 12.546807289123535
      vertex 4.935384750366211 30.0 12.338461875915527
      vertex 1.7103452682495117 30.0 12.338461875915527
    endloop
  endfacet
  facet normal 4.8360829439214675E-8 0.5381334349031526 0.8428596598718746
    outer loop
      vertex 5.018723011016846 29.673675537109375 12.546807289123535
      vertex 1.7103452682495117 30.0 12.338461875915527
      vertex -2.394700288772583 18.0 20.0
    endloop
  endfacet
  facet normal 0.0 0.5381334567211788 0.842859645941906
    outer loop
      vertex 5.018723011016846 29.673675537109375 12.546807289123535
      vertex -2.394700288772583 18.0 20.0
      vertex -1.1126933097839355 18.0 20.0
    endloop
  endfacet
  facet normal 0.0 0.5381334466559441 0.8428596523681712
    outer loop
      vertex 1.7103452682495117 30.0 12.338461875915527
      vertex -1.3307949304580688 30.0 12.338461875915527
      vertex -3.6604974269866943 18.0 20.0
    endloop
  endfacet
  facet normal 0.0 0.5381334466559441 0.8428596523681712
    outer loop
      vertex 1.7103452682495117 30.0 12.338461875915527
      vertex -3.6604974269866943 18.0 20.0
      vertex -2.394700288772583 18.0 20.0
    endloop
  endfacet
  facet normal 0.0 0.5381334466559441 0.8428596523681712
    outer loop
      vertex -1.3307949304580688 30.0 12.338461875915527
      vertex -4.247171878814697 30.0 12.338461875915527
      vertex -5.0035858154296875 18.0 20.0
    endloop
  endfacet
  facet normal 0.0 0.5381334466559441 0.8428596523681712
    outer loop
      vertex -1.3307949304580688 30.0 12.338461875915527
      vertex -5.0035858154296875 18.0 20.0
      vertex -3.6604974269866943 18.0 20.0
    endloop
  endfacet
  facet normal 0.0 0.5381334180170345 0.8428596706530118
    outer loop
      vertex -4.247171878814697 30.0 12.338461875915527
      vertex -4.935384750366211 30.0 12.338461875915527
      vertex -6.810105800628662 22.659223556518555 17.025264739990234
    endloop
  endfacet
  facet normal -2.5190460028631507E-7 0.5381334804971651 0.8428596307618154
    outer loop
      vertex -4.247171878814697 30.0 12.338461875915527
      vertex -6.810105800628662 22.659223556518555 17.025264739990234
      vertex -6.516414165496826 18.0 20.0
    endloop
  endfacet
  facet normal 0.0 0.5381334466559441 0.8428596523681712
    outer loop
      vertex -4.247171878814697 30.0 12.338461875915527
      vertex -6.516414165496826 18.0 20.0
      vertex -5.0035858154296875 18.0 20.0
    endloop
  endfacet
  facet normal 0.0 0.5381334917775856 0.842859623559738
    outer loop
      vertex -6.810105800628662 22.659223556518555 17.025264739990234
      vertex -8.0 18.0 20.0
      vertex -6.516414165496826 18.0 20.0
    endloop
  endfacet
  facet normal 0.0 0.5381334917775856 0.842859623559738
    outer loop
      vertex 8.0 18.0 20.0
      vertex 6.810105800628662 22.659223556518555 17.025264739990234
      vertex 6.516414165496826 18.0 20.0
    endloop
  endfacet
  facet normal -1.0 0.0 0.0
    outer loop
      vertex -8.0 0.43214601278305054 0.0
      vertex -8.0 0.0 0.0
      vertex -8.0 0.0 20.0
    endloop
  endfacet
  facet normal -1.0 0.0 0.0
    outer loop
      vertex -8.0 0.43214601278305054 0.0
      vertex -8.0 0.0 20.0
      vertex -8.0 0.43214601278305054 20.0
    endloop
  endfacet
  facet normal -1.0 0.0 0.0
    outer loop
      vertex -8.0 2.525536298751831 0.0
      vertex -8.0 0.43214601278305054 0.0
      vertex -8.0 0.43214601278305054 20.0
    endloop
  endfacet
  facet normal -1.0 0.0 0.0
    outer loop
      vertex -8.0 2.525536298751831 0.0
      vertex -8.0 0.43214601278305054 20.0
      vertex -8.0 2.525536298751831 20.0
    endloop
  endfacet
  facet normal -1.0 0.0 0.0
    outer loop
      vertex -8.0 4.671755790710449 0.0
      vertex -8.0 2.525536298751831 0.0
      vertex -8.0 2.525536298751831 20.0
    endloop
  endfacet
  facet normal -1.0 0.0 0.0
    outer loop
      vertex -8.0 4.671755790710449 0.0
      vertex -8.0 2.525536298751831 20.0
      vertex -8.0 4.671755790710449 20.0
    endloop
  endfacet
  facet normal -1.0 0.0 0.0
    outer loop
      vertex -8.0 7.112823963165283 0.0
      vertex -8.0 4.671755790710449 0.0
      vertex -8.0 4.671755790710449 20.0
    endloop
  endfacet
  facet normal -1.0 0.0 0.0
    outer loop
      vertex -8.0 7.112823963165283 0.0
      vertex -8.0 4.671755790710449 20.0
      vertex -8.0 7.112823963165283 20.0
    endloop
  endfacet
  facet normal -1.0 0.0 0.0
    outer loop
      vertex -8.0 10.385590553283691 0.0
      vertex -8.0 7.112823963165283 0.0
      vertex -8.0 7.112823963165283 20.0
    endloop
  endfacet
  facet normal -1.0 0.0 0.0
    outer loop
      vertex -8.0 10.385590553283691 0.0
      vertex -8.0 7.112823963165283 20.0
      vertex -8.0 10.385590553283691 20.0
    endloop
  endfacet
  facet normal -1.0 0.0 0.0
    outer loop
      vertex -8.0 16.352222442626953 0.0
      vertex -8.0 10.385590553283691 0.0
      vertex -8.0 10.385590553283691 20.0
    endloop
  endfacet
  facet normal -1.0 0.0 0.0
    outer loop
      vertex -8.0 16.352222442626953 0.0
      vertex -8.0 10.385590553283691 20.0
      vertex -8.0 16.352222442626953 20.0
    endloop
  endfacet
  facet normal -1.0 0.0 0.0
    outer loop
      vertex -8.0 16.352222442626953 0.0
      vertex -8.0 16.352222442626953 20.0
      vertex -8.0 18.0 20.0
    endloop
  endfacet
  facet normal -1.0 0.0 0.0
    outer loop
      vertex -8.0 16.352222442626953 0.0
      vertex -8.0 18.0 20.0
      vertex -8.0 18.0 0.0
    endloop
  endfacet
  facet normal -0.9980192109763921 0.06290989208431179 0.0
    outer loop
      vertex 5.649322986602783 4.244186878204346 20.0
      vertex 5.760000228881836 6.0 20.0
      vertex 5.760000228881836 6.0 0.0
    endloop
  endfacet
  facet normal -0.9980192109763921 0.06290989208431179 0.0
    outer loop
      vertex 5.649322986602783 4.244186878204346 20.0
      vertex 5.760000228881836 6.0 0.0
      vertex 5.649322986602783 4.244186878204346 0.0
    endloop
  endfacet
  facet normal -0.9816710156400568 0.1905833598513243 0.0
    outer loop
      vertex 5.3215460777282715 2.555849075317383 20.0
      vertex 5.649322986602783 4.244186878204346 20.0
      vertex 5.649322986602783 4.244186878204346 0.0
    endloop
  endfacet
  facet normal -0.9816710156400568 0.1905833598513243 0.0
    outer loop
      vertex 5.3215460777282715 2.555849075317383 20.0
      vertex 5.649322986602783 4.244186878204346 0.0
      vertex 5.3215460777282715 2.555849075317383 0.0
    endloop
  endfacet
  facet normal -0.9461692779474703 0.323672206820979 0.0
    outer loop
      vertex 4.789265155792236 0.9998679161071777 20.0
      vertex 5.3215460777282715 2.555849075317383 20.0
      vertex 5.3215460777282715 2.555849075317383 0.0
    endloop
  endfacet
  facet normal -0.9461692779474703 0.323672206820979 0.0
    outer loop
      vertex 4.789265155792236 0.9998679161071777 20.0
      vertex 5.3215460777282715 2.555849075317383 0.0
      vertex 4.789265155792236 0.9998679161071777 0.0
    endloop
  endfacet
  facet normal -0.8853124610588086 0.4649966089059099 0.0
    outer loop
      vertex 4.264100074768066 0.0 20.0
      vertex 4.789265155792236 0.9998679161071777 20.0
      vertex 4.789265155792236 0.9998679161071777 0.0
    endloop
  endfacet
  facet normal -0.8853124610588086 0.4649966089059099 0.0
    outer loop
      vertex 4.264100074768066 0.0 20.0
      vertex 4.789265155792236 0.9998679161071777 0.0
      vertex 4.264100074768066 0.0 0.0
    endloop
  endfacet
  facet normal 0.8853124610588086 0.4649966089059099 0.0
    outer loop
      vertex -4.789265155792236 0.9998679161071777 20.0
      vertex -4.264100074768066 0.0 20.0
      vertex -4.264100074768066 0.0 0.0
    endloop
  endfacet
  facet normal 0.8853124610588086 0.4649966089059099 0.0
    outer loop
      vertex -4.789265155792236 0.9998679161071777 20.0
      vertex -4.264100074768066 0.0 0.0
      vertex -4.789265155792236 0.9998679161071777 0.0
    endloop
  endfacet
  facet normal 0.9461692779474703 0.323672206820979 0.0
    outer loop
      vertex -5.3215460777282715 2.555849075317383 20.0
      vertex -4.789265155792236 0.9998679161071777 20.0
      vertex -4.789265155792236 0.9998679161071777 0.0
    endloop
  endfacet
  facet normal 0.9461692779474703 0.323672206820979 0.0
    outer loop
      vertex -5.3215460777282715 2.555849075317383 20.0
      vertex -4.789265155792236 0.9998679161071777 0.0
      vertex -5.3215460777282715 2.555849075317383 0.0
    endloop
  endfacet
  facet normal 0.9816710156400568 0.1905833598513243 0.0
    outer loop
      vertex -5.649322986602783 4.244186878204346 20.0
      vertex -5.3215460777282715 2.555849075317383 20.0
      vertex -5.3215460777282715 2.555849075317383 0.0
    endloop
  endfacet
  facet normal 0.9816710156400568 0.1905833598513243 0.0
    outer loop
      vertex -5.649322986602783 4.244186878204346 20.0
      vertex -5.3215460777282715 2.555849075317383 0.0
      vertex -5.649322986602783 4.244186878204346 0.0
    endloop
  endfacet
  facet normal 0.9980192109763921 0.06290989208431179 0.0
    outer loop
      vertex -5.760000228881836 6.0 20.0
      vertex -5.649322986602783 4.244186878204346 20.0
      vertex -5.649322986602783 4.244186878204346 0.0
    endloop
  endfacet
  facet normal 0.9980192109763921 0.06290989208431179 0.0
    outer loop
      vertex -5.760000228881836 6.0 20.0
      vertex -5.649322986602783 4.244186878204346 0.0
      vertex -5.760000228881836 6.0 0.0
    endloop
  endfacet
  facet normal 0.9980192109763921 -0.06290989208431179 0.0
    outer loop
      vertex -5.649322986602783 7.755813121795654 20.0
      vertex -5.760000228881836 6.0 20.0
      vertex -5.760000228881836 6.0 0.0
    endloop
  endfacet
  facet normal 0.9980192109763921 -0.06290989208431179 0.0
    outer loop
      vertex -5.649322986602783 7.755813121795654 20.0
      vertex -5.760000228881836 6.0 0.0
      vertex -5.649322986602783 7.755813121795654 0.0
    endloop
  endfacet
  facet normal 0.9816710156400568 -0.1905833598513243 0.0
    outer loop
      vertex -5.3215460777282715 9.444150924682617 20.0
      vertex -5.649322986602783 7.755813121795654 20.0
      vertex -5.649322986602783 7.755813121795654 0.0
    endloop
  endfacet
  facet normal 0.9816710156400568 -0.1905833598513243 0.0
    outer loop
      vertex -5.3215460777282715 9.444150924682617 20.0
      vertex -5.649322986602783 7.755813121795654 0.0
      vertex -5.3215460777282715 9.444150924682617 0.0
    endloop
  endfacet
  facet normal 0.9461693083244953 -0.32367211802184337 0.0
    outer loop
      vertex -4.789265155792236 11.00013256072998 20.0
      vertex -5.3215460777282715 9.444150924682617 20.0
      vertex -5.3215460777282715 9.444150924682617 0.0
    endloop
  endfacet
  facet normal 0.9461693083244953 -0.32367211802184337 0.0
    outer loop
      vertex -4.789265155792236 11.00013256072998 20.0
      vertex -5.3215460777282715 9.444150924682617 0.0
      vertex -4.789265155792236 11.00013256072998 0.0
    endloop
  endfacet
  facet normal 0.8853123949047317 -0.46499673485740567 0.0
    outer loop
      vertex -4.072935104370117 12.363961219787598 20.0
      vertex -4.789265155792236 11.00013256072998 20.0
      vertex -4.789265155792236 11.00013256072998 0.0
    endloop
  endfacet
  facet normal 0.8853123949047317 -0.46499673485740567 0.0
    outer loop
      vertex -4.072935104370117 12.363961219787598 20.0
      vertex -4.789265155792236 11.00013256072998 0.0
      vertex -4.072935104370117 12.363961219787598 0.0
    endloop
  endfacet
  facet normal 0.7885625988181993 -0.6149544924180061 0.0
    outer loop
      vertex -3.2000844478607178 13.483226776123047 20.0
      vertex -4.072935104370117 12.363961219787598 20.0
      vertex -4.072935104370117 12.363961219787598 0.0
    endloop
  endfacet
  facet normal 0.7885625988181993 -0.6149544924180061 0.0
    outer loop
      vertex -3.2000844478607178 13.483226776123047 20.0
      vertex -4.072935104370117 12.363961219787598 0.0
      vertex -3.2000844478607178 13.483226776123047 0.0
    endloop
  endfacet
  facet normal 0.6410174642161206 -0.7675262930805267 0.0
    outer loop
      vertex -2.204256534576416 14.314915657043457 20.0
      vertex -3.2000844478607178 13.483226776123047 20.0
      vertex -3.2000844478607178 13.483226776123047 0.0
    endloop
  endfacet
  facet normal 0.6410174642161206 -0.7675262930805267 0.0
    outer loop
      vertex -2.204256534576416 14.314915657043457 20.0
      vertex -3.2000844478607178 13.483226776123047 0.0
      vertex -2.204256534576416 14.314915657043457 0.0
    endloop
  endfacet
  facet normal 0.42830405387654735 -0.9036346814022334 0.0
    outer loop
      vertex -1.1237202882766724 14.827067375183105 20.0
      vertex -2.204256534576416 14.314915657043457 20.0
      vertex -2.204256534576416 14.314915657043457 0.0
    endloop
  endfacet
  facet normal 0.42830405387654735 -0.9036346814022334 0.0
    outer loop
      vertex -1.1237202882766724 14.827067375183105 20.0
      vertex -2.204256534576416 14.314915657043457 0.0
      vertex -1.1237202882766724 14.827067375183105 0.0
    endloop
  endfacet
  facet normal 0.15210236178933345 -0.9883647462036 0.0
    outer loop
      vertex -1.058094817106114E-15 15.0 20.0
      vertex -1.1237202882766724 14.827067375183105 20.0
      vertex -1.1237202882766724 14.827067375183105 0.0
    endloop
  endfacet
  facet normal 0.15210236178933345 -0.9883647462036 0.0
    outer loop
      vertex -1.058094817106114E-15 15.0 20.0
      vertex -1.1237202882766724 14.827067375183105 0.0
      vertex -1.058094817106114E-15 15.0 0.0
    endloop
  endfacet
  facet normal -0.15210236178933317 -0.9883647462036 0.0
    outer loop
      vertex 1.1237202882766724 14.827067375183105 20.0
      vertex -1.058094817106114E-15 15.0 20.0
      vertex -1.058094817106114E-15 15.0 0.0
    endloop
  endfacet
  facet normal -0.15210236178933317 -0.9883647462036 -0.0
    outer loop
      vertex 1.1237202882766724 14.827067375183105 20.0
      vertex -1.058094817106114E-15 15.0 0.0
      vertex 1.1237202882766724 14.827067375183105 0.0
    endloop
  endfacet
  facet normal -0.42830405387654735 -0.9036346814022334 0.0
    outer loop
      vertex 2.204256534576416 14.314915657043457 20.0
      vertex 1.1237202882766724 14.827067375183105 20.0
      vertex 1.1237202882766724 14.827067375183105 0.0
    endloop
  endfacet
  facet normal -0.42830405387654735 -0.9036346814022334 -0.0
    outer loop
      vertex 2.204256534576416 14.314915657043457 20.0
      vertex 1.1237202882766724 14.827067375183105 0.0
      vertex 2.204256534576416 14.314915657043457 0.0
    endloop
  endfacet
  facet normal -0.6410174642161206 -0.7675262930805267 0.0
    outer loop
      vertex 3.2000844478607178 13.483226776123047 20.0
      vertex 2.204256534576416 14.314915657043457 20.0
      vertex 2.204256534576416 14.314915657043457 0.0
    endloop
  endfacet
  facet normal -0.6410174642161206 -0.7675262930805267 -0.0
    outer loop
      vertex 3.2000844478607178 13.483226776123047 20.0
      vertex 2.204256534576416 14.314915657043457 0.0
      vertex 3.2000844478607178 13.483226776123047 0.0
    endloop
  endfacet
  facet normal -0.7885625988181993 -0.6149544924180061 0.0
    outer loop
      vertex 4.072935104370117 12.363961219787598 20.0
      vertex 3.2000844478607178 13.483226776123047 20.0
      vertex 3.2000844478607178 13.483226776123047 0.0
    endloop
  endfacet
  facet normal -0.7885625988181993 -0.6149544924180061 -0.0
    outer loop
      vertex 4.072935104370117 12.363961219787598 20.0
      vertex 3.2000844478607178 13.483226776123047 0.0
      vertex 4.072935104370117 12.363961219787598 0.0
    endloop
  endfacet
  facet normal -0.8853123949047317 -0.46499673485740567 0.0
    outer loop
      vertex 4.789265155792236 11.00013256072998 20.0
      vertex 4.072935104370117 12.363961219787598 20.0
      vertex 4.072935104370117 12.363961219787598 0.0
    endloop
  endfacet
  facet normal -0.8853123949047317 -0.46499673485740567 -0.0
    outer loop
      vertex 4.789265155792236 11.00013256072998 20.0
      vertex 4.072935104370117 12.363961219787598 0.0
      vertex 4.789265155792236 11.00013256072998 0.0
    endloop
  endfacet
  facet normal -0.9461693083244953 -0.32367211802184337 0.0
    outer loop
      vertex 5.3215460777282715 9.444150924682617 20.0
      vertex 4.789265155792236 11.00013256072998 20.0
      vertex 4.789265155792236 11.00013256072998 0.0
    endloop
  endfacet
  facet normal -0.9461693083244953 -0.32367211802184337 -0.0
    outer loop
      vertex 5.3215460777282715 9.444150924682617 20.0
      vertex 4.789265155792236 11.00013256072998 0.0
      vertex 5.3215460777282715 9.444150924682617 0.0
    endloop
  endfacet
  facet normal -0.9816710156400568 -0.1905833598513243 0.0
    outer loop
      vertex 5.649322986602783 7.755813121795654 20.0
      vertex 5.3215460777282715 9.444150924682617 20.0
      vertex 5.3215460777282715 9.444150924682617 0.0
    endloop
  endfacet
  facet normal -0.9816710156400568 -0.1905833598513243 -0.0
    outer loop
      vertex 5.649322986602783 7.755813121795654 20.0
      vertex 5.3215460777282715 9.444150924682617 0.0
      vertex 5.649322986602783 7.755813121795654 0.0
    endloop
  endfacet
  facet normal -0.9980192109763921 -0.06290989208431179 0.0
    outer loop
      vertex 5.760000228881836 6.0 20.0
      vertex 5.649322986602783 7.755813121795654 20.0
      vertex 5.649322986602783 7.755813121795654 0.0
    endloop
  endfacet
  facet normal -0.9980192109763921 -0.06290989208431179 -0.0
    outer loop
      vertex 5.760000228881836 6.0 20.0
      vertex 5.649322986602783 7.755813121795654 0.0
      vertex 5.760000228881836 6.0 0.0
    endloop
  endfacet
  facet normal 0.0 0.0 1.0
    outer loop
      vertex 5.649322986602783 7.755813121795654 20.0
      vertex 5.760000228881836 6.0 20.0
      vertex 5.816422462463379 6.895105838775635 20.0
    endloop
  endfacet
  facet normal 0.0 0.0 1.0
    outer loop
      vertex 5.3215460777282715 9.444150924682617 20.0
      vertex 5.816422462463379 6.895105838775635 20.0
      vertex 5.875100135803223 7.825984477996826 20.0
    endloop
  endfacet
  facet normal 0.0 0.0 1.0
    outer loop
      vertex 4.789265155792236 11.00013256072998 20.0
      vertex 5.875100135803223 7.825984477996826 20.0
      vertex 5.937391757965088 8.814200401306152 20.0
    endloop
  endfacet
  facet normal 0.0 0.0 1.0
    outer loop
      vertex 4.072935104370117 12.363961219787598 20.0
      vertex 5.937391757965088 8.814200401306152 20.0
      vertex 6.004981994628906 9.886476516723633 20.0
    endloop
  endfacet
  facet normal 0.0 0.0 1.0
    outer loop
      vertex 3.2000844478607178 13.483226776123047 20.0
      vertex 6.004981994628906 9.886476516723633 20.0
      vertex 6.080084323883057 11.077926635742188 20.0
    endloop
  endfacet
  facet normal 0.0 0.0 1.0
    outer loop
      vertex 2.204256534576416 14.314915657043457 20.0
      vertex 6.080084323883057 11.077926635742188 20.0
      vertex 6.165768146514893 12.437241554260254 20.0
    endloop
  endfacet
  facet normal 0.0 0.0 1.0
    outer loop
      vertex 1.1237202882766724 14.827067375183105 20.0
      vertex 6.165768146514893 12.437241554260254 20.0
      vertex 6.26652193069458 14.035627365112305 20.0
    endloop
  endfacet
  facet normal -0.0 0.0 1.0
    outer loop
      vertex -1.3322676295501878E-15 15.0 20.0
      vertex 6.26652193069458 14.035627365112305 20.0
      vertex 6.3892903327941895 15.98326587677002 20.0
    endloop
  endfacet
  facet normal 0.0 0.0 1.0
    outer loop
      vertex -1.1237202882766724 14.827067375183105 20.0
      vertex 6.3892903327941895 15.98326587677002 20.0
      vertex 6.516414165496826 18.0 20.0
    endloop
  endfacet
  facet normal 0.0 0.0 1.0
    outer loop
      vertex -1.1237202882766724 14.827067375183105 20.0
      vertex 6.516414165496826 18.0 20.0
      vertex 5.570523738861084 18.0 20.0
    endloop
  endfacet
  facet normal 0.0 0.0 1.0
    outer loop
      vertex -2.204256534576416 14.314915657043457 20.0
      vertex 5.570523738861084 18.0 20.0
      vertex 2.2081003189086914 18.0 20.0
    endloop
  endfacet
  facet normal 0.0 0.0 1.0
    outer loop
      vertex -3.2000844478607178 13.483226776123047 20.0
      vertex 2.2081003189086914 18.0 20.0
      vertex 0.3222862780094147 18.0 20.0
    endloop
  endfacet
  facet normal 0.0 0.0 1.0
    outer loop
      vertex -4.072935104370117 12.363961219787598 20.0
      vertex 0.3222862780094147 18.0 20.0
      vertex -1.1126933097839355 18.0 20.0
    endloop
  endfacet
  facet normal 0.0 0.0 1.0
    outer loop
      vertex -4.789265155792236 11.00013256072998 20.0
      vertex -1.1126933097839355 18.0 20.0
      vertex -2.394700288772583 18.0 20.0
    endloop
  endfacet
  facet normal 0.0 0.0 1.0
    outer loop
      vertex -5.3215460777282715 9.444150924682617 20.0
      vertex -2.394700288772583 18.0 20.0
      vertex -3.6604974269866943 18.0 20.0
    endloop
  endfacet
  facet normal 0.0 0.0 1.0
    outer loop
      vertex -5.649322986602783 7.755813121795654 20.0
      vertex -3.6604974269866943 18.0 20.0
      vertex -5.0035858154296875 18.0 20.0
    endloop
  endfacet
  facet normal 0.0 -0.0 1.0
    outer loop
      vertex -5.760000228881836 6.0 20.0
      vertex -5.0035858154296875 18.0 20.0
      vertex -6.516414165496826 18.0 20.0
    endloop
  endfacet
  facet normal -0.0 0.0 1.0
    outer loop
      vertex -8.0 16.352222442626953 20.0
      vertex -5.649322986602783 4.244186878204346 20.0
      vertex -6.516414165496826 18.0 20.0
    endloop
  endfacet
  facet normal 0.0 0.0 1.0
    outer loop
      vertex -8.0 16.352222442626953 20.0
      vertex -6.516414165496826 18.0 20.0
      vertex -8.0 18.0 20.0
    endloop
  endfacet
  facet normal 0.0 0.0 1.0
    outer loop
      vertex -8.0 16.352222442626953 20.0
      vertex -8.0 10.385590553283691 20.0
      vertex -5.3215460777282715 2.555849075317383 20.0
    endloop
  endfacet
  facet normal 0.0 0.0 1.0
    outer loop
      vertex -8.0 10.385590553283691 20.0
      vertex -8.0 7.112823963165283 20.0
      vertex -4.789265155792236 0.9998679161071777 20.0
    endloop
  endfacet
  facet normal 0.0 -1.0 0.0
    outer loop
      vertex -8.0 0.0 0.0
      vertex -7.088259696960449 0.0 0.0
      vertex -7.088259696960449 0.0 20.0
    endloop
  endfacet
  facet normal 0.0 -1.0 0.0
    outer loop
      vertex -8.0 0.0 0.0
      vertex -7.088259696960449 0.0 20.0
      vertex -8.0 0.0 20.0
    endloop
  endfacet
  facet normal 0.0 -1.0 0.0
    outer loop
      vertex -7.088259696960449 0.0 0.0
      vertex -4.976034164428711 0.0 0.0
      vertex -4.976034164428711 0.0 20.0
    endloop
  endfacet
  facet normal 0.0 -1.0 0.0
    outer loop
      vertex -7.088259696960449 0.0 0.0
      vertex -4.976034164428711 0.0 20.0
      vertex -7.088259696960449 0.0 20.0
    endloop
  endfacet
  facet normal 0.0 -1.0 0.0
    outer loop
      vertex -4.976034164428711 0.0 0.0
      vertex -4.356767177581787 0.0 0.0
      vertex -4.356767177581787 0.0 20.0
    endloop
  endfacet
  facet normal 0.0 -1.0 0.0
    outer loop
      vertex -4.976034164428711 0.0 0.0
      vertex -4.356767177581787 0.0 20.0
      vertex -4.976034164428711 0.0 20.0
    endloop
  endfacet
  facet normal 0.0 -1.0 0.0
    outer loop
      vertex -4.356767177581787 0.0 0.0
      vertex -4.264100074768066 0.0 0.0
      vertex -4.264100074768066 0.0 20.0
    endloop
  endfacet
  facet normal 0.0 -1.0 0.0
    outer loop
      vertex -4.356767177581787 0.0 0.0
      vertex -4.264100074768066 0.0 20.0
      vertex -4.356767177581787 0.0 20.0
    endloop
  endfacet
  facet normal 0.0 0.0 1.0
    outer loop
      vertex -8.0 0.43214601278305054 20.0
      vertex -8.0 0.0 20.0
      vertex -7.088259696960449 0.0 20.0
    endloop
  endfacet
  facet normal 0.0 0.0 1.0
    outer loop
      vertex -8.0 2.525536298751831 20.0
      vertex -8.0 0.43214601278305054 20.0
      vertex -7.088259696960449 0.0 20.0
    endloop
  endfacet
  facet normal 0.0 0.0 1.0
    outer loop
      vertex -8.0 2.525536298751831 20.0
      vertex -7.088259696960449 0.0 20.0
      vertex -4.976034164428711 0.0 20.0
    endloop
  endfacet
  facet normal 0.0 0.0 1.0
    outer loop
      vertex -8.0 4.671755790710449 20.0
      vertex -8.0 2.525536298751831 20.0
      vertex -4.976034164428711 0.0 20.0
    endloop
  endfacet
  facet normal 0.0 0.0 1.0
    outer loop
      vertex -8.0 4.671755790710449 20.0
      vertex -4.976034164428711 0.0 20.0
      vertex -4.356767177581787 0.0 20.0
    endloop
  endfacet
  facet normal 0.0 0.0 1.0
    outer loop
      vertex -8.0 7.112823963165283 20.0
      vertex -8.0 4.671755790710449 20.0
      vertex -4.356767177581787 0.0 20.0
    endloop
  endfacet
  facet normal 0.0 0.0 1.0
    outer loop
      vertex -8.0 7.112823963165283 20.0
      vertex -4.356767177581787 0.0 20.0
      vertex -4.264100074768066 0.0 20.0
    endloop
  endfacet
  facet normal 0.0 -1.0 0.0
    outer loop
      vertex 4.264100074768066 0.0 0.0
      vertex 4.44722318649292 0.0 0.0
      vertex 4.44722318649292 0.0 20.0
    endloop
  endfacet
  facet normal 0.0 -1.0 0.0
    outer loop
      vertex 4.264100074768066 0.0 0.0
      vertex 4.44722318649292 0.0 20.0
      vertex 4.264100074768066 0.0 20.0
    endloop
  endfacet
  facet normal 0.0 0.0 1.0
    outer loop
      vertex 4.264100074768066 0.0 20.0
      vertex 4.44722318649292 0.0 20.0
      vertex 4.789265155792236 0.9998679161071777 20.0
    endloop
  endfacet
  facet normal 0.0 -1.0 0.0
    outer loop
      vertex 4.44722318649292 0.0 0.0
      vertex 4.825348854064941 0.0 0.0
      vertex 4.825348854064941 0.0 20.0
    endloop
  endfacet
  facet normal 0.0 -1.0 0.0
    outer loop
      vertex 4.44722318649292 0.0 0.0
      vertex 4.825348854064941 0.0 20.0
      vertex 4.44722318649292 0.0 20.0
    endloop
  endfacet
  facet normal 0.0 0.0 1.0
    outer loop
      vertex 4.44722318649292 0.0 20.0
      vertex 4.825348854064941 0.0 20.0
      vertex 5.3215460777282715 2.555849075317383 20.0
    endloop
  endfacet
  facet normal 0.0 -1.0 0.0
    outer loop
      vertex 4.825348854064941 0.0 0.0
      vertex 5.381793022155762 0.0 0.0
      vertex 5.381793022155762 0.0 20.0
    endloop
  endfacet
  facet normal 0.0 -1.0 0.0
    outer loop
      vertex 4.825348854064941 0.0 0.0
      vertex 5.381793022155762 0.0 20.0
      vertex 4.825348854064941 0.0 20.0
    endloop
  endfacet
  facet normal 0.0 0.0 1.0
    outer loop
      vertex 4.825348854064941 0.0 20.0
      vertex 5.381793022155762 0.0 20.0
      vertex 5.649322986602783 4.244186878204346 20.0
    endloop
  endfacet
  facet normal 1.0 0.0 0.0
    outer loop
      vertex 8.0 0.0 0.0
      vertex 8.0 18.0 0.0
      vertex 8.0 18.0 20.0
    endloop
  endfacet
  facet normal 1.0 0.0 0.0
    outer loop
      vertex 8.0 0.0 0.0
      vertex 8.0 18.0 20.0
      vertex 8.0 0.0 20.0
    endloop
  endfacet
  facet normal 0.0 -1.0 0.0
    outer loop
      vertex 5.381793022155762 0.0 0.0
      vertex 8.0 0.0 0.0
      vertex 8.0 0.0 20.0
    endloop
  endfacet
  facet normal 0.0 -1.0 0.0
    outer loop
      vertex 5.381793022155762 0.0 0.0
      vertex 8.0 0.0 20.0
      vertex 5.381793022155762 0.0 20.0
    endloop
  endfacet
  facet normal 0.0 0.0 1.0
    outer loop
      vertex 5.381793022155762 0.0 20.0
      vertex 8.0 0.0 20.0
      vertex 8.0 18.0 20.0
    endloop
  endfacet
  facet normal 0.0 0.0 1.0
    outer loop
      vertex 5.381793022155762 0.0 20.0
      vertex 8.0 18.0 20.0
      vertex 6.516414165496826 18.0 20.0
    endloop
  endfacet
  facet normal 0.0 0.03689800018854171 0.9993190369356958
    outer loop
      vertex 4.935384750366211 30.0 12.338461875915527
      vertex 4.801909923553467 39.03736114501953 12.00477409362793
      vertex 1.7103452682495117 30.0 12.338461875915527
    endloop
  endfacet
  facet normal 0.0 0.03689778648440819 0.9993190448263013
    outer loop
      vertex 4.801909923553467 39.03736114501953 12.00477409362793
      vertex 4.758153915405273 42.0 11.895384788513184
      vertex 0.9989075660705566 42.0 11.895384788513184
    endloop
  endfacet
  facet normal 1.0905626605444298E-7 0.036897926284298554 0.9993190396644641
    outer loop
      vertex 4.801909923553467 39.03736114501953 12.00477409362793
      vertex 0.9989075660705566 42.0 11.895384788513184
      vertex -1.3307949304580688 30.0 12.338461875915527
    endloop
  endfacet
  facet normal 0.0 0.03689800018854172 0.9993190369356958
    outer loop
      vertex 4.801909923553467 39.03736114501953 12.00477409362793
      vertex -1.3307949304580688 30.0 12.338461875915527
      vertex 1.7103452682495117 30.0 12.338461875915527
    endloop
  endfacet
  facet normal 0.0 0.0368979474278614 0.9993190388837846
    outer loop
      vertex 0.9989075660705566 42.0 11.895384788513184
      vertex -3.490758180618286 42.0 11.895384788513184
      vertex -4.247171878814697 30.0 12.338461875915527
    endloop
  endfacet
  facet normal 0.0 0.0368979474278614 0.9993190388837846
    outer loop
      vertex 0.9989075660705566 42.0 11.895384788513184
      vertex -4.247171878814697 30.0 12.338461875915527
      vertex -1.3307949304580688 30.0 12.338461875915527
    endloop
  endfacet
  facet normal 0.0 0.0368979474278614 0.9993190388837846
    outer loop
      vertex -3.490758180618286 42.0 11.895384788513184
      vertex -4.758153915405273 42.0 11.895384788513184
      vertex -4.935384750366211 30.0 12.338461875915527
    endloop
  endfacet
  facet normal 0.0 0.0368979474278614 0.9993190388837846
    outer loop
      vertex -3.490758180618286 42.0 11.895384788513184
      vertex -4.935384750366211 30.0 12.338461875915527
      vertex -4.247171878814697 30.0 12.338461875915527
    endloop
  endfacet
  facet normal 0.0 0.04917126250981842 0.9987903618593796
    outer loop
      vertex 4.758153915405273 42.0 11.895384788513184
      vertex 4.521846294403076 54.0 11.304615020751953
      vertex 3.3286101818084717 54.0 11.304615020751953
    endloop
  endfacet
  facet normal 0.0 0.04917126250981842 0.9987903618593796
    outer loop
      vertex 4.758153915405273 42.0 11.895384788513184
      vertex 3.3286101818084717 54.0 11.304615020751953
      vertex 0.9989075660705566 42.0 11.895384788513184
    endloop
  endfacet
  facet normal 0.0 0.049171262509818424 0.9987903618593796
    outer loop
      vertex 3.3286101818084717 54.0 11.304615020751953
      vertex -2.734344005584717 54.0 11.304615020751953
      vertex -3.490758180618286 42.0 11.895384788513184
    endloop
  endfacet
  facet normal 0.0 0.049171262509818424 0.9987903618593796
    outer loop
      vertex 3.3286101818084717 54.0 11.304615020751953
      vertex -3.490758180618286 42.0 11.895384788513184
      vertex 0.9989075660705566 42.0 11.895384788513184
    endloop
  endfacet
  facet normal 0.0 0.049171262509818424 0.9987903618593796
    outer loop
      vertex -2.734344005584717 54.0 11.304615020751953
      vertex -4.521846294403076 54.0 11.304615020751953
      vertex -4.758153915405273 42.0 11.895384788513184
    endloop
  endfacet
  facet normal 0.0 0.049171262509818424 0.9987903618593796
    outer loop
      vertex -2.734344005584717 54.0 11.304615020751953
      vertex -4.758153915405273 42.0 11.895384788513184
      vertex -3.490758180618286 42.0 11.895384788513184
    endloop
  endfacet
  facet normal 0.0 0.061422284965990524 0.9981118689353197
    outer loop
      vertex 4.521846294403076 54.0 11.304615020751953
      vertex 4.387578964233398 59.454612731933594 10.96894645690918
      vertex 3.3286101818084717 54.0 11.304615020751953
    endloop
  endfacet
  facet normal 0.0 0.061422248858301456 0.9981118711573312
    outer loop
      vertex 4.387578964233398 59.454612731933594 10.96894645690918
      vertex 4.226461410522461 66.0 10.566153526306152
      vertex -1.9779300689697266 66.0 10.566153526306152
    endloop
  endfacet
  facet normal 1.590932212287562E-8 0.06142226427203716 0.9981118702087937
    outer loop
      vertex 4.387578964233398 59.454612731933594 10.96894645690918
      vertex -1.9779300689697266 66.0 10.566153526306152
      vertex -2.734344005584717 54.0 11.304615020751953
    endloop
  endfacet
  facet normal 0.0 0.061422284965990524 0.9981118689353197
    outer loop
      vertex 4.387578964233398 59.454612731933594 10.96894645690918
      vertex -2.734344005584717 54.0 11.304615020751953
      vertex 3.3286101818084717 54.0 11.304615020751953
    endloop
  endfacet
  facet normal 0.0 0.061422265271089856 0.9981118701473136
    outer loop
      vertex -1.9779300689697266 66.0 10.566153526306152
      vertex -4.226461410522461 66.0 10.566153526306152
      vertex -4.521846294403076 54.0 11.304615020751953
    endloop
  endfacet
  facet normal 0.0 0.061422265271089856 0.9981118701473136
    outer loop
      vertex -1.9779300689697266 66.0 10.566153526306152
      vertex -4.521846294403076 54.0 11.304615020751953
      vertex -2.734344005584717 54.0 11.304615020751953
    endloop
  endfacet
  facet normal 0.0 0.07364557103975418 0.9972844779029847
    outer loop
      vertex 4.226461410522461 66.0 10.566153526306152
      vertex 3.871999979019165 78.0 9.680000305175781
      vertex -1.2215161323547363 78.0 9.680000305175781
    endloop
  endfacet
  facet normal 0.0 0.07364557103975418 0.9972844779029846
    outer loop
      vertex 4.226461410522461 66.0 10.566153526306152
      vertex -1.2215161323547363 78.0 9.680000305175781
      vertex -1.9779300689697266 66.0 10.566153526306152
    endloop
  endfacet
  facet normal 0.0 0.07364557103975418 0.9972844779029846
    outer loop
      vertex -1.2215161323547363 78.0 9.680000305175781
      vertex -3.871999979019165 78.0 9.680000305175781
      vertex -4.226461410522461 66.0 10.566153526306152
    endloop
  endfacet
  facet normal 0.0 0.07364557103975418 0.9972844779029846
    outer loop
      vertex -1.2215161323547363 78.0 9.680000305175781
      vertex -4.226461410522461 66.0 10.566153526306152
      vertex -1.9779300689697266 66.0 10.566153526306152
    endloop
  endfacet
  facet normal 0.0 0.08583593512630684 0.9963092854334905
    outer loop
      vertex 3.871999979019165 78.0 9.680000305175781
      vertex 3.4584615230560303 90.0 8.646153450012207
      vertex -0.4651021659374237 90.0 8.646153450012207
    endloop
  endfacet
  facet normal 0.0 0.08583593512630683 0.9963092854334905
    outer loop
      vertex 3.871999979019165 78.0 9.680000305175781
      vertex -0.4651021659374237 90.0 8.646153450012207
      vertex -1.2215161323547363 78.0 9.680000305175781
    endloop
  endfacet
  facet normal 0.0 0.08583593512630683 0.9963092854334905
    outer loop
      vertex -0.4651021659374237 90.0 8.646153450012207
      vertex -3.4584615230560303 90.0 8.646153450012207
      vertex -3.871999979019165 78.0 9.680000305175781
    endloop
  endfacet
  facet normal 0.0 0.08583593512630683 0.9963092854334905
    outer loop
      vertex -0.4651021659374237 90.0 8.646153450012207
      vertex -3.871999979019165 78.0 9.680000305175781
      vertex -1.2215161323547363 78.0 9.680000305175781
    endloop
  endfacet
  facet normal 0.0 0.09798767537039406 0.9951876282769527
    outer loop
      vertex 3.4584615230560303 90.0 8.646153450012207
      vertex 2.9858460426330566 102.0 7.464615345001221
      vertex 0.2913118302822113 102.0 7.464615345001221
    endloop
  endfacet
  facet normal 0.0 0.09798767537039406 0.9951876282769527
    outer loop
      vertex 3.4584615230560303 90.0 8.646153450012207
      vertex 0.2913118302822113 102.0 7.464615345001221
      vertex -0.4651021659374237 90.0 8.646153450012207
    endloop
  endfacet
  facet normal 0.0 0.09798767537039405 0.9951876282769527
    outer loop
      vertex 0.2913118302822113 102.0 7.464615345001221
      vertex -2.9858460426330566 102.0 7.464615345001221
      vertex -3.4584615230560303 90.0 8.646153450012207
    endloop
  endfacet
  facet normal 0.0 0.09798767537039406 0.9951876282769528
    outer loop
      vertex 0.2913118302822113 102.0 7.464615345001221
      vertex -3.4584615230560303 90.0 8.646153450012207
      vertex -0.4651021659374237 90.0 8.646153450012207
    endloop
  endfacet
  facet normal 0.0 0.11009586298280745 0.9939209731935789
    outer loop
      vertex 2.9858460426330566 102.0 7.464615345001221
      vertex 2.4541537761688232 114.0 6.135384559631348
      vertex 1.047725796699524 114.0 6.135384559631348
    endloop
  endfacet
  facet normal 0.0 0.11009586298280745 0.9939209731935789
    outer loop
      vertex 2.9858460426330566 102.0 7.464615345001221
      vertex 1.047725796699524 114.0 6.135384559631348
      vertex 0.2913118302822113 102.0 7.464615345001221
    endloop
  endfacet
  facet normal 0.0 0.11009586298280745 0.9939209731935789
    outer loop
      vertex 1.047725796699524 114.0 6.135384559631348
      vertex -2.4541537761688232 114.0 6.135384559631348
      vertex -2.9858460426330566 102.0 7.464615345001221
    endloop
  endfacet
  facet normal 0.0 0.11009586298280745 0.9939209731935789
    outer loop
      vertex 1.047725796699524 114.0 6.135384559631348
      vertex -2.9858460426330566 102.0 7.464615345001221
      vertex 0.2913118302822113 102.0 7.464615345001221
    endloop
  endfacet
  facet normal 0.0 0.12215519417084535 0.9925110117963847
    outer loop
      vertex 2.4541537761688232 114.0 6.135384559631348
      vertex 1.8633846044540405 126.0 4.658461570739746
      vertex 1.8041397333145142 126.0 4.658461570739746
    endloop
  endfacet
  facet normal 0.0 0.12215519417084535 0.9925110117963847
    outer loop
      vertex 2.4541537761688232 114.0 6.135384559631348
      vertex 1.8041397333145142 126.0 4.658461570739746
      vertex 1.047725796699524 114.0 6.135384559631348
    endloop
  endfacet
  facet normal 0.0 0.12215519417084535 0.9925110117963847
    outer loop
      vertex 1.8041397333145142 126.0 4.658461570739746
      vertex -1.8633846044540405 126.0 4.658461570739746
      vertex -2.4541537761688232 114.0 6.135384559631348
    endloop
  endfacet
  facet normal 0.0 0.12215519417084535 0.9925110117963847
    outer loop
      vertex 1.8041397333145142 126.0 4.658461570739746
      vertex -2.4541537761688232 114.0 6.135384559631348
      vertex 1.047725796699524 114.0 6.135384559631348
    endloop
  endfacet
  facet normal 0.0 0.13416066615229155 0.9909595933526116
    outer loop
      vertex 1.8633846044540405 126.0 4.658461570739746
      vertex 1.836006999015808 126.50555419921875 4.590017318725586
      vertex 1.8041397333145142 126.0 4.658461570739746
    endloop
  endfacet
  facet normal 0.0 0.13416068775513781 0.9909595904279188
    outer loop
      vertex 1.836006999015808 126.50555419921875 4.590017318725586
      vertex 1.213538408279419 138.0 3.033846139907837
      vertex -1.213538408279419 138.0 3.033846139907837
    endloop
  endfacet
  facet normal -2.9011439540720445E-9 0.13416068699930064 0.9909595905302475
    outer loop
      vertex 1.836006999015808 126.50555419921875 4.590017318725586
      vertex -1.213538408279419 138.0 3.033846139907837
      vertex -1.8633846044540405 126.0 4.658461570739746
    endloop
  endfacet
  facet normal 0.0 0.13416066615229155 0.9909595933526116
    outer loop
      vertex 1.836006999015808 126.50555419921875 4.590017318725586
      vertex -1.8633846044540405 126.0 4.658461570739746
      vertex 1.8041397333145142 126.0 4.658461570739746
    endloop
  endfacet
  facet normal 0.0 1.0 0.0
    outer loop
      vertex 1.213538408279419 138.0 0.0
      vertex -1.213538408279419 138.0 0.0
      vertex -1.213538408279419 138.0 3.033846139907837
    endloop
  endfacet
  facet normal 0.0 1.0 -0.0
    outer loop
      vertex 1.213538408279419 138.0 0.0
      vertex -1.213538408279419 138.0 3.033846139907837
      vertex 1.213538408279419 138.0 3.033846139907837
    endloop
  endfacet
  facet normal 0.9985369082974597 0.0540744187925369 0.0
    outer loop
      vertex 1.8633846044540405 126.0 -2.220446049250313E-16
      vertex 1.836006999015808 126.50555419921875 -2.1269001276022422E-16
      vertex 1.836006999015808 126.50555419921875 4.590017318725586
    endloop
  endfacet
  facet normal 0.9985369082974598 0.05407441879253691 -0.0
    outer loop
      vertex 1.8633846044540405 126.0 -2.220446049250313E-16
      vertex 1.836006999015808 126.50555419921875 4.590017318725586
      vertex 1.8633846044540405 126.0 4.658461570739746
    endloop
  endfacet
  facet normal 0.9985368970887666 0.05407462577159532 0.0
    outer loop
      vertex 1.836006999015808 126.50555419921875 -2.1269001276022422E-16
      vertex 1.213538408279419 138.0 0.0
      vertex 1.213538408279419 138.0 3.033846139907837
    endloop
  endfacet
  facet normal 0.9985368970887666 0.05407462577159532 -0.0
    outer loop
      vertex 1.836006999015808 126.50555419921875 -2.1269001276022422E-16
      vertex 1.213538408279419 138.0 3.033846139907837
      vertex 1.836006999015808 126.50555419921875 4.590017318725586
    endloop
  endfacet
  facet normal -0.9985368975609843 0.05407461705166778 0.0
    outer loop
      vertex -1.8633846044540405 126.0 2.220446049250313E-16
      vertex -1.8633846044540405 126.0 4.658461570739746
      vertex -1.213538408279419 138.0 3.033846139907837
    endloop
  endfacet
  facet normal -0.9985368975609843 0.05407461705166779 0.0
    outer loop
      vertex -1.8633846044540405 126.0 2.220446049250313E-16
      vertex -1.213538408279419 138.0 3.033846139907837
      vertex -1.213538408279419 138.0 0.0
    endloop
  endfacet
  facet normal 0.9987903642958363 0.04917121301931311 0.0
    outer loop
      vertex 2.4541537761688232 114.0 0.0
      vertex 1.8633846044540405 126.0 -2.220446049250313E-16
      vertex 1.8633846044540405 126.0 4.658461570739746
    endloop
  endfacet
  facet normal 0.9987903642958363 0.04917121301931311 -0.0
    outer loop
      vertex 2.4541537761688232 114.0 0.0
      vertex 1.8633846044540405 126.0 4.658461570739746
      vertex 2.4541537761688232 114.0 6.135384559631348
    endloop
  endfacet
  facet normal 0.9990198572586171 0.04426426101238409 0.0
    outer loop
      vertex 2.9858460426330566 102.0 0.0
      vertex 2.4541537761688232 114.0 0.0
      vertex 2.4541537761688232 114.0 6.135384559631348
    endloop
  endfacet
  facet normal 0.9990198572586171 0.044264261012384086 -0.0
    outer loop
      vertex 2.9858460426330566 102.0 0.0
      vertex 2.4541537761688232 114.0 6.135384559631348
      vertex 2.9858460426330566 102.0 7.464615345001221
    endloop
  endfacet
  facet normal 0.9992253268295318 0.03935411315752851 0.0
    outer loop
      vertex 3.4584615230560303 90.0 0.0
      vertex 2.9858460426330566 102.0 0.0
      vertex 2.9858460426330566 102.0 7.464615345001221
    endloop
  endfacet
  facet normal 0.9992253268295318 0.0393541131575285 -0.0
    outer loop
      vertex 3.4584615230560303 90.0 0.0
      vertex 2.9858460426330566 102.0 7.464615345001221
      vertex 3.4584615230560303 90.0 8.646153450012207
    endloop
  endfacet
  facet normal 0.9994067295720807 0.0344410929855337 0.0
    outer loop
      vertex 3.871999979019165 78.0 -4.440892098500626E-16
      vertex 3.4584615230560303 90.0 0.0
      vertex 3.4584615230560303 90.0 8.646153450012207
    endloop
  endfacet
  facet normal 0.9994067295720807 0.0344410929855337 -0.0
    outer loop
      vertex 3.871999979019165 78.0 -4.440892098500626E-16
      vertex 3.4584615230560303 90.0 8.646153450012207
      vertex 3.871999979019165 78.0 9.680000305175781
    endloop
  endfacet
  facet normal 0.9995640251851364 0.02952557460386 0.0
    outer loop
      vertex 4.226461410522461 66.0 0.0
      vertex 3.871999979019165 78.0 -4.440892098500626E-16
      vertex 3.871999979019165 78.0 9.680000305175781
    endloop
  endfacet
  facet normal 0.9995640251851364 0.02952557460386 -0.0
    outer loop
      vertex 4.226461410522461 66.0 0.0
      vertex 3.871999979019165 78.0 9.680000305175781
      vertex 4.226461410522461 66.0 10.566153526306152
    endloop
  endfacet
  facet normal 0.9996971792977082 0.0246079195424162 0.0
    outer loop
      vertex 4.521846294403076 54.0 0.0
      vertex 4.387578964233398 59.454612731933594 0.0
      vertex 4.387578964233398 59.454612731933594 10.96894645690918
    endloop
  endfacet
  facet normal 0.9996971792977082 0.0246079195424162 -0.0
    outer loop
      vertex 4.521846294403076 54.0 0.0
      vertex 4.387578964233398 59.454612731933594 10.96894645690918
      vertex 4.521846294403076 54.0 11.304615020751953
    endloop
  endfacet
  facet normal 0.9996971777916468 0.024607980726112196 0.0
    outer loop
      vertex 4.387578964233398 59.454612731933594 0.0
      vertex 4.226461410522461 66.0 0.0
      vertex 4.226461410522461 66.0 10.566153526306152
    endloop
  endfacet
  facet normal 0.9996971777916467 0.024607980726112193 -0.0
    outer loop
      vertex 4.387578964233398 59.454612731933594 0.0
      vertex 4.226461410522461 66.0 10.566153526306152
      vertex 4.387578964233398 59.454612731933594 10.96894645690918
    endloop
  endfacet
  facet normal 0.9998061640118404 0.019688433252268343 0.0
    outer loop
      vertex 4.613901615142822 49.32530212402344 0.0
      vertex 4.521846294403076 54.0 0.0
      vertex 4.521846294403076 54.0 11.304615020751953
    endloop
  endfacet
  facet normal 0.9998061630198287 0.01968848362793449 -2.0839483612445946E-8
    outer loop
      vertex 4.613901615142822 49.32530212402344 0.0
      vertex 4.521846294403076 54.0 11.304615020751953
      vertex 4.758153915405273 42.0 11.895384788513184
    endloop
  endfacet
  facet normal 0.9998061623536845 0.01968851745556089 0.0
    outer loop
      vertex 4.613901615142822 49.32530212402344 0.0
      vertex 4.758153915405273 42.0 11.895384788513184
      vertex 4.758153915405273 42.0 4.6769232749938965
    endloop
  endfacet
  facet normal 0.999890952825096 0.014767615194122131 0.0
    outer loop
      vertex 4.801909923553467 39.03736114501953 12.00477409362793
      vertex 4.935384750366211 30.0 12.338461875915527
      vertex 4.801909923553467 39.03736114501953 6.568454742431641
    endloop
  endfacet
  facet normal 0.9998909521965558 0.014767657751489843 -0.0
    outer loop
      vertex 4.758153915405273 42.0 4.6769232749938965
      vertex 4.758153915405273 42.0 11.895384788513184
      vertex 4.801909923553467 39.03736114501953 12.00477409362793
    endloop
  endfacet
  facet normal 0.9998909521965558 0.014767657751489844 0.0
    outer loop
      vertex 4.758153915405273 42.0 4.6769232749938965
      vertex 4.801909923553467 39.03736114501953 12.00477409362793
      vertex 4.801909923553467 39.03736114501953 6.568454742431641
    endloop
  endfacet
  facet normal -0.9987903642958363 0.04917121301931311 0.0
    outer loop
      vertex -2.4541537761688232 114.0 0.0
      vertex -2.4541537761688232 114.0 6.135384559631348
      vertex -1.8633846044540405 126.0 4.658461570739746
    endloop
  endfacet
  facet normal -0.9987903642958363 0.04917121301931311 0.0
    outer loop
      vertex -2.4541537761688232 114.0 0.0
      vertex -1.8633846044540405 126.0 4.658461570739746
      vertex -1.8633846044540405 126.0 2.220446049250313E-16
    endloop
  endfacet
  facet normal -0.9990198572586171 0.044264261012384086 0.0
    outer loop
      vertex -2.9858460426330566 102.0 0.0
      vertex -2.9858460426330566 102.0 7.464615345001221
      vertex -2.4541537761688232 114.0 6.135384559631348
    endloop
  endfacet
  facet normal -0.9990198572586171 0.04426426101238409 0.0
    outer loop
      vertex -2.9858460426330566 102.0 0.0
      vertex -2.4541537761688232 114.0 6.135384559631348
      vertex -2.4541537761688232 114.0 0.0
    endloop
  endfacet
  facet normal -0.9992253268295318 0.0393541131575285 0.0
    outer loop
      vertex -3.4584615230560303 90.0 0.0
      vertex -3.4584615230560303 90.0 8.646153450012207
      vertex -2.9858460426330566 102.0 7.464615345001221
    endloop
  endfacet
  facet normal -0.9992253268295318 0.03935411315752851 0.0
    outer loop
      vertex -3.4584615230560303 90.0 0.0
      vertex -2.9858460426330566 102.0 7.464615345001221
      vertex -2.9858460426330566 102.0 0.0
    endloop
  endfacet
  facet normal -0.9994067295720807 0.0344410929855337 0.0
    outer loop
      vertex -3.871999979019165 78.0 4.440892098500626E-16
      vertex -3.871999979019165 78.0 9.680000305175781
      vertex -3.4584615230560303 90.0 8.646153450012207
    endloop
  endfacet
  facet normal -0.9994067295720807 0.0344410929855337 0.0
    outer loop
      vertex -3.871999979019165 78.0 4.440892098500626E-16
      vertex -3.4584615230560303 90.0 8.646153450012207
      vertex -3.4584615230560303 90.0 0.0
    endloop
  endfacet
  facet normal -0.9995640251851364 0.02952557460386 0.0
    outer loop
      vertex -4.226461410522461 66.0 0.0
      vertex -4.226461410522461 66.0 10.566153526306152
      vertex -3.871999979019165 78.0 9.680000305175781
    endloop
  endfacet
  facet normal -0.9995640251851364 0.02952557460386 0.0
    outer loop
      vertex -4.226461410522461 66.0 0.0
      vertex -3.871999979019165 78.0 9.680000305175781
      vertex -3.871999979019165 78.0 4.440892098500626E-16
    endloop
  endfacet
  facet normal -0.9996971784762291 0.0246079529149983 0.0
    outer loop
      vertex -4.521846294403076 54.0 0.0
      vertex -4.521846294403076 54.0 11.304615020751953
      vertex -4.226461410522461 66.0 10.566153526306152
    endloop
  endfacet
  facet normal -0.9996971784762291 0.024607952914998298 0.0
    outer loop
      vertex -4.521846294403076 54.0 0.0
      vertex -4.226461410522461 66.0 10.566153526306152
      vertex -4.226461410522461 66.0 0.0
    endloop
  endfacet
  facet normal -0.9998061629996335 0.01968848465348154 0.0
    outer loop
      vertex -4.758153915405273 42.0 4.6769232749938965
      vertex -4.758153915405273 42.0 11.895384788513184
      vertex -4.521846294403076 54.0 11.304615020751953
    endloop
  endfacet
  facet normal -0.9998061629996335 0.01968848465348154 0.0
    outer loop
      vertex -4.758153915405273 42.0 4.6769232749938965
      vertex -4.521846294403076 54.0 11.304615020751953
      vertex -4.521846294403076 54.0 0.0
    endloop
  endfacet
  facet normal -0.9998061640118316 0.019688433252268173 -1.3193582922807414E-7
    outer loop
      vertex -4.758153915405273 42.0 4.6769232749938965
      vertex -4.521846294403076 54.0 0.0
      vertex -4.613901615142822 49.32530212402344 0.0
    endloop
  endfacet
  facet normal -0.999890952669918 0.014767625700964735 0.0
    outer loop
      vertex -4.935384750366211 30.0 12.338461875915527
      vertex -4.758153915405273 42.0 11.895384788513184
      vertex -4.758153915405273 42.0 4.6769232749938965
    endloop
  endfacet
  facet normal 0.9998061623536845 0.019688517455560887 -0.0
    outer loop
      vertex 4.758153915405273 42.0 0.0
      vertex 4.613901615142822 49.32530212402344 0.0
      vertex 4.758153915405273 42.0 4.6769232749938965
    endloop
  endfacet
  facet normal 0.9689024901490058 0.24744285114558445 0.0
    outer loop
      vertex 6.810105800628662 22.659223556518555 -5.433265840987516E-16
      vertex 6.105951309204102 25.416454315185547 -3.3925045966074017E-16
      vertex 6.105951309204102 25.416454315185547 15.264878273010254
    endloop
  endfacet
  facet normal 0.9689024901490058 0.24744285114558445 -0.0
    outer loop
      vertex 6.810105800628662 22.659223556518555 -5.433265840987516E-16
      vertex 6.105951309204102 25.416454315185547 15.264878273010254
      vertex 6.810105800628662 22.659223556518555 17.025264739990234
    endloop
  endfacet
  facet normal 0.9689025324778431 0.24744268540011896 0.0
    outer loop
      vertex 6.105951309204102 25.416454315185547 -3.3925045966074017E-16
      vertex 5.018723011016846 29.673675537109375 -2.4152866558270556E-17
      vertex 5.018723011016846 29.673675537109375 12.546807289123535
    endloop
  endfacet
  facet normal 0.9689025324778431 0.24744268540011893 -0.0
    outer loop
      vertex 6.105951309204102 25.416454315185547 -3.3925045966074017E-16
      vertex 5.018723011016846 29.673675537109375 12.546807289123535
      vertex 6.105951309204102 25.416454315185547 15.264878273010254
    endloop
  endfacet
  facet normal 0.9689017977477559 0.24744556233880374 0.0
    outer loop
      vertex 5.018723011016846 29.673675537109375 -2.4152866558270556E-17
      vertex 4.999397277832031 29.749347686767578 -1.8552029939396456E-17
      vertex 4.999397277832031 29.749347686767578 12.498494148254395
    endloop
  endfacet
  facet normal 0.9689017977477559 0.24744556233880374 -0.0
    outer loop
      vertex 5.018723011016846 29.673675537109375 -2.4152866558270556E-17
      vertex 4.999397277832031 29.749347686767578 12.498494148254395
      vertex 5.018723011016846 29.673675537109375 12.546807289123535
    endloop
  endfacet
  facet normal 0.9689024957148067 0.24744282935179004 0.0
    outer loop
      vertex 8.0 18.0 -8.881784197001252E-16
      vertex 6.810105800628662 22.659223556518555 -5.433265840987516E-16
      vertex 6.810105800628662 22.659223556518555 17.025264739990234
    endloop
  endfacet
  facet normal 0.9689024957148067 0.24744282935179004 -0.0
    outer loop
      vertex 8.0 18.0 -8.881784197001252E-16
      vertex 6.810105800628662 22.659223556518555 17.025264739990234
      vertex 8.0 18.0 20.0
    endloop
  endfacet
  facet normal 0.999890952825096 0.014767615194122131 0.0
    outer loop
      vertex 4.935384750366211 30.0 0.0
      vertex 4.801909923553467 39.03736114501953 0.0
      vertex 4.801909923553467 39.03736114501953 6.568454742431641
    endloop
  endfacet
  facet normal 0.999890952825096 0.014767615194122131 -0.0
    outer loop
      vertex 4.935384750366211 30.0 0.0
      vertex 4.801909923553467 39.03736114501953 6.568454742431641
      vertex 4.935384750366211 30.0 12.338461875915527
    endloop
  endfacet
  facet normal 0.9998909521965558 0.014767657751489843 0.0
    outer loop
      vertex 4.801909923553467 39.03736114501953 0.0
      vertex 4.758153915405273 42.0 0.0
      vertex 4.758153915405273 42.0 4.6769232749938965
    endloop
  endfacet
  facet normal 0.9998909521965558 0.014767657751489843 -0.0
    outer loop
      vertex 4.801909923553467 39.03736114501953 0.0
      vertex 4.758153915405273 42.0 4.6769232749938965
      vertex 4.801909923553467 39.03736114501953 6.568454742431641
    endloop
  endfacet
  facet normal 0.9689027060969377 0.24744200556500318 0.0
    outer loop
      vertex 4.999397277832031 29.749347686767578 -1.8552029939396456E-17
      vertex 4.935384750366211 30.0 0.0
      vertex 4.935384750366211 30.0 12.338461875915527
    endloop
  endfacet
  facet normal 0.9689027060969377 0.2474420055650032 -0.0
    outer loop
      vertex 4.999397277832031 29.749347686767578 -1.8552029939396456E-17
      vertex 4.935384750366211 30.0 12.338461875915527
      vertex 4.999397277832031 29.749347686767578 12.498494148254395
    endloop
  endfacet
  facet normal -0.9998061623536845 0.019688517455560887 0.0
    outer loop
      vertex -4.758153915405273 42.0 0.0
      vertex -4.758153915405273 42.0 4.6769232749938965
      vertex -4.613901615142822 49.32530212402344 0.0
    endloop
  endfacet
  facet normal -0.9689025081752093 0.24744278056105976 0.0
    outer loop
      vertex -6.810105800628662 22.659223556518555 17.025264739990234
      vertex -4.999397277832031 29.749347686767578 12.498494148254395
      vertex -4.999397277832031 29.749347686767578 1.8552029939396456E-17
    endloop
  endfacet
  facet normal -0.9689025081752092 0.2474427805610597 0.0
    outer loop
      vertex -6.810105800628662 22.659223556518555 17.025264739990234
      vertex -4.999397277832031 29.749347686767578 1.8552029939396456E-17
      vertex -6.810105800628662 22.659223556518555 5.433265840987516E-16
    endloop
  endfacet
  facet normal -0.9689024957148067 0.24744282935179004 0.0
    outer loop
      vertex -8.0 18.0 8.881784197001252E-16
      vertex -8.0 18.0 20.0
      vertex -6.810105800628662 22.659223556518555 17.025264739990234
    endloop
  endfacet
  facet normal -0.9689024957148067 0.24744282935179004 0.0
    outer loop
      vertex -8.0 18.0 8.881784197001252E-16
      vertex -6.810105800628662 22.659223556518555 17.025264739990234
      vertex -6.810105800628662 22.659223556518555 5.433265840987516E-16
    endloop
  endfacet
  facet normal -0.999890952669918 0.014767625700964734 0.0
    outer loop
      vertex -4.935384750366211 30.0 0.0
      vertex -4.935384750366211 30.0 12.338461875915527
      vertex -4.758153915405273 42.0 4.6769232749938965
    endloop
  endfacet
  facet normal -0.999890952669918 0.014767625700964734 0.0
    outer loop
      vertex -4.935384750366211 30.0 0.0
      vertex -4.758153915405273 42.0 4.6769232749938965
      vertex -4.758153915405273 42.0 0.0
    endloop
  endfacet
  facet normal -0.9689027060969377 0.24744200556500318 0.0
    outer loop
      vertex -4.999397277832031 29.749347686767578 12.498494148254395
      vertex -4.935384750366211 30.0 12.338461875915527
      vertex -4.935384750366211 30.0 0.0
    endloop
  endfacet
  facet normal -0.9689027060969377 0.2474420055650032 0.0
    outer loop
      vertex -4.999397277832031 29.749347686767578 12.498494148254395
      vertex -4.935384750366211 30.0 0.0
      vertex -4.999397277832031 29.749347686767578 1.8552029939396456E-17
    endloop
  endfacet
endsolid v3d.csg
