solid v3d.csg
  facet normal 0.0 0.0 -1.0
    outer loop
      vertex 43.5 -3.0 0.0
      vertex 9.0 -3.0 0.0
      vertex 9.0 -0.6206896305084229 0.0
    endloop
  endfacet
  facet normal 0.0 0.0 -1.0
    outer loop
      vertex 43.5 -3.0 0.0
      vertex 9.0 -0.6206896305084229 0.0
      vertex 9.0 0.0 0.0
    endloop
  endfacet
  facet normal 0.0 0.0 -1.0
    outer loop
      vertex 43.5 -3.0 0.0
      vertex 9.0 0.0 0.0
      vertex 40.5 0.0 0.0
    endloop
  endfacet
  facet normal 0.0 0.0 -1.0
    outer loop
      vertex 43.5 -3.0 0.0
      vertex 40.5 0.0 0.0
      vertex 40.5 19.0 0.0
    endloop
  endfacet
  facet normal 0.0 -0.0 -1.0
    outer loop
      vertex 43.5 22.0 0.0
      vertex 43.5 -3.0 0.0
      vertex 40.5 19.0 0.0
    endloop
  endfacet
  facet normal 0.0 0.0 -1.0
    outer loop
      vertex 43.5 22.0 0.0
      vertex 40.5 19.0 0.0
      vertex 37.5 19.0 0.0
    endloop
  endfacet
  facet normal 0.0 0.0 -1.0
    outer loop
      vertex 3.0 19.0 0.0
      vertex 0.0 19.0 0.0
      vertex -3.0 22.0 0.0
    endloop
  endfacet
  facet normal -0.0 0.0 -1.0
    outer loop
      vertex 0.0 19.0 0.0
      vertex -3.0 -3.0 0.0
      vertex -3.0 22.0 0.0
    endloop
  endfacet
  facet normal 0.0 -0.0 -1.0
    outer loop
      vertex 0.0 19.0 0.0
      vertex 0.0 0.0 0.0
      vertex -3.0 -3.0 0.0
    endloop
  endfacet
  facet normal 0.0 0.0 -1.0
    outer loop
      vertex 9.0 -3.0 0.0
      vertex -3.0 -3.0 0.0
      vertex 0.0 0.0 0.0
    endloop
  endfacet
  facet normal 0.0 0.0 -1.0
    outer loop
      vertex 9.0 -3.0 0.0
      vertex 0.0 0.0 0.0
      vertex 9.0 -0.6206896305084229 0.0
    endloop
  endfacet
  facet normal 0.0 0.0 -1.0
    outer loop
      vertex 9.0 -0.6206896305084229 0.0
      vertex 0.0 0.0 0.0
      vertex 9.0 0.0 0.0
    endloop
  endfacet
  facet normal 0.0 0.0 -1.0
    outer loop
      vertex 9.0 -12.0 0.0
      vertex -3.0 -12.0 0.0
      vertex -3.0 -3.0 0.0
    endloop
  endfacet
  facet normal -3.700743415417188E-17 -4.9343245538895844E-17 -1.0
    outer loop
      vertex 9.0 -12.0 0.0
      vertex -3.0 -3.0 0.0
      vertex 9.0 -3.0 -4.440892098500626E-16
    endloop
  endfacet
  facet normal -2.7755575615628914E-17 -5.551115123125783E-17 -1.0
    outer loop
      vertex 43.5 -73.0 3.9968028886505635E-15
      vertex 43.5 -89.0 4.884981308350689E-15
      vertex 27.5 -89.0 5.329070518200751E-15
    endloop
  endfacet
  facet normal -8.326672684688674E-17 0.0 -1.0
    outer loop
      vertex 43.5 -73.0 3.9968028886505635E-15
      vertex 27.5 -89.0 5.329070518200751E-15
      vertex 27.5 -73.0 5.329070518200751E-15
    endloop
  endfacet
  facet normal -8.326672684688674E-17 -6.55213588303371E-17 -1.0
    outer loop
      vertex 43.5 -12.0 0.0
      vertex 43.5 -73.0 3.9968028886505635E-15
      vertex 27.5 -73.0 5.329070518200751E-15
    endloop
  endfacet
  facet normal -0.0 -8.736181177378281E-17 -1.0
    outer loop
      vertex 43.5 -12.0 0.0
      vertex 27.5 -73.0 5.329070518200751E-15
      vertex 27.5 -12.0 0.0
    endloop
  endfacet
  facet normal 0.0 0.0 -1.0
    outer loop
      vertex 43.5 -12.0 0.0
      vertex 27.5 -12.0 0.0
      vertex 27.5 -3.0 0.0
    endloop
  endfacet
  facet normal -2.7755575615628914E-17 -4.9343245538895844E-17 -1.0
    outer loop
      vertex 43.5 -12.0 0.0
      vertex 27.5 -3.0 0.0
      vertex 43.5 -3.0 -4.440892098500626E-16
    endloop
  endfacet
  facet normal 0.0 -1.0 0.0
    outer loop
      vertex 40.5 19.0 0.0
      vertex 40.5 19.0 20.0
      vertex 37.5 19.0 20.0
    endloop
  endfacet
  facet normal 0.0 -1.0 0.0
    outer loop
      vertex 40.5 19.0 0.0
      vertex 37.5 19.0 20.0
      vertex 37.5 19.0 0.0
    endloop
  endfacet
  facet normal 0.0 -1.0 0.0
    outer loop
      vertex 3.0 19.0 0.0
      vertex 3.0 19.0 20.0
      vertex 0.0 19.0 20.0
    endloop
  endfacet
  facet normal 0.0 -1.0 0.0
    outer loop
      vertex 3.0 19.0 0.0
      vertex 0.0 19.0 20.0
      vertex 0.0 19.0 0.0
    endloop
  endfacet
  facet normal 1.0 0.0 -0.0
    outer loop
      vertex 43.5 -3.0 -4.440892098500626E-16
      vertex 43.5 -3.0 3.0
      vertex 43.5 -6.0 3.0
    endloop
  endfacet
  facet normal 1.0 0.0 0.0
    outer loop
      vertex 43.5 -3.0 -4.440892098500626E-16
      vertex 43.5 -6.0 3.0
      vertex 43.5 -12.0 0.0
    endloop
  endfacet
  facet normal 1.0 0.0 0.0
    outer loop
      vertex 43.5 -6.0 3.0
      vertex 43.5 -9.0 12.699999809265137
      vertex 43.5 -12.0 0.0
    endloop
  endfacet
  facet normal 1.0 0.0 -0.0
    outer loop
      vertex 43.5 -6.0 3.0
      vertex 43.5 -6.0 11.100000381469727
      vertex 43.5 -9.0 12.699999809265137
    endloop
  endfacet
  facet normal 1.0 0.0 0.0
    outer loop
      vertex 43.5 -9.0 12.699999809265137
      vertex 43.5 -6.0 11.100000381469727
      vertex 43.5 -5.5 11.949999809265137
    endloop
  endfacet
  facet normal 1.0 0.0 0.0
    outer loop
      vertex 43.5 -6.0 11.100000381469727
      vertex 43.5 -5.5 11.699999809265137
      vertex 43.5 -5.5 11.949999809265137
    endloop
  endfacet
  facet normal 1.0 0.0 0.0
    outer loop
      vertex 43.5 -11.291338920593262 3.0
      vertex 43.5 -29.0 3.0
      vertex 43.5 -11.8973388671875 0.4346007704734802
    endloop
  endfacet
  facet normal 1.0 0.0 -0.0
    outer loop
      vertex 43.5 -11.920400619506836 0.3369693458080292
      vertex 43.5 -11.8973388671875 0.4346007704734802
      vertex 43.5 -29.0 3.0
    endloop
  endfacet
  facet normal 1.0 0.0 0.0
    outer loop
      vertex 43.5 -11.920400619506836 0.3369693458080292
      vertex 43.5 -29.0 3.0
      vertex 43.5 -35.0 3.0
    endloop
  endfacet
  facet normal 1.0 0.0 0.0
    outer loop
      vertex 43.5 -11.920400619506836 0.3369693458080292
      vertex 43.5 -35.0 3.0
      vertex 43.5 -44.0 3.0
    endloop
  endfacet
  facet normal 1.0 0.0 0.0
    outer loop
      vertex 43.5 -11.920400619506836 0.3369693458080292
      vertex 43.5 -44.0 3.0
      vertex 43.5 -11.940463066101074 0.25203970074653625
    endloop
  endfacet
  facet normal 1.0 0.0 0.0
    outer loop
      vertex 43.5 -35.0 3.0
      vertex 43.5 -29.0 3.0
      vertex 43.5 -32.0 17.5
    endloop
  endfacet
  facet normal 1.0 0.0 0.0
    outer loop
      vertex 43.5 -11.940463066101074 0.25203970074653625
      vertex 43.5 -44.0 3.0
      vertex 43.5 -50.0 3.0
    endloop
  endfacet
  facet normal 1.0 0.0 0.0
    outer loop
      vertex 43.5 -11.940463066101074 0.25203970074653625
      vertex 43.5 -50.0 3.0
      vertex 43.5 -11.949028015136719 0.2157825231552124
    endloop
  endfacet
  facet normal 1.0 -0.0 0.0
    outer loop
      vertex 43.5 -35.0 17.5
      vertex 43.5 -35.0 3.0
      vertex 43.5 -32.0 17.5
    endloop
  endfacet
  facet normal 1.0 0.0 0.0
    outer loop
      vertex 43.5 -44.0 3.0
      vertex 43.5 -47.0 17.5
      vertex 43.5 -50.0 3.0
    endloop
  endfacet
  facet normal 1.0 -0.0 0.0
    outer loop
      vertex 43.5 -73.0 3.9968028886505635E-15
      vertex 43.5 -12.0 0.0
      vertex 43.5 -11.949028015136719 0.2157825231552124
    endloop
  endfacet
  facet normal 1.0 0.0 0.0
    outer loop
      vertex 43.5 -73.0 3.9968028886505635E-15
      vertex 43.5 -11.949028015136719 0.2157825231552124
      vertex 43.5 -50.0 3.0
    endloop
  endfacet
  facet normal 1.0 0.0 0.0
    outer loop
      vertex 43.5 -73.0 3.9968028886505635E-15
      vertex 43.5 -50.0 3.0
      vertex 43.5 -73.0 1.2307692766189575
    endloop
  endfacet
  facet normal 1.0 0.0 -0.0
    outer loop
      vertex 43.5 -44.0 3.0
      vertex 43.5 -44.0 17.5
      vertex 43.5 -47.0 17.5
    endloop
  endfacet
  facet normal 1.0 -0.0 0.0
    outer loop
      vertex 43.5 -73.0 1.454545497894287
      vertex 43.5 -73.0 1.2307692766189575
      vertex 43.5 -50.0 3.0
    endloop
  endfacet
  facet normal 1.0 0.0 0.0
    outer loop
      vertex 43.5 -73.0 1.454545497894287
      vertex 43.5 -50.0 3.0
      vertex 43.5 -56.0 3.0
    endloop
  endfacet
  facet normal 1.0 0.0 0.0
    outer loop
      vertex 43.5 -73.0 4.545454502105713
      vertex 43.5 -73.0 1.454545497894287
      vertex 43.5 -56.0 3.0
    endloop
  endfacet
  facet normal 1.0 -0.0 0.0
    outer loop
      vertex 43.5 -73.0 4.545454502105713
      vertex 43.5 -56.0 3.0
      vertex 43.5 -69.0 20.0
    endloop
  endfacet
  facet normal 1.0 0.0 0.0
    outer loop
      vertex 43.5 -73.0 4.545454502105713
      vertex 43.5 -69.0 20.0
      vertex 43.5 -73.0 17.200000762939453
    endloop
  endfacet
  facet normal 1.0 0.0 0.0
    outer loop
      vertex 43.5 -56.0 3.0
      vertex 43.5 -66.0 20.0
      vertex 43.5 -69.0 20.0
    endloop
  endfacet
  facet normal 1.0 0.0 -0.0
    outer loop
      vertex 43.5 -73.0 3.9968028886505635E-15
      vertex 43.5 -73.0 1.2307692766189575
      vertex 43.5 -89.0 4.884981308350689E-15
    endloop
  endfacet
  facet normal 1.0 0.0 0.0
    outer loop
      vertex 43.5 -73.0 1.454545497894287
      vertex 43.5 -89.0 4.884981308350689E-15
      vertex 43.5 -73.0 1.2307692766189575
    endloop
  endfacet
  facet normal 1.0 0.0 0.0
    outer loop
      vertex 43.5 -73.0 3.0
      vertex 43.5 -89.0 3.0
      vertex 43.5 -89.0 4.884981308350689E-15
    endloop
  endfacet
  facet normal 1.0 0.0 0.0
    outer loop
      vertex 43.5 -73.0 3.0
      vertex 43.5 -89.0 4.884981308350689E-15
      vertex 43.5 -73.0 1.454545497894287
    endloop
  endfacet
  facet normal 1.0 0.0 -0.0
    outer loop
      vertex 43.5 -73.0 3.0
      vertex 43.5 -73.0 4.545454502105713
      vertex 43.5 -89.0 6.0
    endloop
  endfacet
  facet normal 1.0 0.0 0.0
    outer loop
      vertex 43.5 -73.0 3.0
      vertex 43.5 -89.0 6.0
      vertex 43.5 -89.0 3.0
    endloop
  endfacet
  facet normal 1.0 0.0 -0.0
    outer loop
      vertex 43.5 -73.0 4.545454502105713
      vertex 43.5 -73.0 17.200000762939453
      vertex 43.5 -89.0 6.0
    endloop
  endfacet
  facet normal -0.0 -1.0 0.0
    outer loop
      vertex 36.5 -73.0 17.200000762939453
      vertex 34.5 -73.0 17.200000762939453
      vertex 34.5 -73.0 3.0
    endloop
  endfacet
  facet normal 0.0 -1.0 -0.0
    outer loop
      vertex 36.5 -73.0 17.200000762939453
      vertex 34.5 -73.0 3.0
      vertex 36.5 -73.0 3.0
    endloop
  endfacet
  facet normal 0.0 0.0 1.0
    outer loop
      vertex 34.5 -73.0 3.0
      vertex 34.5 -89.0 3.0
      vertex 36.5 -89.0 3.0
    endloop
  endfacet
  facet normal -0.0 0.0 1.0
    outer loop
      vertex 34.5 -73.0 3.0
      vertex 36.5 -89.0 3.0
      vertex 36.5 -73.0 3.0
    endloop
  endfacet
  facet normal -1.0 0.0 0.0
    outer loop
      vertex 36.5 -89.0 3.0
      vertex 36.5 -89.0 6.0
      vertex 36.5 -73.0 17.200000762939453
    endloop
  endfacet
  facet normal -1.0 0.0 0.0
    outer loop
      vertex 36.5 -89.0 3.0
      vertex 36.5 -73.0 17.200000762939453
      vertex 36.5 -73.0 3.0
    endloop
  endfacet
  facet normal 1.0 0.0 0.0
    outer loop
      vertex 34.5 -73.0 17.200000762939453
      vertex 34.5 -89.0 6.0
      vertex 34.5 -89.0 3.0
    endloop
  endfacet
  facet normal 1.0 0.0 0.0
    outer loop
      vertex 34.5 -73.0 17.200000762939453
      vertex 34.5 -89.0 3.0
      vertex 34.5 -73.0 3.0
    endloop
  endfacet
  facet normal 0.0 -1.0 0.0
    outer loop
      vertex 34.5 -89.0 3.0
      vertex 34.5 -89.0 6.0
      vertex 27.5 -89.0 6.0
    endloop
  endfacet
  facet normal 0.0 -1.0 0.0
    outer loop
      vertex 34.5 -89.0 3.0
      vertex 27.5 -89.0 6.0
      vertex 27.5 -89.0 3.0
    endloop
  endfacet
  facet normal 0.0 -0.573462370580792 0.8192319021668154
    outer loop
      vertex 34.5 -73.0 17.200000762939453
      vertex 27.5 -73.0 17.200000762939453
      vertex 27.5 -89.0 6.0
    endloop
  endfacet
  facet normal 0.0 -0.573462370580792 0.8192319021668154
    outer loop
      vertex 34.5 -73.0 17.200000762939453
      vertex 27.5 -89.0 6.0
      vertex 34.5 -89.0 6.0
    endloop
  endfacet
  facet normal -1.0 0.0 -0.0
    outer loop
      vertex 27.5 -73.0 4.545454502105713
      vertex 27.5 -73.0 3.0
      vertex 27.5 -89.0 3.0
    endloop
  endfacet
  facet normal -1.0 -0.0 0.0
    outer loop
      vertex 27.5 -73.0 4.545454502105713
      vertex 27.5 -89.0 3.0
      vertex 27.5 -89.0 6.0
    endloop
  endfacet
  facet normal -1.0 0.0 0.0
    outer loop
      vertex 27.5 -73.0 4.545454502105713
      vertex 27.5 -89.0 6.0
      vertex 27.5 -73.0 17.200000762939453
    endloop
  endfacet
  facet normal 0.0 -1.0 0.0
    outer loop
      vertex 36.5 -89.0 3.0
      vertex 43.5 -89.0 3.0
      vertex 43.5 -89.0 6.0
    endloop
  endfacet
  facet normal 0.0 -1.0 0.0
    outer loop
      vertex 36.5 -89.0 3.0
      vertex 43.5 -89.0 6.0
      vertex 36.5 -89.0 6.0
    endloop
  endfacet
  facet normal 0.0 -0.573462370580792 0.8192319021668154
    outer loop
      vertex 43.5 -73.0 17.200000762939453
      vertex 36.5 -73.0 17.200000762939453
      vertex 36.5 -89.0 6.0
    endloop
  endfacet
  facet normal 0.0 -0.573462370580792 0.8192319021668154
    outer loop
      vertex 43.5 -73.0 17.200000762939453
      vertex 36.5 -89.0 6.0
      vertex 43.5 -89.0 6.0
    endloop
  endfacet
  facet normal -0.0 -1.0 0.0
    outer loop
      vertex 43.5 -89.0 3.0
      vertex 27.5 -89.0 3.0
      vertex 27.5 -89.0 5.329070518200751E-15
    endloop
  endfacet
  facet normal 0.0 -1.0 -0.0
    outer loop
      vertex 43.5 -89.0 3.0
      vertex 27.5 -89.0 5.329070518200751E-15
      vertex 43.5 -89.0 4.884981308350689E-15
    endloop
  endfacet
  facet normal -1.0 0.0 0.0
    outer loop
      vertex 27.5 -73.0 5.329070518200751E-15
      vertex 27.5 -89.0 5.329070518200751E-15
      vertex 27.5 -73.0 1.2307692766189575
    endloop
  endfacet
  facet normal -1.0 0.0 -0.0
    outer loop
      vertex 27.5 -73.0 1.454545497894287
      vertex 27.5 -73.0 1.2307692766189575
      vertex 27.5 -89.0 5.329070518200751E-15
    endloop
  endfacet
  facet normal -1.0 0.0 -0.0
    outer loop
      vertex 27.5 -73.0 3.0
      vertex 27.5 -73.0 1.454545497894287
      vertex 27.5 -89.0 5.329070518200751E-15
    endloop
  endfacet
  facet normal -1.0 -0.0 0.0
    outer loop
      vertex 27.5 -73.0 3.0
      vertex 27.5 -89.0 5.329070518200751E-15
      vertex 27.5 -89.0 3.0
    endloop
  endfacet
  facet normal 0.0 -0.5734622394934563 0.8192319939279409
    outer loop
      vertex 43.5 -73.0 17.200000762939453
      vertex 43.5 -69.0 20.0
      vertex 27.5 -69.0 20.0
    endloop
  endfacet
  facet normal 0.0 -0.5734622394934563 0.8192319939279409
    outer loop
      vertex 43.5 -73.0 17.200000762939453
      vertex 27.5 -69.0 20.0
      vertex 27.5 -73.0 17.200000762939453
    endloop
  endfacet
  facet normal 0.0 0.0 1.0
    outer loop
      vertex 43.5 -66.0 20.0
      vertex 27.5 -66.0 20.0
      vertex 27.5 -69.0 20.0
    endloop
  endfacet
  facet normal 0.0 0.0 1.0
    outer loop
      vertex 43.5 -66.0 20.0
      vertex 27.5 -69.0 20.0
      vertex 43.5 -69.0 20.0
    endloop
  endfacet
  facet normal 0.0 0.8619342151577696 0.5070201265633939
    outer loop
      vertex 43.5 -56.0 3.0
      vertex 27.5 -56.0 3.0
      vertex 27.5 -66.0 20.0
    endloop
  endfacet
  facet normal 0.0 0.8619342151577696 0.5070201265633939
    outer loop
      vertex 43.5 -56.0 3.0
      vertex 27.5 -66.0 20.0
      vertex 43.5 -66.0 20.0
    endloop
  endfacet
  facet normal 0.0 0.0 1.0
    outer loop
      vertex 43.5 -50.0 3.0
      vertex 27.5 -50.0 3.0
      vertex 27.5 -56.0 3.0
    endloop
  endfacet
  facet normal 0.0 0.0 1.0
    outer loop
      vertex 43.5 -50.0 3.0
      vertex 27.5 -56.0 3.0
      vertex 43.5 -56.0 3.0
    endloop
  endfacet
  facet normal 0.0 0.0 1.0
    outer loop
      vertex 43.5 -35.0 3.0
      vertex 27.5 -35.0 3.0
      vertex 27.5 -44.0 3.0
    endloop
  endfacet
  facet normal 0.0 0.0 1.0
    outer loop
      vertex 43.5 -35.0 3.0
      vertex 27.5 -44.0 3.0
      vertex 43.5 -44.0 3.0
    endloop
  endfacet
  facet normal 0.0 0.0 1.0
    outer loop
      vertex 27.5 -11.291338920593262 3.0
      vertex 27.5 -29.0 3.0
      vertex 43.5 -29.0 3.0
    endloop
  endfacet
  facet normal -0.0 0.0 1.0
    outer loop
      vertex 27.5 -11.291338920593262 3.0
      vertex 43.5 -29.0 3.0
      vertex 43.5 -11.291338920593262 3.0
    endloop
  endfacet
  facet normal 0.0 0.0 1.0
    outer loop
      vertex 43.5 -3.0 3.0
      vertex 27.5 -3.0 3.0
      vertex 27.5 -5.5 3.0
    endloop
  endfacet
  facet normal 0.0 0.0 1.0
    outer loop
      vertex 43.5 -3.0 3.0
      vertex 27.5 -5.5 3.0
      vertex 43.5 -5.5 3.0
    endloop
  endfacet
  facet normal 0.0 0.0 1.0
    outer loop
      vertex 27.5 -5.5 3.0
      vertex 27.5 -6.0 3.0
      vertex 43.5 -6.0 3.0
    endloop
  endfacet
  facet normal -0.0 0.0 1.0
    outer loop
      vertex 27.5 -5.5 3.0
      vertex 43.5 -6.0 3.0
      vertex 43.5 -5.5 3.0
    endloop
  endfacet
  facet normal 0.0 -0.9792604195071027 0.2026056040359523
    outer loop
      vertex 43.5 -47.0 17.5
      vertex 27.5 -47.0 17.5
      vertex 27.5 -50.0 3.0
    endloop
  endfacet
  facet normal 0.0 -0.9792604195071027 0.2026056040359523
    outer loop
      vertex 43.5 -47.0 17.5
      vertex 27.5 -50.0 3.0
      vertex 43.5 -50.0 3.0
    endloop
  endfacet
  facet normal 0.0 0.0 1.0
    outer loop
      vertex 43.5 -44.0 17.5
      vertex 27.5 -44.0 17.5
      vertex 27.5 -47.0 17.5
    endloop
  endfacet
  facet normal 0.0 0.0 1.0
    outer loop
      vertex 43.5 -44.0 17.5
      vertex 27.5 -47.0 17.5
      vertex 43.5 -47.0 17.5
    endloop
  endfacet
  facet normal 0.0 0.0 1.0
    outer loop
      vertex 43.5 -32.0 17.5
      vertex 27.5 -32.0 17.5
      vertex 27.5 -35.0 17.5
    endloop
  endfacet
  facet normal 0.0 0.0 1.0
    outer loop
      vertex 43.5 -32.0 17.5
      vertex 27.5 -35.0 17.5
      vertex 43.5 -35.0 17.5
    endloop
  endfacet
  facet normal 0.0 1.0 0.0
    outer loop
      vertex 43.5 -44.0 3.0
      vertex 27.5 -44.0 3.0
      vertex 27.5 -44.0 17.5
    endloop
  endfacet
  facet normal 0.0 1.0 -0.0
    outer loop
      vertex 43.5 -44.0 3.0
      vertex 27.5 -44.0 17.5
      vertex 43.5 -44.0 17.5
    endloop
  endfacet
  facet normal -0.0 -1.0 0.0
    outer loop
      vertex 43.5 -35.0 17.5
      vertex 27.5 -35.0 17.5
      vertex 27.5 -35.0 3.0
    endloop
  endfacet
  facet normal 0.0 -1.0 -0.0
    outer loop
      vertex 43.5 -35.0 17.5
      vertex 27.5 -35.0 3.0
      vertex 43.5 -35.0 3.0
    endloop
  endfacet
  facet normal 0.0 0.9792604195071027 0.2026056040359523
    outer loop
      vertex 43.5 -29.0 3.0
      vertex 27.5 -29.0 3.0
      vertex 27.5 -32.0 17.5
    endloop
  endfacet
  facet normal 0.0 0.9792604195071027 0.2026056040359523
    outer loop
      vertex 43.5 -29.0 3.0
      vertex 27.5 -32.0 17.5
      vertex 43.5 -32.0 17.5
    endloop
  endfacet
  facet normal 0.0 -0.9732157851250691 0.2298935309733516
    outer loop
      vertex 43.5 -9.0 12.699999809265137
      vertex 27.5 -9.0 12.699999809265137
      vertex 27.5 -11.291338920593262 3.0
    endloop
  endfacet
  facet normal 0.0 -0.9732157851250691 0.2298935309733516
    outer loop
      vertex 43.5 -9.0 12.699999809265137
      vertex 27.5 -11.291338920593262 3.0
      vertex 43.5 -11.291338920593262 3.0
    endloop
  endfacet
  facet normal 0.0 0.20952909844731366 0.9778024119953151
    outer loop
      vertex 27.5 -5.722911357879639 11.997766494750977
      vertex 27.5 -9.0 12.699999809265137
      vertex 43.5 -9.0 12.699999809265137
    endloop
  endfacet
  facet normal -0.0 0.20952909844731366 0.9778024119953151
    outer loop
      vertex 27.5 -5.722911357879639 11.997766494750977
      vertex 43.5 -9.0 12.699999809265137
      vertex 43.5 -5.722911357879639 11.997766494750977
    endloop
  endfacet
  facet normal 0.0 0.2095289458864818 0.9778024446869111
    outer loop
      vertex 43.5 -5.5 11.949999809265137
      vertex 27.5 -5.5 11.949999809265137
      vertex 27.5 -5.722911357879639 11.997766494750977
    endloop
  endfacet
  facet normal 0.0 0.2095289458864818 0.9778024446869111
    outer loop
      vertex 43.5 -5.5 11.949999809265137
      vertex 27.5 -5.722911357879639 11.997766494750977
      vertex 43.5 -5.722911357879639 11.997766494750977
    endloop
  endfacet
  facet normal 0.0 1.0 0.0
    outer loop
      vertex 43.5 -5.5 11.699999809265137
      vertex 27.5 -5.5 11.699999809265137
      vertex 27.5 -5.5 11.949999809265137
    endloop
  endfacet
  facet normal 0.0 1.0 -0.0
    outer loop
      vertex 43.5 -5.5 11.699999809265137
      vertex 27.5 -5.5 11.949999809265137
      vertex 43.5 -5.5 11.949999809265137
    endloop
  endfacet
  facet normal 0.0 0.7682209793377356 -0.6401847599758763
    outer loop
      vertex 43.5 -6.0 11.100000381469727
      vertex 27.5 -6.0 11.100000381469727
      vertex 27.5 -5.5 11.699999809265137
    endloop
  endfacet
  facet normal 0.0 0.7682209793377356 -0.6401847599758763
    outer loop
      vertex 43.5 -6.0 11.100000381469727
      vertex 27.5 -5.5 11.699999809265137
      vertex 43.5 -5.5 11.699999809265137
    endloop
  endfacet
  facet normal 0.0 1.0 0.0
    outer loop
      vertex 43.5 -6.0 3.0
      vertex 27.5 -6.0 3.0
      vertex 27.5 -6.0 11.100000381469727
    endloop
  endfacet
  facet normal 0.0 1.0 -0.0
    outer loop
      vertex 43.5 -6.0 3.0
      vertex 27.5 -6.0 11.100000381469727
      vertex 43.5 -6.0 11.100000381469727
    endloop
  endfacet
  facet normal -1.0 0.0 0.0
    outer loop
      vertex 27.5 -11.291338920593262 3.0
      vertex 27.5 -10.714285850524902 5.442857265472412
      vertex 27.5 -7.827067852020264 8.90751838684082
    endloop
  endfacet
  facet normal -1.0 0.0 0.0
    outer loop
      vertex 27.5 -11.291338920593262 3.0
      vertex 27.5 -7.827067852020264 8.90751838684082
      vertex 27.5 -7.251287460327148 7.045828819274902
    endloop
  endfacet
  facet normal -1.0 0.0 0.0
    outer loop
      vertex 27.5 -11.291338920593262 3.0
      vertex 27.5 -7.251287460327148 7.045828819274902
      vertex 27.5 -8.5 3.0
    endloop
  endfacet
  facet normal -1.0 0.0 0.0
    outer loop
      vertex 27.5 -6.0 11.100000381469727
      vertex 27.5 -7.251287460327148 7.045828819274902
      vertex 27.5 -7.827067852020264 8.90751838684082
    endloop
  endfacet
  facet normal -1.0 0.0 -0.0
    outer loop
      vertex 27.5 -7.251287460327148 7.045828819274902
      vertex 27.5 -6.0 3.0
      vertex 27.5 -8.5 3.0
    endloop
  endfacet
  facet normal -1.0 0.0 -0.0
    outer loop
      vertex 27.5 -6.0 11.100000381469727
      vertex 27.5 -6.0 3.0
      vertex 27.5 -7.251287460327148 7.045828819274902
    endloop
  endfacet
  facet normal -1.0 0.0 0.0
    outer loop
      vertex 27.5 -10.714285850524902 5.442857265472412
      vertex 27.5 -9.0 12.699999809265137
      vertex 27.5 -7.827067852020264 8.90751838684082
    endloop
  endfacet
  facet normal -1.0 0.0 0.0
    outer loop
      vertex 27.5 -9.0 12.699999809265137
      vertex 27.5 -6.0 11.100000381469727
      vertex 27.5 -7.827067852020264 8.90751838684082
    endloop
  endfacet
  facet normal -1.0 0.0 0.0
    outer loop
      vertex 27.5 -6.0 11.100000381469727
      vertex 27.5 -9.0 12.699999809265137
      vertex 27.5 -5.722911357879639 11.997766494750977
    endloop
  endfacet
  facet normal -1.0 -0.0 0.0
    outer loop
      vertex 27.5 -5.5 11.949999809265137
      vertex 27.5 -6.0 11.100000381469727
      vertex 27.5 -5.722911357879639 11.997766494750977
    endloop
  endfacet
  facet normal -1.0 0.0 -0.0
    outer loop
      vertex 27.5 -5.5 11.949999809265137
      vertex 27.5 -5.5 11.699999809265137
      vertex 27.5 -6.0 11.100000381469727
    endloop
  endfacet
  facet normal -1.0 0.0 -0.0
    outer loop
      vertex 27.5 -32.0 17.5
      vertex 27.5 -29.0 3.0
      vertex 27.5 -35.0 3.0
    endloop
  endfacet
  facet normal -1.0 -0.0 0.0
    outer loop
      vertex 27.5 -32.0 17.5
      vertex 27.5 -35.0 3.0
      vertex 27.5 -35.0 17.5
    endloop
  endfacet
  facet normal -1.0 0.0 0.0
    outer loop
      vertex 27.5 -50.0 3.0
      vertex 27.5 -47.0 17.5
      vertex 27.5 -44.0 3.0
    endloop
  endfacet
  facet normal -1.0 0.0 0.0
    outer loop
      vertex 27.5 -47.0 17.5
      vertex 27.5 -44.0 17.5
      vertex 27.5 -44.0 3.0
    endloop
  endfacet
  facet normal -1.0 0.0 0.0
    outer loop
      vertex 27.5 -11.8973388671875 0.4346007704734802
      vertex 27.5 -29.0 3.0
      vertex 27.5 -11.291338920593262 3.0
    endloop
  endfacet
  facet normal -1.0 0.0 0.0
    outer loop
      vertex 27.5 -35.0 3.0
      vertex 27.5 -29.0 3.0
      vertex 27.5 -11.8973388671875 0.4346007704734802
    endloop
  endfacet
  facet normal -1.0 0.0 0.0
    outer loop
      vertex 27.5 -35.0 3.0
      vertex 27.5 -11.8973388671875 0.4346007704734802
      vertex 27.5 -11.920400619506836 0.3369693458080292
    endloop
  endfacet
  facet normal -1.0 0.0 0.0
    outer loop
      vertex 27.5 -11.940463066101074 0.25203970074653625
      vertex 27.5 -44.0 3.0
      vertex 27.5 -35.0 3.0
    endloop
  endfacet
  facet normal -1.0 0.0 0.0
    outer loop
      vertex 27.5 -11.940463066101074 0.25203970074653625
      vertex 27.5 -35.0 3.0
      vertex 27.5 -11.920400619506836 0.3369693458080292
    endloop
  endfacet
  facet normal -1.0 0.0 0.0
    outer loop
      vertex 27.5 -11.949028015136719 0.2157825231552124
      vertex 27.5 -50.0 3.0
      vertex 27.5 -44.0 3.0
    endloop
  endfacet
  facet normal -1.0 0.0 0.0
    outer loop
      vertex 27.5 -11.949028015136719 0.2157825231552124
      vertex 27.5 -44.0 3.0
      vertex 27.5 -11.940463066101074 0.25203970074653625
    endloop
  endfacet
  facet normal -1.0 0.0 0.0
    outer loop
      vertex 27.5 -55.74026107788086 2.558441638946533
      vertex 27.5 -50.0 3.0
      vertex 27.5 -11.949028015136719 0.2157825231552124
    endloop
  endfacet
  facet normal -1.0 0.0 0.0
    outer loop
      vertex 27.5 -55.74026107788086 2.558441638946533
      vertex 27.5 -11.949028015136719 0.2157825231552124
      vertex 27.5 -12.0 0.0
    endloop
  endfacet
  facet normal -1.0 0.0 0.0
    outer loop
      vertex 27.5 -55.74026107788086 2.558441638946533
      vertex 27.5 -12.0 0.0
      vertex 27.5 -54.235294342041016 3.552713678800501E-15
    endloop
  endfacet
  facet normal -1.0 0.0 0.0
    outer loop
      vertex 27.5 -56.0 3.0
      vertex 27.5 -50.0 3.0
      vertex 27.5 -55.74026107788086 2.558441638946533
    endloop
  endfacet
  facet normal -1.0 0.0 0.0
    outer loop
      vertex 27.5 -5.5 3.0
      vertex 27.5 -3.0 3.0
      vertex 27.5 -3.0 0.0
    endloop
  endfacet
  facet normal -1.0 0.0 0.0
    outer loop
      vertex 27.5 -5.5 3.0
      vertex 27.5 -3.0 0.0
      vertex 27.5 -5.5 2.5
    endloop
  endfacet
  facet normal -1.0 0.0 0.0
    outer loop
      vertex 27.5 -5.5 2.5
      vertex 27.5 -3.0 0.0
      vertex 27.5 -5.5 0.0
    endloop
  endfacet
  facet normal -1.0 0.0 0.0
    outer loop
      vertex 27.5 -6.0 3.0
      vertex 27.5 -5.5 3.0
      vertex 27.5 -5.5 2.5
    endloop
  endfacet
  facet normal -1.0 0.0 0.0
    outer loop
      vertex 27.5 -6.0 3.0
      vertex 27.5 -5.5 2.5
      vertex 27.5 -5.5 0.0
    endloop
  endfacet
  facet normal -1.0 0.0 0.0
    outer loop
      vertex 27.5 -6.0 3.0
      vertex 27.5 -5.5 0.0
      vertex 27.5 -6.0 0.0
    endloop
  endfacet
  facet normal -1.0 0.0 -0.0
    outer loop
      vertex 27.5 -6.0 3.0
      vertex 27.5 -6.0 0.0
      vertex 27.5 -9.0 0.0
    endloop
  endfacet
  facet normal -1.0 0.0 0.0
    outer loop
      vertex 27.5 -12.0 0.0
      vertex 27.5 -6.0 3.0
      vertex 27.5 -9.0 0.0
    endloop
  endfacet
  facet normal -1.0 0.0 0.0
    outer loop
      vertex 27.5 -12.0 0.0
      vertex 27.5 -11.291338920593262 3.0
      vertex 27.5 -6.0 3.0
    endloop
  endfacet
  facet normal -1.0 0.0 0.0
    outer loop
      vertex 27.5 -73.0 5.329070518200751E-15
      vertex 27.5 -73.0 1.2307692766189575
      vertex 27.5 -55.74026107788086 2.558441638946533
    endloop
  endfacet
  facet normal -1.0 0.0 0.0
    outer loop
      vertex 27.5 -73.0 5.329070518200751E-15
      vertex 27.5 -55.74026107788086 2.558441638946533
      vertex 27.5 -54.235294342041016 3.552713678800501E-15
    endloop
  endfacet
  facet normal -1.0 0.0 0.0
    outer loop
      vertex 27.5 -73.0 1.454545497894287
      vertex 27.5 -56.0 3.0
      vertex 27.5 -55.74026107788086 2.558441638946533
    endloop
  endfacet
  facet normal -1.0 0.0 0.0
    outer loop
      vertex 27.5 -73.0 1.454545497894287
      vertex 27.5 -55.74026107788086 2.558441638946533
      vertex 27.5 -73.0 1.2307692766189575
    endloop
  endfacet
  facet normal -1.0 0.0 0.0
    outer loop
      vertex 27.5 -73.0 4.545454502105713
      vertex 27.5 -56.0 3.0
      vertex 27.5 -73.0 1.454545497894287
    endloop
  endfacet
  facet normal -1.0 0.0 0.0
    outer loop
      vertex 27.5 -73.0 4.545454502105713
      vertex 27.5 -73.0 17.200000762939453
      vertex 27.5 -69.0 20.0
    endloop
  endfacet
  facet normal -1.0 0.0 0.0
    outer loop
      vertex 27.5 -73.0 4.545454502105713
      vertex 27.5 -69.0 20.0
      vertex 27.5 -56.0 3.0
    endloop
  endfacet
  facet normal -1.0 0.0 0.0
    outer loop
      vertex 27.5 -69.0 20.0
      vertex 27.5 -66.0 20.0
      vertex 27.5 -56.0 3.0
    endloop
  endfacet
  facet normal 1.0 0.0 0.0
    outer loop
      vertex 9.0 -6.0 3.0
      vertex 9.0 -7.827067852020264 8.90751838684082
      vertex 9.0 -10.714285850524902 5.442857265472412
    endloop
  endfacet
  facet normal 1.0 0.0 0.0
    outer loop
      vertex 9.0 -6.0 3.0
      vertex 9.0 -10.714285850524902 5.442857265472412
      vertex 9.0 -11.291338920593262 3.0
    endloop
  endfacet
  facet normal 1.0 0.0 -0.0
    outer loop
      vertex 9.0 -6.0 3.0
      vertex 9.0 -6.0 11.100000381469727
      vertex 9.0 -7.827067852020264 8.90751838684082
    endloop
  endfacet
  facet normal 1.0 0.0 0.0
    outer loop
      vertex 9.0 -7.827067852020264 8.90751838684082
      vertex 9.0 -9.0 12.699999809265137
      vertex 9.0 -10.714285850524902 5.442857265472412
    endloop
  endfacet
  facet normal 1.0 0.0 0.0
    outer loop
      vertex 9.0 -6.0 11.100000381469727
      vertex 9.0 -9.0 12.699999809265137
      vertex 9.0 -7.827067852020264 8.90751838684082
    endloop
  endfacet
  facet normal 1.0 0.0 0.0
    outer loop
      vertex 9.0 -9.0 12.699999809265137
      vertex 9.0 -6.0 11.100000381469727
      vertex 9.0 -5.5 11.949999809265137
    endloop
  endfacet
  facet normal 1.0 0.0 0.0
    outer loop
      vertex 9.0 -6.0 11.100000381469727
      vertex 9.0 -5.5 11.699999809265137
      vertex 9.0 -5.5 11.949999809265137
    endloop
  endfacet
  facet normal 1.0 0.0 -0.0
    outer loop
      vertex 9.0 -3.0 -4.440892098500626E-16
      vertex 9.0 -3.0 3.0
      vertex 9.0 -6.0 3.0
    endloop
  endfacet
  facet normal 1.0 0.0 0.0
    outer loop
      vertex 9.0 -3.0 -4.440892098500626E-16
      vertex 9.0 -6.0 3.0
      vertex 9.0 -12.0 0.0
    endloop
  endfacet
  facet normal 1.0 0.0 0.0
    outer loop
      vertex 9.0 -6.0 3.0
      vertex 9.0 -11.291338920593262 3.0
      vertex 9.0 -12.0 0.0
    endloop
  endfacet
  facet normal 0.0 -1.0 0.0
    outer loop
      vertex 43.5 -3.0 17.5
      vertex 43.5 -3.0 20.0
      vertex 9.0 -3.0 20.0
    endloop
  endfacet
  facet normal 0.0 -1.0 0.0
    outer loop
      vertex 43.5 -3.0 17.5
      vertex 9.0 -3.0 20.0
      vertex 9.0 -3.0 17.5
    endloop
  endfacet
  facet normal 0.0 -1.0 0.0
    outer loop
      vertex 43.5 -3.0 11.414285659790039
      vertex 43.5 -3.0 17.5
      vertex 9.0 -3.0 17.5
    endloop
  endfacet
  facet normal 0.0 -1.0 0.0
    outer loop
      vertex 43.5 -3.0 11.414285659790039
      vertex 9.0 -3.0 17.5
      vertex 9.0 -3.0 11.414285659790039
    endloop
  endfacet
  facet normal 0.0 -1.0 0.0
    outer loop
      vertex 43.5 -3.0 3.0
      vertex 43.5 -3.0 11.414285659790039
      vertex 9.0 -3.0 11.414285659790039
    endloop
  endfacet
  facet normal 0.0 -1.0 0.0
    outer loop
      vertex 43.5 -3.0 3.0
      vertex 9.0 -3.0 11.414285659790039
      vertex 9.0 -3.0 3.0
    endloop
  endfacet
  facet normal -0.0 -1.0 0.0
    outer loop
      vertex 27.5 -3.0 3.0
      vertex 9.0 -3.0 3.0
      vertex 9.0 -3.0 0.0
    endloop
  endfacet
  facet normal 0.0 -1.0 -0.0
    outer loop
      vertex 27.5 -3.0 3.0
      vertex 9.0 -3.0 0.0
      vertex 27.5 -3.0 0.0
    endloop
  endfacet
  facet normal 1.0 0.0 0.0
    outer loop
      vertex 43.5 19.0 20.0
      vertex 43.5 -3.0 20.0
      vertex 43.5 -3.0 0.0
    endloop
  endfacet
  facet normal 1.0 0.0 0.0
    outer loop
      vertex 43.5 19.0 20.0
      vertex 43.5 -3.0 0.0
      vertex 43.5 19.0 0.0
    endloop
  endfacet
  facet normal -1.0 0.0 0.0
    outer loop
      vertex 40.5 0.0 0.0
      vertex 40.5 0.0 20.0
      vertex 40.5 19.0 20.0
    endloop
  endfacet
  facet normal -1.0 0.0 0.0
    outer loop
      vertex 40.5 0.0 0.0
      vertex 40.5 19.0 20.0
      vertex 40.5 19.0 0.0
    endloop
  endfacet
  facet normal -0.0 1.0 0.0
    outer loop
      vertex 9.0 0.0 20.0
      vertex 40.5 0.0 20.0
      vertex 40.5 0.0 0.0
    endloop
  endfacet
  facet normal 0.0 1.0 0.0
    outer loop
      vertex 9.0 0.0 20.0
      vertex 40.5 0.0 0.0
      vertex 9.0 0.0 0.0
    endloop
  endfacet
  facet normal 0.0 0.0 1.0
    outer loop
      vertex 9.0 -3.0 20.0
      vertex 40.5 -3.0 20.0
      vertex 40.5 -2.7931034564971924 20.0
    endloop
  endfacet
  facet normal 0.0 0.0 1.0
    outer loop
      vertex 9.0 -3.0 20.0
      vertex 40.5 -2.7931034564971924 20.0
      vertex 9.0 -0.6206896305084229 20.0
    endloop
  endfacet
  facet normal 0.0 0.0 1.0
    outer loop
      vertex 40.5 0.0 20.0
      vertex 9.0 0.0 20.0
      vertex 9.0 -0.6206896305084229 20.0
    endloop
  endfacet
  facet normal 0.0 0.0 1.0
    outer loop
      vertex 40.5 0.0 20.0
      vertex 9.0 -0.6206896305084229 20.0
      vertex 40.5 -2.7931034564971924 20.0
    endloop
  endfacet
  facet normal 0.0 0.0 1.0
    outer loop
      vertex 40.5 -3.0 20.0
      vertex 43.5 -3.0 20.0
      vertex 40.5 -2.7931034564971924 20.0
    endloop
  endfacet
  facet normal 0.0 0.0 1.0
    outer loop
      vertex 40.5 0.0 20.0
      vertex 40.5 -2.7931034564971924 20.0
      vertex 43.5 -3.0 20.0
    endloop
  endfacet
  facet normal 0.0 0.0 1.0
    outer loop
      vertex 40.5 19.0 20.0
      vertex 40.5 0.0 20.0
      vertex 43.5 -3.0 20.0
    endloop
  endfacet
  facet normal -0.0 0.0 1.0
    outer loop
      vertex 40.5 19.0 20.0
      vertex 43.5 -3.0 20.0
      vertex 43.5 19.0 20.0
    endloop
  endfacet
  facet normal 0.0 -0.9732157851250691 0.2298935309733516
    outer loop
      vertex 9.0 -9.0 12.699999809265137
      vertex -3.0 -9.0 12.699999809265137
      vertex -3.0 -11.291338920593262 3.0
    endloop
  endfacet
  facet normal 0.0 -0.9732157851250691 0.2298935309733516
    outer loop
      vertex 9.0 -9.0 12.699999809265137
      vertex -3.0 -11.291338920593262 3.0
      vertex 9.0 -11.291338920593262 3.0
    endloop
  endfacet
  facet normal 0.0 -0.9732158182482556 0.2298933907518403
    outer loop
      vertex -3.0 -11.291338920593262 3.0
      vertex -3.0 -12.0 0.0
      vertex 9.0 -12.0 0.0
    endloop
  endfacet
  facet normal 0.0 -0.9732158182482556 0.2298933907518403
    outer loop
      vertex -3.0 -11.291338920593262 3.0
      vertex 9.0 -12.0 0.0
      vertex 9.0 -11.291338920593262 3.0
    endloop
  endfacet
  facet normal 0.0 0.20952908873087348 0.9778024140774095
    outer loop
      vertex 9.0 -5.5 11.949999809265137
      vertex -3.0 -5.5 11.949999809265137
      vertex -3.0 -9.0 12.699999809265137
    endloop
  endfacet
  facet normal 0.0 0.20952908873087348 0.9778024140774095
    outer loop
      vertex 9.0 -5.5 11.949999809265137
      vertex -3.0 -9.0 12.699999809265137
      vertex 9.0 -9.0 12.699999809265137
    endloop
  endfacet
  facet normal -1.0 0.0 0.0
    outer loop
      vertex -3.0 -3.0 11.414285659790039
      vertex -3.0 -3.0 20.0
      vertex -3.0 19.0 20.0
    endloop
  endfacet
  facet normal -1.0 0.0 0.0
    outer loop
      vertex -3.0 -3.0 11.414285659790039
      vertex -3.0 19.0 20.0
      vertex -3.0 19.0 6.699999809265137
    endloop
  endfacet
  facet normal -0.0 -1.0 0.0
    outer loop
      vertex 9.0 -3.0 20.0
      vertex -3.0 -3.0 20.0
      vertex -3.0 -3.0 17.5
    endloop
  endfacet
  facet normal 0.0 -1.0 -0.0
    outer loop
      vertex 9.0 -3.0 20.0
      vertex -3.0 -3.0 17.5
      vertex 9.0 -3.0 17.5
    endloop
  endfacet
  facet normal 0.0 -1.0 0.0
    outer loop
      vertex -3.0 -3.0 17.5
      vertex -3.0 -3.0 11.414285659790039
      vertex 9.0 -3.0 11.414285659790039
    endloop
  endfacet
  facet normal 0.0 -1.0 0.0
    outer loop
      vertex -3.0 -3.0 17.5
      vertex 9.0 -3.0 11.414285659790039
      vertex 9.0 -3.0 17.5
    endloop
  endfacet
  facet normal 0.0 1.0 0.0
    outer loop
      vertex 0.0 0.0 10.771428108215332
      vertex 0.0 0.0 20.0
      vertex 9.0 0.0 20.0
    endloop
  endfacet
  facet normal 0.0 1.0 0.0
    outer loop
      vertex 0.0 0.0 10.771428108215332
      vertex 9.0 0.0 20.0
      vertex 9.0 0.0 10.771428108215332
    endloop
  endfacet
  facet normal 1.0 0.0 -0.0
    outer loop
      vertex 0.0 19.0 6.699999809265137
      vertex 0.0 19.0 20.0
      vertex 0.0 0.0 20.0
    endloop
  endfacet
  facet normal 1.0 0.0 0.0
    outer loop
      vertex 0.0 19.0 6.699999809265137
      vertex 0.0 0.0 20.0
      vertex 0.0 0.0 10.771428108215332
    endloop
  endfacet
  facet normal 0.0 0.0 1.0
    outer loop
      vertex -3.0 19.0 20.0
      vertex -3.0 0.0 20.0
      vertex -2.590909004211426 0.0 20.0
    endloop
  endfacet
  facet normal -0.0 0.0 1.0
    outer loop
      vertex -3.0 19.0 20.0
      vertex -2.590909004211426 0.0 20.0
      vertex 0.0 19.0 20.0
    endloop
  endfacet
  facet normal 0.0 -0.0 1.0
    outer loop
      vertex 0.0 0.0 20.0
      vertex 0.0 19.0 20.0
      vertex -2.590909004211426 0.0 20.0
    endloop
  endfacet
  facet normal -0.0 0.0 1.0
    outer loop
      vertex -3.0 0.0 20.0
      vertex -3.0 -3.0 20.0
      vertex -2.590909004211426 0.0 20.0
    endloop
  endfacet
  facet normal 0.0 0.0 1.0
    outer loop
      vertex -3.0 -3.0 20.0
      vertex 0.0 0.0 20.0
      vertex -2.590909004211426 0.0 20.0
    endloop
  endfacet
  facet normal 0.0 0.0 1.0
    outer loop
      vertex 0.0 0.0 20.0
      vertex -3.0 -3.0 20.0
      vertex 9.0 -3.0 20.0
    endloop
  endfacet
  facet normal 0.0 0.0 1.0
    outer loop
      vertex 0.0 0.0 20.0
      vertex 9.0 -3.0 20.0
      vertex 9.0 -0.6206896305084229 20.0
    endloop
  endfacet
  facet normal 0.0 0.0 1.0
    outer loop
      vertex 9.0 0.0 20.0
      vertex 0.0 0.0 20.0
      vertex 9.0 -0.6206896305084229 20.0
    endloop
  endfacet
  facet normal 0.0 1.0 0.0
    outer loop
      vertex 9.0 -5.5 11.699999809265137
      vertex -3.0 -5.5 11.699999809265137
      vertex -3.0 -5.5 11.949999809265137
    endloop
  endfacet
  facet normal 0.0 1.0 -0.0
    outer loop
      vertex 9.0 -5.5 11.699999809265137
      vertex -3.0 -5.5 11.949999809265137
      vertex 9.0 -5.5 11.949999809265137
    endloop
  endfacet
  facet normal 0.0 0.0 1.0
    outer loop
      vertex 9.0 -3.0 3.0
      vertex -3.0 -3.0 3.0
      vertex -3.0 -5.5 3.0
    endloop
  endfacet
  facet normal 0.0 0.0 1.0
    outer loop
      vertex 9.0 -3.0 3.0
      vertex -3.0 -5.5 3.0
      vertex 9.0 -5.5 3.0
    endloop
  endfacet
  facet normal -1.0 0.0 0.0
    outer loop
      vertex -3.0 -3.0 3.0
      vertex -3.0 -3.0 11.414285659790039
      vertex -3.0 19.0 6.699999809265137
    endloop
  endfacet
  facet normal -1.0 0.0 0.0
    outer loop
      vertex -3.0 -3.0 3.0
      vertex -3.0 19.0 6.699999809265137
      vertex -3.0 19.0 3.0
    endloop
  endfacet
  facet normal 0.0 -1.0 0.0
    outer loop
      vertex -3.0 -3.0 11.414285659790039
      vertex -3.0 -3.0 3.0
      vertex 9.0 -3.0 3.0
    endloop
  endfacet
  facet normal 0.0 -1.0 0.0
    outer loop
      vertex -3.0 -3.0 11.414285659790039
      vertex 9.0 -3.0 3.0
      vertex 9.0 -3.0 11.414285659790039
    endloop
  endfacet
  facet normal 0.0 1.0 0.0
    outer loop
      vertex 0.0 0.0 3.0
      vertex 0.0 0.0 10.771428108215332
      vertex 9.0 0.0 10.771428108215332
    endloop
  endfacet
  facet normal 0.0 1.0 0.0
    outer loop
      vertex 0.0 0.0 3.0
      vertex 9.0 0.0 10.771428108215332
      vertex 9.0 0.0 3.0
    endloop
  endfacet
  facet normal 1.0 0.0 -0.0
    outer loop
      vertex 0.0 19.0 3.0
      vertex 0.0 19.0 6.699999809265137
      vertex 0.0 0.0 10.771428108215332
    endloop
  endfacet
  facet normal 1.0 0.0 0.0
    outer loop
      vertex 0.0 19.0 3.0
      vertex 0.0 0.0 10.771428108215332
      vertex 0.0 0.0 3.0
    endloop
  endfacet
  facet normal -1.0 0.0 0.0
    outer loop
      vertex -3.0 -3.0 0.0
      vertex -3.0 -3.0 3.0
      vertex -3.0 19.0 3.0
    endloop
  endfacet
  facet normal -1.0 0.0 0.0
    outer loop
      vertex -3.0 -3.0 0.0
      vertex -3.0 19.0 3.0
      vertex -3.0 19.0 0.0
    endloop
  endfacet
  facet normal -1.0 0.0 0.0
    outer loop
      vertex -3.0 -5.5 3.0
      vertex -3.0 -3.0 3.0
      vertex -3.0 -3.0 0.0
    endloop
  endfacet
  facet normal -1.0 0.0 0.0
    outer loop
      vertex -3.0 -5.5 3.0
      vertex -3.0 -3.0 0.0
      vertex -3.0 -5.5 2.5
    endloop
  endfacet
  facet normal -1.0 0.0 0.0
    outer loop
      vertex -3.0 -5.5 2.5
      vertex -3.0 -3.0 0.0
      vertex -3.0 -5.5 0.0
    endloop
  endfacet
  facet normal 0.0 1.0 0.0
    outer loop
      vertex 0.0 0.0 0.0
      vertex 0.0 0.0 3.0
      vertex 9.0 0.0 3.0
    endloop
  endfacet
  facet normal 0.0 1.0 0.0
    outer loop
      vertex 0.0 0.0 0.0
      vertex 9.0 0.0 3.0
      vertex 9.0 0.0 0.0
    endloop
  endfacet
  facet normal 1.0 0.0 -0.0
    outer loop
      vertex 0.0 19.0 0.0
      vertex 0.0 19.0 3.0
      vertex 0.0 0.0 3.0
    endloop
  endfacet
  facet normal 1.0 0.0 0.0
    outer loop
      vertex 0.0 19.0 0.0
      vertex 0.0 0.0 3.0
      vertex 0.0 0.0 0.0
    endloop
  endfacet
  facet normal 0.0 0.7682209793377357 -0.6401847599758764
    outer loop
      vertex 9.0 -6.0 11.100000381469727
      vertex -3.0 -6.0 11.100000381469727
      vertex -3.0 -5.5 11.699999809265137
    endloop
  endfacet
  facet normal 0.0 0.7682209793377357 -0.6401847599758764
    outer loop
      vertex 9.0 -6.0 11.100000381469727
      vertex -3.0 -5.5 11.699999809265137
      vertex 9.0 -5.5 11.699999809265137
    endloop
  endfacet
  facet normal 0.0 1.0 0.0
    outer loop
      vertex 9.0 -6.0 3.0
      vertex -3.0 -6.0 3.0
      vertex -3.0 -6.0 11.100000381469727
    endloop
  endfacet
  facet normal 0.0 1.0 -0.0
    outer loop
      vertex 9.0 -6.0 3.0
      vertex -3.0 -6.0 11.100000381469727
      vertex 9.0 -6.0 11.100000381469727
    endloop
  endfacet
  facet normal 0.0 0.0 1.0
    outer loop
      vertex -3.0 -5.5 3.0
      vertex -3.0 -6.0 3.0
      vertex 9.0 -6.0 3.0
    endloop
  endfacet
  facet normal -0.0 0.0 1.0
    outer loop
      vertex -3.0 -5.5 3.0
      vertex 9.0 -6.0 3.0
      vertex 9.0 -5.5 3.0
    endloop
  endfacet
  facet normal -1.0 0.0 0.0
    outer loop
      vertex -3.0 -6.0 3.0
      vertex -3.0 -5.5 3.0
      vertex -3.0 -5.5 2.5
    endloop
  endfacet
  facet normal -1.0 0.0 0.0
    outer loop
      vertex -3.0 -6.0 3.0
      vertex -3.0 -5.5 2.5
      vertex -3.0 -5.5 0.0
    endloop
  endfacet
  facet normal -1.0 0.0 0.0
    outer loop
      vertex -3.0 -6.0 3.0
      vertex -3.0 -5.5 0.0
      vertex -3.0 -6.0 0.0
    endloop
  endfacet
  facet normal -1.0 0.0 0.0
    outer loop
      vertex -3.0 -11.291338920593262 3.0
      vertex -3.0 -10.714285850524902 5.442857265472412
      vertex -3.0 -7.827067852020264 8.90751838684082
    endloop
  endfacet
  facet normal -1.0 0.0 0.0
    outer loop
      vertex -3.0 -11.291338920593262 3.0
      vertex -3.0 -7.827067852020264 8.90751838684082
      vertex -3.0 -6.0 3.0
    endloop
  endfacet
  facet normal -1.0 0.0 -0.0
    outer loop
      vertex -3.0 -6.0 11.100000381469727
      vertex -3.0 -6.0 3.0
      vertex -3.0 -7.827067852020264 8.90751838684082
    endloop
  endfacet
  facet normal -1.0 0.0 0.0
    outer loop
      vertex -3.0 -12.0 0.0
      vertex -3.0 -6.0 3.0
      vertex -3.0 -6.0 0.0
    endloop
  endfacet
  facet normal -1.0 0.0 0.0
    outer loop
      vertex -3.0 -12.0 0.0
      vertex -3.0 -11.291338920593262 3.0
      vertex -3.0 -6.0 3.0
    endloop
  endfacet
  facet normal -1.0 0.0 0.0
    outer loop
      vertex -3.0 -10.714285850524902 5.442857265472412
      vertex -3.0 -9.0 12.699999809265137
      vertex -3.0 -7.827067852020264 8.90751838684082
    endloop
  endfacet
  facet normal -1.0 0.0 0.0
    outer loop
      vertex -3.0 -9.0 12.699999809265137
      vertex -3.0 -6.0 11.100000381469727
      vertex -3.0 -7.827067852020264 8.90751838684082
    endloop
  endfacet
  facet normal -1.0 -0.0 0.0
    outer loop
      vertex -3.0 -5.5 11.949999809265137
      vertex -3.0 -6.0 11.100000381469727
      vertex -3.0 -9.0 12.699999809265137
    endloop
  endfacet
  facet normal -1.0 0.0 -0.0
    outer loop
      vertex -3.0 -5.5 11.949999809265137
      vertex -3.0 -5.5 11.699999809265137
      vertex -3.0 -6.0 11.100000381469727
    endloop
  endfacet
  facet normal 0.447213595499958 0.894427190999916 -0.0
    outer loop
      vertex -3.0 22.0 0.0
      vertex -3.0 22.0 20.0
      vertex 3.0 19.0 20.0
    endloop
  endfacet
  facet normal 0.447213595499958 0.894427190999916 0.0
    outer loop
      vertex -3.0 22.0 0.0
      vertex 3.0 19.0 20.0
      vertex 3.0 19.0 0.0
    endloop
  endfacet
  facet normal 1.0 0.0 -0.0
    outer loop
      vertex 43.5 22.0 0.0
      vertex 43.5 22.0 20.0
      vertex 43.5 19.0 20.0
    endloop
  endfacet
  facet normal 1.0 0.0 0.0
    outer loop
      vertex 43.5 22.0 0.0
      vertex 43.5 19.0 20.0
      vertex 43.5 19.0 0.0
    endloop
  endfacet
  facet normal -0.447213595499958 0.894427190999916 0.0
    outer loop
      vertex 37.5 19.0 0.0
      vertex 37.5 19.0 20.0
      vertex 43.5 22.0 20.0
    endloop
  endfacet
  facet normal -0.447213595499958 0.894427190999916 0.0
    outer loop
      vertex 37.5 19.0 0.0
      vertex 43.5 22.0 20.0
      vertex 43.5 22.0 0.0
    endloop
  endfacet
  facet normal 0.0 0.0 1.0
    outer loop
      vertex 40.5 19.0 20.0
      vertex 43.5 19.0 20.0
      vertex 43.5 22.0 20.0
    endloop
  endfacet
  facet normal 0.0 0.0 1.0
    outer loop
      vertex 37.5 19.0 20.0
      vertex 40.5 19.0 20.0
      vertex 43.5 22.0 20.0
    endloop
  endfacet
  facet normal -1.0 0.0 0.0
    outer loop
      vertex -3.0 19.0 20.0
      vertex -3.0 22.0 20.0
      vertex -3.0 22.0 0.0
    endloop
  endfacet
  facet normal -1.0 0.0 0.0
    outer loop
      vertex -3.0 19.0 20.0
      vertex -3.0 22.0 0.0
      vertex -3.0 19.0 0.0
    endloop
  endfacet
  facet normal 0.0 0.0 1.0
    outer loop
      vertex -3.0 22.0 20.0
      vertex 0.0 19.0 20.0
      vertex 3.0 19.0 20.0
    endloop
  endfacet
  facet normal 0.0 0.0 1.0
    outer loop
      vertex -3.0 22.0 20.0
      vertex -3.0 19.0 20.0
      vertex 0.0 19.0 20.0
    endloop
  endfacet
endsolid v3d.csg
