solid v3d.csg
  facet normal -0.0 0.0 -1.0
    outer loop
      vertex 0.05656854249492381 -0.056568542494923796 0.0
      vertex 0.07999999999999996 0.0 0.0
      vertex 1.0 0.0 0.0
    endloop
  endfacet
  facet normal -0.0 0.0 -1.0
    outer loop
      vertex 0.05656854249492381 -0.056568542494923796 0.0
      vertex 1.0 0.0 0.0
      vertex 0.7071067811865476 -0.7071067811865475 0.0
    endloop
  endfacet
  facet normal -0.0 -0.0 -1.0
    outer loop
      vertex 1.182623564647336E-17 -0.1931370849898476 0.0
      vertex 0.056568542494923824 -0.056568542494923824 0.0
      vertex 0.7071067811865476 -0.7071067811865475 0.0
    endloop
  endfacet
  facet normal -0.0 -0.0 -1.0
    outer loop
      vertex 1.182623564647336E-17 -0.1931370849898476 0.0
      vertex 0.7071067811865476 -0.7071067811865475 0.0
      vertex 6.123233995736766E-17 -1.0 0.0
    endloop
  endfacet
  facet normal 0.0 -0.0 -1.0
    outer loop
      vertex 1.182623564647336E-17 -0.1931370849898476 0.0
      vertex 6.123233995736766E-17 -1.0 0.0
      vertex -0.2852691193458118 -0.8818376618407356 0.0
    endloop
  endfacet
  facet normal -0.0 -0.0 -1.0
    outer loop
      vertex 0.1365685424949238 0.13656854249492387 0.0
      vertex 0.42183766184073557 0.8252691193458119 0.0
      vertex 0.7071067811865474 0.7071067811865477 0.0
    endloop
  endfacet
  facet normal -0.0 -0.0 -1.0
    outer loop
      vertex 0.08 1.959434878635765E-17 0.0
      vertex 0.1365685424949239 0.1365685424949239 0.0
      vertex 0.7071067811865474 0.7071067811865477 0.0
    endloop
  endfacet
  facet normal -0.0 -0.0 -1.0
    outer loop
      vertex 0.08 1.959434878635765E-17 0.0
      vertex 0.7071067811865474 0.7071067811865477 0.0
      vertex 1.0 2.4492935982947064E-16 0.0
    endloop
  endfacet
  facet normal -0.0 -0.0 -1.0
    outer loop
      vertex 1.182623564647336E-17 -0.1931370849898476 0.0
      vertex 4.8985871965894135E-18 -0.08000000000000002 0.0
      vertex 0.056568542494923824 -0.056568542494923824 0.0
    endloop
  endfacet
  facet normal 0.0 -0.0 -1.0
    outer loop
      vertex -0.13656854249492384 -0.13656854249492384 0.0
      vertex 4.898587196589414E-18 -0.08000000000000002 0.0
      vertex 1.182623564647336E-17 -0.1931370849898476 0.0
    endloop
  endfacet
  facet normal 0.0 -0.0 -1.0
    outer loop
      vertex -0.13656854249492384 -0.13656854249492384 0.0
      vertex 1.182623564647336E-17 -0.1931370849898476 0.0
      vertex -0.2852691193458118 -0.8818376618407356 0.0
    endloop
  endfacet
  facet normal 0.0 -0.0 -1.0
    outer loop
      vertex -0.13656854249492384 -0.13656854249492384 0.0
      vertex -0.2852691193458118 -0.8818376618407356 0.0
      vertex -0.7071067811865475 -0.7071067811865476 0.0
    endloop
  endfacet
  facet normal 0.0 -0.0 -1.0
    outer loop
      vertex -0.1365685424949239 -0.1365685424949239 0.0
      vertex -0.7071067811865475 -0.7071067811865476 0.0
      vertex -0.8252691193458118 -0.4218376618407358 0.0
    endloop
  endfacet
  facet normal -0.0 -0.0 -1.0
    outer loop
      vertex -0.13656854249492384 -0.13656854249492384 0.0
      vertex -0.05656854249492381 -0.05656854249492381 0.0
      vertex 4.898587196589414E-18 -0.08000000000000002 0.0
    endloop
  endfacet
  facet normal -0.0 -0.0 -1.0
    outer loop
      vertex -0.19313708498984758 -2.3652471292946714E-17 0.0
      vertex -0.05656854249492381 -0.05656854249492381 0.0
      vertex -0.1365685424949239 -0.1365685424949239 0.0
    endloop
  endfacet
  facet normal -0.0 -0.0 -1.0
    outer loop
      vertex -0.19313708498984758 -2.3652471292946714E-17 0.0
      vertex -0.1365685424949239 -0.1365685424949239 0.0
      vertex -0.8252691193458118 -0.4218376618407358 0.0
    endloop
  endfacet
  facet normal -0.0 -0.0 -1.0
    outer loop
      vertex -0.19313708498984758 -2.3652471292946714E-17 0.0
      vertex -0.8252691193458118 -0.4218376618407358 0.0
      vertex -1.0 -1.2246467991473532E-16 0.0
    endloop
  endfacet
  facet normal -0.0 -0.0 -1.0
    outer loop
      vertex -0.1931370849898476 -2.365247129294672E-17 0.0
      vertex -1.0 -1.2246467991473532E-16 0.0
      vertex -0.8818376618407358 0.28526911934581173 0.0
    endloop
  endfacet
  facet normal -0.0 -0.0 -1.0
    outer loop
      vertex -0.19313708498984758 -2.3652471292946714E-17 0.0
      vertex -0.08 -9.797174393178826E-18 0.0
      vertex -0.05656854249492381 -0.05656854249492381 0.0
    endloop
  endfacet
  facet normal -0.0 -0.0 -1.0
    outer loop
      vertex -0.13656854249492384 0.13656854249492378 0.0
      vertex -0.08000000000000002 -9.797174393178829E-18 0.0
      vertex -0.1931370849898476 -2.365247129294672E-17 0.0
    endloop
  endfacet
  facet normal -0.0 -0.0 -1.0
    outer loop
      vertex -0.13656854249492384 0.13656854249492378 0.0
      vertex -0.1931370849898476 -2.365247129294672E-17 0.0
      vertex -0.8818376618407358 0.28526911934581173 0.0
    endloop
  endfacet
  facet normal -0.0 -0.0 -1.0
    outer loop
      vertex -0.13656854249492384 0.13656854249492378 0.0
      vertex -0.8818376618407358 0.28526911934581173 0.0
      vertex -0.7071067811865477 0.7071067811865475 0.0
    endloop
  endfacet
  facet normal -0.0 -0.0 -1.0
    outer loop
      vertex -0.13656854249492378 0.13656854249492378 0.0
      vertex -0.7071067811865477 0.7071067811865475 0.0
      vertex -0.42183766184073584 0.8252691193458118 0.0
    endloop
  endfacet
  facet normal -0.0 0.0 -1.0
    outer loop
      vertex -0.13656854249492384 0.13656854249492378 0.0
      vertex -0.05656854249492382 0.056568542494923796 0.0
      vertex -0.08000000000000002 -9.797174393178829E-18 0.0
    endloop
  endfacet
  facet normal -0.0 -0.0 -1.0
    outer loop
      vertex -3.547870693942008E-17 0.19313708498984763 0.0
      vertex -0.05656854249492381 0.05656854249492381 0.0
      vertex -0.13656854249492378 0.13656854249492378 0.0
    endloop
  endfacet
  facet normal -0.0 -0.0 -1.0
    outer loop
      vertex -3.547870693942008E-17 0.19313708498984763 0.0
      vertex -0.13656854249492378 0.13656854249492378 0.0
      vertex -0.42183766184073584 0.8252691193458118 0.0
    endloop
  endfacet
  facet normal -0.0 -0.0 -1.0
    outer loop
      vertex -3.547870693942008E-17 0.19313708498984763 0.0
      vertex -0.42183766184073584 0.8252691193458118 0.0
      vertex -1.8369701987210297E-16 1.0 0.0
    endloop
  endfacet
  facet normal -0.0 -0.0 -1.0
    outer loop
      vertex -3.547870693942008E-17 0.1931370849898476 0.0
      vertex -1.8369701987210297E-16 1.0 0.0
      vertex 0.2852691193458117 0.8818376618407358 0.0
    endloop
  endfacet
  facet normal -0.0 -0.0 -1.0
    outer loop
      vertex -3.547870693942008E-17 0.19313708498984763 0.0
      vertex -1.469576158976824E-17 0.08000000000000002 0.0
      vertex -0.05656854249492381 0.05656854249492381 0.0
    endloop
  endfacet
  facet normal -0.0 -0.0 -1.0
    outer loop
      vertex 0.1365685424949238 0.13656854249492387 0.0
      vertex -1.4695761589768243E-17 0.08000000000000002 0.0
      vertex -3.547870693942008E-17 0.1931370849898476 0.0
    endloop
  endfacet
  facet normal -0.0 -0.0 -1.0
    outer loop
      vertex 0.1365685424949238 0.13656854249492387 0.0
      vertex -3.547870693942008E-17 0.1931370849898476 0.0
      vertex 0.2852691193458117 0.8818376618407358 0.0
    endloop
  endfacet
  facet normal -0.0 -0.0 -1.0
    outer loop
      vertex 0.1365685424949238 0.13656854249492387 0.0
      vertex 0.2852691193458117 0.8818376618407358 0.0
      vertex 0.42183766184073557 0.8252691193458119 0.0
    endloop
  endfacet
  facet normal 0.0 -0.0 -1.0
    outer loop
      vertex 0.1365685424949238 0.13656854249492387 0.0
      vertex 0.056568542494923796 0.05656854249492382 0.0
      vertex -1.4695761589768243E-17 0.08000000000000002 0.0
    endloop
  endfacet
  facet normal -0.0 -0.0 -1.0
    outer loop
      vertex 0.09656854249492382 0.040000000000000015 0.0
      vertex 0.05656854249492381 0.05656854249492381 0.0
      vertex 0.1365685424949239 0.1365685424949239 0.0
    endloop
  endfacet
  facet normal -0.0 -0.0 -1.0
    outer loop
      vertex 0.09656854249492382 0.040000000000000015 0.0
      vertex 0.08 1.959434878635765E-17 0.0
      vertex 0.05656854249492381 0.05656854249492381 0.0
    endloop
  endfacet
  facet normal 0.9238795325112867 -0.3826834323650897 0.0
    outer loop
      vertex 0.7071067811865476 -0.7071067811865475 0.0
      vertex 1.0 0.0 0.0
      vertex 1.0 0.0 0.3
    endloop
  endfacet
  facet normal 0.9238795325112867 -0.3826834323650897 0.0
    outer loop
      vertex 0.7071067811865476 -0.7071067811865475 0.0
      vertex 1.0 0.0 0.3
      vertex 0.7071067811865476 -0.7071067811865475 0.3
    endloop
  endfacet
  facet normal -0.0 -0.0 1.0
    outer loop
      vertex 0.08 0.0 0.3
      vertex 0.056568542494923824 -0.056568542494923824 0.3
      vertex 0.7071067811865476 -0.7071067811865475 0.3
    endloop
  endfacet
  facet normal -0.0 -0.0 1.0
    outer loop
      vertex 0.08 0.0 0.3
      vertex 0.7071067811865476 -0.7071067811865475 0.3
      vertex 1.0 0.0 0.3
    endloop
  endfacet
  facet normal 0.0 -0.0 1.0
    outer loop
      vertex 0.05656854249492381 -0.056568542494923796 0.3
      vertex 1.182623564647336E-17 -0.1931370849898476 0.3
      vertex 6.123233995736766E-17 -1.0 0.3
    endloop
  endfacet
  facet normal 0.0 -0.0 1.0
    outer loop
      vertex 0.05656854249492381 -0.056568542494923796 0.3
      vertex 6.123233995736766E-17 -1.0 0.3
      vertex 0.7071067811865476 -0.7071067811865475 0.3
    endloop
  endfacet
  facet normal -0.0 -0.0 1.0
    outer loop
      vertex 1.182623564647336E-17 -0.1931370849898476 0.3
      vertex -0.2852691193458118 -0.8818376618407358 0.3
      vertex 6.123233995736766E-17 -1.0 0.3
    endloop
  endfacet
  facet normal -0.0 0.0 1.0
    outer loop
      vertex 0.1365685424949239 0.1365685424949239 0.3
      vertex 0.7071067811865474 0.7071067811865477 0.3
      vertex 0.4218376618407356 0.8252691193458119 0.3
    endloop
  endfacet
  facet normal -0.0 0.0 1.0
    outer loop
      vertex 0.1365685424949238 0.13656854249492387 0.3
      vertex 0.08000000000000007 1.9594348786357657E-17 0.3
      vertex 1.0 2.4492935982947064E-16 0.3
    endloop
  endfacet
  facet normal -0.0 0.0 1.0
    outer loop
      vertex 0.1365685424949238 0.13656854249492387 0.3
      vertex 1.0 2.4492935982947064E-16 0.3
      vertex 0.7071067811865474 0.7071067811865477 0.3
    endloop
  endfacet
  facet normal -0.0 -0.0 1.0
    outer loop
      vertex 0.05656854249492381 -0.056568542494923796 0.3
      vertex 4.898587196589414E-18 -0.08000000000000002 0.3
      vertex 1.182623564647336E-17 -0.1931370849898476 0.3
    endloop
  endfacet
  facet normal -0.0 -0.0 1.0
    outer loop
      vertex 1.182623564647336E-17 -0.1931370849898476 0.3
      vertex 4.8985871965894135E-18 -0.08000000000000002 0.3
      vertex -0.1365685424949239 -0.1365685424949239 0.3
    endloop
  endfacet
  facet normal -0.0 -0.0 1.0
    outer loop
      vertex 1.182623564647336E-17 -0.1931370849898476 0.3
      vertex -0.1365685424949239 -0.1365685424949239 0.3
      vertex -0.7071067811865475 -0.7071067811865476 0.3
    endloop
  endfacet
  facet normal -0.0 -0.0 1.0
    outer loop
      vertex 1.182623564647336E-17 -0.1931370849898476 0.3
      vertex -0.7071067811865475 -0.7071067811865476 0.3
      vertex -0.2852691193458118 -0.8818376618407358 0.3
    endloop
  endfacet
  facet normal -0.0 -0.0 1.0
    outer loop
      vertex -0.13656854249492384 -0.13656854249492384 0.3
      vertex -0.8252691193458118 -0.42183766184073584 0.3
      vertex -0.7071067811865475 -0.7071067811865476 0.3
    endloop
  endfacet
  facet normal -0.0 -0.0 1.0
    outer loop
      vertex 4.8985871965894135E-18 -0.08000000000000002 0.3
      vertex -0.05656854249492381 -0.05656854249492381 0.3
      vertex -0.1365685424949239 -0.1365685424949239 0.3
    endloop
  endfacet
  facet normal -0.0 -0.0 1.0
    outer loop
      vertex -0.13656854249492384 -0.13656854249492384 0.3
      vertex -0.05656854249492381 -0.05656854249492381 0.3
      vertex -0.1931370849898476 -2.365247129294672E-17 0.3
    endloop
  endfacet
  facet normal -0.0 -0.0 1.0
    outer loop
      vertex -0.13656854249492384 -0.13656854249492384 0.3
      vertex -0.1931370849898476 -2.365247129294672E-17 0.3
      vertex -1.0 -1.2246467991473532E-16 0.3
    endloop
  endfacet
  facet normal -0.0 -0.0 1.0
    outer loop
      vertex -0.13656854249492384 -0.13656854249492384 0.3
      vertex -1.0 -1.2246467991473532E-16 0.3
      vertex -0.8252691193458118 -0.42183766184073584 0.3
    endloop
  endfacet
  facet normal -0.0 -0.0 1.0
    outer loop
      vertex -0.19313708498984758 -2.3652471292946714E-17 0.3
      vertex -0.8818376618407358 0.2852691193458118 0.3
      vertex -1.0 -1.2246467991473532E-16 0.3
    endloop
  endfacet
  facet normal -0.0 -0.0 1.0
    outer loop
      vertex -0.05656854249492381 -0.05656854249492381 0.3
      vertex -0.08000000000000002 -9.797174393178829E-18 0.3
      vertex -0.1931370849898476 -2.365247129294672E-17 0.3
    endloop
  endfacet
  facet normal -0.0 -0.0 1.0
    outer loop
      vertex -0.19313708498984758 -2.3652471292946714E-17 0.3
      vertex -0.08 -9.797174393178826E-18 0.3
      vertex -0.13656854249492378 0.13656854249492378 0.3
    endloop
  endfacet
  facet normal -0.0 -0.0 1.0
    outer loop
      vertex -0.19313708498984758 -2.3652471292946714E-17 0.3
      vertex -0.13656854249492378 0.13656854249492378 0.3
      vertex -0.7071067811865477 0.7071067811865475 0.3
    endloop
  endfacet
  facet normal -0.0 -0.0 1.0
    outer loop
      vertex -0.19313708498984758 -2.3652471292946714E-17 0.3
      vertex -0.7071067811865477 0.7071067811865475 0.3
      vertex -0.8818376618407358 0.2852691193458118 0.3
    endloop
  endfacet
  facet normal -0.0 -0.0 1.0
    outer loop
      vertex -0.13656854249492384 0.13656854249492378 0.3
      vertex -0.42183766184073584 0.8252691193458118 0.3
      vertex -0.7071067811865477 0.7071067811865475 0.3
    endloop
  endfacet
  facet normal -0.0 -0.0 1.0
    outer loop
      vertex -0.08 -9.797174393178826E-18 0.3
      vertex -0.05656854249492381 0.05656854249492381 0.3
      vertex -0.13656854249492378 0.13656854249492378 0.3
    endloop
  endfacet
  facet normal -0.0 -0.0 1.0
    outer loop
      vertex -0.13656854249492384 0.13656854249492378 0.3
      vertex -0.05656854249492382 0.056568542494923796 0.3
      vertex -3.547870693942008E-17 0.1931370849898476 0.3
    endloop
  endfacet
  facet normal -0.0 -0.0 1.0
    outer loop
      vertex -0.13656854249492384 0.13656854249492378 0.3
      vertex -3.547870693942008E-17 0.1931370849898476 0.3
      vertex -1.8369701987210297E-16 1.0 0.3
    endloop
  endfacet
  facet normal -0.0 -0.0 1.0
    outer loop
      vertex -0.13656854249492384 0.13656854249492378 0.3
      vertex -1.8369701987210297E-16 1.0 0.3
      vertex -0.42183766184073584 0.8252691193458118 0.3
    endloop
  endfacet
  facet normal -0.0 -0.0 1.0
    outer loop
      vertex -3.547870693942008E-17 0.19313708498984763 0.3
      vertex 0.2852691193458117 0.8818376618407358 0.3
      vertex -1.8369701987210297E-16 1.0 0.3
    endloop
  endfacet
  facet normal -0.0 0.0 1.0
    outer loop
      vertex -0.05656854249492382 0.056568542494923796 0.3
      vertex -1.4695761589768243E-17 0.08000000000000002 0.3
      vertex -3.547870693942008E-17 0.1931370849898476 0.3
    endloop
  endfacet
  facet normal -0.0 0.0 1.0
    outer loop
      vertex -3.547870693942008E-17 0.19313708498984763 0.3
      vertex -1.469576158976824E-17 0.08000000000000002 0.3
      vertex 0.1365685424949239 0.1365685424949239 0.3
    endloop
  endfacet
  facet normal -0.0 0.0 1.0
    outer loop
      vertex -3.547870693942008E-17 0.19313708498984763 0.3
      vertex 0.1365685424949239 0.1365685424949239 0.3
      vertex 0.4218376618407356 0.8252691193458119 0.3
    endloop
  endfacet
  facet normal -0.0 0.0 1.0
    outer loop
      vertex -3.547870693942008E-17 0.19313708498984763 0.3
      vertex 0.4218376618407356 0.8252691193458119 0.3
      vertex 0.2852691193458117 0.8818376618407358 0.3
    endloop
  endfacet
  facet normal -0.0 -0.0 1.0
    outer loop
      vertex -1.469576158976824E-17 0.08000000000000002 0.3
      vertex 0.05656854249492381 0.05656854249492381 0.3
      vertex 0.1365685424949239 0.1365685424949239 0.3
    endloop
  endfacet
  facet normal -0.0 -0.0 1.0
    outer loop
      vertex 0.09656854249492385 0.04000000000000002 0.3
      vertex 0.1365685424949238 0.13656854249492387 0.3
      vertex 0.056568542494923796 0.05656854249492382 0.3
    endloop
  endfacet
  facet normal -0.0 -0.0 1.0
    outer loop
      vertex 0.09656854249492385 0.04000000000000002 0.3
      vertex 0.056568542494923796 0.05656854249492382 0.3
      vertex 0.08000000000000007 1.9594348786357657E-17 0.3
    endloop
  endfacet
  facet normal 0.3826834323650899 -0.9238795325112867 0.0
    outer loop
      vertex 6.123233995736766E-17 -1.0 0.0
      vertex 0.7071067811865476 -0.7071067811865475 0.0
      vertex 0.7071067811865476 -0.7071067811865475 0.3
    endloop
  endfacet
  facet normal 0.3826834323650899 -0.9238795325112867 0.0
    outer loop
      vertex 6.123233995736766E-17 -1.0 0.0
      vertex 0.7071067811865476 -0.7071067811865475 0.3
      vertex 6.123233995736766E-17 -1.0 0.3
    endloop
  endfacet
  facet normal -0.38268343236508984 -0.9238795325112867 -0.0
    outer loop
      vertex -0.2852691193458118 -0.8818376618407358 0.0
      vertex 6.123233995736766E-17 -1.0 0.0
      vertex 6.123233995736766E-17 -1.0 0.3
    endloop
  endfacet
  facet normal -0.38268343236508984 -0.9238795325112867 -0.0
    outer loop
      vertex -0.2852691193458118 -0.8818376618407358 0.0
      vertex 6.123233995736766E-17 -1.0 0.3
      vertex -0.2852691193458118 -0.8818376618407356 0.3
    endloop
  endfacet
  facet normal -0.3826834323650897 -0.9238795325112868 4.0525555277123534E-16
    outer loop
      vertex -0.7071067811865475 -0.7071067811865476 0.0
      vertex -0.2852691193458118 -0.8818376618407358 0.0
      vertex -0.2852691193458118 -0.8818376618407356 0.3
    endloop
  endfacet
  facet normal -0.3826834323650897 -0.9238795325112868 4.0525555277123534E-16
    outer loop
      vertex -0.7071067811865475 -0.7071067811865476 0.0
      vertex -0.2852691193458118 -0.8818376618407356 0.3
      vertex -0.7071067811865475 -0.7071067811865476 0.3
    endloop
  endfacet
  facet normal -0.9238795325112867 -0.3826834323650899 -0.0
    outer loop
      vertex -0.8252691193458118 -0.42183766184073584 0.0
      vertex -0.7071067811865475 -0.7071067811865476 0.0
      vertex -0.7071067811865475 -0.7071067811865476 0.3
    endloop
  endfacet
  facet normal -0.9238795325112867 -0.3826834323650899 -0.0
    outer loop
      vertex -0.8252691193458118 -0.42183766184073584 0.0
      vertex -0.7071067811865475 -0.7071067811865476 0.3
      vertex -0.8252691193458118 -0.4218376618407358 0.3
    endloop
  endfacet
  facet normal -0.9238795325112867 -0.3826834323650899 -0.0
    outer loop
      vertex -1.0 -1.2246467991473532E-16 0.0
      vertex -0.8252691193458118 -0.42183766184073584 0.0
      vertex -0.8252691193458118 -0.4218376618407358 0.3
    endloop
  endfacet
  facet normal -0.9238795325112867 -0.3826834323650899 -0.0
    outer loop
      vertex -1.0 -1.2246467991473532E-16 0.0
      vertex -0.8252691193458118 -0.4218376618407358 0.3
      vertex -1.0 -1.2246467991473532E-16 0.3
    endloop
  endfacet
  facet normal -0.9238795325112868 0.38268343236508956 -0.0
    outer loop
      vertex -0.8818376618407358 0.2852691193458118 0.0
      vertex -1.0 -1.2246467991473532E-16 0.0
      vertex -1.0 -1.2246467991473532E-16 0.3
    endloop
  endfacet
  facet normal -0.9238795325112868 0.38268343236508956 -0.0
    outer loop
      vertex -0.8818376618407358 0.2852691193458118 0.0
      vertex -1.0 -1.2246467991473532E-16 0.3
      vertex -0.8818376618407358 0.28526911934581173 0.3
    endloop
  endfacet
  facet normal -0.923879532511287 0.3826834323650896 1.0131388819280881E-16
    outer loop
      vertex -0.7071067811865477 0.7071067811865475 0.0
      vertex -0.8818376618407358 0.2852691193458118 0.0
      vertex -0.8818376618407358 0.28526911934581173 0.3
    endloop
  endfacet
  facet normal -0.923879532511287 0.3826834323650896 1.0131388819280881E-16
    outer loop
      vertex -0.7071067811865477 0.7071067811865475 0.0
      vertex -0.8818376618407358 0.28526911934581173 0.3
      vertex -0.7071067811865477 0.7071067811865475 0.3
    endloop
  endfacet
  facet normal -0.38268343236508984 0.9238795325112867 -0.0
    outer loop
      vertex -0.42183766184073584 0.8252691193458118 0.0
      vertex -0.7071067811865477 0.7071067811865475 0.0
      vertex -0.7071067811865477 0.7071067811865475 0.3
    endloop
  endfacet
  facet normal -0.38268343236508984 0.9238795325112867 -0.0
    outer loop
      vertex -0.42183766184073584 0.8252691193458118 0.0
      vertex -0.7071067811865477 0.7071067811865475 0.3
      vertex -0.42183766184073584 0.8252691193458118 0.3
    endloop
  endfacet
  facet normal -0.3826834323650899 0.9238795325112867 -0.0
    outer loop
      vertex -1.8369701987210297E-16 1.0 0.0
      vertex -0.42183766184073584 0.8252691193458118 0.0
      vertex -0.42183766184073584 0.8252691193458118 0.3
    endloop
  endfacet
  facet normal -0.3826834323650899 0.9238795325112867 -0.0
    outer loop
      vertex -1.8369701987210297E-16 1.0 0.0
      vertex -0.42183766184073584 0.8252691193458118 0.3
      vertex -1.8369701987210297E-16 1.0 0.3
    endloop
  endfacet
  facet normal 0.3826834323650896 0.9238795325112868 7.490823718539245E-17
    outer loop
      vertex 0.7071067811865474 0.7071067811865477 0.0
      vertex 0.4218376618407356 0.8252691193458119 0.0
      vertex 0.42183766184073557 0.8252691193458119 0.3
    endloop
  endfacet
  facet normal 0.3826834323650896 0.9238795325112868 7.490823718539245E-17
    outer loop
      vertex 0.7071067811865474 0.7071067811865477 0.0
      vertex 0.42183766184073557 0.8252691193458119 0.3
      vertex 0.7071067811865474 0.7071067811865477 0.3
    endloop
  endfacet
  facet normal 0.38268343236508956 0.9238795325112868 -0.0
    outer loop
      vertex 0.2852691193458117 0.8818376618407358 0.0
      vertex -1.8369701987210297E-16 1.0 0.0
      vertex -1.8369701987210297E-16 1.0 0.3
    endloop
  endfacet
  facet normal 0.38268343236508956 0.9238795325112868 -0.0
    outer loop
      vertex 0.2852691193458117 0.8818376618407358 0.0
      vertex -1.8369701987210297E-16 1.0 0.3
      vertex 0.2852691193458117 0.8818376618407358 0.3
    endloop
  endfacet
  facet normal 0.3826834323650897 0.9238795325112868 -0.0
    outer loop
      vertex 0.4218376618407356 0.8252691193458119 0.0
      vertex 0.2852691193458117 0.8818376618407358 0.0
      vertex 0.2852691193458117 0.8818376618407358 0.3
    endloop
  endfacet
  facet normal 0.3826834323650897 0.9238795325112868 -0.0
    outer loop
      vertex 0.4218376618407356 0.8252691193458119 0.0
      vertex 0.2852691193458117 0.8818376618407358 0.3
      vertex 0.42183766184073557 0.8252691193458119 0.3
    endloop
  endfacet
  facet normal 0.9238795325112867 0.38268343236509006 0.0
    outer loop
      vertex 1.0 2.4492935982947064E-16 0.0
      vertex 0.7071067811865474 0.7071067811865477 0.0
      vertex 0.7071067811865474 0.7071067811865477 0.3
    endloop
  endfacet
  facet normal 0.9238795325112867 0.38268343236509006 0.0
    outer loop
      vertex 1.0 2.4492935982947064E-16 0.0
      vertex 0.7071067811865474 0.7071067811865477 0.3
      vertex 1.0 2.4492935982947064E-16 0.3
    endloop
  endfacet
  facet normal -0.9238795325112868 0.3826834323650897 -0.0
    outer loop
      vertex 0.05656854249492381 -0.056568542494923796 0.3
      vertex 0.08 0.0 0.3
      vertex 0.08 0.0 0.0
    endloop
  endfacet
  facet normal -0.9238795325112868 0.3826834323650897 -0.0
    outer loop
      vertex 0.05656854249492381 -0.056568542494923796 0.3
      vertex 0.08 0.0 0.0
      vertex 0.05656854249492381 -0.056568542494923796 0.0
    endloop
  endfacet
  facet normal -0.38268343236508995 0.9238795325112867 -0.0
    outer loop
      vertex 4.898587196589413E-18 -0.08 0.3
      vertex 0.05656854249492381 -0.056568542494923796 0.3
      vertex 0.05656854249492381 -0.056568542494923796 0.0
    endloop
  endfacet
  facet normal -0.38268343236508995 0.9238795325112867 -0.0
    outer loop
      vertex 4.898587196589413E-18 -0.08 0.3
      vertex 0.05656854249492381 -0.056568542494923796 0.0
      vertex 4.898587196589413E-18 -0.08 0.0
    endloop
  endfacet
  facet normal 0.3826834323650897 0.9238795325112868 -0.0
    outer loop
      vertex -0.056568542494923796 -0.05656854249492381 0.3
      vertex 4.898587196589413E-18 -0.08 0.3
      vertex 4.898587196589413E-18 -0.08 0.0
    endloop
  endfacet
  facet normal 0.3826834323650897 0.9238795325112868 -0.0
    outer loop
      vertex -0.056568542494923796 -0.05656854249492381 0.3
      vertex 4.898587196589413E-18 -0.08 0.0
      vertex -0.056568542494923796 -0.05656854249492381 0.0
    endloop
  endfacet
  facet normal 0.9238795325112867 0.38268343236508995 -0.0
    outer loop
      vertex -0.08 -9.797174393178826E-18 0.3
      vertex -0.056568542494923796 -0.05656854249492381 0.3
      vertex -0.056568542494923796 -0.05656854249492381 0.0
    endloop
  endfacet
  facet normal 0.9238795325112867 0.38268343236508995 -0.0
    outer loop
      vertex -0.08 -9.797174393178826E-18 0.3
      vertex -0.056568542494923796 -0.05656854249492381 0.0
      vertex -0.08 -9.797174393178826E-18 0.0
    endloop
  endfacet
  facet normal 0.923879532511287 -0.3826834323650896 -0.0
    outer loop
      vertex -0.05656854249492382 0.056568542494923796 0.3
      vertex -0.08 -9.797174393178826E-18 0.3
      vertex -0.08 -9.797174393178826E-18 0.0
    endloop
  endfacet
  facet normal 0.923879532511287 -0.3826834323650896 -0.0
    outer loop
      vertex -0.05656854249492382 0.056568542494923796 0.3
      vertex -0.08 -9.797174393178826E-18 0.0
      vertex -0.05656854249492382 0.056568542494923796 0.0
    endloop
  endfacet
  facet normal 0.38268343236508995 -0.9238795325112867 -0.0
    outer loop
      vertex -1.4695761589768237E-17 0.08 0.3
      vertex -0.05656854249492382 0.056568542494923796 0.3
      vertex -0.05656854249492382 0.056568542494923796 0.0
    endloop
  endfacet
  facet normal 0.38268343236508995 -0.9238795325112867 -0.0
    outer loop
      vertex -1.4695761589768237E-17 0.08 0.3
      vertex -0.05656854249492382 0.056568542494923796 0.0
      vertex -1.4695761589768237E-17 0.08 0.0
    endloop
  endfacet
  facet normal -0.3826834323650896 -0.923879532511287 -0.0
    outer loop
      vertex 0.05656854249492379 0.05656854249492382 0.3
      vertex -1.4695761589768237E-17 0.08 0.3
      vertex -1.4695761589768237E-17 0.08 0.0
    endloop
  endfacet
  facet normal -0.3826834323650896 -0.923879532511287 -0.0
    outer loop
      vertex 0.05656854249492379 0.05656854249492382 0.3
      vertex -1.4695761589768237E-17 0.08 0.0
      vertex 0.05656854249492379 0.05656854249492382 0.0
    endloop
  endfacet
  facet normal -0.9238795325112867 -0.38268343236509 -0.0
    outer loop
      vertex 0.08 1.959434878635765E-17 0.3
      vertex 0.05656854249492379 0.05656854249492382 0.3
      vertex 0.05656854249492379 0.05656854249492382 0.0
    endloop
  endfacet
  facet normal -0.9238795325112867 -0.38268343236509 -0.0
    outer loop
      vertex 0.08 1.959434878635765E-17 0.3
      vertex 0.05656854249492379 0.05656854249492382 0.0
      vertex 0.08 1.959434878635765E-17 0.0
    endloop
  endfacet
endsolid v3d.csg
