solid v3d.csg
  facet normal -0.0 -0.0 -1.0
    outer loop
      vertex -1.8369701987210296E-18 -0.01 0.0
      vertex -0.01 1.2246467991473532E-18 0.0
      vertex 6.123233995736766E-19 0.01 0.0
    endloop
  endfacet
  facet normal -0.0 -0.0 -1.0
    outer loop
      vertex -1.8369701987210296E-18 -0.01 0.0
      vertex 6.123233995736766E-19 0.01 0.0
      vertex 0.01 0.0 0.0
    endloop
  endfacet
  facet normal 0.7071067811865476 0.7071067811865476 0.0
    outer loop
      vertex 0.01 0.0 0.0
      vertex 6.123233995736766E-19 0.01 0.0
      vertex 6.123233995736766E-19 0.01 1.0
    endloop
  endfacet
  facet normal 0.7071067811865476 0.7071067811865476 0.0
    outer loop
      vertex 0.01 0.0 0.0
      vertex 6.123233995736766E-19 0.01 1.0
      vertex 0.01 0.0 1.0
    endloop
  endfacet
  facet normal -0.7071067811865475 0.7071067811865476 0.0
    outer loop
      vertex 6.123233995736766E-19 0.01 0.0
      vertex -0.01 1.2246467991473532E-18 0.0
      vertex -0.01 1.2246467991473532E-18 1.0
    endloop
  endfacet
  facet normal -0.7071067811865475 0.7071067811865476 0.0
    outer loop
      vertex 6.123233995736766E-19 0.01 0.0
      vertex -0.01 1.2246467991473532E-18 1.0
      vertex 6.123233995736766E-19 0.01 1.0
    endloop
  endfacet
  facet normal -0.7071067811865477 -0.7071067811865475 0.0
    outer loop
      vertex -0.01 1.2246467991473532E-18 0.0
      vertex -1.8369701987210296E-18 -0.01 0.0
      vertex -1.8369701987210296E-18 -0.01 1.0
    endloop
  endfacet
  facet normal -0.7071067811865477 -0.7071067811865475 0.0
    outer loop
      vertex -0.01 1.2246467991473532E-18 0.0
      vertex -1.8369701987210296E-18 -0.01 1.0
      vertex -0.01 1.2246467991473532E-18 1.0
    endloop
  endfacet
  facet normal 0.7071067811865475 -0.7071067811865476 0.0
    outer loop
      vertex -1.8369701987210296E-18 -0.01 0.0
      vertex 0.01 0.0 0.0
      vertex 0.01 0.0 1.0
    endloop
  endfacet
  facet normal 0.7071067811865475 -0.7071067811865476 0.0
    outer loop
      vertex -1.8369701987210296E-18 -0.01 0.0
      vertex 0.01 0.0 1.0
      vertex -1.8369701987210296E-18 -0.01 1.0
    endloop
  endfacet
  facet normal 0.0 0.0 1.0
    outer loop
      vertex 0.01 0.0 1.0
      vertex 6.123233995736766E-19 0.01 1.0
      vertex -0.01 1.2246467991473532E-18 1.0
    endloop
  endfacet
  facet normal 0.0 0.0 1.0
    outer loop
      vertex 0.01 0.0 1.0
      vertex -0.01 1.2246467991473532E-18 1.0
      vertex -1.8369701987210296E-18 -0.01 1.0
    endloop
  endfacet
endsolid v3d.csg
