solid v3d.csg
  facet normal 0.39663965676028184 -0.5936131960090991 0.7002145072825531
    outer loop
      vertex 1.9134171618254492 -4.619397662556434 5.0
      vertex 3.5355339059327378 -3.5355339059327373 5.0
      vertex 0.0 0.0 10.0
    endloop
  endfacet
  facet normal 0.13928132531715337 -0.7002145072825532 0.7002145072825531
    outer loop
      vertex 1.9134171618254492 -4.619397662556434 5.0
      vertex 0.0 0.0 10.0
      vertex 3.061616997868383E-16 -5.0 5.0
    endloop
  endfacet
  facet normal -0.39663965676028207 -0.5936131960090989 -0.7002145072825533
    outer loop
      vertex -2.5 -4.227455540718126 -5.000000000000001
      vertex -3.5355339059327386 -3.5355339059327373 -5.0
      vertex -2.5 -2.499999999999999 -6.464466094067263
    endloop
  endfacet
  facet normal -0.39663965676028234 -0.5936131960090987 -0.7002145072825532
    outer loop
      vertex -1.9134171618254516 -4.619397662556432 -5.000000000000001
      vertex -2.5 -4.227455540718126 -5.000000000000001
      vertex -2.5 -2.499999999999999 -6.464466094067263
    endloop
  endfacet
  facet normal -0.39663965676028234 -0.5936131960090987 -0.7002145072825532
    outer loop
      vertex -1.9134171618254516 -4.619397662556432 -5.000000000000001
      vertex -2.5 -2.499999999999999 -6.464466094067263
      vertex 0.0 6.123233995736766E-16 -10.0
    endloop
  endfacet
  facet normal -0.13928132531715381 -0.700214507282553 -0.7002145072825532
    outer loop
      vertex -1.9134171618254516 -4.619397662556432 -5.000000000000001
      vertex 0.0 6.123233995736766E-16 -10.0
      vertex -9.184850993605148E-16 -5.0 -5.000000000000001
    endloop
  endfacet
  facet normal 0.7002145072825532 -0.1392813253171533 0.7002145072825532
    outer loop
      vertex 4.619397662556434 -1.913417161825449 5.0
      vertex 5.0 1.2246467991473533E-15 5.0
      vertex 0.0 0.0 10.0
    endloop
  endfacet
  facet normal 0.5936131960090992 -0.39663965676028184 0.7002145072825532
    outer loop
      vertex 4.619397662556434 -1.913417161825449 5.0
      vertex 0.0 0.0 10.0
      vertex 3.5355339059327378 -3.5355339059327373 5.0
    endloop
  endfacet
  facet normal 0.5936131960090991 0.3966396567602819 0.7002145072825532
    outer loop
      vertex 4.619397662556432 1.913417161825452 5.0
      vertex 3.535533905932737 3.5355339059327386 5.0
      vertex 0.0 0.0 10.0
    endloop
  endfacet
  facet normal 0.700214507282553 0.13928132531715387 0.7002145072825532
    outer loop
      vertex 4.619397662556432 1.913417161825452 5.0
      vertex 0.0 0.0 10.0
      vertex 5.0 1.2246467991473533E-15 5.0
    endloop
  endfacet
  facet normal 0.5555702330196024 -0.8314696123025452 4.55265238440018E-17
    outer loop
      vertex 1.9134171618254499 -4.619397662556433 -2.5
      vertex 1.91341716182545 -4.619397662556433 -5.000000000000001
      vertex 2.318946347852272 -4.348431723400509 -2.5
    endloop
  endfacet
  facet normal 0.5555702330196021 -0.8314696123025455 1.4769867325671012E-16
    outer loop
      vertex 2.3189463478522723 -4.348431723400509 -2.5
      vertex 1.91341716182545 -4.619397662556433 -5.000000000000001
      vertex 3.535533905932737 -3.5355339059327386 -5.0
    endloop
  endfacet
  facet normal 0.5555702330196021 -0.8314696123025455 1.4769867325671012E-16
    outer loop
      vertex 2.3189463478522723 -4.348431723400509 -2.5
      vertex 3.535533905932737 -3.5355339059327386 -5.0
      vertex 3.535533905932737 -3.535533905932738 -2.5
    endloop
  endfacet
  facet normal 0.5555702330196024 -0.8314696123025452 -0.0
    outer loop
      vertex 1.9134171618254494 -4.619397662556434 2.5
      vertex 3.1300047199059158 -3.8064998450886613 2.5
      vertex 3.5355339059327378 -3.5355339059327373 5.0
    endloop
  endfacet
  facet normal 0.5555702330196024 -0.8314696123025452 -0.0
    outer loop
      vertex 1.9134171618254494 -4.619397662556434 2.5
      vertex 3.5355339059327378 -3.5355339059327373 5.0
      vertex 1.9134171618254492 -4.619397662556434 5.0
    endloop
  endfacet
  facet normal 0.5555702330196023 -0.8314696123025453 4.9009574937553965E-17
    outer loop
      vertex 3.1300047199059158 -3.8064998450886613 2.5
      vertex 3.5355339059327373 -3.5355339059327378 2.5
      vertex 3.5355339059327378 -3.5355339059327373 5.0
    endloop
  endfacet
  facet normal 0.1950903220161286 -0.9807852804032304 -2.3891673840167836E-17
    outer loop
      vertex 1.91341716182545 -4.619397662556433 -5.000000000000001
      vertex 1.4350628713690876 -4.7145482469173245 -2.5
      vertex -6.123233995736763E-16 -5.0 -2.5
    endloop
  endfacet
  facet normal 0.1950903220161286 -0.9807852804032304 -2.3891673840167836E-17
    outer loop
      vertex 1.91341716182545 -4.619397662556433 -5.000000000000001
      vertex -6.123233995736763E-16 -5.0 -2.5
      vertex -9.184850993605148E-16 -5.0 -5.000000000000001
    endloop
  endfacet
  facet normal 0.1950903220161281 -0.9807852804032305 1.7327501390707313E-17
    outer loop
      vertex 1.4350628713690874 -4.7145482469173245 -2.5
      vertex 1.91341716182545 -4.619397662556433 -5.000000000000001
      vertex 1.9134171618254499 -4.619397662556433 -2.5
    endloop
  endfacet
  facet normal 0.19509032201612797 -0.9807852804032305 -2.3891673840167753E-17
    outer loop
      vertex 0.4783542904563628 -4.9048494156391085 2.5
      vertex 3.061616997868383E-16 -5.0 5.0
      vertex 0.0 -5.0 2.5
    endloop
  endfacet
  facet normal 0.19509032201612816 -0.9807852804032304 2.2763261922000897E-17
    outer loop
      vertex 0.4783542904563627 -4.9048494156391085 2.5
      vertex 1.9134171618254494 -4.619397662556434 2.5
      vertex 1.9134171618254492 -4.619397662556434 5.0
    endloop
  endfacet
  facet normal 0.19509032201612816 -0.9807852804032304 2.2763261922000897E-17
    outer loop
      vertex 0.4783542904563627 -4.9048494156391085 2.5
      vertex 1.9134171618254492 -4.619397662556434 5.0
      vertex 3.061616997868383E-16 -5.0 5.0
    endloop
  endfacet
  facet normal 0.13928132531715354 -0.7002145072825531 -0.7002145072825532
    outer loop
      vertex 1.91341716182545 -4.619397662556433 -5.000000000000001
      vertex -9.184850993605148E-16 -5.0 -5.000000000000001
      vertex 0.0 6.123233995736766E-16 -10.0
    endloop
  endfacet
  facet normal 0.3966396567602819 -0.5936131960090991 -0.7002145072825533
    outer loop
      vertex 1.91341716182545 -4.619397662556433 -5.000000000000001
      vertex 0.0 6.123233995736766E-16 -10.0
      vertex 3.535533905932737 -3.5355339059327386 -5.0
    endloop
  endfacet
  facet normal -0.5936131960090992 0.39663965676028196 -0.7002145072825531
    outer loop
      vertex -2.5 1.0355339059327382 -7.294019499269015
      vertex -4.619397662556434 1.9134171618254494 -5.0
      vertex -3.5355339059327373 3.5355339059327378 -5.0
    endloop
  endfacet
  facet normal -0.5936131960090992 0.39663965676028196 -0.7002145072825531
    outer loop
      vertex -2.5 1.0355339059327382 -7.294019499269015
      vertex -3.5355339059327373 3.5355339059327378 -5.0
      vertex -2.5 2.5000000000000004 -6.464466094067262
    endloop
  endfacet
  facet normal -0.5936131960090992 0.39663965676028184 -0.7002145072825531
    outer loop
      vertex -2.5 1.0355339059327382 -7.294019499269015
      vertex -2.5 2.5000000000000004 -6.464466094067262
      vertex 0.0 6.123233995736766E-16 -10.0
    endloop
  endfacet
  facet normal -0.7002145072825532 0.13928132531715334 -0.7002145072825532
    outer loop
      vertex -4.619397662556434 1.9134171618254494 -5.0
      vertex -2.5 1.0355339059327382 -7.294019499269015
      vertex -2.5 6.123233995736766E-16 -7.5
    endloop
  endfacet
  facet normal -0.7002145072825532 0.13928132531715334 -0.7002145072825532
    outer loop
      vertex -4.619397662556434 1.9134171618254494 -5.0
      vertex -2.5 6.123233995736766E-16 -7.5
      vertex -5.0 6.123233995736766E-16 -5.0
    endloop
  endfacet
  facet normal -0.7002145072825532 0.13928132531715348 -0.7002145072825532
    outer loop
      vertex -2.5 1.0355339059327382 -7.294019499269015
      vertex 0.0 6.123233995736766E-16 -10.0
      vertex -2.5 6.123233995736766E-16 -7.5
    endloop
  endfacet
  facet normal 0.3966396567602817 0.5936131960090995 -0.7002145072825531
    outer loop
      vertex 1.9134171618254492 4.619397662556434 -4.999999999999999
      vertex 3.5355339059327378 3.5355339059327373 -5.0
      vertex 0.0 6.123233995736766E-16 -10.0
    endloop
  endfacet
  facet normal 0.13928132531715343 0.7002145072825533 -0.7002145072825531
    outer loop
      vertex 1.9134171618254492 4.619397662556434 -4.999999999999999
      vertex 0.0 6.123233995736766E-16 -10.0
      vertex 3.061616997868383E-16 5.0 -4.999999999999999
    endloop
  endfacet
  facet normal -0.13928132531715343 0.7002145072825533 -0.7002145072825531
    outer loop
      vertex -1.9134171618254485 4.619397662556434 -4.999999999999999
      vertex 3.061616997868383E-16 5.0 -4.999999999999999
      vertex 0.0 6.123233995736766E-16 -10.0
    endloop
  endfacet
  facet normal -0.39663965676028134 0.5936131960090998 -0.7002145072825531
    outer loop
      vertex -2.5 4.227455540718125 -4.999999999999999
      vertex -2.5 2.5000000000000004 -6.464466094067262
      vertex -3.5355339059327373 3.5355339059327378 -5.0
    endloop
  endfacet
  facet normal -0.3966396567602814 0.5936131960090995 -0.7002145072825531
    outer loop
      vertex -2.5 4.227455540718125 -4.999999999999999
      vertex -1.9134171618254485 4.619397662556434 -4.999999999999999
      vertex 0.0 6.123233995736766E-16 -10.0
    endloop
  endfacet
  facet normal -0.3966396567602814 0.5936131960090995 -0.7002145072825531
    outer loop
      vertex -2.5 4.227455540718125 -4.999999999999999
      vertex 0.0 6.123233995736766E-16 -10.0
      vertex -2.5 2.5000000000000004 -6.464466094067262
    endloop
  endfacet
  facet normal -0.7002145072825532 -0.13928132531715337 -0.7002145072825532
    outer loop
      vertex -2.5 -1.0355339059327369 -7.294019499269015
      vertex -4.619397662556434 -1.9134171618254483 -5.0
      vertex -5.0 6.123233995736766E-16 -5.0
    endloop
  endfacet
  facet normal -0.7002145072825532 -0.13928132531715337 -0.7002145072825532
    outer loop
      vertex -2.5 -1.0355339059327369 -7.294019499269015
      vertex -5.0 6.123233995736766E-16 -5.0
      vertex -2.5 6.123233995736766E-16 -7.5
    endloop
  endfacet
  facet normal -0.7002145072825532 -0.13928132531715334 -0.7002145072825532
    outer loop
      vertex -2.5 -1.0355339059327369 -7.294019499269015
      vertex -2.5 6.123233995736766E-16 -7.5
      vertex 0.0 6.123233995736766E-16 -10.0
    endloop
  endfacet
  facet normal -0.5936131960091 -0.396639656760281 -0.7002145072825529
    outer loop
      vertex -4.619397662556434 -1.9134171618254483 -5.0
      vertex -2.5 -1.035533905932737 -7.294019499269015
      vertex -2.5 -2.499999999999999 -6.464466094067264
    endloop
  endfacet
  facet normal -0.5936131960091 -0.396639656760281 -0.7002145072825529
    outer loop
      vertex -4.619397662556434 -1.9134171618254483 -5.0
      vertex -2.5 -2.499999999999999 -6.464466094067264
      vertex -3.5355339059327386 -3.5355339059327373 -5.0
    endloop
  endfacet
  facet normal -0.5936131960090996 -0.39663965676028107 -0.7002145072825532
    outer loop
      vertex -2.5 -1.035533905932737 -7.294019499269015
      vertex 0.0 6.123233995736766E-16 -10.0
      vertex -2.5 -2.499999999999999 -6.464466094067264
    endloop
  endfacet
  facet normal -0.9807852804032304 -0.19509032201612822 -1.7072446441500674E-17
    outer loop
      vertex -5.0 -6.123233995736766E-16 5.0
      vertex -4.619397662556434 -1.9134171618254483 -5.0
      vertex -4.619397662556434 -1.9134171618254494 5.0
    endloop
  endfacet
  facet normal -0.9807852804032304 -0.19509032201612822 -2.3891673840167784E-17
    outer loop
      vertex -5.0 -6.123233995736766E-16 5.0
      vertex -5.0 6.123233995736766E-16 -5.0
      vertex -4.619397662556434 -1.9134171618254483 -5.0
    endloop
  endfacet
  facet normal -0.7002145072825532 -0.13928132531715345 0.7002145072825532
    outer loop
      vertex -2.5 -3.061616997868383E-16 7.5
      vertex -5.0 -6.123233995736766E-16 5.0
      vertex -4.619397662556434 -1.9134171618254494 5.0
    endloop
  endfacet
  facet normal -0.7002145072825532 -0.13928132531715345 0.7002145072825532
    outer loop
      vertex -2.5 -3.061616997868383E-16 7.5
      vertex -4.619397662556434 -1.9134171618254494 5.0
      vertex -2.5 -1.035533905932738 7.294019499269015
    endloop
  endfacet
  facet normal -0.7002145072825532 -0.13928132531715334 0.7002145072825532
    outer loop
      vertex -2.5 -3.061616997868383E-16 7.5
      vertex -2.5 -1.035533905932738 7.294019499269015
      vertex 0.0 0.0 10.0
    endloop
  endfacet
  facet normal -0.1950903220161281 -0.9807852804032305 2.3891673840167756E-17
    outer loop
      vertex -0.4783542904563631 -4.9048494156391085 -2.5
      vertex -9.184850993605148E-16 -5.0 -5.000000000000001
      vertex -6.123233995736765E-16 -5.0 -2.5
    endloop
  endfacet
  facet normal -0.19509032201612891 -0.9807852804032303 -2.731591430640104E-16
    outer loop
      vertex -0.4783542904563629 -4.9048494156391085 -2.5
      vertex -1.9134171618254507 -4.619397662556433 -2.5
      vertex -1.9134171618254516 -4.619397662556432 -5.000000000000001
    endloop
  endfacet
  facet normal -0.19509032201612891 -0.9807852804032303 -2.731591430640104E-16
    outer loop
      vertex -0.4783542904563629 -4.9048494156391085 -2.5
      vertex -1.9134171618254516 -4.619397662556432 -5.000000000000001
      vertex -9.184850993605148E-16 -5.0 -5.000000000000001
    endloop
  endfacet
  facet normal -0.1950903220161282 -0.9807852804032304 2.3891673840167777E-17
    outer loop
      vertex -1.9134171618254485 -4.619397662556434 5.0
      vertex -1.4350628713690867 -4.714548246917325 2.5
      vertex 4.930380657631324E-32 -5.0 2.5
    endloop
  endfacet
  facet normal -0.1950903220161282 -0.9807852804032304 2.3891673840167777E-17
    outer loop
      vertex -1.9134171618254485 -4.619397662556434 5.0
      vertex 4.930380657631324E-32 -5.0 2.5
      vertex 3.061616997868383E-16 -5.0 5.0
    endloop
  endfacet
  facet normal -0.1950903220161281 -0.9807852804032305 5.198250417212196E-17
    outer loop
      vertex -1.4350628713690867 -4.714548246917325 2.5
      vertex -1.9134171618254485 -4.619397662556434 5.0
      vertex -1.9134171618254492 -4.619397662556434 2.5
    endloop
  endfacet
  facet normal -0.1392813253171534 -0.7002145072825532 0.7002145072825532
    outer loop
      vertex -1.9134171618254485 -4.619397662556434 5.0
      vertex 3.061616997868383E-16 -5.0 5.0
      vertex 0.0 0.0 10.0
    endloop
  endfacet
  facet normal 0.9807852804032301 -0.19509032201612986 6.828978576600264E-17
    outer loop
      vertex 4.619397662556432 -1.9134171618254512 -2.5
      vertex 4.619397662556432 -1.913417161825452 -5.0
      vertex 4.7145482469173245 -1.4350628713690887 -2.5
    endloop
  endfacet
  facet normal 0.9807852804032303 -0.19509032201612878 2.3891673840167845E-17
    outer loop
      vertex 4.7145482469173245 -1.4350628713690887 -2.5
      vertex 4.619397662556432 -1.913417161825452 -5.0
      vertex 5.0 0.0 -5.0
    endloop
  endfacet
  facet normal 0.9807852804032303 -0.19509032201612878 2.3891673840167845E-17
    outer loop
      vertex 4.7145482469173245 -1.4350628713690887 -2.5
      vertex 5.0 0.0 -5.0
      vertex 5.0 3.0616169978683826E-16 -2.5
    endloop
  endfacet
  facet normal 0.9807852804032305 -0.19509032201612808 6.828978576600265E-17
    outer loop
      vertex 4.619397662556433 -1.9134171618254496 2.5
      vertex 4.9048494156391085 -0.47835429045636213 2.5
      vertex 5.0 1.2246467991473533E-15 5.0
    endloop
  endfacet
  facet normal 0.9807852804032305 -0.19509032201612808 6.828978576600265E-17
    outer loop
      vertex 4.619397662556433 -1.9134171618254496 2.5
      vertex 5.0 1.2246467991473533E-15 5.0
      vertex 4.619397662556434 -1.913417161825449 5.0
    endloop
  endfacet
  facet normal 0.9807852804032305 -0.1950903220161279 2.389167384016774E-17
    outer loop
      vertex 4.9048494156391085 -0.478354290456362 2.5
      vertex 5.0 9.18485099360515E-16 2.5
      vertex 5.0 1.2246467991473533E-15 5.0
    endloop
  endfacet
  facet normal 0.8314696123025448 -0.5555702330196028 9.868909831915624E-17
    outer loop
      vertex 4.619397662556432 -1.913417161825452 -5.0
      vertex 4.348431723400509 -2.3189463478522736 -2.5
      vertex 3.535533905932737 -3.535533905932738 -2.5
    endloop
  endfacet
  facet normal 0.8314696123025448 -0.5555702330196028 9.868909831915624E-17
    outer loop
      vertex 4.619397662556432 -1.913417161825452 -5.0
      vertex 3.535533905932737 -3.535533905932738 -2.5
      vertex 3.535533905932737 -3.5355339059327386 -5.0
    endloop
  endfacet
  facet normal 0.8314696123025462 -0.5555702330196007 1.9737819663831172E-16
    outer loop
      vertex 4.348431723400509 -2.3189463478522736 -2.5
      vertex 4.619397662556432 -1.913417161825452 -5.0
      vertex 4.619397662556432 -1.9134171618254512 -2.5
    endloop
  endfacet
  facet normal 0.8314696123025449 -0.5555702330196028 -4.9009574937553774E-17
    outer loop
      vertex 3.8064998450886613 -3.130004719905916 2.5
      vertex 3.5355339059327378 -3.5355339059327373 5.0
      vertex 3.5355339059327373 -3.5355339059327378 2.5
    endloop
  endfacet
  facet normal 0.8314696123025452 -0.5555702330196024 -1.3657957153200542E-16
    outer loop
      vertex 3.806499845088662 -3.1300047199059158 2.5
      vertex 4.619397662556433 -1.9134171618254496 2.5
      vertex 4.619397662556434 -1.913417161825449 5.0
    endloop
  endfacet
  facet normal 0.8314696123025452 -0.5555702330196024 -1.3657957153200542E-16
    outer loop
      vertex 3.806499845088662 -3.1300047199059158 2.5
      vertex 4.619397662556434 -1.913417161825449 5.0
      vertex 3.5355339059327378 -3.5355339059327373 5.0
    endloop
  endfacet
  facet normal 0.5936131960090991 -0.3966396567602819 -0.7002145072825533
    outer loop
      vertex 4.619397662556432 -1.913417161825452 -5.0
      vertex 3.535533905932737 -3.5355339059327386 -5.0
      vertex 0.0 6.123233995736766E-16 -10.0
    endloop
  endfacet
  facet normal 0.7002145072825531 -0.1392813253171538 -0.7002145072825531
    outer loop
      vertex 4.619397662556432 -1.913417161825452 -5.0
      vertex 0.0 6.123233995736766E-16 -10.0
      vertex 5.0 0.0 -5.0
    endloop
  endfacet
  facet normal 0.8314696123025449 0.5555702330196028 -1.9348772633700786E-16
    outer loop
      vertex 4.619397662556434 1.9134171618254499 -2.5
      vertex 4.619397662556434 1.913417161825449 -5.0
      vertex 4.34843172340051 2.3189463478522714 -2.5
    endloop
  endfacet
  facet normal 0.8314696123025452 0.5555702330196024 -9.868909831915616E-17
    outer loop
      vertex 4.34843172340051 2.3189463478522714 -2.5
      vertex 4.619397662556434 1.913417161825449 -5.0
      vertex 3.5355339059327378 3.5355339059327373 -5.0
    endloop
  endfacet
  facet normal 0.8314696123025452 0.5555702330196024 -9.868909831915616E-17
    outer loop
      vertex 4.34843172340051 2.3189463478522714 -2.5
      vertex 3.5355339059327378 3.5355339059327373 -5.0
      vertex 3.5355339059327378 3.5355339059327378 -2.5
    endloop
  endfacet
  facet normal 0.831469612302545 0.5555702330196024 4.5526523844001843E-17
    outer loop
      vertex 4.619397662556433 1.9134171618254514 2.5
      vertex 3.8064998450886613 3.130004719905916 2.5
      vertex 3.535533905932737 3.5355339059327386 5.0
    endloop
  endfacet
  facet normal 0.831469612302545 0.5555702330196024 4.5526523844001843E-17
    outer loop
      vertex 4.619397662556433 1.9134171618254514 2.5
      vertex 3.535533905932737 3.5355339059327386 5.0
      vertex 4.619397662556432 1.913417161825452 5.0
    endloop
  endfacet
  facet normal 0.8314696123025451 0.5555702330196025 4.9009574937553903E-17
    outer loop
      vertex 3.8064998450886613 3.130004719905916 2.5
      vertex 3.5355339059327373 3.535533905932738 2.5
      vertex 3.535533905932737 3.5355339059327386 5.0
    endloop
  endfacet
  facet normal 0.9807852804032304 0.1950903220161282 -2.389167384016778E-17
    outer loop
      vertex 4.619397662556434 1.913417161825449 -5.0
      vertex 4.714548246917325 1.435062871369087 -2.5
      vertex 5.0 3.061616997868383E-16 -2.5
    endloop
  endfacet
  facet normal 0.9807852804032304 0.1950903220161282 -2.389167384016778E-17
    outer loop
      vertex 4.619397662556434 1.913417161825449 -5.0
      vertex 5.0 3.061616997868383E-16 -2.5
      vertex 5.0 0.0 -5.0
    endloop
  endfacet
  facet normal 0.9807852804032305 0.19509032201612792 -6.931000556282922E-17
    outer loop
      vertex 4.714548246917325 1.435062871369087 -2.5
      vertex 4.619397662556434 1.913417161825449 -5.0
      vertex 4.619397662556434 1.9134171618254499 -2.5
    endloop
  endfacet
  facet normal 0.9807852804032304 0.19509032201612825 -2.3891673840167784E-17
    outer loop
      vertex 4.9048494156391085 0.4783542904563631 2.5
      vertex 5.0 1.2246467991473533E-15 5.0
      vertex 5.0 9.18485099360515E-16 2.5
    endloop
  endfacet
  facet normal 0.9807852804032303 0.19509032201612891 2.9592240498601137E-16
    outer loop
      vertex 4.9048494156391085 0.47835429045636324 2.5
      vertex 4.619397662556433 1.9134171618254514 2.5
      vertex 4.619397662556432 1.913417161825452 5.0
    endloop
  endfacet
  facet normal 0.9807852804032303 0.19509032201612891 2.9592240498601137E-16
    outer loop
      vertex 4.9048494156391085 0.47835429045636324 2.5
      vertex 4.619397662556432 1.913417161825452 5.0
      vertex 5.0 1.2246467991473533E-15 5.0
    endloop
  endfacet
  facet normal 0.7002145072825532 0.13928132531715337 -0.7002145072825531
    outer loop
      vertex 4.619397662556434 1.913417161825449 -5.0
      vertex 5.0 0.0 -5.0
      vertex 0.0 6.123233995736766E-16 -10.0
    endloop
  endfacet
  facet normal 0.5936131960090992 0.39663965676028184 -0.7002145072825532
    outer loop
      vertex 4.619397662556434 1.913417161825449 -5.0
      vertex 0.0 6.123233995736766E-16 -10.0
      vertex 3.5355339059327378 3.5355339059327373 -5.0
    endloop
  endfacet
  facet normal 0.5555702330196025 0.8314696123025451 -0.0
    outer loop
      vertex 1.9134171618254494 4.619397662556434 -2.5
      vertex 3.1300047199059158 3.8064998450886613 -2.5
      vertex 3.5355339059327378 3.5355339059327373 -5.0
    endloop
  endfacet
  facet normal 0.5555702330196025 0.8314696123025451 -0.0
    outer loop
      vertex 1.9134171618254494 4.619397662556434 -2.5
      vertex 3.5355339059327378 3.5355339059327373 -5.0
      vertex 1.9134171618254492 4.619397662556434 -4.999999999999999
    endloop
  endfacet
  facet normal 0.5555702330196018 0.8314696123025456 -1.4769867325671015E-16
    outer loop
      vertex 3.1300047199059158 3.8064998450886613 -2.5
      vertex 3.5355339059327378 3.5355339059327378 -2.5
      vertex 3.5355339059327378 3.5355339059327373 -5.0
    endloop
  endfacet
  facet normal 0.5555702330196025 0.8314696123025451 -4.552652384400182E-17
    outer loop
      vertex 1.9134171618254499 4.619397662556433 2.5
      vertex 1.91341716182545 4.619397662556433 5.0
      vertex 2.318946347852272 4.348431723400509 2.5
    endloop
  endfacet
  facet normal 0.5555702330196021 0.8314696123025453 -4.900957493755401E-17
    outer loop
      vertex 2.318946347852272 4.348431723400509 2.5
      vertex 1.91341716182545 4.619397662556433 5.0
      vertex 3.535533905932737 3.5355339059327386 5.0
    endloop
  endfacet
  facet normal 0.5555702330196021 0.8314696123025453 -4.900957493755401E-17
    outer loop
      vertex 2.318946347852272 4.348431723400509 2.5
      vertex 3.535533905932737 3.5355339059327386 5.0
      vertex 3.5355339059327373 3.535533905932738 2.5
    endloop
  endfacet
  facet normal 0.19509032201612803 0.9807852804032305 2.389167384016777E-17
    outer loop
      vertex 0.47835429045636263 4.9048494156391085 -2.5
      vertex 3.061616997868383E-16 5.0 -4.999999999999999
      vertex 0.0 5.0 -2.5
    endloop
  endfacet
  facet normal 0.1950903220161282 0.9807852804032304 -2.2763261922000903E-17
    outer loop
      vertex 0.4783542904563627 4.9048494156391085 -2.5
      vertex 1.9134171618254494 4.619397662556434 -2.5
      vertex 1.9134171618254492 4.619397662556434 -4.999999999999999
    endloop
  endfacet
  facet normal 0.1950903220161282 0.9807852804032304 -2.2763261922000903E-17
    outer loop
      vertex 0.4783542904563627 4.9048494156391085 -2.5
      vertex 1.9134171618254492 4.619397662556434 -4.999999999999999
      vertex 3.061616997868383E-16 5.0 -4.999999999999999
    endloop
  endfacet
  facet normal 0.1950903220161286 0.9807852804032304 2.3891673840167827E-17
    outer loop
      vertex 1.91341716182545 4.619397662556433 5.0
      vertex 1.4350628713690876 4.7145482469173245 2.5
      vertex -6.123233995736765E-16 5.0 2.5
    endloop
  endfacet
  facet normal 0.1950903220161286 0.9807852804032304 2.3891673840167827E-17
    outer loop
      vertex 1.91341716182545 4.619397662556433 5.0
      vertex -6.123233995736765E-16 5.0 2.5
      vertex -9.184850993605148E-16 5.0 5.0
    endloop
  endfacet
  facet normal 0.19509032201612816 0.9807852804032304 -1.732750139070733E-17
    outer loop
      vertex 1.4350628713690876 4.7145482469173245 2.5
      vertex 1.91341716182545 4.619397662556433 5.0
      vertex 1.9134171618254499 4.619397662556433 2.5
    endloop
  endfacet
  facet normal 0.13928132531715356 0.7002145072825532 0.7002145072825531
    outer loop
      vertex 1.91341716182545 4.619397662556433 5.0
      vertex -9.184850993605148E-16 5.0 5.0
      vertex 0.0 0.0 10.0
    endloop
  endfacet
  facet normal 0.3966396567602816 0.5936131960090993 0.7002145072825532
    outer loop
      vertex 1.91341716182545 4.619397662556433 5.0
      vertex 0.0 0.0 10.0
      vertex 3.535533905932737 3.5355339059327386 5.0
    endloop
  endfacet
  facet normal -0.19509032201612822 0.9807852804032304 -4.552652384400182E-17
    outer loop
      vertex -1.9134171618254494 4.619397662556434 -2.5
      vertex -0.47835429045636246 4.9048494156391085 -2.5
      vertex 3.061616997868383E-16 5.0 -4.999999999999999
    endloop
  endfacet
  facet normal -0.19509032201612822 0.9807852804032304 -4.552652384400182E-17
    outer loop
      vertex -1.9134171618254494 4.619397662556434 -2.5
      vertex 3.061616997868383E-16 5.0 -4.999999999999999
      vertex -1.9134171618254485 4.619397662556434 -4.999999999999999
    endloop
  endfacet
  facet normal -0.19509032201612977 0.9807852804032302 -2.389167384016797E-17
    outer loop
      vertex -0.4783542904563627 4.904849415639108 -2.5
      vertex 1.4791141972893971E-31 5.0 -2.5
      vertex 3.061616997868383E-16 5.0 -4.999999999999999
    endloop
  endfacet
  facet normal -0.1950903220161281 0.9807852804032305 3.016132204665118E-16
    outer loop
      vertex -1.913417161825451 4.619397662556433 2.5
      vertex -1.9134171618254516 4.619397662556432 5.0
      vertex -1.4350628713690885 4.7145482469173245 2.5
    endloop
  endfacet
  facet normal -0.19509032201612891 0.9807852804032303 -2.3891673840167864E-17
    outer loop
      vertex -1.4350628713690887 4.714548246917324 2.5
      vertex -1.9134171618254516 4.619397662556432 5.0
      vertex -9.184850993605148E-16 5.0 5.0
    endloop
  endfacet
  facet normal -0.19509032201612891 0.9807852804032303 -2.3891673840167864E-17
    outer loop
      vertex -1.4350628713690887 4.714548246917324 2.5
      vertex -9.184850993605148E-16 5.0 5.0
      vertex -6.123233995736765E-16 5.0 2.5
    endloop
  endfacet
  facet normal -0.555570233019602 0.8314696123025455 -3.7092155425189535E-17
    outer loop
      vertex -2.5 4.227455540718126 5.0
      vertex -2.5 4.227455540718125 1.3838432695707858
      vertex -3.5355339059327373 3.5355339059327378 -5.0
    endloop
  endfacet
  facet normal -0.555570233019602 0.8314696123025455 -3.7092155425189535E-17
    outer loop
      vertex -2.5 4.227455540718126 5.0
      vertex -3.5355339059327373 3.5355339059327378 -5.0
      vertex -3.5355339059327386 3.5355339059327373 5.0
    endloop
  endfacet
  facet normal -0.5555702330196021 0.8314696123025453 -0.0
    outer loop
      vertex -2.5 4.227455540718125 1.3838432695707863
      vertex -2.5 4.227455540718125 -4.999999999999999
      vertex -3.5355339059327373 3.5355339059327378 -5.0
    endloop
  endfacet
  facet normal -0.5555702330196024 0.8314696123025451 -1.573719256306887E-16
    outer loop
      vertex -2.5 4.227455540718125 -2.5
      vertex -1.9134171618254492 4.619397662556434 -2.5
      vertex -1.9134171618254485 4.619397662556434 -4.999999999999999
    endloop
  endfacet
  facet normal -0.5555702330196024 0.8314696123025451 -1.573719256306887E-16
    outer loop
      vertex -2.5 4.227455540718125 -2.5
      vertex -1.9134171618254485 4.619397662556434 -4.999999999999999
      vertex -2.5 4.227455540718125 -4.999999999999999
    endloop
  endfacet
  facet normal -0.5555702330196018 0.8314696123025455 -2.321235903052671E-16
    outer loop
      vertex -2.5 4.227455540718125 2.5
      vertex -2.5 4.227455540718126 5.0
      vertex -1.9134171618254516 4.619397662556432 5.0
    endloop
  endfacet
  facet normal -0.5555702330196018 0.8314696123025455 -2.321235903052671E-16
    outer loop
      vertex -2.5 4.227455540718125 2.5
      vertex -1.9134171618254516 4.619397662556432 5.0
      vertex -2.318946347852273 4.348431723400508 2.5
    endloop
  endfacet
  facet normal -0.5555702330196033 0.8314696123025446 9.80191498751073E-17
    outer loop
      vertex -2.318946347852273 4.348431723400508 2.5
      vertex -1.9134171618254516 4.619397662556432 5.0
      vertex -1.9134171618254507 4.619397662556433 2.5
    endloop
  endfacet
  facet normal -0.3966396567602817 0.5936131960090991 0.7002145072825532
    outer loop
      vertex -2.5 4.227455540718126 5.0
      vertex -3.5355339059327386 3.5355339059327373 5.0
      vertex -2.5 2.499999999999999 6.464466094067263
    endloop
  endfacet
  facet normal -0.39663965676028184 0.5936131960090991 0.7002145072825532
    outer loop
      vertex -1.9134171618254516 4.619397662556432 5.0
      vertex -2.5 4.227455540718126 5.0
      vertex -2.5 2.499999999999999 6.464466094067263
    endloop
  endfacet
  facet normal -0.39663965676028184 0.5936131960090991 0.7002145072825532
    outer loop
      vertex -1.9134171618254516 4.619397662556432 5.0
      vertex -2.5 2.499999999999999 6.464466094067263
      vertex 0.0 0.0 10.0
    endloop
  endfacet
  facet normal -0.13928132531715387 0.700214507282553 0.7002145072825532
    outer loop
      vertex -1.9134171618254516 4.619397662556432 5.0
      vertex 0.0 0.0 10.0
      vertex -9.184850993605148E-16 5.0 5.0
    endloop
  endfacet
  facet normal -0.9807852804032304 0.19509032201612816 2.2763261922000897E-17
    outer loop
      vertex -4.619397662556434 1.9134171618254483 5.0
      vertex -5.0 6.123233995736766E-16 -5.0
      vertex -5.0 -6.123233995736766E-16 5.0
    endloop
  endfacet
  facet normal -0.9807852804032304 0.19509032201612822 2.1659376738384164E-17
    outer loop
      vertex -4.619397662556434 1.9134171618254483 5.0
      vertex -4.619397662556434 1.9134171618254494 -5.0
      vertex -5.0 6.123233995736766E-16 -5.0
    endloop
  endfacet
  facet normal -0.7002145072825532 0.1392813253171534 0.7002145072825532
    outer loop
      vertex -2.5 1.0355339059327373 7.294019499269015
      vertex -4.619397662556434 1.9134171618254483 5.0
      vertex -5.0 -6.123233995736766E-16 5.0
    endloop
  endfacet
  facet normal -0.7002145072825532 0.1392813253171534 0.7002145072825532
    outer loop
      vertex -2.5 1.0355339059327373 7.294019499269015
      vertex -5.0 -6.123233995736766E-16 5.0
      vertex -2.5 -3.061616997868383E-16 7.5
    endloop
  endfacet
  facet normal -0.7002145072825532 0.13928132531715331 0.7002145072825532
    outer loop
      vertex -2.5 1.0355339059327373 7.294019499269015
      vertex -2.5 -3.061616997868383E-16 7.5
      vertex 0.0 0.0 10.0
    endloop
  endfacet
  facet normal -0.5936131960091 0.396639656760281 0.7002145072825529
    outer loop
      vertex -4.619397662556434 1.9134171618254483 5.0
      vertex -2.5 1.0355339059327373 7.294019499269015
      vertex -2.5 2.499999999999999 6.464466094067264
    endloop
  endfacet
  facet normal -0.5936131960091 0.396639656760281 0.7002145072825529
    outer loop
      vertex -4.619397662556434 1.9134171618254483 5.0
      vertex -2.5 2.499999999999999 6.464466094067264
      vertex -3.5355339059327386 3.5355339059327373 5.0
    endloop
  endfacet
  facet normal -0.5936131960090996 0.3966396567602811 0.7002145072825532
    outer loop
      vertex -2.5 1.0355339059327373 7.294019499269015
      vertex 0.0 0.0 10.0
      vertex -2.5 2.499999999999999 6.464466094067264
    endloop
  endfacet
  facet normal -0.8314696123025451 0.5555702330196025 6.168068644947261E-17
    outer loop
      vertex -4.619397662556434 1.9134171618254483 5.0
      vertex -3.5355339059327373 3.5355339059327378 -5.0
      vertex -4.619397662556434 1.9134171618254494 -5.0
    endloop
  endfacet
  facet normal -0.8314696123025456 0.555570233019602 -9.105304768800361E-17
    outer loop
      vertex -4.619397662556434 1.9134171618254483 5.0
      vertex -3.5355339059327386 3.5355339059327373 5.0
      vertex -3.5355339059327373 3.5355339059327378 -5.0
    endloop
  endfacet
  facet normal -0.8314696123025456 -0.5555702330196018 8.610173036274359E-17
    outer loop
      vertex -3.5355339059327373 -3.5355339059327378 5.0
      vertex -4.619397662556434 -1.9134171618254483 -5.0
      vertex -3.5355339059327386 -3.5355339059327373 -5.0
    endloop
  endfacet
  facet normal -0.8314696123025451 -0.5555702330196025 -5.690815480500226E-17
    outer loop
      vertex -3.5355339059327373 -3.5355339059327378 5.0
      vertex -4.619397662556434 -1.9134171618254494 5.0
      vertex -4.619397662556434 -1.9134171618254483 -5.0
    endloop
  endfacet
  facet normal -0.5555702330196021 -0.8314696123025453 0.0
    outer loop
      vertex -2.5 -4.227455540718125 5.0
      vertex -3.5355339059327373 -3.5355339059327378 5.0
      vertex -2.5 -4.227455540718125 -1.3838432695707872
    endloop
  endfacet
  facet normal -0.5555702330196024 -0.8314696123025452 3.5657614012086156E-17
    outer loop
      vertex -2.5 -4.227455540718125 -1.3838432695707858
      vertex -3.5355339059327373 -3.5355339059327378 5.0
      vertex -3.5355339059327386 -3.5355339059327373 -5.0
    endloop
  endfacet
  facet normal -0.5555702330196024 -0.8314696123025452 3.5657614012086156E-17
    outer loop
      vertex -2.5 -4.227455540718125 -1.3838432695707858
      vertex -3.5355339059327386 -3.5355339059327373 -5.0
      vertex -2.5 -4.227455540718126 -5.000000000000001
    endloop
  endfacet
  facet normal -0.5555702330196021 -0.8314696123025455 1.9737819663831212E-16
    outer loop
      vertex -2.318946347852273 -4.348431723400508 -2.5
      vertex -1.9134171618254516 -4.619397662556432 -5.000000000000001
      vertex -1.9134171618254507 -4.619397662556432 -2.5
    endloop
  endfacet
  facet normal -0.5555702330196018 -0.8314696123025455 2.832694661352411E-16
    outer loop
      vertex -2.318946347852273 -4.348431723400508 -2.5
      vertex -2.5 -4.227455540718125 -2.5
      vertex -2.5 -4.227455540718126 -5.000000000000001
    endloop
  endfacet
  facet normal -0.5555702330196018 -0.8314696123025455 2.832694661352411E-16
    outer loop
      vertex -2.318946347852273 -4.348431723400508 -2.5
      vertex -2.5 -4.227455540718126 -5.000000000000001
      vertex -1.9134171618254516 -4.619397662556432 -5.000000000000001
    endloop
  endfacet
  facet normal -0.5555702330196021 -0.8314696123025455 -1.473636990346861E-16
    outer loop
      vertex -2.5 -4.227455540718125 5.0
      vertex -2.5 -4.227455540718125 2.5000000000000004
      vertex -1.9134171618254492 -4.619397662556433 2.5
    endloop
  endfacet
  facet normal -0.5555702330196021 -0.8314696123025455 -1.473636990346861E-16
    outer loop
      vertex -2.5 -4.227455540718125 5.0
      vertex -1.9134171618254492 -4.619397662556433 2.5
      vertex -1.9134171618254485 -4.619397662556434 5.0
    endloop
  endfacet
  facet normal -0.3966396567602816 -0.5936131960090993 0.7002145072825532
    outer loop
      vertex -2.5 -2.5 6.464466094067262
      vertex -3.5355339059327373 -3.5355339059327378 5.0
      vertex -2.5 -4.227455540718125 5.0
    endloop
  endfacet
  facet normal -0.39663965676028184 -0.5936131960090991 0.7002145072825532
    outer loop
      vertex -2.5 -2.5 6.464466094067262
      vertex -2.5 -4.227455540718125 5.0
      vertex -1.9134171618254485 -4.619397662556434 5.0
    endloop
  endfacet
  facet normal -0.39663965676028184 -0.5936131960090991 0.7002145072825532
    outer loop
      vertex -2.5 -2.5 6.464466094067262
      vertex -1.9134171618254485 -4.619397662556434 5.0
      vertex 0.0 0.0 10.0
    endloop
  endfacet
  facet normal -0.5936131960090992 -0.39663965676028173 0.7002145072825532
    outer loop
      vertex -3.5355339059327373 -3.5355339059327378 5.0
      vertex -2.5 -2.5000000000000004 6.464466094067262
      vertex -2.5 -1.0355339059327378 7.294019499269015
    endloop
  endfacet
  facet normal -0.5936131960090992 -0.39663965676028173 0.7002145072825532
    outer loop
      vertex -3.5355339059327373 -3.5355339059327378 5.0
      vertex -2.5 -1.0355339059327378 7.294019499269015
      vertex -4.619397662556434 -1.9134171618254494 5.0
    endloop
  endfacet
  facet normal -0.5936131960090992 -0.3966396567602817 0.7002145072825531
    outer loop
      vertex -2.5 -2.5000000000000004 6.464466094067262
      vertex 0.0 0.0 10.0
      vertex -2.5 -1.0355339059327378 7.294019499269015
    endloop
  endfacet
  facet normal 1.0 -0.0 -0.0
    outer loop
      vertex -2.5 -4.227455540718125 -2.5
      vertex -2.5 4.227455540718125 -2.5
      vertex -2.5 4.2274555407181245 2.5
    endloop
  endfacet
  facet normal 1.0 -0.0 -0.0
    outer loop
      vertex -2.5 -4.227455540718125 -2.5
      vertex -2.5 4.2274555407181245 2.5
      vertex -2.5 -4.227455540718125 2.5
    endloop
  endfacet
  facet normal -0.0 -0.0 1.0
    outer loop
      vertex -1.913417161825447 -4.619397662556434 -2.5
      vertex -8.881784197001252E-16 -5.0 -2.5
      vertex 1.9134171618254499 -4.619397662556433 -2.5
    endloop
  endfacet
  facet normal -0.0 -0.0 1.0
    outer loop
      vertex -1.913417161825447 -4.619397662556434 -2.5
      vertex 1.9134171618254499 -4.619397662556433 -2.5
      vertex 3.5355339059327395 -3.5355339059327355 -2.5
    endloop
  endfacet
  facet normal -0.0 -0.0 1.0
    outer loop
      vertex -1.913417161825447 -4.619397662556434 -2.5
      vertex 3.5355339059327395 -3.5355339059327355 -2.5
      vertex 4.619397662556432 -1.9134171618254525 -2.5
    endloop
  endfacet
  facet normal -0.0 -0.0 1.0
    outer loop
      vertex -1.913417161825447 -4.619397662556434 -2.5
      vertex 4.619397662556432 -1.9134171618254525 -2.5
      vertex 4.999999999999999 2.6645352591003757E-15 -2.5
    endloop
  endfacet
  facet normal -0.0 -0.0 1.0
    outer loop
      vertex -1.913417161825447 -4.619397662556434 -2.5
      vertex 4.999999999999999 2.6645352591003757E-15 -2.5
      vertex 4.619397662556434 1.9134171618254503 -2.5
    endloop
  endfacet
  facet normal -0.0 -0.0 1.0
    outer loop
      vertex -1.913417161825447 -4.619397662556434 -2.5
      vertex 4.619397662556434 1.9134171618254503 -2.5
      vertex 3.5355339059327386 3.535533905932736 -2.5
    endloop
  endfacet
  facet normal -0.0 -0.0 1.0
    outer loop
      vertex -1.913417161825447 -4.619397662556434 -2.5
      vertex 3.5355339059327386 3.535533905932736 -2.5
      vertex 1.9134171618254499 4.619397662556433 -2.5
    endloop
  endfacet
  facet normal -0.0 -0.0 1.0
    outer loop
      vertex -1.913417161825447 -4.619397662556434 -2.5
      vertex 1.9134171618254499 4.619397662556433 -2.5
      vertex -1.3322676295501878E-15 5.0 -2.5
    endloop
  endfacet
  facet normal -0.0 -0.0 1.0
    outer loop
      vertex -1.913417161825447 -4.619397662556434 -2.5
      vertex -1.3322676295501878E-15 5.0 -2.5
      vertex -1.9134171618254436 4.619397662556437 -2.5
    endloop
  endfacet
  facet normal -0.0 -0.0 1.0
    outer loop
      vertex -1.913417161825447 -4.619397662556434 -2.5
      vertex -1.9134171618254436 4.619397662556437 -2.5
      vertex -2.5 4.227455540718126 -2.5
    endloop
  endfacet
  facet normal -0.0 -0.0 1.0
    outer loop
      vertex -1.913417161825447 -4.619397662556434 -2.5
      vertex -2.5 4.227455540718126 -2.5
      vertex -2.5 -4.227455540718125 -2.5
    endloop
  endfacet
  facet normal -0.0 -0.0 -1.0
    outer loop
      vertex -1.913417161825448 -4.619397662556435 2.5
      vertex -2.5 -4.227455540718125 2.5
      vertex -2.5 4.227455540718125 2.5
    endloop
  endfacet
  facet normal -0.0 -0.0 -1.0
    outer loop
      vertex -1.913417161825448 -4.619397662556435 2.5
      vertex -2.5 4.227455540718125 2.5
      vertex -1.913417161825449 4.619397662556434 2.5
    endloop
  endfacet
  facet normal -0.0 -0.0 -1.0
    outer loop
      vertex -1.913417161825448 -4.619397662556435 2.5
      vertex -1.913417161825449 4.619397662556434 2.5
      vertex 0.0 5.0 2.5
    endloop
  endfacet
  facet normal -0.0 -0.0 -1.0
    outer loop
      vertex -1.913417161825448 -4.619397662556435 2.5
      vertex 0.0 5.0 2.5
      vertex 1.9134171618254479 4.619397662556435 2.5
    endloop
  endfacet
  facet normal -0.0 -0.0 -1.0
    outer loop
      vertex -1.913417161825448 -4.619397662556435 2.5
      vertex 1.9134171618254479 4.619397662556435 2.5
      vertex 3.53553390593274 3.535533905932735 2.5
    endloop
  endfacet
  facet normal -0.0 -0.0 -1.0
    outer loop
      vertex -1.913417161825448 -4.619397662556435 2.5
      vertex 3.53553390593274 3.535533905932735 2.5
      vertex 4.619397662556434 1.9134171618254503 2.5
    endloop
  endfacet
  facet normal -0.0 -0.0 -1.0
    outer loop
      vertex -1.913417161825448 -4.619397662556435 2.5
      vertex 4.619397662556434 1.9134171618254503 2.5
      vertex 5.0 8.881784197001252E-16 2.5
    endloop
  endfacet
  facet normal -0.0 -0.0 -1.0
    outer loop
      vertex -1.913417161825448 -4.619397662556435 2.5
      vertex 5.0 8.881784197001252E-16 2.5
      vertex 4.619397662556434 -1.9134171618254487 2.5
    endloop
  endfacet
  facet normal -0.0 -0.0 -1.0
    outer loop
      vertex -1.913417161825448 -4.619397662556435 2.5
      vertex 4.619397662556434 -1.9134171618254487 2.5
      vertex 3.5355339059327373 -3.535533905932737 2.5
    endloop
  endfacet
  facet normal -0.0 -0.0 -1.0
    outer loop
      vertex -1.913417161825448 -4.619397662556435 2.5
      vertex 3.5355339059327373 -3.535533905932737 2.5
      vertex 1.9134171618254494 -4.619397662556433 2.5
    endloop
  endfacet
  facet normal -0.0 -0.0 -1.0
    outer loop
      vertex -1.913417161825448 -4.619397662556435 2.5
      vertex 1.9134171618254494 -4.619397662556433 2.5
      vertex -1.7763568394002505E-15 -5.0 2.5
    endloop
  endfacet
endsolid v3d.csg
