solid v3d.csg
  facet normal 0.0 0.0 -1.0
    outer loop
      vertex 1.3000000000000007 9.900000000000002 0.0
      vertex 0.6 7.1000000000000005 0.0
      vertex 0.0 8.600000000000001 0.0
    endloop
  endfacet
  facet normal 0.0 0.0 -1.0
    outer loop
      vertex 10.9 0.0 0.0
      vertex 0.6 7.1000000000000005 0.0
      vertex 1.3000000000000007 9.900000000000002 0.0
    endloop
  endfacet
  facet normal 0.0 0.0 -1.0
    outer loop
      vertex 0.6 7.1000000000000005 0.0
      vertex 0.0 7.1000000000000005 0.0
      vertex 0.0 8.600000000000001 0.0
    endloop
  endfacet
  facet normal 0.0 0.0 -1.0
    outer loop
      vertex 10.9 0.0 0.0
      vertex 0.6 6.0 0.0
      vertex 0.6 7.1000000000000005 0.0
    endloop
  endfacet
  facet normal 0.0 0.0 -1.0
    outer loop
      vertex 10.9 0.0 0.0
      vertex 1.3000000000000007 9.900000000000002 0.0
      vertex 10.9 14.9 0.0
    endloop
  endfacet
  facet normal 0.0 0.0 -1.0
    outer loop
      vertex 0.0 0.0 0.0
      vertex 0.6 6.0 0.0
      vertex 10.9 0.0 0.0
    endloop
  endfacet
  facet normal 0.0 0.0 -1.0
    outer loop
      vertex 1.3000000000000007 9.900000000000002 0.0
      vertex 1.3000000000000007 14.9 0.0
      vertex 10.9 14.9 0.0
    endloop
  endfacet
  facet normal 0.0 0.0 -1.0
    outer loop
      vertex 0.0 0.0 0.0
      vertex 0.0 5.4 0.0
      vertex 0.6 6.0 0.0
    endloop
  endfacet
  facet normal 0.0 -1.0 0.0
    outer loop
      vertex 10.9 0.0 0.0
      vertex 10.9 0.0 0.6
      vertex 0.0 0.0 0.6
    endloop
  endfacet
  facet normal 0.0 -1.0 0.0
    outer loop
      vertex 10.9 0.0 0.0
      vertex 0.0 0.0 0.6
      vertex 0.0 0.0 0.0
    endloop
  endfacet
  facet normal 1.0 0.0 -0.0
    outer loop
      vertex 10.9 14.9 0.0
      vertex 10.9 14.9 0.6
      vertex 10.9 0.0 0.6
    endloop
  endfacet
  facet normal 1.0 0.0 -0.0
    outer loop
      vertex 10.9 14.9 0.0
      vertex 10.9 0.0 0.6
      vertex 10.9 0.0 0.0
    endloop
  endfacet
  facet normal 0.0 1.0 0.0
    outer loop
      vertex 1.3000000000000007 14.9 0.0
      vertex 1.3000000000000007 14.9 0.6
      vertex 10.9 14.9 0.6
    endloop
  endfacet
  facet normal 0.0 1.0 0.0
    outer loop
      vertex 1.3000000000000007 14.9 0.0
      vertex 10.9 14.9 0.6
      vertex 10.9 14.9 0.0
    endloop
  endfacet
  facet normal -1.0 0.0 0.0
    outer loop
      vertex 1.3000000000000007 9.900000000000002 0.0
      vertex 1.3000000000000007 9.900000000000002 0.6
      vertex 1.3000000000000007 14.9 0.6
    endloop
  endfacet
  facet normal -1.0 0.0 0.0
    outer loop
      vertex 1.3000000000000007 9.900000000000002 0.0
      vertex 1.3000000000000007 14.9 0.6
      vertex 1.3000000000000007 14.9 0.0
    endloop
  endfacet
  facet normal -0.7071067811865476 0.7071067811865476 0.0
    outer loop
      vertex 0.0 8.600000000000001 0.0
      vertex 0.0 8.600000000000001 0.6
      vertex 1.3000000000000007 9.900000000000002 0.6
    endloop
  endfacet
  facet normal -0.7071067811865476 0.7071067811865476 0.0
    outer loop
      vertex 0.0 8.600000000000001 0.0
      vertex 1.3000000000000007 9.900000000000002 0.6
      vertex 1.3000000000000007 9.900000000000002 0.0
    endloop
  endfacet
  facet normal -1.0 0.0 0.0
    outer loop
      vertex 0.0 7.1000000000000005 0.0
      vertex 0.0 7.1000000000000005 0.6
      vertex 0.0 8.600000000000001 0.6
    endloop
  endfacet
  facet normal -1.0 0.0 0.0
    outer loop
      vertex 0.0 7.1000000000000005 0.0
      vertex 0.0 8.600000000000001 0.6
      vertex 0.0 8.600000000000001 0.0
    endloop
  endfacet
  facet normal 0.0 -1.0 0.0
    outer loop
      vertex 0.6 7.1000000000000005 0.0
      vertex 0.6 7.1000000000000005 0.6
      vertex 0.0 7.1000000000000005 0.6
    endloop
  endfacet
  facet normal 0.0 -1.0 0.0
    outer loop
      vertex 0.6 7.1000000000000005 0.0
      vertex 0.0 7.1000000000000005 0.6
      vertex 0.0 7.1000000000000005 0.0
    endloop
  endfacet
  facet normal -1.0 0.0 0.0
    outer loop
      vertex 0.6 6.0 0.0
      vertex 0.6 6.0 0.6
      vertex 0.6 7.1000000000000005 0.6
    endloop
  endfacet
  facet normal -1.0 0.0 0.0
    outer loop
      vertex 0.6 6.0 0.0
      vertex 0.6 7.1000000000000005 0.6
      vertex 0.6 7.1000000000000005 0.0
    endloop
  endfacet
  facet normal -0.7071067811865474 0.7071067811865478 0.0
    outer loop
      vertex 0.0 5.4 0.0
      vertex 0.0 5.4 0.6
      vertex 0.6 6.0 0.6
    endloop
  endfacet
  facet normal -0.7071067811865474 0.7071067811865478 0.0
    outer loop
      vertex 0.0 5.4 0.0
      vertex 0.6 6.0 0.6
      vertex 0.6 6.0 0.0
    endloop
  endfacet
  facet normal -1.0 0.0 0.0
    outer loop
      vertex 0.0 0.0 0.0
      vertex 0.0 0.0 0.6
      vertex 0.0 5.4 0.6
    endloop
  endfacet
  facet normal -1.0 0.0 0.0
    outer loop
      vertex 0.0 0.0 0.0
      vertex 0.0 5.4 0.6
      vertex 0.0 5.4 0.0
    endloop
  endfacet
  facet normal -0.0 0.0 1.0
    outer loop
      vertex 0.0 8.600000000000001 0.6
      vertex 0.6 7.1000000000000005 0.6
      vertex 1.3000000000000007 9.900000000000002 0.6
    endloop
  endfacet
  facet normal 0.0 0.0 1.0
    outer loop
      vertex 1.3000000000000007 9.900000000000002 0.6
      vertex 0.6 7.1000000000000005 0.6
      vertex 10.9 0.0 0.6
    endloop
  endfacet
  facet normal 0.0 0.0 1.0
    outer loop
      vertex 0.0 8.600000000000001 0.6
      vertex 0.0 7.1000000000000005 0.6
      vertex 0.6 7.1000000000000005 0.6
    endloop
  endfacet
  facet normal 0.0 0.0 1.0
    outer loop
      vertex 0.6 7.1000000000000005 0.6
      vertex 0.6 6.0 0.6
      vertex 10.9 0.0 0.6
    endloop
  endfacet
  facet normal 0.0 0.0 1.0
    outer loop
      vertex 10.9 14.9 0.6
      vertex 1.3000000000000007 9.900000000000002 0.6
      vertex 10.9 0.0 0.6
    endloop
  endfacet
  facet normal 0.0 0.0 1.0
    outer loop
      vertex 10.9 0.0 0.6
      vertex 0.6 6.0 0.6
      vertex 0.0 0.0 0.6
    endloop
  endfacet
  facet normal 0.0 0.0 1.0
    outer loop
      vertex 10.9 14.9 0.6
      vertex 1.3000000000000007 14.9 0.6
      vertex 1.3000000000000007 9.900000000000002 0.6
    endloop
  endfacet
  facet normal 0.0 0.0 1.0
    outer loop
      vertex 0.6 6.0 0.6
      vertex 0.0 5.4 0.6
      vertex 0.0 0.0 0.6
    endloop
  endfacet
endsolid v3d.csg
