solid v3d.csg
  facet normal 1.0 0.0 0.0
    outer loop
      vertex 5.0 10.0 1.0
      vertex 5.0 -10.0 0.0
      vertex 5.0 10.0 0.0
    endloop
  endfacet
  facet normal 1.0 0.0 0.0
    outer loop
      vertex 5.0 10.0 1.0
      vertex 5.0 -10.0 1.0
      vertex 5.0 -10.0 0.0
    endloop
  endfacet
  facet normal -0.0 -0.0 -1.0
    outer loop
      vertex 25.0 10.0 0.0
      vertex 25.0 -10.0 0.0
      vertex 15.0 10.0 0.0
    endloop
  endfacet
  facet normal 0.0 0.0 -1.0
    outer loop
      vertex 25.0 -10.0 0.0
      vertex 15.0 -10.0 0.0
      vertex 15.0 10.0 0.0
    endloop
  endfacet
  facet normal 0.0 -1.0 0.0
    outer loop
      vertex 25.0 -10.0 0.0
      vertex 25.0 -10.0 1.0
      vertex 15.0 -10.0 1.0
    endloop
  endfacet
  facet normal 0.0 -1.0 0.0
    outer loop
      vertex 25.0 -10.0 0.0
      vertex 15.0 -10.0 1.0
      vertex 15.0 -10.0 0.0
    endloop
  endfacet
  facet normal 1.0 0.0 -0.0
    outer loop
      vertex 25.0 10.0 0.0
      vertex 25.0 10.0 1.0
      vertex 25.0 -10.0 1.0
    endloop
  endfacet
  facet normal 1.0 0.0 -0.0
    outer loop
      vertex 25.0 10.0 0.0
      vertex 25.0 -10.0 1.0
      vertex 25.0 -10.0 0.0
    endloop
  endfacet
  facet normal 0.0 1.0 0.0
    outer loop
      vertex 15.0 10.0 0.0
      vertex 15.0 10.0 1.0
      vertex 25.0 10.0 1.0
    endloop
  endfacet
  facet normal 0.0 1.0 0.0
    outer loop
      vertex 15.0 10.0 0.0
      vertex 25.0 10.0 1.0
      vertex 25.0 10.0 0.0
    endloop
  endfacet
  facet normal -1.0 0.0 0.0
    outer loop
      vertex 15.0 -10.0 0.0
      vertex 15.0 -10.0 1.0
      vertex 15.0 10.0 1.0
    endloop
  endfacet
  facet normal -1.0 0.0 0.0
    outer loop
      vertex 15.0 -10.0 0.0
      vertex 15.0 10.0 1.0
      vertex 15.0 10.0 0.0
    endloop
  endfacet
  facet normal -0.0 0.0 1.0
    outer loop
      vertex 15.0 10.0 1.0
      vertex 25.0 -10.0 1.0
      vertex 25.0 10.0 1.0
    endloop
  endfacet
  facet normal 0.0 0.0 1.0
    outer loop
      vertex 15.0 10.0 1.0
      vertex 15.0 -10.0 1.0
      vertex 25.0 -10.0 1.0
    endloop
  endfacet
  facet normal 0.0 0.0 -1.0
    outer loop
      vertex -5.0 -10.0 0.0
      vertex 5.0 10.0 0.0
      vertex 5.0 -10.0 0.0
    endloop
  endfacet
  facet normal 0.0 0.0 -1.0
    outer loop
      vertex -5.0 -10.0 0.0
      vertex -5.0 10.0 0.0
      vertex 5.0 10.0 0.0
    endloop
  endfacet
  facet normal 0.0 -1.0 0.0
    outer loop
      vertex -5.0 -10.0 0.0
      vertex 5.0 -10.0 1.0
      vertex -5.0 -10.0 1.0
    endloop
  endfacet
  facet normal 0.0 -1.0 0.0
    outer loop
      vertex -5.0 -10.0 0.0
      vertex 5.0 -10.0 0.0
      vertex 5.0 -10.0 1.0
    endloop
  endfacet
  facet normal -0.0 0.0 1.0
    outer loop
      vertex -5.0 10.0 1.0
      vertex 5.0 -10.0 1.0
      vertex 5.0 10.0 1.0
    endloop
  endfacet
  facet normal 0.0 0.0 1.0
    outer loop
      vertex -5.0 10.0 1.0
      vertex -5.0 -10.0 1.0
      vertex 5.0 -10.0 1.0
    endloop
  endfacet
  facet normal 0.0 1.0 0.0
    outer loop
      vertex -5.0 10.0 1.0
      vertex 5.0 10.0 0.0
      vertex -5.0 10.0 0.0
    endloop
  endfacet
  facet normal -0.0 1.0 0.0
    outer loop
      vertex -5.0 10.0 1.0
      vertex 5.0 10.0 1.0
      vertex 5.0 10.0 0.0
    endloop
  endfacet
  facet normal -1.0 -0.0 0.0
    outer loop
      vertex -5.0 10.0 1.0
      vertex -5.0 -10.0 0.0
      vertex -5.0 -10.0 1.0
    endloop
  endfacet
  facet normal -1.0 0.0 -0.0
    outer loop
      vertex -5.0 10.0 1.0
      vertex -5.0 10.0 0.0
      vertex -5.0 -10.0 0.0
    endloop
  endfacet
endsolid v3d.csg
