solid v3d.csg
  facet normal -0.0 -0.0 -1.0
    outer loop
      vertex 3.29356 121.0 0.0
      vertex -3.29356 121.0 0.0
      vertex -3.28942 121.125 0.0
    endloop
  endfacet
  facet normal -0.0 -0.0 -1.0
    outer loop
      vertex 3.29356 121.0 0.0
      vertex -3.28942 121.125 0.0
      vertex 3.28942 121.125 0.0
    endloop
  endfacet
  facet normal 0.0 0.0 -1.0
    outer loop
      vertex 3.28942 121.125 0.0
      vertex -3.28942 121.125 0.0
      vertex -2.95392 130.5 0.0
    endloop
  endfacet
  facet normal 0.0 0.0 -1.0
    outer loop
      vertex 3.28942 121.125 0.0
      vertex -2.95392 130.5 0.0
      vertex 2.95392 130.5 0.0
    endloop
  endfacet
  facet normal 0.0 0.0 -1.0
    outer loop
      vertex 2.95392 130.5 0.0
      vertex -2.95392 130.5 0.0
      vertex -2.59342 139.875 0.0
    endloop
  endfacet
  facet normal 0.0 0.0 -1.0
    outer loop
      vertex 2.95392 130.5 0.0
      vertex -2.59342 139.875 0.0
      vertex 2.59342 139.875 0.0
    endloop
  endfacet
  facet normal 0.0 0.0 -1.0
    outer loop
      vertex 2.59342 139.875 0.0
      vertex -2.59342 139.875 0.0
      vertex -2.2079199999999997 149.25 0.0
    endloop
  endfacet
  facet normal 0.0 0.0 -1.0
    outer loop
      vertex 2.59342 139.875 0.0
      vertex -2.2079199999999997 149.25 0.0
      vertex 2.2079199999999997 149.25 0.0
    endloop
  endfacet
  facet normal 0.0 0.0 -1.0
    outer loop
      vertex 2.2079199999999997 149.25 0.0
      vertex -2.2079199999999997 149.25 0.0
      vertex -1.797419999999999 158.625 0.0
    endloop
  endfacet
  facet normal 0.0 0.0 -1.0
    outer loop
      vertex 2.2079199999999997 149.25 0.0
      vertex -1.797419999999999 158.625 0.0
      vertex 1.797419999999999 158.625 0.0
    endloop
  endfacet
  facet normal 0.0 0.0 -1.0
    outer loop
      vertex 1.797419999999999 158.625 0.0
      vertex -1.797419999999999 158.625 0.0
      vertex -1.3619200000000005 168.0 0.0
    endloop
  endfacet
  facet normal 0.0 0.0 -1.0
    outer loop
      vertex 1.797419999999999 158.625 0.0
      vertex -1.3619200000000005 168.0 0.0
      vertex 1.3619200000000005 168.0 0.0
    endloop
  endfacet
  facet normal -0.0 -0.0 -1.0
    outer loop
      vertex 4.656226666666666 71.0 0.0
      vertex -4.656226666666666 71.0 0.0
      vertex -4.59192 74.25 0.0
    endloop
  endfacet
  facet normal -0.0 -0.0 -1.0
    outer loop
      vertex 4.656226666666666 71.0 0.0
      vertex -4.59192 74.25 0.0
      vertex 4.59192 74.25 0.0
    endloop
  endfacet
  facet normal 0.0 0.0 -1.0
    outer loop
      vertex 4.59192 74.25 0.0
      vertex -4.59192 74.25 0.0
      vertex -4.38142 83.625 0.0
    endloop
  endfacet
  facet normal 0.0 0.0 -1.0
    outer loop
      vertex 4.59192 74.25 0.0
      vertex -4.38142 83.625 0.0
      vertex 4.38142 83.625 0.0
    endloop
  endfacet
  facet normal 0.0 0.0 -1.0
    outer loop
      vertex 4.38142 83.625 0.0
      vertex -4.38142 83.625 0.0
      vertex -4.14592 93.0 0.0
    endloop
  endfacet
  facet normal 0.0 0.0 -1.0
    outer loop
      vertex 4.38142 83.625 0.0
      vertex -4.14592 93.0 0.0
      vertex 4.14592 93.0 0.0
    endloop
  endfacet
  facet normal 0.0 4.7369515717340015E-17 -1.0
    outer loop
      vertex 4.14592 93.0 0.0
      vertex -4.14592 93.0 0.0
      vertex -3.8854200000000008 102.375 4.440892098500626E-16
    endloop
  endfacet
  facet normal 0.0 4.7369515717340015E-17 -1.0
    outer loop
      vertex 4.14592 93.0 0.0
      vertex -3.8854200000000008 102.375 4.440892098500626E-16
      vertex 3.8854200000000008 102.375 -4.440892098500626E-16
    endloop
  endfacet
  facet normal -1.14296320565103E-16 -4.38888117683974E-17 -1.0
    outer loop
      vertex 3.8854200000000008 102.375 -4.440892098500626E-16
      vertex -3.8854200000000008 102.375 4.440892098500626E-16
      vertex -3.59992 111.75 0.0
    endloop
  endfacet
  facet normal -1.14296320565103E-16 -4.38888117683974E-17 -1.0
    outer loop
      vertex 3.8854200000000008 102.375 -4.440892098500626E-16
      vertex -3.59992 111.75 0.0
      vertex 3.59992 111.75 0.0
    endloop
  endfacet
  facet normal -0.0 -0.0 -1.0
    outer loop
      vertex 3.4591600000000002 115.99999999999999 0.0
      vertex 3.59992 111.75 0.0
      vertex -3.59992 111.75 0.0
    endloop
  endfacet
  facet normal -0.0 -0.0 -1.0
    outer loop
      vertex 3.4591600000000002 115.99999999999999 0.0
      vertex -3.59992 111.75 0.0
      vertex -3.4591600000000002 116.0 0.0
    endloop
  endfacet
  facet normal -0.0 -0.0 -1.0
    outer loop
      vertex 3.3929199999999997 118.0 0.0
      vertex 3.4591600000000002 115.99999999999999 0.0
      vertex -3.4591600000000002 116.0 0.0
    endloop
  endfacet
  facet normal -0.0 -0.0 -1.0
    outer loop
      vertex 3.3929199999999997 118.0 0.0
      vertex -3.4591600000000002 116.0 0.0
      vertex -3.39292 118.0 0.0
    endloop
  endfacet
  facet normal -1.1102230246251565E-16 -6.240246837781646E-17 -1.0
    outer loop
      vertex 8.0 18.0 -8.881784197001252E-16
      vertex -8.0 18.0 8.881784197001252E-16
      vertex -5.26942 27.375 0.0
    endloop
  endfacet
  facet normal -1.1102230246251565E-16 -6.240246837781646E-17 -1.0
    outer loop
      vertex 8.0 18.0 -8.881784197001252E-16
      vertex -5.26942 27.375 0.0
      vertex 5.26942 27.375 0.0
    endloop
  endfacet
  facet normal 0.0 0.0 -1.0
    outer loop
      vertex 5.26942 27.375 0.0
      vertex -5.26942 27.375 0.0
      vertex -5.1839200000000005 36.75 0.0
    endloop
  endfacet
  facet normal 0.0 0.0 -1.0
    outer loop
      vertex 5.26942 27.375 0.0
      vertex -5.1839200000000005 36.75 0.0
      vertex 5.1839200000000005 36.75 0.0
    endloop
  endfacet
  facet normal 0.0 0.0 -1.0
    outer loop
      vertex 5.1839200000000005 36.75 0.0
      vertex -5.1839200000000005 36.75 0.0
      vertex -5.0734200000000005 46.125 0.0
    endloop
  endfacet
  facet normal 0.0 0.0 -1.0
    outer loop
      vertex 5.1839200000000005 36.75 0.0
      vertex -5.0734200000000005 46.125 0.0
      vertex 5.0734200000000005 46.125 0.0
    endloop
  endfacet
  facet normal 0.0 0.0 -1.0
    outer loop
      vertex 5.0734200000000005 46.125 0.0
      vertex -5.0734200000000005 46.125 0.0
      vertex -4.93792 55.5 0.0
    endloop
  endfacet
  facet normal 0.0 0.0 -1.0
    outer loop
      vertex 5.0734200000000005 46.125 0.0
      vertex -4.93792 55.5 0.0
      vertex 4.93792 55.5 0.0
    endloop
  endfacet
  facet normal 0.0 0.0 -1.0
    outer loop
      vertex 4.93792 55.5 0.0
      vertex -4.93792 55.5 0.0
      vertex -4.777419999999999 64.875 0.0
    endloop
  endfacet
  facet normal 0.0 0.0 -1.0
    outer loop
      vertex 4.93792 55.5 0.0
      vertex -4.777419999999999 64.875 0.0
      vertex 4.777419999999999 64.875 0.0
    endloop
  endfacet
  facet normal -0.0 -0.0 -1.0
    outer loop
      vertex 4.755159999999999 66.0 0.0
      vertex 4.777419999999999 64.875 0.0
      vertex -4.777419999999999 64.875 0.0
    endloop
  endfacet
  facet normal -0.0 -0.0 -1.0
    outer loop
      vertex 4.755159999999999 66.0 0.0
      vertex -4.777419999999999 64.875 0.0
      vertex -4.755159999999999 65.99999999999999 0.0
    endloop
  endfacet
  facet normal 0.0 0.0 -1.0
    outer loop
      vertex 5.381793011108492 0.0 0.0
      vertex 6.516413977783019 18.0 0.0
      vertex 8.0 18.0 0.0
    endloop
  endfacet
  facet normal 0.0 0.0 -1.0
    outer loop
      vertex 5.381793011108492 0.0 0.0
      vertex 8.0 18.0 0.0
      vertex 8.0 0.0 0.0
    endloop
  endfacet
  facet normal 0.0 0.0 -1.0
    outer loop
      vertex 5.649323215122609 4.244187101854856 0.0
      vertex 5.381793011108492 0.0 0.0
      vertex 4.825348762670304 0.0 0.0
    endloop
  endfacet
  facet normal 0.0 0.0 -1.0
    outer loop
      vertex 5.321546107265012 2.55584910871419 0.0
      vertex 4.825348762670304 0.0 0.0
      vertex 4.447223028597723 0.0 0.0
    endloop
  endfacet
  facet normal 0.0 0.0 -1.0
    outer loop
      vertex 4.789264966862665 0.9998679028235905 0.0
      vertex 4.447223028597723 0.0 0.0
      vertex 4.264099922716966 0.0 0.0
    endloop
  endfacet
  facet normal 0.0 0.0 -1.0
    outer loop
      vertex -7.088259552247997 0.0 0.0
      vertex -8.0 0.0 0.0
      vertex -8.0 0.4321460017753793 0.0
    endloop
  endfacet
  facet normal 0.0 0.0 -1.0
    outer loop
      vertex -4.976034383114568 0.0 0.0
      vertex -7.088259552247997 0.0 0.0
      vertex -8.0 0.4321460017753793 0.0
    endloop
  endfacet
  facet normal 0.0 0.0 -1.0
    outer loop
      vertex -4.976034383114568 0.0 0.0
      vertex -8.0 0.4321460017753793 0.0
      vertex -8.0 2.5255364014961934 0.0
    endloop
  endfacet
  facet normal 0.0 0.0 -1.0
    outer loop
      vertex -4.356767251032213 0.0 0.0
      vertex -4.976034383114568 0.0 0.0
      vertex -8.0 2.5255364014961934 0.0
    endloop
  endfacet
  facet normal 0.0 0.0 -1.0
    outer loop
      vertex -4.356767251032213 0.0 0.0
      vertex -8.0 2.5255364014961934 0.0
      vertex -8.0 4.671756011141026 0.0
    endloop
  endfacet
  facet normal 0.0 0.0 -1.0
    outer loop
      vertex -4.264099922716969 0.0 0.0
      vertex -4.356767251032213 0.0 0.0
      vertex -8.0 4.671756011141026 0.0
    endloop
  endfacet
  facet normal 0.0 0.0 -1.0
    outer loop
      vertex -4.264099922716969 0.0 0.0
      vertex -8.0 4.671756011141026 0.0
      vertex -8.0 7.112824086584006 0.0
    endloop
  endfacet
  facet normal 0.0 0.0 -1.0
    outer loop
      vertex -4.789264966862657 0.9998679028235689 0.0
      vertex -8.0 7.112824086584006 0.0
      vertex -8.0 10.385590953014532 0.0
    endloop
  endfacet
  facet normal 0.0 0.0 -1.0
    outer loop
      vertex -5.321546107265012 2.5558491087141926 0.0
      vertex -8.0 10.385590953014532 0.0
      vertex -8.0 16.352222807711552 0.0
    endloop
  endfacet
  facet normal 0.0 0.0 -1.0
    outer loop
      vertex -5.649323215122607 4.244187101854836 0.0
      vertex -8.0 16.352222807711552 0.0
      vertex -8.0 18.0 0.0
    endloop
  endfacet
  facet normal 0.0 0.0 -1.0
    outer loop
      vertex -5.649323215122607 4.244187101854836 0.0
      vertex -8.0 18.0 0.0
      vertex -6.516413977783019 18.0 0.0
    endloop
  endfacet
  facet normal 0.0 0.0 -1.0
    outer loop
      vertex -5.76 5.9999999999999964 0.0
      vertex -6.516413977783019 18.0 0.0
      vertex -5.003586022216981 18.0 0.0
    endloop
  endfacet
  facet normal 0.0 0.0 -1.0
    outer loop
      vertex -5.649323215122608 7.75581289814515 0.0
      vertex -5.003586022216981 18.0 0.0
      vertex -3.6604974976181097 18.0 0.0
    endloop
  endfacet
  facet normal 0.0 0.0 -1.0
    outer loop
      vertex -5.321546107265014 9.444150891285792 0.0
      vertex -3.6604974976181097 18.0 0.0
      vertex -2.3947002665466854 18.0 0.0
    endloop
  endfacet
  facet normal 0.0 0.0 -1.0
    outer loop
      vertex -4.7892649668626515 11.00013209717644 0.0
      vertex -2.3947002665466854 18.0 0.0
      vertex -1.1126933659349163 18.0 0.0
    endloop
  endfacet
  facet normal 0.0 0.0 -1.0
    outer loop
      vertex -4.072935059634519 12.36396103067892 0.0
      vertex -1.1126933659349163 18.0 0.0
      vertex 0.32228628722562025 18.0 0.0
    endloop
  endfacet
  facet normal 0.0 0.0 -1.0
    outer loop
      vertex -3.200084542192902 13.483226510722915 0.0
      vertex 0.32228628722562025 18.0 0.0
      vertex 2.208100318156692 18.0 0.0
    endloop
  endfacet
  facet normal 0.0 0.0 -1.0
    outer loop
      vertex -2.2042565704229267 14.314915792601575 0.0
      vertex 2.208100318156692 18.0 0.0
      vertex 5.570523970075149 18.0 0.0
    endloop
  endfacet
  facet normal -0.0 0.0 -1.0
    outer loop
      vertex 6.389290153693371 15.983265865145903 0.0
      vertex -1.1237202548129126 14.827067523629065 0.0
      vertex 5.570523970075149 18.0 0.0
    endloop
  endfacet
  facet normal -0.0 0.0 -1.0
    outer loop
      vertex 6.389290153693371 15.983265865145903 0.0
      vertex 5.570523970075149 18.0 0.0
      vertex 6.516413977783019 18.0 0.0
    endloop
  endfacet
  facet normal 0.0 0.0 -1.0
    outer loop
      vertex 1.7763568394002505E-14 14.999999999999998 0.0
      vertex 6.389290153693371 15.983265865145903 0.0
      vertex 6.2665217349677516 14.035627312741958 0.0
    endloop
  endfacet
  facet normal 0.0 0.0 -1.0
    outer loop
      vertex 1.1237202548128904 14.827067523629076 0.0
      vertex 6.2665217349677516 14.035627312741958 0.0
      vertex 6.165768297536065 12.437241660583819 0.0
    endloop
  endfacet
  facet normal 0.0 0.0 -1.0
    outer loop
      vertex 2.20425657042293 14.314915792601573 0.0
      vertex 6.165768297536065 12.437241660583819 0.0
      vertex 6.080084542192909 11.077926398944346 0.0
    endloop
  endfacet
  facet normal 0.0 0.0 -1.0
    outer loop
      vertex 3.200084542192903 13.483226510722915 0.0
      vertex 6.080084542192909 11.077926398944346 0.0
      vertex 6.004982102506782 9.886476607290646 0.0
    endloop
  endfacet
  facet normal 0.0 0.0 -1.0
    outer loop
      vertex 4.072935059634512 12.363961030678931 0.0
      vertex 6.004982102506782 9.886476607290646 0.0
      vertex 5.93739169248973 8.814200123741472 0.0
    endloop
  endfacet
  facet normal 0.0 0.0 -1.0
    outer loop
      vertex 4.7892649668626595 11.00013209717642 0.0
      vertex 5.93739169248973 8.814200123741472 0.0
      vertex 5.87510001386125 7.825984456795942 0.0
    endloop
  endfacet
  facet normal 0.0 0.0 -1.0
    outer loop
      vertex 5.321546107265008 9.444150891285819 0.0
      vertex 5.87510001386125 7.825984456795942 0.0
      vertex 5.8164225356399575 6.895105653208452 0.0
    endloop
  endfacet
  facet normal 0.0 0.0 -1.0
    outer loop
      vertex 5.649323215122605 7.755812898145161 0.0
      vertex 5.8164225356399575 6.895105653208452 0.0
      vertex 5.76 5.999999999999973 0.0
    endloop
  endfacet
  facet normal -0.0 -0.0 -1.0
    outer loop
      vertex 4.715586666666666 68.0 0.0
      vertex 4.755159999999999 66.0 0.0
      vertex -4.755159999999999 65.99999999999999 0.0
    endloop
  endfacet
  facet normal -0.0 -0.0 -1.0
    outer loop
      vertex 4.715586666666666 68.0 0.0
      vertex -4.755159999999999 65.99999999999999 0.0
      vertex -4.715586666666666 68.0 0.0
    endloop
  endfacet
  facet normal 0.0 0.7375619053061944 0.6752795242276315
    outer loop
      vertex 8.0 18.0 30.0
      vertex 5.26942 27.375 19.760325
      vertex -5.26942 27.375 19.760325
    endloop
  endfacet
  facet normal 0.0 0.7375619053061944 0.6752795242276315
    outer loop
      vertex 8.0 18.0 30.0
      vertex -5.26942 27.375 19.760325
      vertex -8.0 18.0 30.0
    endloop
  endfacet
  facet normal 0.0 0.034180016684256395 0.9994156925221177
    outer loop
      vertex 5.26942 27.375 19.760325
      vertex 5.1839200000000005 36.75 19.439700000000002
      vertex -5.1839200000000005 36.75 19.439700000000002
    endloop
  endfacet
  facet normal 0.0 0.034180016684256395 0.9994156925221177
    outer loop
      vertex 5.26942 27.375 19.760325
      vertex -5.1839200000000005 36.75 19.439700000000002
      vertex -5.26942 27.375 19.760325
    endloop
  endfacet
  facet normal 0.0 0.04415688771513896 0.9990246089397962
    outer loop
      vertex 5.1839200000000005 36.75 19.439700000000002
      vertex 5.073420000000002 46.125 19.025325000000002
      vertex -5.073419999999999 46.125 19.025325000000002
    endloop
  endfacet
  facet normal 0.0 0.04415688771513896 0.9990246089397962
    outer loop
      vertex 5.1839200000000005 36.75 19.439700000000002
      vertex -5.073419999999999 46.125 19.025325000000002
      vertex -5.1839200000000005 36.75 19.439700000000002
    endloop
  endfacet
  facet normal 0.0 0.05412056492695483 0.9985344082463996
    outer loop
      vertex 5.073420000000002 46.125 19.025325000000002
      vertex 4.937920000000002 55.5 18.517200000000003
      vertex -4.937919999999998 55.5 18.517200000000003
    endloop
  endfacet
  facet normal 0.0 0.05412056492695483 0.9985344082463996
    outer loop
      vertex 5.073420000000002 46.125 19.025325000000002
      vertex -4.937919999999998 55.5 18.517200000000003
      vertex -5.073419999999999 46.125 19.025325000000002
    endloop
  endfacet
  facet normal -0.0 0.06406810294039453 0.9979455286665796
    outer loop
      vertex 4.792147949168302 64.01472259530942 17.970554809381134
      vertex 4.777419999999999 64.875 17.915325
      vertex -4.777419999999999 64.875 17.915325
    endloop
  endfacet
  facet normal -0.0 0.06406810294039453 0.9979455286665796
    outer loop
      vertex 4.792147949168302 64.01472259530942 17.970554809381134
      vertex -4.777419999999999 64.875 17.915325
      vertex -4.792147949168302 64.01472259530942 17.970554809381134
    endloop
  endfacet
  facet normal -0.0 0.06406810294039479 0.9979455286665796
    outer loop
      vertex 4.937920000000002 55.5 18.517200000000003
      vertex 4.792147949168302 64.01472259530942 17.970554809381134
      vertex -4.792147949168302 64.01472259530942 17.970554809381134
    endloop
  endfacet
  facet normal -0.0 0.06406810294039479 0.9979455286665796
    outer loop
      vertex 4.937920000000002 55.5 18.517200000000003
      vertex -4.792147949168302 64.01472259530942 17.970554809381134
      vertex -4.937919999999998 55.5 18.517200000000003
    endloop
  endfacet
  facet normal -0.0 0.07399658033824694 0.9972584951246319
    outer loop
      vertex 4.656226666666668 71.0 17.46085
      vertex 4.591920000000002 74.25 17.219700000000003
      vertex -4.591919999999998 74.25 17.219700000000003
    endloop
  endfacet
  facet normal -0.0 0.07399658033824694 0.9972584951246319
    outer loop
      vertex 4.656226666666668 71.0 17.46085
      vertex -4.591919999999998 74.25 17.219700000000003
      vertex -4.656226666666665 71.0 17.46085
    endloop
  endfacet
  facet normal -0.0 0.07399658033824746 0.9972584951246318
    outer loop
      vertex 4.777419999999999 64.875 17.915325
      vertex 4.656226666666668 71.0 17.46085
      vertex -4.656226666666665 71.0 17.46085
    endloop
  endfacet
  facet normal -0.0 0.07399658033824746 0.9972584951246318
    outer loop
      vertex 4.777419999999999 64.875 17.915325
      vertex -4.656226666666665 71.0 17.46085
      vertex -4.777419999999999 64.875 17.915325
    endloop
  endfacet
  facet normal -3.9861323862531717E-16 0.08390310389150606 0.9964739179513787
    outer loop
      vertex 4.591920000000002 74.25 17.219700000000003
      vertex 4.381420000000002 83.625 16.430325000000003
      vertex -4.3814199999999985 83.625 16.430325
    endloop
  endfacet
  facet normal -3.9861323862531717E-16 0.08390310389150606 0.9964739179513787
    outer loop
      vertex 4.591920000000002 74.25 17.219700000000003
      vertex -4.3814199999999985 83.625 16.430325
      vertex -4.591919999999998 74.25 17.219700000000003
    endloop
  endfacet
  facet normal 0.0 0.09378481268878612 0.995592491388384
    outer loop
      vertex 4.381420000000002 83.625 16.430325000000003
      vertex 4.14592 93.0 15.5472
      vertex -4.14592 93.0 15.5472
    endloop
  endfacet
  facet normal 0.0 0.09378481268878612 0.995592491388384
    outer loop
      vertex 4.381420000000002 83.625 16.430325000000003
      vertex -4.14592 93.0 15.5472
      vertex -4.3814199999999985 83.625 16.430325
    endloop
  endfacet
  facet normal -4.3653440237827005E-16 0.10363888215562835 0.9946149918966293
    outer loop
      vertex 4.14592 93.0 15.5472
      vertex 3.8854200000000017 102.375 14.570325000000004
      vertex -3.885419999999998 102.375 14.570325
    endloop
  endfacet
  facet normal -4.3653440237827005E-16 0.10363888215562835 0.9946149918966293
    outer loop
      vertex 4.14592 93.0 15.5472
      vertex -3.885419999999998 102.375 14.570325
      vertex -4.14592 93.0 15.5472
    endloop
  endfacet
  facet normal 0.0 0.11346252795090885 0.9935422762776577
    outer loop
      vertex 3.8854200000000017 102.375 14.570325000000004
      vertex 3.599920000000001 111.75 13.4997
      vertex -3.599920000000001 111.75 13.4997
    endloop
  endfacet
  facet normal 0.0 0.11346252795090885 0.9935422762776577
    outer loop
      vertex 3.8854200000000017 102.375 14.570325000000004
      vertex -3.599920000000001 111.75 13.4997
      vertex -3.885419999999998 102.375 14.570325
    endloop
  endfacet
  facet normal -0.0 0.12325300972830776 0.9923752796159897
    outer loop
      vertex 3.29356 121.0 12.350849999999998
      vertex 3.28942 121.125 12.335324999999997
      vertex -3.28942 121.125 12.335324999999997
    endloop
  endfacet
  facet normal -0.0 0.12325300972830776 0.9923752796159897
    outer loop
      vertex 3.29356 121.0 12.350849999999998
      vertex -3.28942 121.125 12.335324999999997
      vertex -3.29356 121.0 12.350849999999998
    endloop
  endfacet
  facet normal -0.0 0.12325300972830643 0.9923752796159898
    outer loop
      vertex 3.4410065038916735 116.5481128052031 12.903774389593773
      vertex 3.29356 121.0 12.350849999999998
      vertex -3.29356 121.0 12.350849999999998
    endloop
  endfacet
  facet normal -0.0 0.12325300972830643 0.9923752796159898
    outer loop
      vertex 3.4410065038916735 116.5481128052031 12.903774389593773
      vertex -3.29356 121.0 12.350849999999998
      vertex -3.441006503891674 116.5481128052031 12.903774389593774
    endloop
  endfacet
  facet normal 2.66925589675677E-16 0.12325300972830609 0.9923752796159899
    outer loop
      vertex 3.599920000000001 111.75 13.4997
      vertex 3.4410065038916735 116.5481128052031 12.903774389593773
      vertex -3.441006503891674 116.5481128052031 12.903774389593774
    endloop
  endfacet
  facet normal 2.66925589675677E-16 0.12325300972830609 0.9923752796159899
    outer loop
      vertex 3.599920000000001 111.75 13.4997
      vertex -3.441006503891674 116.5481128052031 12.903774389593774
      vertex -3.599920000000001 111.75 13.4997
    endloop
  endfacet
  facet normal 0.0 0.13300763475162622 0.9911150130523592
    outer loop
      vertex 3.28942 121.125 12.335324999999997
      vertex 2.95392 130.5 11.077200000000001
      vertex -2.95392 130.5 11.077200000000001
    endloop
  endfacet
  facet normal 0.0 0.13300763475162622 0.9911150130523592
    outer loop
      vertex 3.28942 121.125 12.335324999999997
      vertex -2.95392 130.5 11.077200000000001
      vertex -3.28942 121.125 12.335324999999997
    endloop
  endfacet
  facet normal 0.0 0.14272376135358827 0.989762561397977
    outer loop
      vertex 2.95392 130.5 11.077200000000001
      vertex 2.59342 139.875 9.725325000000002
      vertex -2.59342 139.875 9.725325000000002
    endloop
  endfacet
  facet normal 0.0 0.14272376135358827 0.989762561397977
    outer loop
      vertex 2.95392 130.5 11.077200000000001
      vertex -2.59342 139.875 9.725325000000002
      vertex -2.95392 130.5 11.077200000000001
    endloop
  endfacet
  facet normal 0.0 0.15239880222861815 0.9883190806006341
    outer loop
      vertex 2.59342 139.875 9.725325000000002
      vertex 2.2079199999999997 149.25 8.279699999999998
      vertex -2.2079199999999997 149.25 8.279699999999998
    endloop
  endfacet
  facet normal 0.0 0.15239880222861815 0.9883190806006341
    outer loop
      vertex 2.59342 139.875 9.725325000000002
      vertex -2.2079199999999997 149.25 8.279699999999998
      vertex -2.59342 139.875 9.725325000000002
    endloop
  endfacet
  facet normal 0.0 0.16203022755114235 0.9867857950739487
    outer loop
      vertex 2.2079199999999997 149.25 8.279699999999998
      vertex 1.797419999999999 158.625 6.740324999999999
      vertex -1.797419999999999 158.625 6.740324999999999
    endloop
  endfacet
  facet normal 0.0 0.16203022755114235 0.9867857950739487
    outer loop
      vertex 2.2079199999999997 149.25 8.279699999999998
      vertex -1.797419999999999 158.625 6.740324999999999
      vertex -2.2079199999999997 149.25 8.279699999999998
    endloop
  endfacet
  facet normal 0.0 0.1716155679118421 0.9851639949015067
    outer loop
      vertex 1.797419999999999 158.625 6.740324999999999
      vertex 1.3619200000000005 168.0 5.107200000000002
      vertex -1.3619200000000005 168.0 5.107200000000002
    endloop
  endfacet
  facet normal 0.0 0.1716155679118421 0.9851639949015067
    outer loop
      vertex 1.797419999999999 158.625 6.740324999999999
      vertex -1.3619200000000005 168.0 5.107200000000002
      vertex -1.797419999999999 158.625 6.740324999999999
    endloop
  endfacet
  facet normal 0.0 1.0 0.0
    outer loop
      vertex 1.3619200000000005 168.0 0.0
      vertex -1.3619200000000005 168.0 0.0
      vertex -1.3619200000000005 168.0 5.107200000000002
    endloop
  endfacet
  facet normal 0.0 1.0 0.0
    outer loop
      vertex 1.3619200000000005 168.0 0.0
      vertex -1.3619200000000005 168.0 5.107200000000002
      vertex 1.3619200000000005 168.0 5.107200000000002
    endloop
  endfacet
  facet normal 0.9989227869962347 0.046403293198598254 0.0
    outer loop
      vertex 1.797419999999999 158.625 0.0
      vertex 1.3619200000000005 168.0 0.0
      vertex 1.3619200000000005 168.0 5.107200000000002
    endloop
  endfacet
  facet normal 0.9989227869962347 0.046403293198598254 0.0
    outer loop
      vertex 1.797419999999999 158.625 0.0
      vertex 1.3619200000000005 168.0 5.107200000000002
      vertex 1.797419999999999 158.625 6.740324999999999
    endloop
  endfacet
  facet normal -0.9989227869962347 0.046403293198598254 0.0
    outer loop
      vertex -1.797419999999999 158.625 0.0
      vertex -1.797419999999999 158.625 6.740324999999999
      vertex -1.3619200000000005 168.0 5.107200000000002
    endloop
  endfacet
  facet normal -0.9989227869962347 0.046403293198598254 0.0
    outer loop
      vertex -1.797419999999999 158.625 0.0
      vertex -1.3619200000000005 168.0 5.107200000000002
      vertex -1.3619200000000005 168.0 0.0
    endloop
  endfacet
  facet normal 0.9990427401870999 0.04374475145032589 0.0
    outer loop
      vertex 2.2079199999999997 149.25 0.0
      vertex 1.797419999999999 158.625 0.0
      vertex 1.797419999999999 158.625 6.740324999999999
    endloop
  endfacet
  facet normal 0.9990427401870999 0.04374475145032589 0.0
    outer loop
      vertex 2.2079199999999997 149.25 0.0
      vertex 1.797419999999999 158.625 6.740324999999999
      vertex 2.2079199999999997 149.25 8.279699999999998
    endloop
  endfacet
  facet normal 0.9991556434122907 0.04108528005711344 0.0
    outer loop
      vertex 2.59342 139.875 0.0
      vertex 2.2079199999999997 149.25 0.0
      vertex 2.2079199999999997 149.25 8.279699999999998
    endloop
  endfacet
  facet normal 0.9991556434122907 0.04108528005711344 0.0
    outer loop
      vertex 2.59342 139.875 0.0
      vertex 2.2079199999999997 149.25 8.279699999999998
      vertex 2.59342 139.875 9.725325000000002
    endloop
  endfacet
  facet normal 0.9992614894807667 0.038424935142167084 0.0
    outer loop
      vertex 2.95392 130.5 0.0
      vertex 2.59342 139.875 0.0
      vertex 2.59342 139.875 9.725325000000002
    endloop
  endfacet
  facet normal 0.9992614894807667 0.038424935142167084 0.0
    outer loop
      vertex 2.95392 130.5 0.0
      vertex 2.59342 139.875 9.725325000000002
      vertex 2.95392 130.5 11.077200000000001
    endloop
  endfacet
  facet normal 0.9993602716470326 0.03576377292134177 0.0
    outer loop
      vertex 3.28942 121.125 0.0
      vertex 2.95392 130.5 0.0
      vertex 2.95392 130.5 11.077200000000001
    endloop
  endfacet
  facet normal 0.9993602716470326 0.03576377292134177 0.0
    outer loop
      vertex 3.28942 121.125 0.0
      vertex 2.95392 130.5 11.077200000000001
      vertex 3.28942 121.125 12.335324999999997
    endloop
  endfacet
  facet normal 0.9994519836123301 0.033101849697240636 -0.0
    outer loop
      vertex 3.29356 121.0 0.0
      vertex 3.28942 121.125 0.0
      vertex 3.28942 121.125 12.335324999999997
    endloop
  endfacet
  facet normal 0.9994519836123301 0.033101849697240636 -0.0
    outer loop
      vertex 3.29356 121.0 0.0
      vertex 3.28942 121.125 12.335324999999997
      vertex 3.29356 121.0 12.350849999999998
    endloop
  endfacet
  facet normal 0.9994519836123301 0.03310184969724059 -0.0
    outer loop
      vertex 3.29356 121.0 3.999999999999984
      vertex 3.29356 121.0 12.350849999999998
      vertex 3.441006503891674 116.5481128052031 12.903774389593774
    endloop
  endfacet
  facet normal 0.9994519836123301 0.03310184969724037 -1.6706112923268147E-16
    outer loop
      vertex 3.59992 111.75 0.0
      vertex 3.4591600000000002 116.0 0.0
      vertex 3.34324 119.49999999999999 7.0
    endloop
  endfacet
  facet normal 0.9994519836123301 0.03310184969724037 -1.6706112923268147E-16
    outer loop
      vertex 3.59992 111.75 0.0
      vertex 3.34324 119.49999999999999 7.0
      vertex 3.441006503891674 116.5481128052031 12.903774389593774
    endloop
  endfacet
  facet normal 0.9994519836123301 0.03310184969724037 -1.6706112923268147E-16
    outer loop
      vertex 3.59992 111.75 0.0
      vertex 3.441006503891674 116.5481128052031 12.903774389593774
      vertex 3.599920000000001 111.75 13.4997
    endloop
  endfacet
  facet normal 0.9994519836123301 0.033101849697240414 -0.0
    outer loop
      vertex 3.39292 118.0 4.000000000000016
      vertex 3.4591600000000002 116.0 0.0
      vertex 3.39292 118.0 0.0
    endloop
  endfacet
  facet normal 0.9995366195257511 0.030439221853290954 -6.663879542248771E-17
    outer loop
      vertex 3.8854200000000008 102.375 -4.440892098500626E-16
      vertex 3.59992 111.75 0.0
      vertex 3.599920000000001 111.75 13.4997
    endloop
  endfacet
  facet normal 0.9995366195257511 0.030439221853290954 -6.663879542248771E-17
    outer loop
      vertex 3.8854200000000008 102.375 -4.440892098500626E-16
      vertex 3.599920000000001 111.75 13.4997
      vertex 3.8854200000000017 102.375 14.570325000000004
    endloop
  endfacet
  facet normal 0.9996141739852732 0.027775945847804077 -6.174697868383537E-17
    outer loop
      vertex 4.14592 93.0 0.0
      vertex 3.8854200000000008 102.375 -4.440892098500626E-16
      vertex 3.8854200000000017 102.375 14.570325000000004
    endloop
  endfacet
  facet normal 0.9996141739852732 0.027775945847804077 -6.174697868383537E-17
    outer loop
      vertex 4.14592 93.0 0.0
      vertex 3.8854200000000017 102.375 14.570325000000004
      vertex 4.14592 93.0 15.5472
    endloop
  endfacet
  facet normal 0.9996846420387155 0.02511207820801254 0.0
    outer loop
      vertex 4.38142 83.625 0.0
      vertex 4.14592 93.0 0.0
      vertex 4.14592 93.0 15.5472
    endloop
  endfacet
  facet normal 0.9996846420387155 0.02511207820801254 0.0
    outer loop
      vertex 4.38142 83.625 0.0
      vertex 4.14592 93.0 15.5472
      vertex 4.381420000000002 83.625 16.430325000000003
    endloop
  endfacet
  facet normal 0.999748019184617 0.0224476755240919 -1.0808728564745048E-16
    outer loop
      vertex 4.59192 74.25 0.0
      vertex 4.38142 83.625 0.0
      vertex 4.381420000000002 83.625 16.430325000000003
    endloop
  endfacet
  facet normal 0.999748019184617 0.0224476755240919 -1.0808728564745048E-16
    outer loop
      vertex 4.59192 74.25 0.0
      vertex 4.381420000000002 83.625 16.430325000000003
      vertex 4.591920000000002 74.25 17.219700000000003
    endloop
  endfacet
  facet normal 0.9998043013730334 0.019782794443167565 -1.0313822010869974E-16
    outer loop
      vertex 4.656226666666666 71.0 0.0
      vertex 4.59192 74.25 0.0
      vertex 4.591920000000002 74.25 17.219700000000003
    endloop
  endfacet
  facet normal 0.9998043013730334 0.019782794443167565 -1.0313822010869974E-16
    outer loop
      vertex 4.656226666666666 71.0 0.0
      vertex 4.591920000000002 74.25 17.219700000000003
      vertex 4.656226666666668 71.0 17.46085
    endloop
  endfacet
  facet normal 0.9998043013730334 0.019782794443167443 -1.3193886038443165E-16
    outer loop
      vertex 4.777419999999999 64.875 16.249999999999996
      vertex 4.656226666666666 71.0 3.9999999999999982
      vertex 4.656226666666668 71.0 17.46085
    endloop
  endfacet
  facet normal 0.9998043013730334 0.019782794443167443 -1.3193886038443165E-16
    outer loop
      vertex 4.777419999999999 64.875 16.249999999999996
      vertex 4.656226666666668 71.0 17.46085
      vertex 4.777419999999999 64.875 17.915325
    endloop
  endfacet
  facet normal 0.9998043013730334 0.019782794443168154 -0.0
    outer loop
      vertex 4.685906666666666 69.5 7.000000000000002
      vertex 4.777419999999999 64.875 16.249999999999996
      vertex 4.777419999999999 64.875 0.0
    endloop
  endfacet
  facet normal 0.9998043013730334 0.019782794443168154 -0.0
    outer loop
      vertex 4.685906666666666 69.5 7.000000000000002
      vertex 4.777419999999999 64.875 0.0
      vertex 4.755159999999999 65.99999999999999 0.0
    endloop
  endfacet
  facet normal 0.9998043013730334 0.019782794443167568 -0.0
    outer loop
      vertex 4.715586666666666 68.0 4.000000000000013
      vertex 4.755159999999999 65.99999999999999 0.0
      vertex 4.715586666666666 68.0 0.0
    endloop
  endfacet
  facet normal 0.9998534850062567 0.017117491663307213 -0.0
    outer loop
      vertex 4.777419999999999 64.875 16.249999999999986
      vertex 4.777419999999999 64.875 17.915325
      vertex 4.792147949168302 64.01472259530942 17.970554809381134
    endloop
  endfacet
  facet normal 0.9998534850062567 0.017117491663307408 1.0959862987487564E-16
    outer loop
      vertex 4.93792 55.5 0.0
      vertex 4.777419999999999 64.875 0.0
      vertex 4.777419999999999 64.875 16.249999999999986
    endloop
  endfacet
  facet normal 0.9998534850062567 0.017117491663307408 1.0959862987487564E-16
    outer loop
      vertex 4.93792 55.5 0.0
      vertex 4.777419999999999 64.875 16.249999999999986
      vertex 4.792147949168302 64.01472259530942 17.970554809381134
    endloop
  endfacet
  facet normal 0.9998534850062567 0.017117491663307408 1.0959862987487564E-16
    outer loop
      vertex 4.93792 55.5 0.0
      vertex 4.792147949168302 64.01472259530942 17.970554809381134
      vertex 4.937920000000002 55.5 18.517200000000003
    endloop
  endfacet
  facet normal 0.9998955669394523 0.01445182392749826 -9.59200812768068E-17
    outer loop
      vertex 5.0734200000000005 46.125 0.0
      vertex 4.93792 55.5 0.0
      vertex 4.937920000000002 55.5 18.517200000000003
    endloop
  endfacet
  facet normal 0.9998955669394523 0.01445182392749826 -9.59200812768068E-17
    outer loop
      vertex 5.0734200000000005 46.125 0.0
      vertex 4.937920000000002 55.5 18.517200000000003
      vertex 5.073420000000002 46.125 19.025325000000002
    endloop
  endfacet
  facet normal 0.9999305444812183 0.011785848017618056 -9.334666539059997E-17
    outer loop
      vertex 5.081179256275224 45.466692058097536 0.0
      vertex 5.0734200000000005 46.125 0.0
      vertex 5.073420000000002 46.125 19.025325000000002
    endloop
  endfacet
  facet normal 0.9999305444812183 0.011785848017618056 -9.334666539059997E-17
    outer loop
      vertex 5.081179256275224 45.466692058097536 0.0
      vertex 5.073420000000002 46.125 19.025325000000002
      vertex 5.1839200000000005 36.75 19.439700000000002
    endloop
  endfacet
  facet normal 0.9999305444812183 0.011785848017618056 -9.334666539059997E-17
    outer loop
      vertex 5.081179256275224 45.466692058097536 0.0
      vertex 5.1839200000000005 36.75 19.439700000000002
      vertex 5.1839200000000005 36.75 9.520649999999995
    endloop
  endfacet
  facet normal 0.999958415394063 0.009119620748393821 -0.0
    outer loop
      vertex 5.1839200000000005 36.75 9.520649999999991
      vertex 5.1839200000000005 36.75 19.439700000000002
      vertex 5.26942 27.375 19.760325
    endloop
  endfacet
  facet normal -0.9990427401870999 0.0437447514503259 0.0
    outer loop
      vertex -2.2079199999999997 149.25 0.0
      vertex -2.2079199999999997 149.25 8.279699999999998
      vertex -1.797419999999999 158.625 6.740324999999999
    endloop
  endfacet
  facet normal -0.9990427401870999 0.0437447514503259 0.0
    outer loop
      vertex -2.2079199999999997 149.25 0.0
      vertex -1.797419999999999 158.625 6.740324999999999
      vertex -1.797419999999999 158.625 0.0
    endloop
  endfacet
  facet normal -0.9991556434122907 0.04108528005711344 0.0
    outer loop
      vertex -2.59342 139.875 0.0
      vertex -2.59342 139.875 9.725325000000002
      vertex -2.2079199999999997 149.25 8.279699999999998
    endloop
  endfacet
  facet normal -0.9991556434122907 0.04108528005711344 0.0
    outer loop
      vertex -2.59342 139.875 0.0
      vertex -2.2079199999999997 149.25 8.279699999999998
      vertex -2.2079199999999997 149.25 0.0
    endloop
  endfacet
  facet normal -0.9992614894807667 0.038424935142167084 0.0
    outer loop
      vertex -2.95392 130.5 0.0
      vertex -2.95392 130.5 11.077200000000001
      vertex -2.59342 139.875 9.725325000000002
    endloop
  endfacet
  facet normal -0.9992614894807667 0.038424935142167084 0.0
    outer loop
      vertex -2.95392 130.5 0.0
      vertex -2.59342 139.875 9.725325000000002
      vertex -2.59342 139.875 0.0
    endloop
  endfacet
  facet normal -0.9993602716470326 0.03576377292134177 0.0
    outer loop
      vertex -3.28942 121.125 0.0
      vertex -3.28942 121.125 12.335324999999997
      vertex -2.95392 130.5 11.077200000000001
    endloop
  endfacet
  facet normal -0.9993602716470326 0.03576377292134177 0.0
    outer loop
      vertex -3.28942 121.125 0.0
      vertex -2.95392 130.5 11.077200000000001
      vertex -2.95392 130.5 0.0
    endloop
  endfacet
  facet normal -0.9994519836123301 0.03310184969724064 -0.0
    outer loop
      vertex -3.29356 121.0 0.0
      vertex -3.29356 121.0 12.350849999999998
      vertex -3.28942 121.125 12.335324999999997
    endloop
  endfacet
  facet normal -0.9994519836123301 0.03310184969724064 -0.0
    outer loop
      vertex -3.29356 121.0 0.0
      vertex -3.28942 121.125 12.335324999999997
      vertex -3.28942 121.125 0.0
    endloop
  endfacet
  facet normal -0.9994519836123301 0.03310184969724048 -0.0
    outer loop
      vertex -3.29356 121.0 3.9999999999999867
      vertex -3.4410065038916735 116.5481128052031 12.903774389593773
      vertex -3.29356 121.0 12.350849999999998
    endloop
  endfacet
  facet normal -0.9994519836123301 0.03310184969724049 -6.681011196081943E-17
    outer loop
      vertex -3.34324 119.49999999999999 7.0
      vertex -3.4591600000000002 115.99999999999999 0.0
      vertex -3.59992 111.75 0.0
    endloop
  endfacet
  facet normal -0.9994519836123301 0.03310184969724049 -6.681011196081943E-17
    outer loop
      vertex -3.34324 119.49999999999999 7.0
      vertex -3.59992 111.75 0.0
      vertex -3.599920000000001 111.75 13.4997
    endloop
  endfacet
  facet normal -0.9994519836123301 0.03310184969724049 -6.681011196081943E-17
    outer loop
      vertex -3.34324 119.49999999999999 7.0
      vertex -3.599920000000001 111.75 13.4997
      vertex -3.4410065038916735 116.5481128052031 12.903774389593773
    endloop
  endfacet
  facet normal -0.9994519836123301 0.0331018496972404 -0.0
    outer loop
      vertex -3.3929199999999997 118.0 4.000000000000028
      vertex -3.3929199999999997 118.0 0.0
      vertex -3.4591600000000002 115.99999999999999 0.0
    endloop
  endfacet
  facet normal -0.9995366195257511 0.030439221853290604 1.8278937261099948E-16
    outer loop
      vertex -3.8854200000000008 102.375 4.440892098500626E-16
      vertex -3.885419999999998 102.375 14.570325
      vertex -3.599920000000001 111.75 13.4997
    endloop
  endfacet
  facet normal -0.9995366195257511 0.030439221853290604 1.8278937261099948E-16
    outer loop
      vertex -3.8854200000000008 102.375 4.440892098500626E-16
      vertex -3.599920000000001 111.75 13.4997
      vertex -3.59992 111.75 0.0
    endloop
  endfacet
  facet normal -0.9996141739852732 0.027775945847804354 0.0
    outer loop
      vertex -4.14592 93.0 0.0
      vertex -4.14592 93.0 15.5472
      vertex -3.885419999999998 102.375 14.570325
    endloop
  endfacet
  facet normal -0.9996141739852732 0.027775945847804354 0.0
    outer loop
      vertex -4.14592 93.0 0.0
      vertex -3.885419999999998 102.375 14.570325
      vertex -3.8854200000000008 102.375 4.440892098500626E-16
    endloop
  endfacet
  facet normal -0.9996846420387155 0.025112078208012364 1.0808043365720785E-16
    outer loop
      vertex -4.38142 83.625 0.0
      vertex -4.3814199999999985 83.625 16.430325
      vertex -4.14592 93.0 15.5472
    endloop
  endfacet
  facet normal -0.9996846420387155 0.025112078208012364 1.0808043365720785E-16
    outer loop
      vertex -4.38142 83.625 0.0
      vertex -4.14592 93.0 15.5472
      vertex -4.14592 93.0 0.0
    endloop
  endfacet
  facet normal -0.999748019184617 0.02244767552409191 1.0313241412774014E-16
    outer loop
      vertex -4.59192 74.25 0.0
      vertex -4.591919999999998 74.25 17.219700000000003
      vertex -4.3814199999999985 83.625 16.430325
    endloop
  endfacet
  facet normal -0.999748019184617 0.02244767552409191 1.0313241412774014E-16
    outer loop
      vertex -4.59192 74.25 0.0
      vertex -4.3814199999999985 83.625 16.430325
      vertex -4.38142 83.625 0.0
    endloop
  endfacet
  facet normal -0.9998043013730334 0.019782794443167856 1.0313822010869974E-16
    outer loop
      vertex -4.656226666666666 71.0 0.0
      vertex -4.656226666666665 71.0 17.46085
      vertex -4.591919999999998 74.25 17.219700000000003
    endloop
  endfacet
  facet normal -0.9998043013730334 0.019782794443167856 1.0313822010869974E-16
    outer loop
      vertex -4.656226666666666 71.0 0.0
      vertex -4.591919999999998 74.25 17.219700000000003
      vertex -4.59192 74.25 0.0
    endloop
  endfacet
  facet normal -0.9998043013730334 0.01978279444316789 -0.0
    outer loop
      vertex -4.656226666666666 71.0 3.999999999999987
      vertex -4.777419999999999 64.875 16.249999999999986
      vertex -4.777419999999999 64.875 17.915325
    endloop
  endfacet
  facet normal -0.9998043013730334 0.01978279444316789 -0.0
    outer loop
      vertex -4.656226666666666 71.0 3.999999999999987
      vertex -4.777419999999999 64.875 17.915325
      vertex -4.656226666666665 71.0 17.46085
    endloop
  endfacet
  facet normal -0.9998043013730334 0.0197827944431679 -0.0
    outer loop
      vertex -4.685906666666666 69.49999999999999 7.000000000000002
      vertex -4.755159999999999 66.0 0.0
      vertex -4.777419999999999 64.875 0.0
    endloop
  endfacet
  facet normal -0.9998043013730334 0.0197827944431679 -0.0
    outer loop
      vertex -4.685906666666666 69.49999999999999 7.000000000000002
      vertex -4.777419999999999 64.875 0.0
      vertex -4.777419999999999 64.875 16.249999999999986
    endloop
  endfacet
  facet normal -0.9998043013730334 0.019782794443167707 -0.0
    outer loop
      vertex -4.715586666666666 68.0 4.000000000000018
      vertex -4.715586666666666 68.0 0.0
      vertex -4.755159999999999 66.0 0.0
    endloop
  endfacet
  facet normal -0.9998534850062567 0.017117491663307213 -0.0
    outer loop
      vertex -4.792147949168302 64.01472259530942 17.970554809381134
      vertex -4.777419999999999 64.875 17.915325
      vertex -4.777419999999999 64.875 16.249999999999996
    endloop
  endfacet
  facet normal -0.9998534850062567 0.017117491663307213 -0.0
    outer loop
      vertex -4.93792 55.5 0.0
      vertex -4.937919999999998 55.5 18.517200000000003
      vertex -4.792147949168302 64.01472259530942 17.970554809381134
    endloop
  endfacet
  facet normal -0.9998534850062567 0.017117491663307213 -0.0
    outer loop
      vertex -4.93792 55.5 0.0
      vertex -4.792147949168302 64.01472259530942 17.970554809381134
      vertex -4.777419999999999 64.875 16.249999999999996
    endloop
  endfacet
  facet normal -0.9998534850062567 0.017117491663307213 -0.0
    outer loop
      vertex -4.93792 55.5 0.0
      vertex -4.777419999999999 64.875 16.249999999999996
      vertex -4.777419999999999 64.875 0.0
    endloop
  endfacet
  facet normal -0.9998955669394523 0.014451823927498265 9.335826478753382E-17
    outer loop
      vertex -5.0734200000000005 46.125 0.0
      vertex -5.073419999999999 46.125 19.025325000000002
      vertex -4.937919999999998 55.5 18.517200000000003
    endloop
  endfacet
  facet normal -0.9998955669394523 0.014451823927498265 9.335826478753382E-17
    outer loop
      vertex -5.0734200000000005 46.125 0.0
      vertex -4.937919999999998 55.5 18.517200000000003
      vertex -4.93792 55.5 0.0
    endloop
  endfacet
  facet normal -0.9999305444812182 0.01178584801761882 0.0
    outer loop
      vertex -5.1839200000000005 36.75 9.520649999999991
      vertex -5.1839200000000005 36.75 19.439700000000002
      vertex -5.073419999999999 46.125 19.025325000000002
    endloop
  endfacet
  facet normal -0.9999305444812182 0.01178584801761882 0.0
    outer loop
      vertex -5.1839200000000005 36.75 9.520649999999991
      vertex -5.073419999999999 46.125 19.025325000000002
      vertex -5.0734200000000005 46.125 0.0
    endloop
  endfacet
  facet normal -0.9999305444812182 0.01178584801761882 0.0
    outer loop
      vertex -5.1839200000000005 36.75 9.520649999999991
      vertex -5.0734200000000005 46.125 0.0
      vertex -5.081179256275224 45.46669205809754 0.0
    endloop
  endfacet
  facet normal -0.999958415394063 0.009119620748393823 0.0
    outer loop
      vertex -5.26942 27.375 19.760325
      vertex -5.1839200000000005 36.75 19.439700000000002
      vertex -5.1839200000000005 36.75 9.520649999999995
    endloop
  endfacet
  facet normal -0.0 -1.0 -0.0
    outer loop
      vertex -4.656226666666663 71.0 -7.4246682875885535E-16
      vertex 4.656226666666665 71.0 -2.8102468500416448E-15
      vertex 4.656226666666666 71.0 3.999999999999997
    endloop
  endfacet
  facet normal -0.0 -1.0 -0.0
    outer loop
      vertex -4.656226666666663 71.0 -7.4246682875885535E-16
      vertex 4.656226666666666 71.0 3.999999999999997
      vertex -4.656226666666664 71.0 3.9999999999999996
    endloop
  endfacet
  facet normal -1.271489679932476E-16 -0.894427190999916 -0.4472135954999579
    outer loop
      vertex -4.656226666666663 71.0 3.9999999999999996
      vertex 4.656226666666665 71.0 3.999999999999997
      vertex 4.685906666666666 69.5 6.999999999999997
    endloop
  endfacet
  facet normal -1.271489679932476E-16 -0.894427190999916 -0.4472135954999579
    outer loop
      vertex -4.656226666666663 71.0 3.9999999999999996
      vertex 4.685906666666666 69.5 6.999999999999997
      vertex -4.685906666666665 69.5 7.0
    endloop
  endfacet
  facet normal -1.2634868975921252E-16 0.894427190999916 -0.4472135954999579
    outer loop
      vertex -4.685906666666664 69.5 7.0
      vertex 4.685906666666666 69.5 6.999999999999997
      vertex 4.715586666666665 68.0 3.999999999999997
    endloop
  endfacet
  facet normal -1.2634868975921252E-16 0.894427190999916 -0.4472135954999579
    outer loop
      vertex -4.685906666666664 69.5 7.0
      vertex 4.715586666666665 68.0 3.999999999999997
      vertex -4.715586666666665 68.0 3.9999999999999996
    endloop
  endfacet
  facet normal -0.0 1.0 -0.0
    outer loop
      vertex -4.715586666666667 68.0 3.9999999999999996
      vertex 4.715586666666665 68.0 3.999999999999997
      vertex 4.715586666666665 68.0 -2.8234274177899954E-15
    endloop
  endfacet
  facet normal -0.0 1.0 -0.0
    outer loop
      vertex -4.715586666666667 68.0 3.9999999999999996
      vertex 4.715586666666665 68.0 -2.8234274177899954E-15
      vertex -4.715586666666665 68.0 -7.292862610105055E-16
    endloop
  endfacet
  facet normal -0.0 -1.0 -0.0
    outer loop
      vertex -3.2935599999999976 121.0 -1.045039610403365E-15
      vertex 3.2935599999999994 121.0 -2.507674068397137E-15
      vertex 3.2935599999999994 121.0 3.9999999999999973
    endloop
  endfacet
  facet normal -0.0 -1.0 -0.0
    outer loop
      vertex -3.2935599999999976 121.0 -1.045039610403365E-15
      vertex 3.2935599999999994 121.0 3.9999999999999973
      vertex -3.2935599999999976 121.0 3.999999999999999
    endloop
  endfacet
  facet normal -1.1880854037387798E-16 -0.894427190999916 -0.447213595499958
    outer loop
      vertex -3.2935599999999976 121.0 3.999999999999999
      vertex 3.2935599999999994 121.0 3.9999999999999973
      vertex 3.343239999999999 119.5 6.999999999999997
    endloop
  endfacet
  facet normal -1.1880854037387798E-16 -0.894427190999916 -0.447213595499958
    outer loop
      vertex -3.2935599999999976 121.0 3.999999999999999
      vertex 3.343239999999999 119.5 6.999999999999997
      vertex -3.343239999999999 119.5 6.999999999999999
    endloop
  endfacet
  facet normal -1.1706891542375413E-16 0.894427190999916 -0.447213595499958
    outer loop
      vertex -3.343239999999997 119.5 6.999999999999999
      vertex 3.343239999999999 119.5 6.999999999999997
      vertex 3.3929199999999984 118.0 3.9999999999999973
    endloop
  endfacet
  facet normal -1.1706891542375413E-16 0.894427190999916 -0.447213595499958
    outer loop
      vertex -3.343239999999997 119.5 6.999999999999999
      vertex 3.3929199999999984 118.0 3.9999999999999973
      vertex -3.3929199999999984 118.0 3.999999999999999
    endloop
  endfacet
  facet normal -0.0 1.0 -0.0
    outer loop
      vertex -3.392919999999998 118.0 3.999999999999999
      vertex 3.392919999999999 118.0 3.9999999999999973
      vertex 3.3929199999999993 118.0 -2.529736420342487E-15
    endloop
  endfacet
  facet normal -0.0 1.0 -0.0
    outer loop
      vertex -3.392919999999998 118.0 3.999999999999999
      vertex 3.3929199999999993 118.0 -2.529736420342487E-15
      vertex -3.392919999999998 118.0 -1.0229772584580136E-15
    endloop
  endfacet
  facet normal -1.0 0.0 0.0
    outer loop
      vertex -8.0 0.4321460017753808 0.0
      vertex -8.0 0.0 0.0
      vertex -8.0 0.0 30.0
    endloop
  endfacet
  facet normal -1.0 0.0 0.0
    outer loop
      vertex -8.0 0.4321460017753808 0.0
      vertex -8.0 0.0 30.0
      vertex -8.0 0.4321460017753793 30.0
    endloop
  endfacet
  facet normal -1.0 0.0 0.0
    outer loop
      vertex -8.0 2.525536401496195 0.0
      vertex -8.0 0.4321460017753808 0.0
      vertex -8.0 0.4321460017753793 30.0
    endloop
  endfacet
  facet normal -1.0 0.0 0.0
    outer loop
      vertex -8.0 2.525536401496195 0.0
      vertex -8.0 0.4321460017753793 30.0
      vertex -8.0 2.5255364014961934 30.0
    endloop
  endfacet
  facet normal -1.0 0.0 0.0
    outer loop
      vertex -8.0 4.671756011141029 0.0
      vertex -8.0 2.525536401496195 0.0
      vertex -8.0 2.5255364014961934 30.0
    endloop
  endfacet
  facet normal -1.0 0.0 0.0
    outer loop
      vertex -8.0 4.671756011141029 0.0
      vertex -8.0 2.5255364014961934 30.0
      vertex -8.0 4.671756011141026 30.0
    endloop
  endfacet
  facet normal -1.0 0.0 0.0
    outer loop
      vertex -8.0 7.112824086584006 0.0
      vertex -8.0 4.671756011141029 0.0
      vertex -8.0 4.671756011141026 30.0
    endloop
  endfacet
  facet normal -1.0 0.0 0.0
    outer loop
      vertex -8.0 7.112824086584006 0.0
      vertex -8.0 4.671756011141026 30.0
      vertex -8.0 7.112824086584006 30.0
    endloop
  endfacet
  facet normal -1.0 0.0 0.0
    outer loop
      vertex -8.0 10.385590953014532 0.0
      vertex -8.0 7.112824086584006 0.0
      vertex -8.0 7.112824086584006 30.0
    endloop
  endfacet
  facet normal -1.0 0.0 0.0
    outer loop
      vertex -8.0 10.385590953014532 0.0
      vertex -8.0 7.112824086584006 30.0
      vertex -8.0 10.385590953014532 30.0
    endloop
  endfacet
  facet normal -1.0 0.0 0.0
    outer loop
      vertex -8.0 16.352222807711552 0.0
      vertex -8.0 10.385590953014532 0.0
      vertex -8.0 10.385590953014532 30.0
    endloop
  endfacet
  facet normal -1.0 0.0 0.0
    outer loop
      vertex -8.0 16.352222807711552 0.0
      vertex -8.0 10.385590953014532 30.0
      vertex -8.0 16.352222807711552 30.0
    endloop
  endfacet
  facet normal -1.0 0.0 0.0
    outer loop
      vertex -8.0 16.352222807711552 0.0
      vertex -8.0 16.352222807711552 30.0
      vertex -8.0 18.0 30.0
    endloop
  endfacet
  facet normal -1.0 0.0 0.0
    outer loop
      vertex -8.0 16.352222807711552 0.0
      vertex -8.0 18.0 30.0
      vertex -8.0 18.0 0.0
    endloop
  endfacet
  facet normal 1.0 0.0 0.0
    outer loop
      vertex 8.0 0.0 0.0
      vertex 8.0 18.0 0.0
      vertex 8.0 18.0 30.0
    endloop
  endfacet
  facet normal 1.0 0.0 0.0
    outer loop
      vertex 8.0 0.0 0.0
      vertex 8.0 18.0 30.0
      vertex 8.0 0.0 30.0
    endloop
  endfacet
  facet normal 0.0 -1.0 0.0
    outer loop
      vertex 5.38179301110849 0.0 0.0
      vertex 8.0 0.0 0.0
      vertex 8.0 0.0 30.0
    endloop
  endfacet
  facet normal 0.0 -1.0 0.0
    outer loop
      vertex 5.38179301110849 0.0 0.0
      vertex 8.0 0.0 30.0
      vertex 5.381793011108492 0.0 30.0
    endloop
  endfacet
  facet normal 0.0 -1.0 0.0
    outer loop
      vertex 4.825348762670302 0.0 0.0
      vertex 5.38179301110849 0.0 0.0
      vertex 5.381793011108492 0.0 30.0
    endloop
  endfacet
  facet normal 0.0 -1.0 0.0
    outer loop
      vertex 4.825348762670302 0.0 0.0
      vertex 5.381793011108492 0.0 30.0
      vertex 4.825348762670304 0.0 30.0
    endloop
  endfacet
  facet normal 0.0 -1.0 0.0
    outer loop
      vertex 4.447223028597721 0.0 0.0
      vertex 4.825348762670302 0.0 0.0
      vertex 4.825348762670304 0.0 30.0
    endloop
  endfacet
  facet normal 0.0 -1.0 0.0
    outer loop
      vertex 4.447223028597721 0.0 0.0
      vertex 4.825348762670304 0.0 30.0
      vertex 4.447223028597723 0.0 30.0
    endloop
  endfacet
  facet normal 0.0 -1.0 0.0
    outer loop
      vertex 4.264099922716968 0.0 0.0
      vertex 4.447223028597721 0.0 0.0
      vertex 4.447223028597723 0.0 30.0
    endloop
  endfacet
  facet normal 0.0 -1.0 0.0
    outer loop
      vertex 4.264099922716968 0.0 0.0
      vertex 4.447223028597723 0.0 30.0
      vertex 4.264099922716966 0.0 30.0
    endloop
  endfacet
  facet normal 0.0 -1.0 0.0
    outer loop
      vertex -8.0 0.0 0.0
      vertex -7.088259552247997 0.0 0.0
      vertex -7.088259552247997 0.0 30.0
    endloop
  endfacet
  facet normal 0.0 -1.0 0.0
    outer loop
      vertex -8.0 0.0 0.0
      vertex -7.088259552247997 0.0 30.0
      vertex -8.0 0.0 30.0
    endloop
  endfacet
  facet normal 0.0 -1.0 0.0
    outer loop
      vertex -7.088259552247997 0.0 0.0
      vertex -4.976034383114568 0.0 0.0
      vertex -4.976034383114568 0.0 30.0
    endloop
  endfacet
  facet normal 0.0 -1.0 0.0
    outer loop
      vertex -7.088259552247997 0.0 0.0
      vertex -4.976034383114568 0.0 30.0
      vertex -7.088259552247997 0.0 30.0
    endloop
  endfacet
  facet normal 0.0 -1.0 0.0
    outer loop
      vertex -4.976034383114568 0.0 0.0
      vertex -4.356767251032213 0.0 0.0
      vertex -4.356767251032213 0.0 30.0
    endloop
  endfacet
  facet normal 0.0 -1.0 0.0
    outer loop
      vertex -4.976034383114568 0.0 0.0
      vertex -4.356767251032213 0.0 30.0
      vertex -4.976034383114568 0.0 30.0
    endloop
  endfacet
  facet normal 0.0 -1.0 0.0
    outer loop
      vertex -4.356767251032213 0.0 0.0
      vertex -4.264099922716969 0.0 0.0
      vertex -4.264099922716969 0.0 30.0
    endloop
  endfacet
  facet normal 0.0 -1.0 0.0
    outer loop
      vertex -4.356767251032213 0.0 0.0
      vertex -4.264099922716969 0.0 30.0
      vertex -4.356767251032213 0.0 30.0
    endloop
  endfacet
  facet normal 0.0 0.0 1.0
    outer loop
      vertex 5.38179301110849 0.0 30.0
      vertex 8.0 0.0 30.0
      vertex 8.0 18.0 30.0
    endloop
  endfacet
  facet normal 0.0 0.0 1.0
    outer loop
      vertex 5.38179301110849 0.0 30.0
      vertex 8.0 18.0 30.0
      vertex 6.516413977783019 18.0 30.0
    endloop
  endfacet
  facet normal 0.0 0.0 1.0
    outer loop
      vertex 4.825348762670302 0.0 30.0
      vertex 5.38179301110849 0.0 30.0
      vertex 5.649323215122608 4.244187101854848 30.0
    endloop
  endfacet
  facet normal 0.0 0.0 1.0
    outer loop
      vertex 4.447223028597721 0.0 30.0
      vertex 4.825348762670302 0.0 30.0
      vertex 5.32154610726501 2.5558491087141864 30.0
    endloop
  endfacet
  facet normal 0.0 0.0 1.0
    outer loop
      vertex 4.264099922716968 0.0 30.0
      vertex 4.447223028597721 0.0 30.0
      vertex 4.789264966862662 0.9998679028235851 30.0
    endloop
  endfacet
  facet normal 0.0 0.0 1.0
    outer loop
      vertex -8.0 0.4321460017753808 30.0
      vertex -8.0 0.0 30.0
      vertex -7.088259552247997 0.0 30.0
    endloop
  endfacet
  facet normal 0.0 0.0 1.0
    outer loop
      vertex -8.0 2.525536401496195 30.0
      vertex -8.0 0.4321460017753808 30.0
      vertex -7.088259552247997 0.0 30.0
    endloop
  endfacet
  facet normal 0.0 0.0 1.0
    outer loop
      vertex -8.0 2.525536401496195 30.0
      vertex -7.088259552247997 0.0 30.0
      vertex -4.976034383114568 0.0 30.0
    endloop
  endfacet
  facet normal 0.0 0.0 1.0
    outer loop
      vertex -8.0 4.671756011141029 30.0
      vertex -8.0 2.525536401496195 30.0
      vertex -4.976034383114568 0.0 30.0
    endloop
  endfacet
  facet normal 0.0 0.0 1.0
    outer loop
      vertex -8.0 4.671756011141029 30.0
      vertex -4.976034383114568 0.0 30.0
      vertex -4.356767251032213 0.0 30.0
    endloop
  endfacet
  facet normal 0.0 0.0 1.0
    outer loop
      vertex -8.0 7.112824086584006 30.0
      vertex -8.0 4.671756011141029 30.0
      vertex -4.356767251032213 0.0 30.0
    endloop
  endfacet
  facet normal 0.0 0.0 1.0
    outer loop
      vertex -8.0 7.112824086584006 30.0
      vertex -4.356767251032213 0.0 30.0
      vertex -4.264099922716969 0.0 30.0
    endloop
  endfacet
  facet normal 0.0 0.0 1.0
    outer loop
      vertex -8.0 10.385590953014532 30.0
      vertex -8.0 7.112824086584006 30.0
      vertex -4.789264966862658 0.9998679028235719 30.0
    endloop
  endfacet
  facet normal 0.0 0.0 1.0
    outer loop
      vertex -8.0 16.352222807711552 30.0
      vertex -8.0 10.385590953014532 30.0
      vertex -5.321546107265011 2.5558491087141904 30.0
    endloop
  endfacet
  facet normal -0.0 0.0 1.0
    outer loop
      vertex -8.0 16.352222807711552 30.0
      vertex -5.649323215122607 4.244187101854842 30.0
      vertex -6.516413977783017 18.0 30.0
    endloop
  endfacet
  facet normal -0.0 0.0 1.0
    outer loop
      vertex -8.0 16.352222807711552 30.0
      vertex -6.516413977783017 18.0 30.0
      vertex -8.0 18.0 30.0
    endloop
  endfacet
  facet normal 0.0 -0.0 1.0
    outer loop
      vertex -5.759999999999999 5.999999999999997 30.0
      vertex -5.0035860222169815 18.0 30.0
      vertex -6.516413977783017 18.0 30.0
    endloop
  endfacet
  facet normal 0.0 0.0 1.0
    outer loop
      vertex -5.649323215122607 7.755812898145151 30.0
      vertex -3.6604974976181097 18.0 30.0
      vertex -5.0035860222169815 18.0 30.0
    endloop
  endfacet
  facet normal 0.0 0.0 1.0
    outer loop
      vertex -5.321546107265012 9.444150891285803 30.0
      vertex -2.3947002665466828 18.0 30.0
      vertex -3.6604974976181097 18.0 30.0
    endloop
  endfacet
  facet normal 0.0 0.0 1.0
    outer loop
      vertex -4.789264966862655 11.000132097176433 30.0
      vertex -1.1126933659349167 18.0 30.0
      vertex -2.3947002665466828 18.0 30.0
    endloop
  endfacet
  facet normal 0.0 0.0 1.0
    outer loop
      vertex -4.072935059634518 12.363961030678924 30.0
      vertex 0.32228628722562 18.0 30.0
      vertex -1.1126933659349167 18.0 30.0
    endloop
  endfacet
  facet normal 0.0 0.0 1.0
    outer loop
      vertex -3.2000845421929043 13.483226510722913 30.0
      vertex 2.208100318156694 18.0 30.0
      vertex 0.32228628722562 18.0 30.0
    endloop
  endfacet
  facet normal 0.0 0.0 1.0
    outer loop
      vertex -2.2042565704229338 14.31491579260157 30.0
      vertex 5.570523970075149 18.0 30.0
      vertex 2.208100318156694 18.0 30.0
    endloop
  endfacet
  facet normal 0.0 0.0 1.0
    outer loop
      vertex -1.1237202548129006 14.82706752362907 30.0
      vertex 6.38929015369337 15.983265865145901 30.0
      vertex 6.516413977783019 18.0 30.0
    endloop
  endfacet
  facet normal 0.0 0.0 1.0
    outer loop
      vertex -1.1237202548129006 14.82706752362907 30.0
      vertex 6.516413977783019 18.0 30.0
      vertex 5.570523970075149 18.0 30.0
    endloop
  endfacet
  facet normal -0.0 0.0 1.0
    outer loop
      vertex 3.1086244689504383E-15 14.999999999999998 30.0
      vertex 6.266521734967751 14.035627312741958 30.0
      vertex 6.38929015369337 15.983265865145901 30.0
    endloop
  endfacet
  facet normal 0.0 0.0 1.0
    outer loop
      vertex 1.123720254812895 14.827067523629074 30.0
      vertex 6.165768297536063 12.437241660583817 30.0
      vertex 6.266521734967751 14.035627312741958 30.0
    endloop
  endfacet
  facet normal 0.0 0.0 1.0
    outer loop
      vertex 2.204256570422926 14.314915792601575 30.0
      vertex 6.080084542192907 11.077926398944347 30.0
      vertex 6.165768297536063 12.437241660583817 30.0
    endloop
  endfacet
  facet normal 0.0 0.0 1.0
    outer loop
      vertex 3.200084542192905 13.483226510722911 30.0
      vertex 6.00498210250678 9.886476607290646 30.0
      vertex 6.080084542192907 11.077926398944347 30.0
    endloop
  endfacet
  facet normal 0.0 0.0 1.0
    outer loop
      vertex 4.072935059634512 12.36396103067893 30.0
      vertex 5.9373916924897285 8.814200123741475 30.0
      vertex 6.00498210250678 9.886476607290646 30.0
    endloop
  endfacet
  facet normal 0.0 0.0 1.0
    outer loop
      vertex 4.7892649668626595 11.000132097176419 30.0
      vertex 5.875100013861248 7.825984456795944 30.0
      vertex 5.9373916924897285 8.814200123741475 30.0
    endloop
  endfacet
  facet normal 0.0 0.0 1.0
    outer loop
      vertex 5.321546107265009 9.444150891285815 30.0
      vertex 5.816422535639956 6.895105653208457 30.0
      vertex 5.875100013861248 7.825984456795944 30.0
    endloop
  endfacet
  facet normal 0.0 0.0 1.0
    outer loop
      vertex 5.649323215122605 7.755812898145157 30.0
      vertex 5.759999999999999 5.999999999999993 30.0
      vertex 5.816422535639956 6.895105653208457 30.0
    endloop
  endfacet
  facet normal -0.9980192267968557 0.06290964110377853 0.0
    outer loop
      vertex 5.649323215122608 4.244187101854846 30.0
      vertex 5.76 6.0 30.0
      vertex 5.76 6.0 0.0
    endloop
  endfacet
  facet normal -0.9980192267968557 0.06290964110377853 0.0
    outer loop
      vertex 5.649323215122608 4.244187101854846 30.0
      vertex 5.76 6.0 0.0
      vertex 5.649323215122608 4.244187101854846 0.0
    endloop
  endfacet
  facet normal -0.9816709980122481 0.19058345064993648 0.0
    outer loop
      vertex 5.321546107265012 2.555849108714192 30.0
      vertex 5.649323215122608 4.244187101854846 30.0
      vertex 5.649323215122608 4.244187101854846 0.0
    endloop
  endfacet
  facet normal -0.9816709980122481 0.19058345064993648 0.0
    outer loop
      vertex 5.321546107265012 2.555849108714192 30.0
      vertex 5.649323215122608 4.244187101854846 0.0
      vertex 5.321546107265012 2.555849108714192 0.0
    endloop
  endfacet
  facet normal -0.9461692402372918 0.3236723170565968 0.0
    outer loop
      vertex 4.78926496686266 0.9998679028235804 30.0
      vertex 5.321546107265012 2.555849108714192 30.0
      vertex 5.321546107265012 2.555849108714192 0.0
    endloop
  endfacet
  facet normal -0.9461692402372918 0.3236723170565968 0.0
    outer loop
      vertex 4.78926496686266 0.9998679028235804 30.0
      vertex 5.321546107265012 2.555849108714192 0.0
      vertex 4.78926496686266 0.9998679028235804 0.0
    endloop
  endfacet
  facet normal -0.8853124719579658 0.46499658815487677 0.0
    outer loop
      vertex 4.2640999227169685 0.0 30.0
      vertex 4.78926496686266 0.9998679028235804 30.0
      vertex 4.78926496686266 0.9998679028235804 0.0
    endloop
  endfacet
  facet normal -0.8853124719579658 0.46499658815487677 0.0
    outer loop
      vertex 4.2640999227169685 0.0 30.0
      vertex 4.78926496686266 0.9998679028235804 0.0
      vertex 4.2640999227169685 0.0 0.0
    endloop
  endfacet
  facet normal 0.8853124719579655 0.4649965881548774 0.0
    outer loop
      vertex -4.789264966862661 0.9998679028235804 30.0
      vertex -4.2640999227169685 0.0 30.0
      vertex -4.2640999227169685 0.0 0.0
    endloop
  endfacet
  facet normal 0.8853124719579655 0.4649965881548774 0.0
    outer loop
      vertex -4.789264966862661 0.9998679028235804 30.0
      vertex -4.2640999227169685 0.0 0.0
      vertex -4.789264966862661 0.9998679028235804 0.0
    endloop
  endfacet
  facet normal 0.9461692402372919 0.3236723170565966 0.0
    outer loop
      vertex -5.321546107265012 2.555849108714191 30.0
      vertex -4.789264966862661 0.9998679028235804 30.0
      vertex -4.789264966862661 0.9998679028235804 0.0
    endloop
  endfacet
  facet normal 0.9461692402372919 0.3236723170565966 0.0
    outer loop
      vertex -5.321546107265012 2.555849108714191 30.0
      vertex -4.789264966862661 0.9998679028235804 0.0
      vertex -5.321546107265012 2.555849108714191 0.0
    endloop
  endfacet
  facet normal 0.9816709980122481 0.19058345064993662 0.0
    outer loop
      vertex -5.649323215122608 4.244187101854843 30.0
      vertex -5.321546107265012 2.555849108714191 30.0
      vertex -5.321546107265012 2.555849108714191 0.0
    endloop
  endfacet
  facet normal 0.9816709980122481 0.19058345064993662 0.0
    outer loop
      vertex -5.649323215122608 4.244187101854843 30.0
      vertex -5.321546107265012 2.555849108714191 0.0
      vertex -5.649323215122608 4.244187101854843 0.0
    endloop
  endfacet
  facet normal 0.9980192267968557 0.06290964110377846 0.0
    outer loop
      vertex -5.76 5.999999999999999 30.0
      vertex -5.649323215122608 4.244187101854843 30.0
      vertex -5.649323215122608 4.244187101854843 0.0
    endloop
  endfacet
  facet normal 0.9980192267968557 0.06290964110377846 0.0
    outer loop
      vertex -5.76 5.999999999999999 30.0
      vertex -5.649323215122608 4.244187101854843 0.0
      vertex -5.76 5.999999999999999 0.0
    endloop
  endfacet
  facet normal 0.9980192267968557 -0.06290964110377846 0.0
    outer loop
      vertex -5.649323215122608 7.755812898145155 30.0
      vertex -5.76 5.999999999999999 30.0
      vertex -5.76 5.999999999999999 0.0
    endloop
  endfacet
  facet normal 0.9980192267968557 -0.06290964110377846 0.0
    outer loop
      vertex -5.649323215122608 7.755812898145155 30.0
      vertex -5.76 5.999999999999999 0.0
      vertex -5.649323215122608 7.755812898145155 0.0
    endloop
  endfacet
  facet normal 0.9816709980122482 -0.19058345064993623 0.0
    outer loop
      vertex -5.3215461072650125 9.444150891285807 30.0
      vertex -5.649323215122608 7.755812898145155 30.0
      vertex -5.649323215122608 7.755812898145155 0.0
    endloop
  endfacet
  facet normal 0.9816709980122482 -0.19058345064993623 0.0
    outer loop
      vertex -5.3215461072650125 9.444150891285807 30.0
      vertex -5.649323215122608 7.755812898145155 0.0
      vertex -5.3215461072650125 9.444150891285807 0.0
    endloop
  endfacet
  facet normal 0.946169240237292 -0.32367231705659627 0.0
    outer loop
      vertex -4.789264966862662 11.000132097176419 30.0
      vertex -5.3215461072650125 9.444150891285807 30.0
      vertex -5.3215461072650125 9.444150891285807 0.0
    endloop
  endfacet
  facet normal 0.946169240237292 -0.32367231705659627 0.0
    outer loop
      vertex -4.789264966862662 11.000132097176419 30.0
      vertex -5.3215461072650125 9.444150891285807 0.0
      vertex -4.789264966862662 11.000132097176419 0.0
    endloop
  endfacet
  facet normal 0.8853124719579657 -0.4649965881548768 0.0
    outer loop
      vertex -4.072935059634515 12.363961030678928 30.0
      vertex -4.789264966862662 11.000132097176419 30.0
      vertex -4.789264966862662 11.000132097176419 0.0
    endloop
  endfacet
  facet normal 0.8853124719579657 -0.4649965881548768 0.0
    outer loop
      vertex -4.072935059634515 12.363961030678928 30.0
      vertex -4.789264966862662 11.000132097176419 0.0
      vertex -4.072935059634515 12.363961030678928 0.0
    endloop
  endfacet
  facet normal 0.7885626260041856 -0.6149544575571291 0.0
    outer loop
      vertex -3.2000845421929087 13.483226510722908 30.0
      vertex -4.072935059634515 12.363961030678928 30.0
      vertex -4.072935059634515 12.363961030678928 0.0
    endloop
  endfacet
  facet normal 0.7885626260041856 -0.6149544575571291 0.0
    outer loop
      vertex -3.2000845421929087 13.483226510722908 30.0
      vertex -4.072935059634515 12.363961030678928 0.0
      vertex -3.2000845421929087 13.483226510722908 0.0
    endloop
  endfacet
  facet normal 0.6410176240897703 -0.7675261595582955 0.0
    outer loop
      vertex -2.2042565704229204 14.314915792601578 30.0
      vertex -3.2000845421929087 13.483226510722908 30.0
      vertex -3.2000845421929087 13.483226510722908 0.0
    endloop
  endfacet
  facet normal 0.6410176240897703 -0.7675261595582955 0.0
    outer loop
      vertex -2.2042565704229204 14.314915792601578 30.0
      vertex -3.2000845421929087 13.483226510722908 0.0
      vertex -2.2042565704229204 14.314915792601578 0.0
    endloop
  endfacet
  facet normal 0.42830404024383784 -0.9036346878638541 0.0
    outer loop
      vertex -1.123720254812901 14.827067523629072 30.0
      vertex -2.2042565704229204 14.314915792601578 30.0
      vertex -2.2042565704229204 14.314915792601578 0.0
    endloop
  endfacet
  facet normal 0.42830404024383784 -0.9036346878638541 0.0
    outer loop
      vertex -1.123720254812901 14.827067523629072 30.0
      vertex -2.2042565704229204 14.314915792601578 0.0
      vertex -1.123720254812901 14.827067523629072 0.0
    endloop
  endfacet
  facet normal 0.1521022386695059 -0.9883647651508651 0.0
    outer loop
      vertex -1.058094834463313E-15 15.0 30.0
      vertex -1.123720254812901 14.827067523629072 30.0
      vertex -1.123720254812901 14.827067523629072 0.0
    endloop
  endfacet
  facet normal 0.1521022386695059 -0.9883647651508651 0.0
    outer loop
      vertex -1.058094834463313E-15 15.0 30.0
      vertex -1.123720254812901 14.827067523629072 0.0
      vertex -1.058094834463313E-15 15.0 0.0
    endloop
  endfacet
  facet normal -0.15210223866950437 -0.9883647651508654 0.0
    outer loop
      vertex 1.123720254812899 14.827067523629074 30.0
      vertex -1.058094834463313E-15 15.0 30.0
      vertex -1.058094834463313E-15 15.0 0.0
    endloop
  endfacet
  facet normal -0.15210223866950437 -0.9883647651508654 0.0
    outer loop
      vertex 1.123720254812899 14.827067523629074 30.0
      vertex -1.058094834463313E-15 15.0 0.0
      vertex 1.123720254812899 14.827067523629074 0.0
    endloop
  endfacet
  facet normal -0.4283040402438378 -0.9036346878638541 0.0
    outer loop
      vertex 2.2042565704229187 14.31491579260158 30.0
      vertex 1.123720254812899 14.827067523629074 30.0
      vertex 1.123720254812899 14.827067523629074 0.0
    endloop
  endfacet
  facet normal -0.4283040402438378 -0.9036346878638541 0.0
    outer loop
      vertex 2.2042565704229187 14.31491579260158 30.0
      vertex 1.123720254812899 14.827067523629074 0.0
      vertex 2.2042565704229187 14.31491579260158 0.0
    endloop
  endfacet
  facet normal -0.6410176240897703 -0.7675261595582955 0.0
    outer loop
      vertex 3.200084542192907 13.48322651072291 30.0
      vertex 2.2042565704229187 14.31491579260158 30.0
      vertex 2.2042565704229187 14.31491579260158 0.0
    endloop
  endfacet
  facet normal -0.6410176240897703 -0.7675261595582955 0.0
    outer loop
      vertex 3.200084542192907 13.48322651072291 30.0
      vertex 2.2042565704229187 14.31491579260158 0.0
      vertex 3.200084542192907 13.48322651072291 0.0
    endloop
  endfacet
  facet normal -0.7885626260041859 -0.6149544575571287 0.0
    outer loop
      vertex 4.072935059634513 12.36396103067893 30.0
      vertex 3.200084542192907 13.48322651072291 30.0
      vertex 3.200084542192907 13.48322651072291 0.0
    endloop
  endfacet
  facet normal -0.7885626260041859 -0.6149544575571287 0.0
    outer loop
      vertex 4.072935059634513 12.36396103067893 30.0
      vertex 3.200084542192907 13.48322651072291 0.0
      vertex 4.072935059634513 12.36396103067893 0.0
    endloop
  endfacet
  facet normal -0.8853124719579658 -0.46499658815487677 0.0
    outer loop
      vertex 4.78926496686266 11.000132097176419 30.0
      vertex 4.072935059634513 12.36396103067893 30.0
      vertex 4.072935059634513 12.36396103067893 0.0
    endloop
  endfacet
  facet normal -0.8853124719579658 -0.46499658815487677 0.0
    outer loop
      vertex 4.78926496686266 11.000132097176419 30.0
      vertex 4.072935059634513 12.36396103067893 0.0
      vertex 4.78926496686266 11.000132097176419 0.0
    endloop
  endfacet
  facet normal -0.9461692402372917 -0.3236723170565971 0.0
    outer loop
      vertex 5.32154610726501 9.444150891285814 30.0
      vertex 4.78926496686266 11.000132097176419 30.0
      vertex 4.78926496686266 11.000132097176419 0.0
    endloop
  endfacet
  facet normal -0.9461692402372917 -0.3236723170565971 0.0
    outer loop
      vertex 5.32154610726501 9.444150891285814 30.0
      vertex 4.78926496686266 11.000132097176419 0.0
      vertex 5.32154610726501 9.444150891285814 0.0
    endloop
  endfacet
  facet normal -0.9816709980122482 -0.19058345064993637 0.0
    outer loop
      vertex 5.649323215122606 7.755812898145159 30.0
      vertex 5.32154610726501 9.444150891285814 30.0
      vertex 5.32154610726501 9.444150891285814 0.0
    endloop
  endfacet
  facet normal -0.9816709980122482 -0.19058345064993637 0.0
    outer loop
      vertex 5.649323215122606 7.755812898145159 30.0
      vertex 5.32154610726501 9.444150891285814 0.0
      vertex 5.649323215122606 7.755812898145159 0.0
    endloop
  endfacet
  facet normal -0.9980192267968557 -0.06290964110377945 0.0
    outer loop
      vertex 5.76 6.000000000000002 30.0
      vertex 5.649323215122606 7.755812898145159 30.0
      vertex 5.649323215122606 7.755812898145159 0.0
    endloop
  endfacet
  facet normal -0.9980192267968557 -0.06290964110377945 0.0
    outer loop
      vertex 5.76 6.000000000000002 30.0
      vertex 5.649323215122606 7.755812898145159 0.0
      vertex 5.76 6.000000000000002 0.0
    endloop
  endfacet
  facet normal 0.9601044023711891 0.27964180042951725 0.0
    outer loop
      vertex 6.780365600372958 22.187415309752332 -4.914667490394387E-16
      vertex 5.912224237021994 25.168036746009566 -2.0908556109498318E-16
      vertex 5.912224237021994 25.168036746009566 22.17084088883248
    endloop
  endfacet
  facet normal 0.9601044023711891 0.27964180042951725 0.0
    outer loop
      vertex 6.780365600372958 22.187415309752332 -4.914667490394387E-16
      vertex 5.912224237021994 25.168036746009566 22.17084088883248
      vertex 6.780365600372957 22.187415309752332 25.426371001398593
    endloop
  endfacet
  facet normal 0.9601044023711891 0.27964180042951714 -4.56288595204031E-17
    outer loop
      vertex 5.912224237021994 25.168036746009566 -2.0908556109498318E-16
      vertex 5.2954743571188665 27.285546624530546 -8.474726150538597E-18
      vertex 5.295474357118867 27.285546624530546 19.858028839195754
    endloop
  endfacet
  facet normal 0.9601044023711891 0.27964180042951714 -4.56288595204031E-17
    outer loop
      vertex 5.912224237021994 25.168036746009566 -2.0908556109498318E-16
      vertex 5.295474357118867 27.285546624530546 19.858028839195754
      vertex 5.912224237021994 25.168036746009566 22.17084088883248
    endloop
  endfacet
  facet normal 0.960104402371192 0.2796418004295074 0.0
    outer loop
      vertex 5.2954743571188665 27.285546624530546 -8.474726150538597E-18
      vertex 5.26942 27.375 0.0
      vertex 5.26942 27.375 19.760325
    endloop
  endfacet
  facet normal 0.960104402371192 0.2796418004295074 0.0
    outer loop
      vertex 5.2954743571188665 27.285546624530546 -8.474726150538597E-18
      vertex 5.26942 27.375 19.760325
      vertex 5.295474357118867 27.285546624530546 19.858028839195754
    endloop
  endfacet
  facet normal 0.999958415394063 0.009119620748393837 0.0
    outer loop
      vertex 5.26942 27.375 0.0
      vertex 5.244535148648664 30.103602121857048 0.0
      vertex 5.244535148648664 30.103602121857048 16.78005844723983
    endloop
  endfacet
  facet normal 0.999958415394063 0.009119620748393837 0.0
    outer loop
      vertex 5.26942 27.375 0.0
      vertex 5.244535148648664 30.103602121857048 16.78005844723983
      vertex 5.26942 27.375 19.760325
    endloop
  endfacet
  facet normal 0.9999305444812183 0.011785848017618766 0.0
    outer loop
      vertex 5.1839200000000005 36.75 0.0
      vertex 5.145133811105919 40.04068344689603 0.0
      vertex 5.145133811105919 40.04068344689603 5.926460237429847
    endloop
  endfacet
  facet normal 0.9999305444812183 0.011785848017618766 0.0
    outer loop
      vertex 5.1839200000000005 36.75 0.0
      vertex 5.145133811105919 40.04068344689603 5.926460237429847
      vertex 5.1839200000000005 36.75 9.520649999999995
    endloop
  endfacet
  facet normal 0.999958415394063 0.009119620748393814 0.0
    outer loop
      vertex 5.244535148648664 30.103602121857048 0.0
      vertex 5.1839200000000005 36.75 0.0
      vertex 5.1839200000000005 36.75 9.520649999999991
    endloop
  endfacet
  facet normal 0.999958415394063 0.009119620748393814 0.0
    outer loop
      vertex 5.244535148648664 30.103602121857048 0.0
      vertex 5.1839200000000005 36.75 9.520649999999991
      vertex 5.244535148648664 30.103602121857048 16.78005844723983
    endloop
  endfacet
  facet normal 0.9999305444812183 0.011785848017618616 -0.0
    outer loop
      vertex 5.145133811105919 40.04068344689603 0.0
      vertex 5.081179256275224 45.466692058097536 0.0
      vertex 5.145133811105919 40.04068344689603 5.926460237429847
    endloop
  endfacet
  facet normal -0.9999305444812183 0.011785848017618665 0.0
    outer loop
      vertex -5.1839200000000005 36.75 0.0
      vertex -5.1839200000000005 36.75 9.520649999999991
      vertex -5.081179256275224 45.46669205809754 0.0
    endloop
  endfacet
  facet normal -0.9601044023711891 0.27964180042951703 4.211545796093892E-17
    outer loop
      vertex -6.780365600372956 22.187415309752332 25.42637100139859
      vertex -5.2954743571188665 27.285546624530546 19.858028839195754
      vertex -5.295474357118867 27.285546624530546 8.474726150538751E-18
    endloop
  endfacet
  facet normal -0.9601044023711891 0.27964180042951703 4.211545796093892E-17
    outer loop
      vertex -6.780365600372956 22.187415309752332 25.42637100139859
      vertex -5.295474357118867 27.285546624530546 8.474726150538751E-18
      vertex -6.7803656003729555 22.18741530975234 4.914667490394381E-16
    endloop
  endfacet
  facet normal -0.999958415394063 0.009119620748393821 0.0
    outer loop
      vertex -5.26942 27.375 0.0
      vertex -5.26942 27.375 19.760325
      vertex -5.1839200000000005 36.75 9.520649999999995
    endloop
  endfacet
  facet normal -0.999958415394063 0.009119620748393821 0.0
    outer loop
      vertex -5.26942 27.375 0.0
      vertex -5.1839200000000005 36.75 9.520649999999995
      vertex -5.1839200000000005 36.75 0.0
    endloop
  endfacet
  facet normal -0.960104402371192 0.2796418004295074 0.0
    outer loop
      vertex -5.2954743571188665 27.285546624530546 19.858028839195754
      vertex -5.26942 27.375 19.760325
      vertex -5.26942 27.375 0.0
    endloop
  endfacet
  facet normal -0.960104402371192 0.2796418004295074 0.0
    outer loop
      vertex -5.2954743571188665 27.285546624530546 19.858028839195754
      vertex -5.26942 27.375 0.0
      vertex -5.295474357118867 27.285546624530546 8.474726150538751E-18
    endloop
  endfacet
  facet normal -0.9601044023711891 0.27964180042951725 0.0
    outer loop
      vertex -8.0 18.0 8.881784197001252E-16
      vertex -8.0 18.0 30.0
      vertex -6.780365600372956 22.187415309752332 25.42637100139859
    endloop
  endfacet
  facet normal -0.9601044023711891 0.27964180042951725 0.0
    outer loop
      vertex -8.0 18.0 8.881784197001252E-16
      vertex -6.780365600372956 22.187415309752332 25.42637100139859
      vertex -6.7803656003729555 22.18741530975234 4.914667490394381E-16
    endloop
  endfacet
  facet normal 0.9601044023711892 0.27964180042951686 3.2036735309636695E-17
    outer loop
      vertex 8.0 18.0 -8.881784197001252E-16
      vertex 6.780365600372958 22.187415309752332 -4.914667490394387E-16
      vertex 6.780365600372957 22.187415309752332 25.426371001398593
    endloop
  endfacet
  facet normal 0.9601044023711892 0.27964180042951686 3.2036735309636695E-17
    outer loop
      vertex 8.0 18.0 -8.881784197001252E-16
      vertex 6.780365600372957 22.187415309752332 25.426371001398593
      vertex 8.0 18.0 30.0
    endloop
  endfacet
endsolid v3d.csg
