solid v3d.csg
  facet normal 1.0 -0.0 0.0
    outer loop
      vertex 1.5 -1.3 1.3
      vertex 1.5 1.3 -1.3
      vertex 1.5 1.3 1.3
    endloop
  endfacet
  facet normal 0.0 1.0 -0.0
    outer loop
      vertex 1.3 1.5 -1.3
      vertex -1.3 1.5 1.3
      vertex 1.3 1.5 1.3
    endloop
  endfacet
  facet normal 0.0 0.0 -1.0
    outer loop
      vertex 1.3 -1.3 -1.5
      vertex -1.3 1.3 -1.5
      vertex 1.3 1.3 -1.5
    endloop
  endfacet
  facet normal -0.9807852804032308 0.19509032201612733 0.0
    outer loop
      vertex -1.4847759065022574 1.376536686473018 -1.3
      vertex -1.5 1.3 1.3
      vertex -1.4847759065022574 1.376536686473018 1.3
    endloop
  endfacet
  facet normal 0.8314696123025438 0.0 -0.5555702330196046
    outer loop
      vertex 1.4847759065022574 -1.3 -1.3765366864730182
      vertex 1.4414213562373095 1.3 -1.4414213562373095
      vertex 1.4847759065022574 1.3 -1.3765366864730182
    endloop
  endfacet
  facet normal 0.9807852804032308 0.0 -0.19509032201612678
    outer loop
      vertex 1.4847759065022574 -1.3 -1.3765366864730182
      vertex 1.5 1.3 -1.3
      vertex 1.5 -1.3 -1.3
    endloop
  endfacet
  facet normal 0.9626372481397788 -0.19148045395532423 -0.1914804539553237
    outer loop
      vertex 1.4847759065022574 -1.3 -1.3765366864730182
      vertex 1.4847759065022574 -1.376536686473018 -1.3
      vertex 1.4707106781186547 -1.376536686473018 -1.3707106781186549
    endloop
  endfacet
  facet normal -0.16317295173655436 -0.5481241919387728 -0.8203258243119299
    outer loop
      vertex -1.3541196100146198 -1.4414213562373095 -1.4306562964876377
      vertex -1.3 -1.376536686473018 -1.4847759065022574
      vertex -1.3 -1.4414213562373095 -1.4414213562373095
    endloop
  endfacet
  facet normal -0.545290198525908 0.1914804539553218 -0.8160844534388826
    outer loop
      vertex -1.3707106781186549 1.376536686473018 -1.4707106781186547
      vertex -1.4414213562373095 1.3 -1.4414213562373095
      vertex -1.4306562964876377 1.376536686473018 -1.4306562964876377
    endloop
  endfacet
  facet normal -0.8160844534388817 0.19148045395532295 -0.5452901985259089
    outer loop
      vertex -1.4707106781186547 1.376536686473018 -1.3707106781186549
      vertex -1.4414213562373095 1.3 -1.4414213562373095
      vertex -1.4847759065022574 1.3 -1.376536686473018
    endloop
  endfacet
  facet normal -0.9626372481397794 0.19148045395532184 -0.19148045395532384
    outer loop
      vertex -1.4707106781186547 1.376536686473018 -1.3707106781186549
      vertex -1.5 1.3 -1.3
      vertex -1.4847759065022574 1.376536686473018 -1.3
    endloop
  endfacet
  facet normal 0.8314696123025446 -0.5555702330196033 0.0
    outer loop
      vertex 1.4847759065022574 -1.376536686473018 1.3
      vertex 1.4414213562373095 -1.4414213562373095 -1.3
      vertex 1.4847759065022574 -1.376536686473018 -1.3
    endloop
  endfacet
  facet normal 0.9807852804032308 -0.19509032201612733 0.0
    outer loop
      vertex 1.4847759065022574 -1.376536686473018 1.3
      vertex 1.5 -1.3 -1.3
      vertex 1.5 -1.3 1.3
    endloop
  endfacet
  facet normal 0.5452901985259089 0.19148045395532295 -0.8160844534388817
    outer loop
      vertex 1.3707106781186549 1.376536686473018 -1.4707106781186547
      vertex 1.4414213562373095 1.3 -1.4414213562373095
      vertex 1.376536686473018 1.3 -1.4847759065022574
    endloop
  endfacet
  facet normal 0.19148045395532381 0.19148045395532182 -0.9626372481397792
    outer loop
      vertex 1.3707106781186549 1.376536686473018 -1.4707106781186547
      vertex 1.3 1.3 -1.5
      vertex 1.3 1.376536686473018 -1.4847759065022574
    endloop
  endfacet
  facet normal 0.0 -0.8314696123025446 0.5555702330196033
    outer loop
      vertex 1.3 -1.4847759065022574 1.376536686473018
      vertex -1.3 -1.4414213562373095 1.4414213562373095
      vertex -1.3 -1.4847759065022574 1.376536686473018
    endloop
  endfacet
  facet normal -0.19509032201612733 0.9807852804032308 0.0
    outer loop
      vertex -1.376536686473018 1.4847759065022574 1.3
      vertex -1.3 1.5 -1.3
      vertex -1.376536686473018 1.4847759065022574 -1.3
    endloop
  endfacet
  facet normal -0.9626372481397794 0.19148045395532368 0.1914804539553218
    outer loop
      vertex -1.4707106781186547 1.376536686473018 1.3707106781186549
      vertex -1.5 1.3 1.3
      vertex -1.4847759065022574 1.3 1.376536686473018
    endloop
  endfacet
  facet normal 0.0 0.8314696123025446 -0.5555702330196033
    outer loop
      vertex -1.3 1.4847759065022574 -1.376536686473018
      vertex 1.3 1.4414213562373095 -1.4414213562373095
      vertex -1.3 1.4414213562373095 -1.4414213562373095
    endloop
  endfacet
  facet normal -0.038776691953064976 0.9800476330240647 -0.19494359482964602
    outer loop
      vertex -1.3 1.4847759065022574 -1.376536686473018
      vertex -1.3292893218813453 1.4847759065022574 -1.3707106781186549
      vertex -1.3 1.5 -1.3
    endloop
  endfacet
  facet normal 0.0 0.9807852804032308 -0.19509032201612733
    outer loop
      vertex -1.3 1.4847759065022574 -1.376536686473018
      vertex 1.3 1.5 -1.3
      vertex 1.3 1.4847759065022574 -1.376536686473018
    endloop
  endfacet
  facet normal -0.11042667602093084 0.9800476330240647 -0.16526519968491982
    outer loop
      vertex -1.3541196100146198 1.4847759065022574 -1.3541196100146198
      vertex -1.3 1.5 -1.3
      vertex -1.3292893218813453 1.4847759065022574 -1.3707106781186549
    endloop
  endfacet
  facet normal -0.8203258243119304 -0.5481241919387716 0.16317295173655635
    outer loop
      vertex -1.4847759065022574 -1.376536686473018 1.3
      vertex -1.4306562964876377 -1.4414213562373095 1.3541196100146198
      vertex -1.4707106781186547 -1.376536686473018 1.3707106781186549
    endloop
  endfacet
  facet normal -0.9807852804032308 0.0 0.19509032201612733
    outer loop
      vertex -1.4847759065022574 -1.3 1.376536686473018
      vertex -1.5 1.3 1.3
      vertex -1.5 -1.3 1.3
    endloop
  endfacet
  facet normal -0.9626372481397789 -0.19148045395532376 0.19148045395532376
    outer loop
      vertex -1.4847759065022574 -1.3 1.376536686473018
      vertex -1.4847759065022574 -1.376536686473018 1.3
      vertex -1.4707106781186547 -1.376536686473018 1.3707106781186549
    endloop
  endfacet
  facet normal -0.8160844534388819 -0.19148045395532187 0.5452901985259091
    outer loop
      vertex -1.4847759065022574 -1.3 1.376536686473018
      vertex -1.4306562964876377 -1.376536686473018 1.4306562964876377
      vertex -1.4414213562373095 -1.3 1.4414213562373095
    endloop
  endfacet
  facet normal -0.8314696123025446 0.0 0.5555702330196033
    outer loop
      vertex -1.4847759065022574 -1.3 1.376536686473018
      vertex -1.4414213562373095 1.3 1.4414213562373095
      vertex -1.4847759065022574 1.3 1.376536686473018
    endloop
  endfacet
  facet normal -0.19494359482964602 -0.9800476330240647 0.038776691953064976
    outer loop
      vertex -1.3707106781186549 -1.4847759065022574 1.3292893218813453
      vertex -1.376536686473018 -1.4847759065022574 1.3
      vertex -1.3 -1.5 1.3
    endloop
  endfacet
  facet normal -0.5522085656517699 -0.8264385215476807 0.10984111308111667
    outer loop
      vertex -1.3707106781186549 -1.4847759065022574 1.3292893218813453
      vertex -1.4414213562373095 -1.4414213562373095 1.3
      vertex -1.376536686473018 -1.4847759065022574 1.3
    endloop
  endfacet
  facet normal 0.8203258243119299 -0.5481241919387728 -0.16317295173655436
    outer loop
      vertex 1.4306562964876377 -1.4414213562373095 -1.3541196100146198
      vertex 1.4847759065022574 -1.376536686473018 -1.3
      vertex 1.4414213562373095 -1.4414213562373095 -1.3
    endloop
  endfacet
  facet normal 0.038776691953064976 0.9800476330240647 -0.19494359482964602
    outer loop
      vertex 1.3292893218813453 1.4847759065022574 -1.3707106781186549
      vertex 1.3 1.4847759065022574 -1.376536686473018
      vertex 1.3 1.5 -1.3
    endloop
  endfacet
  facet normal 0.11042667602093084 0.9800476330240647 -0.16526519968491982
    outer loop
      vertex 1.3292893218813453 1.4847759065022574 -1.3707106781186549
      vertex 1.3 1.5 -1.3
      vertex 1.3541196100146198 1.4847759065022574 -1.3541196100146198
    endloop
  endfacet
  facet normal 0.19509032201612733 0.0 -0.9807852804032308
    outer loop
      vertex 1.376536686473018 -1.3 -1.4847759065022574
      vertex 1.3 1.3 -1.5
      vertex 1.376536686473018 1.3 -1.4847759065022574
    endloop
  endfacet
  facet normal 0.5555702330196033 0.0 -0.8314696123025446
    outer loop
      vertex 1.376536686473018 -1.3 -1.4847759065022574
      vertex 1.4414213562373095 1.3 -1.4414213562373095
      vertex 1.4414213562373095 -1.3 -1.4414213562373095
    endloop
  endfacet
  facet normal 0.8160844534388821 -0.19148045395532454 -0.5452901985259077
    outer loop
      vertex 1.4306562964876377 -1.376536686473018 -1.4306562964876377
      vertex 1.4847759065022574 -1.3 -1.3765366864730182
      vertex 1.4707106781186547 -1.376536686473018 -1.3707106781186549
    endloop
  endfacet
  facet normal 0.6954386538325529 -0.5481241919387727 -0.46467725247426755
    outer loop
      vertex 1.4306562964876377 -1.376536686473018 -1.4306562964876377
      vertex 1.4306562964876377 -1.4414213562373095 -1.3541196100146198
      vertex 1.4 -1.4414213562373095 -1.4000000000000001
    endloop
  endfacet
  facet normal -0.8314696123025446 -0.5555702330196033 0.0
    outer loop
      vertex -1.4847759065022574 -1.376536686473018 -1.3
      vertex -1.4414213562373095 -1.4414213562373095 1.3
      vertex -1.4847759065022574 -1.376536686473018 1.3
    endloop
  endfacet
  facet normal 0.0 0.19509032201612733 -0.9807852804032308
    outer loop
      vertex -1.3 1.376536686473018 -1.4847759065022574
      vertex 1.3 1.3 -1.5
      vertex -1.3 1.3 -1.5
    endloop
  endfacet
  facet normal -0.19148045395532373 0.19148045395532426 -0.9626372481397788
    outer loop
      vertex -1.3 1.376536686473018 -1.4847759065022574
      vertex -1.3765366864730182 1.3 -1.4847759065022574
      vertex -1.3707106781186549 1.376536686473018 -1.4707106781186547
    endloop
  endfacet
  facet normal 0.0 0.5555702330196033 -0.8314696123025446
    outer loop
      vertex -1.3 1.376536686473018 -1.4847759065022574
      vertex 1.3 1.4414213562373095 -1.4414213562373095
      vertex 1.3 1.376536686473018 -1.4847759065022574
    endloop
  endfacet
  facet normal -0.8314696123025446 0.0 -0.5555702330196033
    outer loop
      vertex -1.4414213562373095 -1.3 -1.4414213562373095
      vertex -1.4847759065022574 1.3 -1.376536686473018
      vertex -1.4414213562373095 1.3 -1.4414213562373095
    endloop
  endfacet
  facet normal 0.0 -0.9807852804032308 0.19509032201612733
    outer loop
      vertex 1.3 -1.5 1.3
      vertex -1.3 -1.4847759065022574 1.376536686473018
      vertex -1.3 -1.5 1.3
    endloop
  endfacet
  facet normal 0.46467725247426706 -0.5481241919387708 0.6954386538325545
    outer loop
      vertex 1.3707106781186549 -1.376536686473018 1.4707106781186547
      vertex 1.4000000000000001 -1.4414213562373095 1.4000000000000001
      vertex 1.4306562964876377 -1.376536686473018 1.4306562964876377
    endloop
  endfacet
  facet normal -0.5555702330196033 0.8314696123025446 0.0
    outer loop
      vertex -1.4414213562373095 1.4414213562373095 1.3
      vertex -1.376536686473018 1.4847759065022574 -1.3
      vertex -1.4414213562373095 1.4414213562373095 -1.3
    endloop
  endfacet
  facet normal -0.8314696123025446 0.5555702330196033 0.0
    outer loop
      vertex -1.4414213562373095 1.4414213562373095 1.3
      vertex -1.4847759065022574 1.376536686473018 -1.3
      vertex -1.4847759065022574 1.376536686473018 1.3
    endloop
  endfacet
  facet normal -0.8160844534388819 0.19148045395532184 0.5452901985259091
    outer loop
      vertex -1.4306562964876377 1.376536686473018 1.4306562964876377
      vertex -1.4847759065022574 1.3 1.376536686473018
      vertex -1.4414213562373095 1.3 1.4414213562373095
    endloop
  endfacet
  facet normal -0.10984111308111813 0.8264385215476806 -0.5522085656517698
    outer loop
      vertex -1.3541196100146198 1.4414213562373095 -1.4306562964876377
      vertex -1.3 1.4847759065022574 -1.376536686473018
      vertex -1.3 1.4414213562373095 -1.4414213562373095
    endloop
  endfacet
  facet normal -0.1631729517365564 0.5481241919387716 -0.8203258243119306
    outer loop
      vertex -1.3541196100146198 1.4414213562373095 -1.4306562964876377
      vertex -1.3 1.376536686473018 -1.4847759065022574
      vertex -1.3707106781186549 1.376536686473018 -1.4707106781186547
    endloop
  endfacet
  facet normal -0.19494359482964602 0.9800476330240647 -0.038776691953064976
    outer loop
      vertex -1.3707106781186549 1.4847759065022574 -1.3292893218813453
      vertex -1.376536686473018 1.4847759065022574 -1.3
      vertex -1.3 1.5 -1.3
    endloop
  endfacet
  facet normal -0.16526519968491982 0.9800476330240647 -0.11042667602093084
    outer loop
      vertex -1.3707106781186549 1.4847759065022574 -1.3292893218813453
      vertex -1.3 1.5 -1.3
      vertex -1.3541196100146198 1.4847759065022574 -1.3541196100146198
    endloop
  endfacet
  facet normal 0.9626372481397794 0.1914804539553242 -0.19148045395532126
    outer loop
      vertex 1.4707106781186547 1.376536686473018 -1.3707106781186549
      vertex 1.5 1.3 -1.3
      vertex 1.4847759065022574 1.3 -1.3765366864730182
    endloop
  endfacet
  facet normal 0.8160844534388826 0.1914804539553218 -0.545290198525908
    outer loop
      vertex 1.4707106781186547 1.376536686473018 -1.3707106781186549
      vertex 1.4414213562373095 1.3 -1.4414213562373095
      vertex 1.4306562964876377 1.376536686473018 -1.4306562964876377
    endloop
  endfacet
  facet normal 0.19509032201612733 0.9807852804032308 0.0
    outer loop
      vertex 1.376536686473018 1.4847759065022574 1.3
      vertex 1.3 1.5 -1.3
      vertex 1.3 1.5 1.3
    endloop
  endfacet
  facet normal -0.0 0.0 1.0
    outer loop
      vertex -1.3 1.3 1.5
      vertex 1.3 -1.3 1.5
      vertex 1.3 1.3 1.5
    endloop
  endfacet
  facet normal 0.0 0.19509032201612733 0.9807852804032308
    outer loop
      vertex -1.3 1.3 1.5
      vertex 1.3 1.376536686473018 1.4847759065022574
      vertex -1.3 1.376536686473018 1.4847759065022574
    endloop
  endfacet
  facet normal -0.6954386538325549 -0.5481241919387719 0.46467725247426556
    outer loop
      vertex -1.4000000000000001 -1.4414213562373095 1.4000000000000001
      vertex -1.4707106781186547 -1.376536686473018 1.3707106781186549
      vertex -1.4306562964876377 -1.4414213562373095 1.3541196100146198
    endloop
  endfacet
  facet normal -0.038776691953064976 -0.9800476330240647 0.19494359482964602
    outer loop
      vertex -1.3292893218813453 -1.4847759065022574 1.3707106781186549
      vertex -1.3 -1.5 1.3
      vertex -1.3 -1.4847759065022574 1.376536686473018
    endloop
  endfacet
  facet normal 0.545290198525908 -0.1914804539553218 -0.8160844534388826
    outer loop
      vertex 1.3707106781186549 -1.376536686473018 -1.4707106781186547
      vertex 1.4414213562373095 -1.3 -1.4414213562373095
      vertex 1.4306562964876377 -1.376536686473018 -1.4306562964876377
    endloop
  endfacet
  facet normal 0.4646772524742673 -0.5481241919387718 -0.695438653832554
    outer loop
      vertex 1.3707106781186549 -1.376536686473018 -1.4707106781186547
      vertex 1.4 -1.4414213562373095 -1.4000000000000001
      vertex 1.3541196100146198 -1.4414213562373095 -1.4306562964876377
    endloop
  endfacet
  facet normal 0.0 -0.19509032201612733 -0.9807852804032308
    outer loop
      vertex 1.3 -1.376536686473018 -1.4847759065022574
      vertex -1.3 -1.3 -1.5
      vertex 1.3 -1.3 -1.5
    endloop
  endfacet
  facet normal 0.19148045395532376 -0.19148045395532376 -0.9626372481397789
    outer loop
      vertex 1.3 -1.376536686473018 -1.4847759065022574
      vertex 1.376536686473018 -1.3 -1.4847759065022574
      vertex 1.3707106781186549 -1.376536686473018 -1.4707106781186547
    endloop
  endfacet
  facet normal 0.1631729517365544 -0.5481241919387728 -0.8203258243119299
    outer loop
      vertex 1.3 -1.376536686473018 -1.4847759065022574
      vertex 1.3541196100146198 -1.4414213562373095 -1.4306562964876377
      vertex 1.3 -1.4414213562373095 -1.4414213562373095
    endloop
  endfacet
  facet normal -0.0 -0.5555702330196033 -0.8314696123025446
    outer loop
      vertex 1.3 -1.376536686473018 -1.4847759065022574
      vertex -1.3 -1.4414213562373095 -1.4414213562373095
      vertex -1.3 -1.376536686473018 -1.4847759065022574
    endloop
  endfacet
  facet normal -1.0 0.0 0.0
    outer loop
      vertex -1.5 -1.3 -1.3
      vertex -1.5 1.3 1.3
      vertex -1.5 1.3 -1.3
    endloop
  endfacet
  facet normal -0.9807852804032308 0.0 -0.19509032201612733
    outer loop
      vertex -1.5 -1.3 -1.3
      vertex -1.4847759065022574 1.3 -1.376536686473018
      vertex -1.4847759065022574 -1.3 -1.376536686473018
    endloop
  endfacet
  facet normal -0.9626372481397794 -0.19148045395532184 -0.19148045395532384
    outer loop
      vertex -1.5 -1.3 -1.3
      vertex -1.4707106781186547 -1.376536686473018 -1.3707106781186549
      vertex -1.4847759065022574 -1.376536686473018 -1.3
    endloop
  endfacet
  facet normal -0.9807852804032308 -0.19509032201612733 0.0
    outer loop
      vertex -1.5 -1.3 -1.3
      vertex -1.4847759065022574 -1.376536686473018 1.3
      vertex -1.5 -1.3 1.3
    endloop
  endfacet
  facet normal -0.19509032201612733 -0.9807852804032308 0.0
    outer loop
      vertex -1.376536686473018 -1.4847759065022574 -1.3
      vertex -1.3 -1.5 1.3
      vertex -1.376536686473018 -1.4847759065022574 1.3
    endloop
  endfacet
  facet normal -0.5555702330196033 -0.8314696123025446 0.0
    outer loop
      vertex -1.376536686473018 -1.4847759065022574 -1.3
      vertex -1.4414213562373095 -1.4414213562373095 1.3
      vertex -1.4414213562373095 -1.4414213562373095 -1.3
    endloop
  endfacet
  facet normal -0.19509032201612678 0.0 -0.9807852804032308
    outer loop
      vertex -1.3765366864730182 -1.3 -1.4847759065022574
      vertex -1.3 1.3 -1.5
      vertex -1.3 -1.3 -1.5
    endloop
  endfacet
  facet normal -0.1914804539553237 -0.19148045395532423 -0.9626372481397788
    outer loop
      vertex -1.3765366864730182 -1.3 -1.4847759065022574
      vertex -1.3 -1.376536686473018 -1.4847759065022574
      vertex -1.3707106781186549 -1.376536686473018 -1.4707106781186547
    endloop
  endfacet
  facet normal -0.5555702330196046 0.0 -0.8314696123025438
    outer loop
      vertex -1.3765366864730182 -1.3 -1.4847759065022574
      vertex -1.4414213562373095 1.3 -1.4414213562373095
      vertex -1.3765366864730182 1.3 -1.4847759065022574
    endloop
  endfacet
  facet normal 0.5555702330196033 -0.8314696123025446 0.0
    outer loop
      vertex 1.376536686473018 -1.4847759065022574 1.3
      vertex 1.4414213562373095 -1.4414213562373095 -1.3
      vertex 1.4414213562373095 -1.4414213562373095 1.3
    endloop
  endfacet
  facet normal -0.8203258243119306 0.5481241919387716 0.1631729517365564
    outer loop
      vertex -1.4306562964876377 1.4414213562373095 1.3541196100146198
      vertex -1.4847759065022574 1.376536686473018 1.3
      vertex -1.4707106781186547 1.376536686473018 1.3707106781186549
    endloop
  endfacet
  facet normal -0.6954386538325529 0.5481241919387727 0.46467725247426755
    outer loop
      vertex -1.4306562964876377 1.4414213562373095 1.3541196100146198
      vertex -1.4306562964876377 1.376536686473018 1.4306562964876377
      vertex -1.4 1.4414213562373095 1.4000000000000001
    endloop
  endfacet
  facet normal -0.5522085656517702 0.8264385215476803 0.10984111308111817
    outer loop
      vertex -1.3707106781186549 1.4847759065022574 1.3292893218813453
      vertex -1.4414213562373095 1.4414213562373095 1.3
      vertex -1.4306562964876377 1.4414213562373095 1.3541196100146198
    endloop
  endfacet
  facet normal -0.19494359482964602 0.9800476330240647 0.038776691953064976
    outer loop
      vertex -1.3707106781186549 1.4847759065022574 1.3292893218813453
      vertex -1.3 1.5 1.3
      vertex -1.376536686473018 1.4847759065022574 1.3
    endloop
  endfacet
  facet normal -0.0 0.5555702330196033 0.8314696123025446
    outer loop
      vertex -1.3 1.4414213562373095 1.4414213562373095
      vertex 1.3 1.376536686473018 1.4847759065022574
      vertex 1.3 1.4414213562373095 1.4414213562373095
    endloop
  endfacet
  facet normal 0.5452901985259091 -0.19148045395532187 0.8160844534388819
    outer loop
      vertex 1.376536686473018 -1.3 1.4847759065022574
      vertex 1.4306562964876377 -1.376536686473018 1.4306562964876377
      vertex 1.4414213562373095 -1.3 1.4414213562373095
    endloop
  endfacet
  facet normal 0.5555702330196033 -0.0 0.8314696123025446
    outer loop
      vertex 1.376536686473018 -1.3 1.4847759065022574
      vertex 1.4414213562373095 1.3 1.4414213562373095
      vertex 1.376536686473018 1.3 1.4847759065022574
    endloop
  endfacet
  facet normal 0.19509032201612733 0.0 0.9807852804032308
    outer loop
      vertex 1.376536686473018 -1.3 1.4847759065022574
      vertex 1.3 1.3 1.5
      vertex 1.3 -1.3 1.5
    endloop
  endfacet
  facet normal -0.5522085656517707 0.82643852154768 -0.1098411130811169
    outer loop
      vertex -1.4306562964876377 1.4414213562373095 -1.3541196100146198
      vertex -1.376536686473018 1.4847759065022574 -1.3
      vertex -1.3707106781186549 1.4847759065022574 -1.3292893218813453
    endloop
  endfacet
  facet normal -0.8203258243119299 0.5481241919387728 -0.16317295173655436
    outer loop
      vertex -1.4306562964876377 1.4414213562373095 -1.3541196100146198
      vertex -1.4847759065022574 1.376536686473018 -1.3
      vertex -1.4414213562373095 1.4414213562373095 -1.3
    endloop
  endfacet
  facet normal 0.6954386538325535 0.5481241919387725 -0.46467725247426644
    outer loop
      vertex 1.4 1.4414213562373095 -1.4000000000000001
      vertex 1.4707106781186547 1.376536686473018 -1.3707106781186549
      vertex 1.4306562964876377 1.376536686473018 -1.4306562964876377
    endloop
  endfacet
  facet normal 0.8203258243119309 0.5481241919387714 -0.16317295173655455
    outer loop
      vertex 1.4414213562373095 1.4414213562373095 -1.3
      vertex 1.4707106781186547 1.376536686473018 -1.3707106781186549
      vertex 1.4306562964876377 1.4414213562373095 -1.3541196100146198
    endloop
  endfacet
  facet normal 0.5555702330196033 0.8314696123025446 -0.0
    outer loop
      vertex 1.4414213562373095 1.4414213562373095 -1.3
      vertex 1.376536686473018 1.4847759065022574 1.3
      vertex 1.4414213562373095 1.4414213562373095 1.3
    endloop
  endfacet
  facet normal 0.5522085656517702 0.8264385215476803 -0.10984111308111817
    outer loop
      vertex 1.3707106781186549 1.4847759065022574 -1.3292893218813453
      vertex 1.4414213562373095 1.4414213562373095 -1.3
      vertex 1.4306562964876377 1.4414213562373095 -1.3541196100146198
    endloop
  endfacet
  facet normal 0.46813981731440096 0.8264385215476803 -0.31280102548892635
    outer loop
      vertex 1.3707106781186549 1.4847759065022574 -1.3292893218813453
      vertex 1.4 1.4414213562373095 -1.4000000000000001
      vertex 1.3541196100146198 1.4847759065022574 -1.3541196100146198
    endloop
  endfacet
  facet normal 0.16526519968491982 0.9800476330240647 -0.11042667602093084
    outer loop
      vertex 1.3707106781186549 1.4847759065022574 -1.3292893218813453
      vertex 1.3541196100146198 1.4847759065022574 -1.3541196100146198
      vertex 1.3 1.5 -1.3
    endloop
  endfacet
  facet normal 0.19494359482964602 0.9800476330240647 -0.038776691953064976
    outer loop
      vertex 1.3707106781186549 1.4847759065022574 -1.3292893218813453
      vertex 1.3 1.5 -1.3
      vertex 1.376536686473018 1.4847759065022574 -1.3
    endloop
  endfacet
  facet normal 0.9626372481397794 -0.19148045395532368 0.1914804539553218
    outer loop
      vertex 1.4707106781186547 -1.376536686473018 1.3707106781186549
      vertex 1.5 -1.3 1.3
      vertex 1.4847759065022574 -1.3 1.376536686473018
    endloop
  endfacet
  facet normal 0.8160844534388826 -0.1914804539553218 0.545290198525908
    outer loop
      vertex 1.4707106781186547 -1.376536686473018 1.3707106781186549
      vertex 1.4414213562373095 -1.3 1.4414213562373095
      vertex 1.4306562964876377 -1.376536686473018 1.4306562964876377
    endloop
  endfacet
  facet normal 0.6954386538325549 -0.5481241919387719 0.46467725247426567
    outer loop
      vertex 1.4707106781186547 -1.376536686473018 1.3707106781186549
      vertex 1.4000000000000001 -1.4414213562373095 1.4000000000000001
      vertex 1.4306562964876377 -1.4414213562373095 1.3541196100146198
    endloop
  endfacet
  facet normal 0.8203258243119296 -0.5481241919387727 0.1631729517365562
    outer loop
      vertex 1.4707106781186547 -1.376536686473018 1.3707106781186549
      vertex 1.4414213562373095 -1.4414213562373095 1.3
      vertex 1.4847759065022574 -1.376536686473018 1.3
    endloop
  endfacet
  facet normal 0.1914804539553218 0.19148045395532368 0.9626372481397794
    outer loop
      vertex 1.3707106781186549 1.376536686473018 1.4707106781186547
      vertex 1.3 1.3 1.5
      vertex 1.376536686473018 1.3 1.4847759065022574
    endloop
  endfacet
  facet normal -0.5555702330196033 0.0 0.8314696123025446
    outer loop
      vertex -1.376536686473018 1.3 1.4847759065022574
      vertex -1.4414213562373095 -1.3 1.4414213562373095
      vertex -1.376536686473018 -1.3 1.4847759065022574
    endloop
  endfacet
  facet normal -0.19509032201612733 0.0 0.9807852804032308
    outer loop
      vertex -1.376536686473018 1.3 1.4847759065022574
      vertex -1.3 -1.3 1.5
      vertex -1.3 1.3 1.5
    endloop
  endfacet
  facet normal -0.10984111308111813 -0.8264385215476806 0.5522085656517698
    outer loop
      vertex -1.3541196100146198 -1.4414213562373095 1.4306562964876377
      vertex -1.3 -1.4847759065022574 1.376536686473018
      vertex -1.3 -1.4414213562373095 1.4414213562373095
    endloop
  endfacet
  facet normal -0.16526519968491982 -0.9800476330240647 0.11042667602093084
    outer loop
      vertex -1.3541196100146198 -1.4847759065022574 1.3541196100146198
      vertex -1.3707106781186549 -1.4847759065022574 1.3292893218813453
      vertex -1.3 -1.5 1.3
    endloop
  endfacet
  facet normal -0.11042667602093084 -0.9800476330240647 0.16526519968491982
    outer loop
      vertex -1.3541196100146198 -1.4847759065022574 1.3541196100146198
      vertex -1.3 -1.5 1.3
      vertex -1.3292893218813453 -1.4847759065022574 1.3707106781186549
    endloop
  endfacet
  facet normal -0.3128010254889246 -0.8264385215476807 0.4681398173144009
    outer loop
      vertex -1.3541196100146198 -1.4847759065022574 1.3541196100146198
      vertex -1.3541196100146198 -1.4414213562373095 1.4306562964876377
      vertex -1.4000000000000001 -1.4414213562373095 1.4000000000000001
    endloop
  endfacet
  facet normal -0.4681398173144007 -0.8264385215476804 0.3128010254889262
    outer loop
      vertex -1.3541196100146198 -1.4847759065022574 1.3541196100146198
      vertex -1.4306562964876377 -1.4414213562373095 1.3541196100146198
      vertex -1.3707106781186549 -1.4847759065022574 1.3292893218813453
    endloop
  endfacet
  facet normal -0.8203258243119306 -0.5481241919387716 -0.1631729517365564
    outer loop
      vertex -1.4306562964876377 -1.4414213562373095 -1.3541196100146198
      vertex -1.4847759065022574 -1.376536686473018 -1.3
      vertex -1.4707106781186547 -1.376536686473018 -1.3707106781186549
    endloop
  endfacet
  facet normal -0.46467725247426594 -0.5481241919387707 -0.6954386538325554
    outer loop
      vertex -1.4306562964876377 -1.376536686473018 -1.4306562964876377
      vertex -1.3541196100146198 -1.4414213562373095 -1.4306562964876377
      vertex -1.4000000000000001 -1.4414213562373095 -1.4000000000000001
    endloop
  endfacet
  facet normal -0.6954386538325541 -0.5481241919387717 -0.4646772524742668
    outer loop
      vertex -1.4306562964876377 -1.376536686473018 -1.4306562964876377
      vertex -1.4306562964876377 -1.4414213562373095 -1.3541196100146198
      vertex -1.4707106781186547 -1.376536686473018 -1.3707106781186549
    endloop
  endfacet
  facet normal -0.8160844534388819 -0.19148045395532184 -0.5452901985259091
    outer loop
      vertex -1.4306562964876377 -1.376536686473018 -1.4306562964876377
      vertex -1.4847759065022574 -1.3 -1.376536686473018
      vertex -1.4414213562373095 -1.3 -1.4414213562373095
    endloop
  endfacet
  facet normal -0.5452901985259078 -0.19148045395532456 -0.8160844534388823
    outer loop
      vertex -1.4306562964876377 -1.376536686473018 -1.4306562964876377
      vertex -1.3765366864730182 -1.3 -1.4847759065022574
      vertex -1.3707106781186549 -1.376536686473018 -1.4707106781186547
    endloop
  endfacet
  facet normal 0.0 -0.8314696123025446 -0.5555702330196033
    outer loop
      vertex -1.3 -1.4847759065022574 -1.376536686473018
      vertex 1.3 -1.4414213562373095 -1.4414213562373095
      vertex 1.3 -1.4847759065022574 -1.376536686473018
    endloop
  endfacet
  facet normal 0.0 -0.9807852804032308 -0.19509032201612733
    outer loop
      vertex 1.3 -1.5 -1.3
      vertex -1.3 -1.4847759065022574 -1.376536686473018
      vertex 1.3 -1.4847759065022574 -1.376536686473018
    endloop
  endfacet
  facet normal 0.19509032201612733 -0.9807852804032308 0.0
    outer loop
      vertex 1.3 -1.5 -1.3
      vertex 1.376536686473018 -1.4847759065022574 1.3
      vertex 1.3 -1.5 1.3
    endloop
  endfacet
  facet normal 0.0 -1.0 0.0
    outer loop
      vertex 1.3 -1.5 -1.3
      vertex -1.3 -1.5 1.3
      vertex -1.3 -1.5 -1.3
    endloop
  endfacet
  facet normal -0.11042667602093084 0.9800476330240647 0.16526519968491982
    outer loop
      vertex -1.3541196100146198 1.4847759065022574 1.3541196100146198
      vertex -1.3292893218813453 1.4847759065022574 1.3707106781186549
      vertex -1.3 1.5 1.3
    endloop
  endfacet
  facet normal -0.16526519968491982 0.9800476330240647 0.11042667602093084
    outer loop
      vertex -1.3541196100146198 1.4847759065022574 1.3541196100146198
      vertex -1.3 1.5 1.3
      vertex -1.3707106781186549 1.4847759065022574 1.3292893218813453
    endloop
  endfacet
  facet normal -0.46813981731440063 0.8264385215476803 0.31280102548892663
    outer loop
      vertex -1.3541196100146198 1.4847759065022574 1.3541196100146198
      vertex -1.4306562964876377 1.4414213562373095 1.3541196100146198
      vertex -1.4 1.4414213562373095 1.4000000000000001
    endloop
  endfacet
  facet normal -0.312801025488926 0.8264385215476805 0.4681398173144008
    outer loop
      vertex -1.3541196100146198 1.4414213562373095 1.4306562964876377
      vertex -1.3541196100146198 1.4847759065022574 1.3541196100146198
      vertex -1.4 1.4414213562373095 1.4000000000000001
    endloop
  endfacet
  facet normal 0.038776691953064976 0.9800476330240647 0.19494359482964602
    outer loop
      vertex 1.3292893218813453 1.4847759065022574 1.3707106781186549
      vertex 1.3 1.5 1.3
      vertex 1.3 1.4847759065022574 1.376536686473018
    endloop
  endfacet
  facet normal -0.10984111308111807 0.8264385215476806 0.5522085656517698
    outer loop
      vertex -1.3 1.4847759065022574 1.376536686473018
      vertex -1.3541196100146198 1.4414213562373095 1.4306562964876377
      vertex -1.3 1.4414213562373095 1.4414213562373095
    endloop
  endfacet
  facet normal -0.0 0.8314696123025446 0.5555702330196033
    outer loop
      vertex -1.3 1.4847759065022574 1.376536686473018
      vertex 1.3 1.4414213562373095 1.4414213562373095
      vertex 1.3 1.4847759065022574 1.376536686473018
    endloop
  endfacet
  facet normal 0.0 0.9807852804032308 0.19509032201612733
    outer loop
      vertex -1.3 1.4847759065022574 1.376536686473018
      vertex 1.3 1.5 1.3
      vertex -1.3 1.5 1.3
    endloop
  endfacet
  facet normal -0.038776691953064976 0.9800476330240647 0.19494359482964602
    outer loop
      vertex -1.3 1.4847759065022574 1.376536686473018
      vertex -1.3 1.5 1.3
      vertex -1.3292893218813453 1.4847759065022574 1.3707106781186549
    endloop
  endfacet
  facet normal -0.4646772524742665 0.5481241919387726 -0.6954386538325537
    outer loop
      vertex -1.4000000000000001 1.4414213562373095 -1.4
      vertex -1.3707106781186549 1.376536686473018 -1.4707106781186547
      vertex -1.4306562964876377 1.376536686473018 -1.4306562964876377
    endloop
  endfacet
  facet normal -0.695438653832554 0.5481241919387718 -0.46467725247426717
    outer loop
      vertex -1.4000000000000001 1.4414213562373095 -1.4
      vertex -1.4707106781186547 1.376536686473018 -1.3707106781186549
      vertex -1.4306562964876377 1.4414213562373095 -1.3541196100146198
    endloop
  endfacet
  facet normal -0.4681398173144006 0.8264385215476805 -0.3128010254889262
    outer loop
      vertex -1.4000000000000001 1.4414213562373095 -1.4
      vertex -1.3707106781186549 1.4847759065022574 -1.3292893218813453
      vertex -1.3541196100146198 1.4847759065022574 -1.3541196100146198
    endloop
  endfacet
  facet normal -0.3128010254889266 0.8264385215476803 -0.46813981731440046
    outer loop
      vertex -1.4000000000000001 1.4414213562373095 -1.4
      vertex -1.3292893218813453 1.4847759065022574 -1.3707106781186549
      vertex -1.3541196100146198 1.4414213562373095 -1.4306562964876377
    endloop
  endfacet
  facet normal 0.1098411130811169 0.82643852154768 -0.5522085656517707
    outer loop
      vertex 1.3541196100146198 1.4414213562373095 -1.4306562964876377
      vertex 1.3 1.4847759065022574 -1.376536686473018
      vertex 1.3292893218813453 1.4847759065022574 -1.3707106781186549
    endloop
  endfacet
  facet normal 0.312801025488926 0.8264385215476805 -0.4681398173144008
    outer loop
      vertex 1.3541196100146198 1.4414213562373095 -1.4306562964876377
      vertex 1.3541196100146198 1.4847759065022574 -1.3541196100146198
      vertex 1.4 1.4414213562373095 -1.4000000000000001
    endloop
  endfacet
  facet normal 0.4646772524742668 0.5481241919387717 -0.6954386538325541
    outer loop
      vertex 1.3541196100146198 1.4414213562373095 -1.4306562964876377
      vertex 1.4306562964876377 1.376536686473018 -1.4306562964876377
      vertex 1.3707106781186549 1.376536686473018 -1.4707106781186547
    endloop
  endfacet
  facet normal 0.16317295173655436 0.5481241919387728 -0.8203258243119299
    outer loop
      vertex 1.3541196100146198 1.4414213562373095 -1.4306562964876377
      vertex 1.3 1.376536686473018 -1.4847759065022574
      vertex 1.3 1.4414213562373095 -1.4414213562373095
    endloop
  endfacet
  facet normal 0.9807852804032308 0.0 0.19509032201612733
    outer loop
      vertex 1.4847759065022574 1.3 1.376536686473018
      vertex 1.5 -1.3 1.3
      vertex 1.5 1.3 1.3
    endloop
  endfacet
  facet normal 0.8314696123025446 0.0 0.5555702330196033
    outer loop
      vertex 1.4847759065022574 1.3 1.376536686473018
      vertex 1.4414213562373095 -1.3 1.4414213562373095
      vertex 1.4847759065022574 -1.3 1.376536686473018
    endloop
  endfacet
  facet normal 0.8314696123025446 0.5555702330196033 0.0
    outer loop
      vertex 1.4847759065022574 1.376536686473018 1.3
      vertex 1.4414213562373095 1.4414213562373095 -1.3
      vertex 1.4414213562373095 1.4414213562373095 1.3
    endloop
  endfacet
  facet normal 0.8203258243119304 0.5481241919387716 0.16317295173655635
    outer loop
      vertex 1.4847759065022574 1.376536686473018 1.3
      vertex 1.4306562964876377 1.4414213562373095 1.3541196100146198
      vertex 1.4707106781186547 1.376536686473018 1.3707106781186549
    endloop
  endfacet
  facet normal 0.9626372481397796 0.19148045395532184 0.19148045395532184
    outer loop
      vertex 1.4847759065022574 1.376536686473018 1.3
      vertex 1.4847759065022574 1.3 1.376536686473018
      vertex 1.5 1.3 1.3
    endloop
  endfacet
  facet normal 0.9807852804032308 0.19509032201612733 0.0
    outer loop
      vertex 1.4847759065022574 1.376536686473018 1.3
      vertex 1.5 1.3 -1.3
      vertex 1.4847759065022574 1.376536686473018 -1.3
    endloop
  endfacet
  facet normal 0.19148045395532184 -0.19148045395532184 0.9626372481397796
    outer loop
      vertex 1.3 -1.376536686473018 1.4847759065022574
      vertex 1.376536686473018 -1.3 1.4847759065022574
      vertex 1.3 -1.3 1.5
    endloop
  endfacet
  facet normal 0.0 -0.19509032201612733 0.9807852804032308
    outer loop
      vertex 1.3 -1.376536686473018 1.4847759065022574
      vertex -1.3 -1.3 1.5
      vertex -1.3 -1.376536686473018 1.4847759065022574
    endloop
  endfacet
  facet normal 0.0 -0.5555702330196033 0.8314696123025446
    outer loop
      vertex 1.3 -1.376536686473018 1.4847759065022574
      vertex -1.3 -1.4414213562373095 1.4414213562373095
      vertex 1.3 -1.4414213562373095 1.4414213562373095
    endloop
  endfacet
  facet normal 0.16317295173655635 -0.5481241919387716 0.8203258243119304
    outer loop
      vertex 1.3 -1.376536686473018 1.4847759065022574
      vertex 1.3541196100146198 -1.4414213562373095 1.4306562964876377
      vertex 1.3707106781186549 -1.376536686473018 1.4707106781186547
    endloop
  endfacet
  facet normal 0.6954386538325538 0.548124191938772 0.46467725247426706
    outer loop
      vertex 1.4306562964876377 1.376536686473018 1.4306562964876377
      vertex 1.4306562964876377 1.4414213562373095 1.3541196100146198
      vertex 1.4000000000000001 1.4414213562373095 1.4
    endloop
  endfacet
  facet normal 0.5452901985259091 0.19148045395532184 0.8160844534388819
    outer loop
      vertex 1.4306562964876377 1.376536686473018 1.4306562964876377
      vertex 1.376536686473018 1.3 1.4847759065022574
      vertex 1.4414213562373095 1.3 1.4414213562373095
    endloop
  endfacet
  facet normal 0.8160844534388825 0.1914804539553231 0.545290198525908
    outer loop
      vertex 1.4306562964876377 1.376536686473018 1.4306562964876377
      vertex 1.4847759065022574 1.3 1.376536686473018
      vertex 1.4707106781186547 1.376536686473018 1.3707106781186549
    endloop
  endfacet
  facet normal 0.1631729517365564 0.5481241919387716 0.8203258243119306
    outer loop
      vertex 1.3541196100146198 1.4414213562373095 1.4306562964876377
      vertex 1.3 1.376536686473018 1.4847759065022574
      vertex 1.3707106781186549 1.376536686473018 1.4707106781186547
    endloop
  endfacet
  facet normal 0.46467725247426755 0.5481241919387727 0.6954386538325529
    outer loop
      vertex 1.3541196100146198 1.4414213562373095 1.4306562964876377
      vertex 1.4306562964876377 1.376536686473018 1.4306562964876377
      vertex 1.4000000000000001 1.4414213562373095 1.4
    endloop
  endfacet
  facet normal 0.10984111308111813 0.8264385215476806 0.5522085656517698
    outer loop
      vertex 1.3541196100146198 1.4414213562373095 1.4306562964876377
      vertex 1.3 1.4847759065022574 1.376536686473018
      vertex 1.3 1.4414213562373095 1.4414213562373095
    endloop
  endfacet
  facet normal -0.5452901985259089 0.19148045395532295 0.8160844534388817
    outer loop
      vertex -1.3707106781186549 1.376536686473018 1.4707106781186547
      vertex -1.4414213562373095 1.3 1.4414213562373095
      vertex -1.376536686473018 1.3 1.4847759065022574
    endloop
  endfacet
  facet normal -0.19148045395532381 0.19148045395532182 0.9626372481397792
    outer loop
      vertex -1.3707106781186549 1.376536686473018 1.4707106781186547
      vertex -1.3 1.3 1.5
      vertex -1.3 1.376536686473018 1.4847759065022574
    endloop
  endfacet
  facet normal -0.16317295173655452 0.5481241919387715 0.8203258243119308
    outer loop
      vertex -1.3707106781186549 1.376536686473018 1.4707106781186547
      vertex -1.3 1.4414213562373095 1.4414213562373095
      vertex -1.3541196100146198 1.4414213562373095 1.4306562964876377
    endloop
  endfacet
  facet normal -0.4646772524742667 0.5481241919387719 0.695438653832554
    outer loop
      vertex -1.3707106781186549 1.376536686473018 1.4707106781186547
      vertex -1.4 1.4414213562373095 1.4000000000000001
      vertex -1.4306562964876377 1.376536686473018 1.4306562964876377
    endloop
  endfacet
  facet normal -0.46467725247426556 -0.5481241919387718 0.6954386538325548
    outer loop
      vertex -1.3707106781186549 -1.376536686473018 1.4707106781186547
      vertex -1.4000000000000001 -1.4414213562373095 1.4000000000000001
      vertex -1.3541196100146198 -1.4414213562373095 1.4306562964876377
    endloop
  endfacet
  facet normal -0.1631729517365562 -0.5481241919387727 0.8203258243119296
    outer loop
      vertex -1.3707106781186549 -1.376536686473018 1.4707106781186547
      vertex -1.3 -1.4414213562373095 1.4414213562373095
      vertex -1.3 -1.376536686473018 1.4847759065022574
    endloop
  endfacet
  facet normal -0.1914804539553218 -0.19148045395532368 0.9626372481397794
    outer loop
      vertex -1.3707106781186549 -1.376536686473018 1.4707106781186547
      vertex -1.3 -1.3 1.5
      vertex -1.376536686473018 -1.3 1.4847759065022574
    endloop
  endfacet
  facet normal -0.545290198525908 -0.1914804539553218 0.8160844534388826
    outer loop
      vertex -1.3707106781186549 -1.376536686473018 1.4707106781186547
      vertex -1.4414213562373095 -1.3 1.4414213562373095
      vertex -1.4306562964876377 -1.376536686473018 1.4306562964876377
    endloop
  endfacet
  facet normal -0.5522085656517702 -0.8264385215476803 -0.10984111308111817
    outer loop
      vertex -1.3707106781186549 -1.4847759065022574 -1.3292893218813453
      vertex -1.4414213562373095 -1.4414213562373095 -1.3
      vertex -1.4306562964876377 -1.4414213562373095 -1.3541196100146198
    endloop
  endfacet
  facet normal -0.19494359482964602 -0.9800476330240647 -0.038776691953064976
    outer loop
      vertex -1.3707106781186549 -1.4847759065022574 -1.3292893218813453
      vertex -1.3 -1.5 -1.3
      vertex -1.376536686473018 -1.4847759065022574 -1.3
    endloop
  endfacet
  facet normal 0.10984111308111817 -0.8264385215476803 -0.5522085656517702
    outer loop
      vertex 1.3292893218813453 -1.4847759065022574 -1.3707106781186549
      vertex 1.3 -1.4414213562373095 -1.4414213562373095
      vertex 1.3541196100146198 -1.4414213562373095 -1.4306562964876377
    endloop
  endfacet
  facet normal 0.31280102548892613 -0.8264385215476805 -0.4681398173144006
    outer loop
      vertex 1.3292893218813453 -1.4847759065022574 -1.3707106781186549
      vertex 1.4 -1.4414213562373095 -1.4000000000000001
      vertex 1.3541196100146198 -1.4847759065022574 -1.3541196100146198
    endloop
  endfacet
  facet normal 0.11042667602093084 -0.9800476330240647 -0.16526519968491982
    outer loop
      vertex 1.3292893218813453 -1.4847759065022574 -1.3707106781186549
      vertex 1.3541196100146198 -1.4847759065022574 -1.3541196100146198
      vertex 1.3 -1.5 -1.3
    endloop
  endfacet
  facet normal 0.038776691953064976 -0.9800476330240647 -0.19494359482964602
    outer loop
      vertex 1.3292893218813453 -1.4847759065022574 -1.3707106781186549
      vertex 1.3 -1.5 -1.3
      vertex 1.3 -1.4847759065022574 -1.376536686473018
    endloop
  endfacet
  facet normal 0.19494359482964602 -0.9800476330240647 -0.038776691953064976
    outer loop
      vertex 1.3707106781186549 -1.4847759065022574 -1.3292893218813453
      vertex 1.376536686473018 -1.4847759065022574 -1.3
      vertex 1.3 -1.5 -1.3
    endloop
  endfacet
  facet normal 0.16526519968491982 -0.9800476330240647 -0.11042667602093084
    outer loop
      vertex 1.3707106781186549 -1.4847759065022574 -1.3292893218813453
      vertex 1.3 -1.5 -1.3
      vertex 1.3541196100146198 -1.4847759065022574 -1.3541196100146198
    endloop
  endfacet
  facet normal 0.46813981731440046 -0.8264385215476803 -0.3128010254889266
    outer loop
      vertex 1.3707106781186549 -1.4847759065022574 -1.3292893218813453
      vertex 1.4 -1.4414213562373095 -1.4000000000000001
      vertex 1.4306562964876377 -1.4414213562373095 -1.3541196100146198
    endloop
  endfacet
  facet normal 0.5522085656517699 -0.8264385215476807 -0.10984111308111667
    outer loop
      vertex 1.3707106781186549 -1.4847759065022574 -1.3292893218813453
      vertex 1.4414213562373095 -1.4414213562373095 -1.3
      vertex 1.376536686473018 -1.4847759065022574 -1.3
    endloop
  endfacet
  facet normal 0.5522085656517702 -0.8264385215476803 0.10984111308111817
    outer loop
      vertex 1.3707106781186549 -1.4847759065022574 1.3292893218813453
      vertex 1.4414213562373095 -1.4414213562373095 1.3
      vertex 1.4306562964876377 -1.4414213562373095 1.3541196100146198
    endloop
  endfacet
  facet normal 0.46813981731439996 -0.8264385215476809 0.3128010254889257
    outer loop
      vertex 1.3707106781186549 -1.4847759065022574 1.3292893218813453
      vertex 1.4000000000000001 -1.4414213562373095 1.4000000000000001
      vertex 1.3541196100146198 -1.4847759065022574 1.3541196100146198
    endloop
  endfacet
  facet normal 0.16526519968491982 -0.9800476330240647 0.11042667602093084
    outer loop
      vertex 1.3707106781186549 -1.4847759065022574 1.3292893218813453
      vertex 1.3541196100146198 -1.4847759065022574 1.3541196100146198
      vertex 1.3 -1.5 1.3
    endloop
  endfacet
  facet normal 0.19494359482964602 -0.9800476330240647 0.038776691953064976
    outer loop
      vertex 1.3707106781186549 -1.4847759065022574 1.3292893218813453
      vertex 1.3 -1.5 1.3
      vertex 1.376536686473018 -1.4847759065022574 1.3
    endloop
  endfacet
  facet normal 0.038776691953064976 -0.9800476330240647 0.19494359482964602
    outer loop
      vertex 1.3292893218813453 -1.4847759065022574 1.3707106781186549
      vertex 1.3 -1.4847759065022574 1.376536686473018
      vertex 1.3 -1.5 1.3
    endloop
  endfacet
  facet normal 0.11042667602093084 -0.9800476330240647 0.16526519968491982
    outer loop
      vertex 1.3292893218813453 -1.4847759065022574 1.3707106781186549
      vertex 1.3 -1.5 1.3
      vertex 1.3541196100146198 -1.4847759065022574 1.3541196100146198
    endloop
  endfacet
  facet normal 0.3128010254889249 -0.8264385215476805 0.4681398173144013
    outer loop
      vertex 1.3292893218813453 -1.4847759065022574 1.3707106781186549
      vertex 1.4000000000000001 -1.4414213562373095 1.4000000000000001
      vertex 1.3541196100146198 -1.4414213562373095 1.4306562964876377
    endloop
  endfacet
  facet normal 0.10984111308111667 -0.8264385215476807 0.5522085656517699
    outer loop
      vertex 1.3292893218813453 -1.4847759065022574 1.3707106781186549
      vertex 1.3 -1.4414213562373095 1.4414213562373095
      vertex 1.3 -1.4847759065022574 1.376536686473018
    endloop
  endfacet
  facet normal 0.5522085656517699 0.8264385215476807 0.10984111308111667
    outer loop
      vertex 1.3707106781186549 1.4847759065022574 1.3292893218813453
      vertex 1.4414213562373095 1.4414213562373095 1.3
      vertex 1.376536686473018 1.4847759065022574 1.3
    endloop
  endfacet
  facet normal 0.19494359482964602 0.9800476330240647 0.038776691953064976
    outer loop
      vertex 1.3707106781186549 1.4847759065022574 1.3292893218813453
      vertex 1.376536686473018 1.4847759065022574 1.3
      vertex 1.3 1.5 1.3
    endloop
  endfacet
  facet normal -0.038776691953064976 -0.9800476330240647 -0.19494359482964602
    outer loop
      vertex -1.3292893218813453 -1.4847759065022574 -1.3707106781186549
      vertex -1.3 -1.4847759065022574 -1.376536686473018
      vertex -1.3 -1.5 -1.3
    endloop
  endfacet
  facet normal -0.10984111308111667 -0.8264385215476807 -0.5522085656517699
    outer loop
      vertex -1.3292893218813453 -1.4847759065022574 -1.3707106781186549
      vertex -1.3 -1.4414213562373095 -1.4414213562373095
      vertex -1.3 -1.4847759065022574 -1.376536686473018
    endloop
  endfacet
  facet normal 0.31280102548892663 0.8264385215476803 0.46813981731440063
    outer loop
      vertex 1.3541196100146198 1.4847759065022574 1.3541196100146198
      vertex 1.3541196100146198 1.4414213562373095 1.4306562964876377
      vertex 1.4000000000000001 1.4414213562373095 1.4
    endloop
  endfacet
  facet normal 0.4681398173144007 0.8264385215476804 0.3128010254889262
    outer loop
      vertex 1.3541196100146198 1.4847759065022574 1.3541196100146198
      vertex 1.4306562964876377 1.4414213562373095 1.3541196100146198
      vertex 1.3707106781186549 1.4847759065022574 1.3292893218813453
    endloop
  endfacet
  facet normal 0.16526519968491982 0.9800476330240647 0.11042667602093084
    outer loop
      vertex 1.3541196100146198 1.4847759065022574 1.3541196100146198
      vertex 1.3707106781186549 1.4847759065022574 1.3292893218813453
      vertex 1.3 1.5 1.3
    endloop
  endfacet
  facet normal 0.11042667602093084 0.9800476330240647 0.16526519968491982
    outer loop
      vertex 1.3541196100146198 1.4847759065022574 1.3541196100146198
      vertex 1.3 1.5 1.3
      vertex 1.3292893218813453 1.4847759065022574 1.3707106781186549
    endloop
  endfacet
  facet normal -0.4681398173144009 -0.8264385215476807 -0.3128010254889246
    outer loop
      vertex -1.3541196100146198 -1.4847759065022574 -1.3541196100146198
      vertex -1.4306562964876377 -1.4414213562373095 -1.3541196100146198
      vertex -1.4000000000000001 -1.4414213562373095 -1.4000000000000001
    endloop
  endfacet
  facet normal -0.3128010254889262 -0.8264385215476804 -0.4681398173144007
    outer loop
      vertex -1.3541196100146198 -1.4847759065022574 -1.3541196100146198
      vertex -1.3541196100146198 -1.4414213562373095 -1.4306562964876377
      vertex -1.3292893218813453 -1.4847759065022574 -1.3707106781186549
    endloop
  endfacet
  facet normal -0.11042667602093084 -0.9800476330240647 -0.16526519968491982
    outer loop
      vertex -1.3541196100146198 -1.4847759065022574 -1.3541196100146198
      vertex -1.3292893218813453 -1.4847759065022574 -1.3707106781186549
      vertex -1.3 -1.5 -1.3
    endloop
  endfacet
  facet normal -0.16526519968491982 -0.9800476330240647 -0.11042667602093084
    outer loop
      vertex -1.3541196100146198 -1.4847759065022574 -1.3541196100146198
      vertex -1.3 -1.5 -1.3
      vertex -1.3707106781186549 -1.4847759065022574 -1.3292893218813453
    endloop
  endfacet
  facet normal 1.0 0.0 0.0
    outer loop
      vertex 1.5 -1.3 1.3
      vertex 1.5 -1.3 -1.3
      vertex 1.5 1.3 -1.3
    endloop
  endfacet
  facet normal 0.0 1.0 0.0
    outer loop
      vertex 1.3 1.5 -1.3
      vertex -1.3 1.5 -1.3
      vertex -1.3 1.5 1.3
    endloop
  endfacet
  facet normal 0.0 0.0 -1.0
    outer loop
      vertex 1.3 -1.3 -1.5
      vertex -1.3 -1.3 -1.5
      vertex -1.3 1.3 -1.5
    endloop
  endfacet
  facet normal -0.9807852804032308 0.19509032201612733 0.0
    outer loop
      vertex -1.4847759065022574 1.376536686473018 -1.3
      vertex -1.5 1.3 -1.3
      vertex -1.5 1.3 1.3
    endloop
  endfacet
  facet normal 0.8314696123025438 0.0 -0.5555702330196046
    outer loop
      vertex 1.4847759065022574 -1.3 -1.3765366864730182
      vertex 1.4414213562373095 -1.3 -1.4414213562373095
      vertex 1.4414213562373095 1.3 -1.4414213562373095
    endloop
  endfacet
  facet normal 0.9807852804032308 0.0 -0.19509032201612678
    outer loop
      vertex 1.4847759065022574 -1.3 -1.3765366864730182
      vertex 1.4847759065022574 1.3 -1.3765366864730182
      vertex 1.5 1.3 -1.3
    endloop
  endfacet
  facet normal 0.9626372481397797 -0.19148045395532187 -0.19148045395532132
    outer loop
      vertex 1.4847759065022574 -1.3 -1.3765366864730182
      vertex 1.5 -1.3 -1.3
      vertex 1.4847759065022574 -1.376536686473018 -1.3
    endloop
  endfacet
  facet normal -0.1631729517365564 -0.5481241919387716 -0.8203258243119306
    outer loop
      vertex -1.3541196100146198 -1.4414213562373095 -1.4306562964876377
      vertex -1.3707106781186549 -1.376536686473018 -1.4707106781186547
      vertex -1.3 -1.376536686473018 -1.4847759065022574
    endloop
  endfacet
  facet normal -0.54529019852591 0.1914804539553244 -0.8160844534388806
    outer loop
      vertex -1.3707106781186549 1.376536686473018 -1.4707106781186547
      vertex -1.3765366864730182 1.3 -1.4847759065022574
      vertex -1.4414213562373095 1.3 -1.4414213562373095
    endloop
  endfacet
  facet normal -0.8160844534388826 0.1914804539553218 -0.545290198525908
    outer loop
      vertex -1.4707106781186547 1.376536686473018 -1.3707106781186549
      vertex -1.4306562964876377 1.376536686473018 -1.4306562964876377
      vertex -1.4414213562373095 1.3 -1.4414213562373095
    endloop
  endfacet
  facet normal -0.9626372481397794 0.19148045395532368 -0.1914804539553218
    outer loop
      vertex -1.4707106781186547 1.376536686473018 -1.3707106781186549
      vertex -1.4847759065022574 1.3 -1.376536686473018
      vertex -1.5 1.3 -1.3
    endloop
  endfacet
  facet normal 0.8314696123025446 -0.5555702330196033 0.0
    outer loop
      vertex 1.4847759065022574 -1.376536686473018 1.3
      vertex 1.4414213562373095 -1.4414213562373095 1.3
      vertex 1.4414213562373095 -1.4414213562373095 -1.3
    endloop
  endfacet
  facet normal 0.9807852804032308 -0.19509032201612733 0.0
    outer loop
      vertex 1.4847759065022574 -1.376536686473018 1.3
      vertex 1.4847759065022574 -1.376536686473018 -1.3
      vertex 1.5 -1.3 -1.3
    endloop
  endfacet
  facet normal 0.545290198525908 0.1914804539553218 -0.8160844534388826
    outer loop
      vertex 1.3707106781186549 1.376536686473018 -1.4707106781186547
      vertex 1.4306562964876377 1.376536686473018 -1.4306562964876377
      vertex 1.4414213562373095 1.3 -1.4414213562373095
    endloop
  endfacet
  facet normal 0.1914804539553218 0.19148045395532368 -0.9626372481397794
    outer loop
      vertex 1.3707106781186549 1.376536686473018 -1.4707106781186547
      vertex 1.376536686473018 1.3 -1.4847759065022574
      vertex 1.3 1.3 -1.5
    endloop
  endfacet
  facet normal 0.0 -0.8314696123025446 0.5555702330196033
    outer loop
      vertex 1.3 -1.4847759065022574 1.376536686473018
      vertex 1.3 -1.4414213562373095 1.4414213562373095
      vertex -1.3 -1.4414213562373095 1.4414213562373095
    endloop
  endfacet
  facet normal -0.19509032201612733 0.9807852804032308 0.0
    outer loop
      vertex -1.376536686473018 1.4847759065022574 1.3
      vertex -1.3 1.5 1.3
      vertex -1.3 1.5 -1.3
    endloop
  endfacet
  facet normal -0.9626372481397794 0.19148045395532184 0.19148045395532384
    outer loop
      vertex -1.4707106781186547 1.376536686473018 1.3707106781186549
      vertex -1.4847759065022574 1.376536686473018 1.3
      vertex -1.5 1.3 1.3
    endloop
  endfacet
  facet normal 0.0 0.8314696123025446 -0.5555702330196033
    outer loop
      vertex -1.3 1.4847759065022574 -1.376536686473018
      vertex 1.3 1.4847759065022574 -1.376536686473018
      vertex 1.3 1.4414213562373095 -1.4414213562373095
    endloop
  endfacet
  facet normal 0.0 0.9807852804032308 -0.19509032201612733
    outer loop
      vertex -1.3 1.4847759065022574 -1.376536686473018
      vertex -1.3 1.5 -1.3
      vertex 1.3 1.5 -1.3
    endloop
  endfacet
  facet normal -0.8203258243119299 -0.5481241919387728 0.1631729517365544
    outer loop
      vertex -1.4847759065022574 -1.376536686473018 1.3
      vertex -1.4414213562373095 -1.4414213562373095 1.3
      vertex -1.4306562964876377 -1.4414213562373095 1.3541196100146198
    endloop
  endfacet
  facet normal -0.9807852804032308 0.0 0.19509032201612733
    outer loop
      vertex -1.4847759065022574 -1.3 1.376536686473018
      vertex -1.4847759065022574 1.3 1.376536686473018
      vertex -1.5 1.3 1.3
    endloop
  endfacet
  facet normal -0.9626372481397796 -0.19148045395532184 0.19148045395532184
    outer loop
      vertex -1.4847759065022574 -1.3 1.376536686473018
      vertex -1.5 -1.3 1.3
      vertex -1.4847759065022574 -1.376536686473018 1.3
    endloop
  endfacet
  facet normal -0.8160844534388825 -0.1914804539553231 0.545290198525908
    outer loop
      vertex -1.4847759065022574 -1.3 1.376536686473018
      vertex -1.4707106781186547 -1.376536686473018 1.3707106781186549
      vertex -1.4306562964876377 -1.376536686473018 1.4306562964876377
    endloop
  endfacet
  facet normal -0.8314696123025446 0.0 0.5555702330196033
    outer loop
      vertex -1.4847759065022574 -1.3 1.376536686473018
      vertex -1.4414213562373095 -1.3 1.4414213562373095
      vertex -1.4414213562373095 1.3 1.4414213562373095
    endloop
  endfacet
  facet normal -0.5522085656517702 -0.8264385215476803 0.10984111308111817
    outer loop
      vertex -1.3707106781186549 -1.4847759065022574 1.3292893218813453
      vertex -1.4306562964876377 -1.4414213562373095 1.3541196100146198
      vertex -1.4414213562373095 -1.4414213562373095 1.3
    endloop
  endfacet
  facet normal 0.8203258243119306 -0.5481241919387716 -0.1631729517365564
    outer loop
      vertex 1.4306562964876377 -1.4414213562373095 -1.3541196100146198
      vertex 1.4707106781186547 -1.376536686473018 -1.3707106781186549
      vertex 1.4847759065022574 -1.376536686473018 -1.3
    endloop
  endfacet
  facet normal 0.19509032201612733 0.0 -0.9807852804032308
    outer loop
      vertex 1.376536686473018 -1.3 -1.4847759065022574
      vertex 1.3 -1.3 -1.5
      vertex 1.3 1.3 -1.5
    endloop
  endfacet
  facet normal 0.5555702330196033 0.0 -0.8314696123025446
    outer loop
      vertex 1.376536686473018 -1.3 -1.4847759065022574
      vertex 1.376536686473018 1.3 -1.4847759065022574
      vertex 1.4414213562373095 1.3 -1.4414213562373095
    endloop
  endfacet
  facet normal 0.816084453438881 -0.19148045395532187 -0.5452901985259103
    outer loop
      vertex 1.4306562964876377 -1.376536686473018 -1.4306562964876377
      vertex 1.4414213562373095 -1.3 -1.4414213562373095
      vertex 1.4847759065022574 -1.3 -1.3765366864730182
    endloop
  endfacet
  facet normal 0.6954386538325541 -0.5481241919387717 -0.4646772524742668
    outer loop
      vertex 1.4306562964876377 -1.376536686473018 -1.4306562964876377
      vertex 1.4707106781186547 -1.376536686473018 -1.3707106781186549
      vertex 1.4306562964876377 -1.4414213562373095 -1.3541196100146198
    endloop
  endfacet
  facet normal -0.8314696123025446 -0.5555702330196033 0.0
    outer loop
      vertex -1.4847759065022574 -1.376536686473018 -1.3
      vertex -1.4414213562373095 -1.4414213562373095 -1.3
      vertex -1.4414213562373095 -1.4414213562373095 1.3
    endloop
  endfacet
  facet normal 0.0 0.19509032201612733 -0.9807852804032308
    outer loop
      vertex -1.3 1.376536686473018 -1.4847759065022574
      vertex 1.3 1.376536686473018 -1.4847759065022574
      vertex 1.3 1.3 -1.5
    endloop
  endfacet
  facet normal -0.19148045395532132 0.19148045395532187 -0.9626372481397797
    outer loop
      vertex -1.3 1.376536686473018 -1.4847759065022574
      vertex -1.3 1.3 -1.5
      vertex -1.3765366864730182 1.3 -1.4847759065022574
    endloop
  endfacet
  facet normal 0.0 0.5555702330196033 -0.8314696123025446
    outer loop
      vertex -1.3 1.376536686473018 -1.4847759065022574
      vertex -1.3 1.4414213562373095 -1.4414213562373095
      vertex 1.3 1.4414213562373095 -1.4414213562373095
    endloop
  endfacet
  facet normal -0.8314696123025446 0.0 -0.5555702330196033
    outer loop
      vertex -1.4414213562373095 -1.3 -1.4414213562373095
      vertex -1.4847759065022574 -1.3 -1.376536686473018
      vertex -1.4847759065022574 1.3 -1.376536686473018
    endloop
  endfacet
  facet normal 0.0 -0.9807852804032308 0.19509032201612733
    outer loop
      vertex 1.3 -1.5 1.3
      vertex 1.3 -1.4847759065022574 1.376536686473018
      vertex -1.3 -1.4847759065022574 1.376536686473018
    endloop
  endfacet
  facet normal 0.46467725247426556 -0.5481241919387718 0.6954386538325548
    outer loop
      vertex 1.3707106781186549 -1.376536686473018 1.4707106781186547
      vertex 1.3541196100146198 -1.4414213562373095 1.4306562964876377
      vertex 1.4000000000000001 -1.4414213562373095 1.4000000000000001
    endloop
  endfacet
  facet normal -0.5555702330196033 0.8314696123025446 0.0
    outer loop
      vertex -1.4414213562373095 1.4414213562373095 1.3
      vertex -1.376536686473018 1.4847759065022574 1.3
      vertex -1.376536686473018 1.4847759065022574 -1.3
    endloop
  endfacet
  facet normal -0.8314696123025446 0.5555702330196033 0.0
    outer loop
      vertex -1.4414213562373095 1.4414213562373095 1.3
      vertex -1.4414213562373095 1.4414213562373095 -1.3
      vertex -1.4847759065022574 1.376536686473018 -1.3
    endloop
  endfacet
  facet normal -0.8160844534388825 0.1914804539553231 0.545290198525908
    outer loop
      vertex -1.4306562964876377 1.376536686473018 1.4306562964876377
      vertex -1.4707106781186547 1.376536686473018 1.3707106781186549
      vertex -1.4847759065022574 1.3 1.376536686473018
    endloop
  endfacet
  facet normal -0.1098411130811169 0.82643852154768 -0.5522085656517707
    outer loop
      vertex -1.3541196100146198 1.4414213562373095 -1.4306562964876377
      vertex -1.3292893218813453 1.4847759065022574 -1.3707106781186549
      vertex -1.3 1.4847759065022574 -1.376536686473018
    endloop
  endfacet
  facet normal -0.16317295173655436 0.5481241919387728 -0.8203258243119299
    outer loop
      vertex -1.3541196100146198 1.4414213562373095 -1.4306562964876377
      vertex -1.3 1.4414213562373095 -1.4414213562373095
      vertex -1.3 1.376536686473018 -1.4847759065022574
    endloop
  endfacet
  facet normal 0.9626372481397794 0.19148045395532184 -0.19148045395532384
    outer loop
      vertex 1.4707106781186547 1.376536686473018 -1.3707106781186549
      vertex 1.4847759065022574 1.376536686473018 -1.3
      vertex 1.5 1.3 -1.3
    endloop
  endfacet
  facet normal 0.8160844534388806 0.1914804539553244 -0.54529019852591
    outer loop
      vertex 1.4707106781186547 1.376536686473018 -1.3707106781186549
      vertex 1.4847759065022574 1.3 -1.3765366864730182
      vertex 1.4414213562373095 1.3 -1.4414213562373095
    endloop
  endfacet
  facet normal 0.19509032201612733 0.9807852804032308 0.0
    outer loop
      vertex 1.376536686473018 1.4847759065022574 1.3
      vertex 1.376536686473018 1.4847759065022574 -1.3
      vertex 1.3 1.5 -1.3
    endloop
  endfacet
  facet normal 0.0 0.0 1.0
    outer loop
      vertex -1.3 1.3 1.5
      vertex -1.3 -1.3 1.5
      vertex 1.3 -1.3 1.5
    endloop
  endfacet
  facet normal -0.0 0.19509032201612733 0.9807852804032308
    outer loop
      vertex -1.3 1.3 1.5
      vertex 1.3 1.3 1.5
      vertex 1.3 1.376536686473018 1.4847759065022574
    endloop
  endfacet
  facet normal -0.6954386538325545 -0.5481241919387708 0.46467725247426717
    outer loop
      vertex -1.4000000000000001 -1.4414213562373095 1.4000000000000001
      vertex -1.4306562964876377 -1.376536686473018 1.4306562964876377
      vertex -1.4707106781186547 -1.376536686473018 1.3707106781186549
    endloop
  endfacet
  facet normal 0.5452901985259089 -0.19148045395532295 -0.8160844534388817
    outer loop
      vertex 1.3707106781186549 -1.376536686473018 -1.4707106781186547
      vertex 1.376536686473018 -1.3 -1.4847759065022574
      vertex 1.4414213562373095 -1.3 -1.4414213562373095
    endloop
  endfacet
  facet normal 0.4646772524742667 -0.5481241919387719 -0.695438653832554
    outer loop
      vertex 1.3707106781186549 -1.376536686473018 -1.4707106781186547
      vertex 1.4306562964876377 -1.376536686473018 -1.4306562964876377
      vertex 1.4 -1.4414213562373095 -1.4000000000000001
    endloop
  endfacet
  facet normal -0.0 -0.19509032201612733 -0.9807852804032308
    outer loop
      vertex 1.3 -1.376536686473018 -1.4847759065022574
      vertex -1.3 -1.376536686473018 -1.4847759065022574
      vertex -1.3 -1.3 -1.5
    endloop
  endfacet
  facet normal 0.19148045395532184 -0.19148045395532184 -0.9626372481397796
    outer loop
      vertex 1.3 -1.376536686473018 -1.4847759065022574
      vertex 1.3 -1.3 -1.5
      vertex 1.376536686473018 -1.3 -1.4847759065022574
    endloop
  endfacet
  facet normal 0.16317295173655635 -0.5481241919387716 -0.8203258243119304
    outer loop
      vertex 1.3 -1.376536686473018 -1.4847759065022574
      vertex 1.3707106781186549 -1.376536686473018 -1.4707106781186547
      vertex 1.3541196100146198 -1.4414213562373095 -1.4306562964876377
    endloop
  endfacet
  facet normal 0.0 -0.5555702330196033 -0.8314696123025446
    outer loop
      vertex 1.3 -1.376536686473018 -1.4847759065022574
      vertex 1.3 -1.4414213562373095 -1.4414213562373095
      vertex -1.3 -1.4414213562373095 -1.4414213562373095
    endloop
  endfacet
  facet normal -1.0 0.0 0.0
    outer loop
      vertex -1.5 -1.3 -1.3
      vertex -1.5 -1.3 1.3
      vertex -1.5 1.3 1.3
    endloop
  endfacet
  facet normal -0.9807852804032308 0.0 -0.19509032201612733
    outer loop
      vertex -1.5 -1.3 -1.3
      vertex -1.5 1.3 -1.3
      vertex -1.4847759065022574 1.3 -1.376536686473018
    endloop
  endfacet
  facet normal -0.9626372481397794 -0.19148045395532365 -0.1914804539553218
    outer loop
      vertex -1.5 -1.3 -1.3
      vertex -1.4847759065022574 -1.3 -1.376536686473018
      vertex -1.4707106781186547 -1.376536686473018 -1.3707106781186549
    endloop
  endfacet
  facet normal -0.9807852804032308 -0.19509032201612733 0.0
    outer loop
      vertex -1.5 -1.3 -1.3
      vertex -1.4847759065022574 -1.376536686473018 -1.3
      vertex -1.4847759065022574 -1.376536686473018 1.3
    endloop
  endfacet
  facet normal -0.19509032201612733 -0.9807852804032308 0.0
    outer loop
      vertex -1.376536686473018 -1.4847759065022574 -1.3
      vertex -1.3 -1.5 -1.3
      vertex -1.3 -1.5 1.3
    endloop
  endfacet
  facet normal -0.5555702330196033 -0.8314696123025446 0.0
    outer loop
      vertex -1.376536686473018 -1.4847759065022574 -1.3
      vertex -1.376536686473018 -1.4847759065022574 1.3
      vertex -1.4414213562373095 -1.4414213562373095 1.3
    endloop
  endfacet
  facet normal -0.19509032201612678 0.0 -0.9807852804032308
    outer loop
      vertex -1.3765366864730182 -1.3 -1.4847759065022574
      vertex -1.3765366864730182 1.3 -1.4847759065022574
      vertex -1.3 1.3 -1.5
    endloop
  endfacet
  facet normal -0.19148045395532132 -0.19148045395532187 -0.9626372481397797
    outer loop
      vertex -1.3765366864730182 -1.3 -1.4847759065022574
      vertex -1.3 -1.3 -1.5
      vertex -1.3 -1.376536686473018 -1.4847759065022574
    endloop
  endfacet
  facet normal -0.5555702330196046 0.0 -0.8314696123025438
    outer loop
      vertex -1.3765366864730182 -1.3 -1.4847759065022574
      vertex -1.4414213562373095 -1.3 -1.4414213562373095
      vertex -1.4414213562373095 1.3 -1.4414213562373095
    endloop
  endfacet
  facet normal 0.5555702330196033 -0.8314696123025446 0.0
    outer loop
      vertex 1.376536686473018 -1.4847759065022574 1.3
      vertex 1.376536686473018 -1.4847759065022574 -1.3
      vertex 1.4414213562373095 -1.4414213562373095 -1.3
    endloop
  endfacet
  facet normal -0.8203258243119299 0.5481241919387728 0.16317295173655436
    outer loop
      vertex -1.4306562964876377 1.4414213562373095 1.3541196100146198
      vertex -1.4414213562373095 1.4414213562373095 1.3
      vertex -1.4847759065022574 1.376536686473018 1.3
    endloop
  endfacet
  facet normal -0.6954386538325541 0.5481241919387717 0.4646772524742668
    outer loop
      vertex -1.4306562964876377 1.4414213562373095 1.3541196100146198
      vertex -1.4707106781186547 1.376536686473018 1.3707106781186549
      vertex -1.4306562964876377 1.376536686473018 1.4306562964876377
    endloop
  endfacet
  facet normal -0.5522085656517699 0.8264385215476807 0.10984111308111667
    outer loop
      vertex -1.3707106781186549 1.4847759065022574 1.3292893218813453
      vertex -1.376536686473018 1.4847759065022574 1.3
      vertex -1.4414213562373095 1.4414213562373095 1.3
    endloop
  endfacet
  facet normal 0.0 0.5555702330196033 0.8314696123025446
    outer loop
      vertex -1.3 1.4414213562373095 1.4414213562373095
      vertex -1.3 1.376536686473018 1.4847759065022574
      vertex 1.3 1.376536686473018 1.4847759065022574
    endloop
  endfacet
  facet normal 0.545290198525908 -0.1914804539553231 0.8160844534388825
    outer loop
      vertex 1.376536686473018 -1.3 1.4847759065022574
      vertex 1.3707106781186549 -1.376536686473018 1.4707106781186547
      vertex 1.4306562964876377 -1.376536686473018 1.4306562964876377
    endloop
  endfacet
  facet normal 0.5555702330196033 0.0 0.8314696123025446
    outer loop
      vertex 1.376536686473018 -1.3 1.4847759065022574
      vertex 1.4414213562373095 -1.3 1.4414213562373095
      vertex 1.4414213562373095 1.3 1.4414213562373095
    endloop
  endfacet
  facet normal 0.19509032201612733 -0.0 0.9807852804032308
    outer loop
      vertex 1.376536686473018 -1.3 1.4847759065022574
      vertex 1.376536686473018 1.3 1.4847759065022574
      vertex 1.3 1.3 1.5
    endloop
  endfacet
  facet normal -0.5522085656517698 0.8264385215476806 -0.10984111308111813
    outer loop
      vertex -1.4306562964876377 1.4414213562373095 -1.3541196100146198
      vertex -1.4414213562373095 1.4414213562373095 -1.3
      vertex -1.376536686473018 1.4847759065022574 -1.3
    endloop
  endfacet
  facet normal -0.8203258243119306 0.5481241919387716 -0.1631729517365564
    outer loop
      vertex -1.4306562964876377 1.4414213562373095 -1.3541196100146198
      vertex -1.4707106781186547 1.376536686473018 -1.3707106781186549
      vertex -1.4847759065022574 1.376536686473018 -1.3
    endloop
  endfacet
  facet normal 0.6954386538325534 0.5481241919387717 -0.46467725247426794
    outer loop
      vertex 1.4 1.4414213562373095 -1.4000000000000001
      vertex 1.4306562964876377 1.4414213562373095 -1.3541196100146198
      vertex 1.4707106781186547 1.376536686473018 -1.3707106781186549
    endloop
  endfacet
  facet normal 0.8203258243119297 0.5481241919387727 -0.16317295173655622
    outer loop
      vertex 1.4414213562373095 1.4414213562373095 -1.3
      vertex 1.4847759065022574 1.376536686473018 -1.3
      vertex 1.4707106781186547 1.376536686473018 -1.3707106781186549
    endloop
  endfacet
  facet normal 0.5555702330196033 0.8314696123025446 0.0
    outer loop
      vertex 1.4414213562373095 1.4414213562373095 -1.3
      vertex 1.376536686473018 1.4847759065022574 -1.3
      vertex 1.376536686473018 1.4847759065022574 1.3
    endloop
  endfacet
  facet normal 0.5522085656517699 0.8264385215476807 -0.10984111308111667
    outer loop
      vertex 1.3707106781186549 1.4847759065022574 -1.3292893218813453
      vertex 1.376536686473018 1.4847759065022574 -1.3
      vertex 1.4414213562373095 1.4414213562373095 -1.3
    endloop
  endfacet
  facet normal 0.46813981731440046 0.8264385215476803 -0.3128010254889266
    outer loop
      vertex 1.3707106781186549 1.4847759065022574 -1.3292893218813453
      vertex 1.4306562964876377 1.4414213562373095 -1.3541196100146198
      vertex 1.4 1.4414213562373095 -1.4000000000000001
    endloop
  endfacet
  facet normal 0.9626372481397794 -0.19148045395532184 0.19148045395532384
    outer loop
      vertex 1.4707106781186547 -1.376536686473018 1.3707106781186549
      vertex 1.4847759065022574 -1.376536686473018 1.3
      vertex 1.5 -1.3 1.3
    endloop
  endfacet
  facet normal 0.8160844534388817 -0.19148045395532295 0.5452901985259089
    outer loop
      vertex 1.4707106781186547 -1.376536686473018 1.3707106781186549
      vertex 1.4847759065022574 -1.3 1.376536686473018
      vertex 1.4414213562373095 -1.3 1.4414213562373095
    endloop
  endfacet
  facet normal 0.6954386538325545 -0.5481241919387708 0.46467725247426706
    outer loop
      vertex 1.4707106781186547 -1.376536686473018 1.3707106781186549
      vertex 1.4306562964876377 -1.376536686473018 1.4306562964876377
      vertex 1.4000000000000001 -1.4414213562373095 1.4000000000000001
    endloop
  endfacet
  facet normal 0.8203258243119308 -0.5481241919387715 0.16317295173655452
    outer loop
      vertex 1.4707106781186547 -1.376536686473018 1.3707106781186549
      vertex 1.4306562964876377 -1.4414213562373095 1.3541196100146198
      vertex 1.4414213562373095 -1.4414213562373095 1.3
    endloop
  endfacet
  facet normal 0.19148045395532381 0.19148045395532182 0.9626372481397792
    outer loop
      vertex 1.3707106781186549 1.376536686473018 1.4707106781186547
      vertex 1.3 1.376536686473018 1.4847759065022574
      vertex 1.3 1.3 1.5
    endloop
  endfacet
  facet normal -0.5555702330196033 0.0 0.8314696123025446
    outer loop
      vertex -1.376536686473018 1.3 1.4847759065022574
      vertex -1.4414213562373095 1.3 1.4414213562373095
      vertex -1.4414213562373095 -1.3 1.4414213562373095
    endloop
  endfacet
  facet normal -0.19509032201612733 0.0 0.9807852804032308
    outer loop
      vertex -1.376536686473018 1.3 1.4847759065022574
      vertex -1.376536686473018 -1.3 1.4847759065022574
      vertex -1.3 -1.3 1.5
    endloop
  endfacet
  facet normal -0.1098411130811169 -0.82643852154768 0.5522085656517707
    outer loop
      vertex -1.3541196100146198 -1.4414213562373095 1.4306562964876377
      vertex -1.3292893218813453 -1.4847759065022574 1.3707106781186549
      vertex -1.3 -1.4847759065022574 1.376536686473018
    endloop
  endfacet
  facet normal -0.3128010254889262 -0.8264385215476804 0.4681398173144007
    outer loop
      vertex -1.3541196100146198 -1.4847759065022574 1.3541196100146198
      vertex -1.3292893218813453 -1.4847759065022574 1.3707106781186549
      vertex -1.3541196100146198 -1.4414213562373095 1.4306562964876377
    endloop
  endfacet
  facet normal -0.4681398173144009 -0.8264385215476807 0.3128010254889246
    outer loop
      vertex -1.3541196100146198 -1.4847759065022574 1.3541196100146198
      vertex -1.4000000000000001 -1.4414213562373095 1.4000000000000001
      vertex -1.4306562964876377 -1.4414213562373095 1.3541196100146198
    endloop
  endfacet
  facet normal -0.8203258243119299 -0.5481241919387728 -0.16317295173655436
    outer loop
      vertex -1.4306562964876377 -1.4414213562373095 -1.3541196100146198
      vertex -1.4414213562373095 -1.4414213562373095 -1.3
      vertex -1.4847759065022574 -1.376536686473018 -1.3
    endloop
  endfacet
  facet normal -0.4646772524742668 -0.5481241919387717 -0.6954386538325541
    outer loop
      vertex -1.4306562964876377 -1.376536686473018 -1.4306562964876377
      vertex -1.3707106781186549 -1.376536686473018 -1.4707106781186547
      vertex -1.3541196100146198 -1.4414213562373095 -1.4306562964876377
    endloop
  endfacet
  facet normal -0.6954386538325554 -0.5481241919387707 -0.46467725247426594
    outer loop
      vertex -1.4306562964876377 -1.376536686473018 -1.4306562964876377
      vertex -1.4000000000000001 -1.4414213562373095 -1.4000000000000001
      vertex -1.4306562964876377 -1.4414213562373095 -1.3541196100146198
    endloop
  endfacet
  facet normal -0.8160844534388825 -0.1914804539553231 -0.545290198525908
    outer loop
      vertex -1.4306562964876377 -1.376536686473018 -1.4306562964876377
      vertex -1.4707106781186547 -1.376536686473018 -1.3707106781186549
      vertex -1.4847759065022574 -1.3 -1.376536686473018
    endloop
  endfacet
  facet normal -0.5452901985259103 -0.19148045395532187 -0.816084453438881
    outer loop
      vertex -1.4306562964876377 -1.376536686473018 -1.4306562964876377
      vertex -1.4414213562373095 -1.3 -1.4414213562373095
      vertex -1.3765366864730182 -1.3 -1.4847759065022574
    endloop
  endfacet
  facet normal 0.0 -0.8314696123025446 -0.5555702330196033
    outer loop
      vertex -1.3 -1.4847759065022574 -1.376536686473018
      vertex -1.3 -1.4414213562373095 -1.4414213562373095
      vertex 1.3 -1.4414213562373095 -1.4414213562373095
    endloop
  endfacet
  facet normal -0.0 -0.9807852804032308 -0.19509032201612733
    outer loop
      vertex 1.3 -1.5 -1.3
      vertex -1.3 -1.5 -1.3
      vertex -1.3 -1.4847759065022574 -1.376536686473018
    endloop
  endfacet
  facet normal 0.19509032201612733 -0.9807852804032308 0.0
    outer loop
      vertex 1.3 -1.5 -1.3
      vertex 1.376536686473018 -1.4847759065022574 -1.3
      vertex 1.376536686473018 -1.4847759065022574 1.3
    endloop
  endfacet
  facet normal 0.0 -1.0 0.0
    outer loop
      vertex 1.3 -1.5 -1.3
      vertex 1.3 -1.5 1.3
      vertex -1.3 -1.5 1.3
    endloop
  endfacet
  facet normal -0.4681398173144007 0.8264385215476804 0.3128010254889262
    outer loop
      vertex -1.3541196100146198 1.4847759065022574 1.3541196100146198
      vertex -1.3707106781186549 1.4847759065022574 1.3292893218813453
      vertex -1.4306562964876377 1.4414213562373095 1.3541196100146198
    endloop
  endfacet
  facet normal -0.3128010254889261 0.8264385215476804 0.4681398173144007
    outer loop
      vertex -1.3541196100146198 1.4414213562373095 1.4306562964876377
      vertex -1.3292893218813453 1.4847759065022574 1.3707106781186549
      vertex -1.3541196100146198 1.4847759065022574 1.3541196100146198
    endloop
  endfacet
  facet normal -0.10984111308111684 0.82643852154768 0.5522085656517707
    outer loop
      vertex -1.3 1.4847759065022574 1.376536686473018
      vertex -1.3292893218813453 1.4847759065022574 1.3707106781186549
      vertex -1.3541196100146198 1.4414213562373095 1.4306562964876377
    endloop
  endfacet
  facet normal 0.0 0.8314696123025446 0.5555702330196033
    outer loop
      vertex -1.3 1.4847759065022574 1.376536686473018
      vertex -1.3 1.4414213562373095 1.4414213562373095
      vertex 1.3 1.4414213562373095 1.4414213562373095
    endloop
  endfacet
  facet normal -0.0 0.9807852804032308 0.19509032201612733
    outer loop
      vertex -1.3 1.4847759065022574 1.376536686473018
      vertex 1.3 1.4847759065022574 1.376536686473018
      vertex 1.3 1.5 1.3
    endloop
  endfacet
  facet normal -0.46467725247426794 0.5481241919387717 -0.6954386538325534
    outer loop
      vertex -1.4000000000000001 1.4414213562373095 -1.4
      vertex -1.3541196100146198 1.4414213562373095 -1.4306562964876377
      vertex -1.3707106781186549 1.376536686473018 -1.4707106781186547
    endloop
  endfacet
  facet normal -0.6954386538325539 0.5481241919387719 -0.4646772524742667
    outer loop
      vertex -1.4000000000000001 1.4414213562373095 -1.4
      vertex -1.4306562964876377 1.376536686473018 -1.4306562964876377
      vertex -1.4707106781186547 1.376536686473018 -1.3707106781186549
    endloop
  endfacet
  facet normal -0.4681398173144008 0.8264385215476804 -0.312801025488926
    outer loop
      vertex -1.4000000000000001 1.4414213562373095 -1.4
      vertex -1.4306562964876377 1.4414213562373095 -1.3541196100146198
      vertex -1.3707106781186549 1.4847759065022574 -1.3292893218813453
    endloop
  endfacet
  facet normal -0.31280102548892635 0.8264385215476803 -0.46813981731440085
    outer loop
      vertex -1.4000000000000001 1.4414213562373095 -1.4
      vertex -1.3541196100146198 1.4847759065022574 -1.3541196100146198
      vertex -1.3292893218813453 1.4847759065022574 -1.3707106781186549
    endloop
  endfacet
  facet normal 0.10984111308111813 0.8264385215476806 -0.5522085656517698
    outer loop
      vertex 1.3541196100146198 1.4414213562373095 -1.4306562964876377
      vertex 1.3 1.4414213562373095 -1.4414213562373095
      vertex 1.3 1.4847759065022574 -1.376536686473018
    endloop
  endfacet
  facet normal 0.3128010254889261 0.8264385215476804 -0.4681398173144007
    outer loop
      vertex 1.3541196100146198 1.4414213562373095 -1.4306562964876377
      vertex 1.3292893218813453 1.4847759065022574 -1.3707106781186549
      vertex 1.3541196100146198 1.4847759065022574 -1.3541196100146198
    endloop
  endfacet
  facet normal 0.46467725247426706 0.548124191938772 -0.6954386538325538
    outer loop
      vertex 1.3541196100146198 1.4414213562373095 -1.4306562964876377
      vertex 1.4 1.4414213562373095 -1.4000000000000001
      vertex 1.4306562964876377 1.376536686473018 -1.4306562964876377
    endloop
  endfacet
  facet normal 0.1631729517365564 0.5481241919387716 -0.8203258243119306
    outer loop
      vertex 1.3541196100146198 1.4414213562373095 -1.4306562964876377
      vertex 1.3707106781186549 1.376536686473018 -1.4707106781186547
      vertex 1.3 1.376536686473018 -1.4847759065022574
    endloop
  endfacet
  facet normal 0.9807852804032308 0.0 0.19509032201612733
    outer loop
      vertex 1.4847759065022574 1.3 1.376536686473018
      vertex 1.4847759065022574 -1.3 1.376536686473018
      vertex 1.5 -1.3 1.3
    endloop
  endfacet
  facet normal 0.8314696123025446 0.0 0.5555702330196033
    outer loop
      vertex 1.4847759065022574 1.3 1.376536686473018
      vertex 1.4414213562373095 1.3 1.4414213562373095
      vertex 1.4414213562373095 -1.3 1.4414213562373095
    endloop
  endfacet
  facet normal 0.8314696123025446 0.5555702330196033 0.0
    outer loop
      vertex 1.4847759065022574 1.376536686473018 1.3
      vertex 1.4847759065022574 1.376536686473018 -1.3
      vertex 1.4414213562373095 1.4414213562373095 -1.3
    endloop
  endfacet
  facet normal 0.8203258243119299 0.5481241919387728 0.1631729517365544
    outer loop
      vertex 1.4847759065022574 1.376536686473018 1.3
      vertex 1.4414213562373095 1.4414213562373095 1.3
      vertex 1.4306562964876377 1.4414213562373095 1.3541196100146198
    endloop
  endfacet
  facet normal 0.9626372481397789 0.19148045395532376 0.19148045395532376
    outer loop
      vertex 1.4847759065022574 1.376536686473018 1.3
      vertex 1.4707106781186547 1.376536686473018 1.3707106781186549
      vertex 1.4847759065022574 1.3 1.376536686473018
    endloop
  endfacet
  facet normal 0.9807852804032308 0.19509032201612733 0.0
    outer loop
      vertex 1.4847759065022574 1.376536686473018 1.3
      vertex 1.5 1.3 1.3
      vertex 1.5 1.3 -1.3
    endloop
  endfacet
  facet normal 0.19148045395532376 -0.19148045395532376 0.9626372481397789
    outer loop
      vertex 1.3 -1.376536686473018 1.4847759065022574
      vertex 1.3707106781186549 -1.376536686473018 1.4707106781186547
      vertex 1.376536686473018 -1.3 1.4847759065022574
    endloop
  endfacet
  facet normal 0.0 -0.19509032201612733 0.9807852804032308
    outer loop
      vertex 1.3 -1.376536686473018 1.4847759065022574
      vertex 1.3 -1.3 1.5
      vertex -1.3 -1.3 1.5
    endloop
  endfacet
  facet normal 0.0 -0.5555702330196033 0.8314696123025446
    outer loop
      vertex 1.3 -1.376536686473018 1.4847759065022574
      vertex -1.3 -1.376536686473018 1.4847759065022574
      vertex -1.3 -1.4414213562373095 1.4414213562373095
    endloop
  endfacet
  facet normal 0.1631729517365544 -0.5481241919387728 0.8203258243119299
    outer loop
      vertex 1.3 -1.376536686473018 1.4847759065022574
      vertex 1.3 -1.4414213562373095 1.4414213562373095
      vertex 1.3541196100146198 -1.4414213562373095 1.4306562964876377
    endloop
  endfacet
  facet normal 0.6954386538325541 0.5481241919387717 0.4646772524742668
    outer loop
      vertex 1.4306562964876377 1.376536686473018 1.4306562964876377
      vertex 1.4707106781186547 1.376536686473018 1.3707106781186549
      vertex 1.4306562964876377 1.4414213562373095 1.3541196100146198
    endloop
  endfacet
  facet normal 0.545290198525908 0.1914804539553231 0.8160844534388825
    outer loop
      vertex 1.4306562964876377 1.376536686473018 1.4306562964876377
      vertex 1.3707106781186549 1.376536686473018 1.4707106781186547
      vertex 1.376536686473018 1.3 1.4847759065022574
    endloop
  endfacet
  facet normal 0.8160844534388819 0.19148045395532184 0.5452901985259091
    outer loop
      vertex 1.4306562964876377 1.376536686473018 1.4306562964876377
      vertex 1.4414213562373095 1.3 1.4414213562373095
      vertex 1.4847759065022574 1.3 1.376536686473018
    endloop
  endfacet
  facet normal 0.16317295173655436 0.5481241919387728 0.8203258243119299
    outer loop
      vertex 1.3541196100146198 1.4414213562373095 1.4306562964876377
      vertex 1.3 1.4414213562373095 1.4414213562373095
      vertex 1.3 1.376536686473018 1.4847759065022574
    endloop
  endfacet
  facet normal 0.4646772524742668 0.5481241919387717 0.6954386538325541
    outer loop
      vertex 1.3541196100146198 1.4414213562373095 1.4306562964876377
      vertex 1.3707106781186549 1.376536686473018 1.4707106781186547
      vertex 1.4306562964876377 1.376536686473018 1.4306562964876377
    endloop
  endfacet
  facet normal 0.1098411130811169 0.82643852154768 0.5522085656517707
    outer loop
      vertex 1.3541196100146198 1.4414213562373095 1.4306562964876377
      vertex 1.3292893218813453 1.4847759065022574 1.3707106781186549
      vertex 1.3 1.4847759065022574 1.376536686473018
    endloop
  endfacet
  facet normal -0.545290198525908 0.1914804539553218 0.8160844534388826
    outer loop
      vertex -1.3707106781186549 1.376536686473018 1.4707106781186547
      vertex -1.4306562964876377 1.376536686473018 1.4306562964876377
      vertex -1.4414213562373095 1.3 1.4414213562373095
    endloop
  endfacet
  facet normal -0.1914804539553218 0.19148045395532368 0.9626372481397794
    outer loop
      vertex -1.3707106781186549 1.376536686473018 1.4707106781186547
      vertex -1.376536686473018 1.3 1.4847759065022574
      vertex -1.3 1.3 1.5
    endloop
  endfacet
  facet normal -0.1631729517365562 0.5481241919387727 0.8203258243119296
    outer loop
      vertex -1.3707106781186549 1.376536686473018 1.4707106781186547
      vertex -1.3 1.376536686473018 1.4847759065022574
      vertex -1.3 1.4414213562373095 1.4414213562373095
    endloop
  endfacet
  facet normal -0.4646772524742673 0.5481241919387718 0.695438653832554
    outer loop
      vertex -1.3707106781186549 1.376536686473018 1.4707106781186547
      vertex -1.3541196100146198 1.4414213562373095 1.4306562964876377
      vertex -1.4 1.4414213562373095 1.4000000000000001
    endloop
  endfacet
  facet normal -0.46467725247426706 -0.5481241919387708 0.6954386538325545
    outer loop
      vertex -1.3707106781186549 -1.376536686473018 1.4707106781186547
      vertex -1.4306562964876377 -1.376536686473018 1.4306562964876377
      vertex -1.4000000000000001 -1.4414213562373095 1.4000000000000001
    endloop
  endfacet
  facet normal -0.16317295173655452 -0.5481241919387715 0.8203258243119308
    outer loop
      vertex -1.3707106781186549 -1.376536686473018 1.4707106781186547
      vertex -1.3541196100146198 -1.4414213562373095 1.4306562964876377
      vertex -1.3 -1.4414213562373095 1.4414213562373095
    endloop
  endfacet
  facet normal -0.19148045395532381 -0.19148045395532182 0.9626372481397792
    outer loop
      vertex -1.3707106781186549 -1.376536686473018 1.4707106781186547
      vertex -1.3 -1.376536686473018 1.4847759065022574
      vertex -1.3 -1.3 1.5
    endloop
  endfacet
  facet normal -0.5452901985259089 -0.19148045395532295 0.8160844534388817
    outer loop
      vertex -1.3707106781186549 -1.376536686473018 1.4707106781186547
      vertex -1.376536686473018 -1.3 1.4847759065022574
      vertex -1.4414213562373095 -1.3 1.4414213562373095
    endloop
  endfacet
  facet normal -0.5522085656517699 -0.8264385215476807 -0.10984111308111667
    outer loop
      vertex -1.3707106781186549 -1.4847759065022574 -1.3292893218813453
      vertex -1.376536686473018 -1.4847759065022574 -1.3
      vertex -1.4414213562373095 -1.4414213562373095 -1.3
    endloop
  endfacet
  facet normal 0.10984111308111667 -0.8264385215476807 -0.5522085656517699
    outer loop
      vertex 1.3292893218813453 -1.4847759065022574 -1.3707106781186549
      vertex 1.3 -1.4847759065022574 -1.376536686473018
      vertex 1.3 -1.4414213562373095 -1.4414213562373095
    endloop
  endfacet
  facet normal 0.31280102548892613 -0.8264385215476804 -0.46813981731440085
    outer loop
      vertex 1.3292893218813453 -1.4847759065022574 -1.3707106781186549
      vertex 1.3541196100146198 -1.4414213562373095 -1.4306562964876377
      vertex 1.4 -1.4414213562373095 -1.4000000000000001
    endloop
  endfacet
  facet normal 0.46813981731440096 -0.8264385215476803 -0.31280102548892635
    outer loop
      vertex 1.3707106781186549 -1.4847759065022574 -1.3292893218813453
      vertex 1.3541196100146198 -1.4847759065022574 -1.3541196100146198
      vertex 1.4 -1.4414213562373095 -1.4000000000000001
    endloop
  endfacet
  facet normal 0.5522085656517702 -0.8264385215476803 -0.10984111308111817
    outer loop
      vertex 1.3707106781186549 -1.4847759065022574 -1.3292893218813453
      vertex 1.4306562964876377 -1.4414213562373095 -1.3541196100146198
      vertex 1.4414213562373095 -1.4414213562373095 -1.3
    endloop
  endfacet
  facet normal 0.5522085656517699 -0.8264385215476807 0.10984111308111667
    outer loop
      vertex 1.3707106781186549 -1.4847759065022574 1.3292893218813453
      vertex 1.376536686473018 -1.4847759065022574 1.3
      vertex 1.4414213562373095 -1.4414213562373095 1.3
    endloop
  endfacet
  facet normal 0.4681398173144013 -0.8264385215476805 0.3128010254889249
    outer loop
      vertex 1.3707106781186549 -1.4847759065022574 1.3292893218813453
      vertex 1.4306562964876377 -1.4414213562373095 1.3541196100146198
      vertex 1.4000000000000001 -1.4414213562373095 1.4000000000000001
    endloop
  endfacet
  facet normal 0.3128010254889257 -0.8264385215476809 0.46813981731439996
    outer loop
      vertex 1.3292893218813453 -1.4847759065022574 1.3707106781186549
      vertex 1.3541196100146198 -1.4847759065022574 1.3541196100146198
      vertex 1.4000000000000001 -1.4414213562373095 1.4000000000000001
    endloop
  endfacet
  facet normal 0.10984111308111817 -0.8264385215476803 0.5522085656517702
    outer loop
      vertex 1.3292893218813453 -1.4847759065022574 1.3707106781186549
      vertex 1.3541196100146198 -1.4414213562373095 1.4306562964876377
      vertex 1.3 -1.4414213562373095 1.4414213562373095
    endloop
  endfacet
  facet normal 0.5522085656517702 0.8264385215476803 0.10984111308111817
    outer loop
      vertex 1.3707106781186549 1.4847759065022574 1.3292893218813453
      vertex 1.4306562964876377 1.4414213562373095 1.3541196100146198
      vertex 1.4414213562373095 1.4414213562373095 1.3
    endloop
  endfacet
  facet normal -0.10984111308111817 -0.8264385215476803 -0.5522085656517702
    outer loop
      vertex -1.3292893218813453 -1.4847759065022574 -1.3707106781186549
      vertex -1.3541196100146198 -1.4414213562373095 -1.4306562964876377
      vertex -1.3 -1.4414213562373095 -1.4414213562373095
    endloop
  endfacet
  facet normal 0.3128010254889262 0.8264385215476804 0.4681398173144007
    outer loop
      vertex 1.3541196100146198 1.4847759065022574 1.3541196100146198
      vertex 1.3292893218813453 1.4847759065022574 1.3707106781186549
      vertex 1.3541196100146198 1.4414213562373095 1.4306562964876377
    endloop
  endfacet
  facet normal 0.4681398173144008 0.8264385215476805 0.312801025488926
    outer loop
      vertex 1.3541196100146198 1.4847759065022574 1.3541196100146198
      vertex 1.4000000000000001 1.4414213562373095 1.4
      vertex 1.4306562964876377 1.4414213562373095 1.3541196100146198
    endloop
  endfacet
  facet normal -0.4681398173144007 -0.8264385215476804 -0.3128010254889262
    outer loop
      vertex -1.3541196100146198 -1.4847759065022574 -1.3541196100146198
      vertex -1.3707106781186549 -1.4847759065022574 -1.3292893218813453
      vertex -1.4306562964876377 -1.4414213562373095 -1.3541196100146198
    endloop
  endfacet
  facet normal -0.3128010254889246 -0.8264385215476807 -0.4681398173144009
    outer loop
      vertex -1.3541196100146198 -1.4847759065022574 -1.3541196100146198
      vertex -1.4000000000000001 -1.4414213562373095 -1.4000000000000001
      vertex -1.3541196100146198 -1.4414213562373095 -1.4306562964876377
    endloop
  endfacet
endsolid v3d.csg
