solid v3d.csg
  facet normal -0.0 -0.0 -1.0
    outer loop
      vertex 0.0 12.0 0.0
      vertex 0.0 0.0 0.0
      vertex -2.0 12.0 0.0
    endloop
  endfacet
  facet normal -0.0 0.0 -1.0
    outer loop
      vertex 0.0 0.0 0.0
      vertex -2.0 -2.0 0.0
      vertex -2.0 12.0 0.0
    endloop
  endfacet
  facet normal 0.0 0.0 -1.0
    outer loop
      vertex 7.5 -2.0 0.0
      vertex -2.0 -2.0 0.0
      vertex 0.0 0.0 0.0
    endloop
  endfacet
  facet normal -0.0 0.0 -1.0
    outer loop
      vertex 19.0 0.0 0.0
      vertex 7.5 -2.0 0.0
      vertex 0.0 0.0 0.0
    endloop
  endfacet
  facet normal 0.0 0.0 -1.0
    outer loop
      vertex 19.0 0.0 0.0
      vertex 11.5 -2.0 0.0
      vertex 7.5 -2.0 0.0
    endloop
  endfacet
  facet normal 0.0 0.0 -1.0
    outer loop
      vertex 21.0 -2.0 0.0
      vertex 11.5 -2.0 0.0
      vertex 19.0 0.0 0.0
    endloop
  endfacet
  facet normal -0.0 0.0 -1.0
    outer loop
      vertex 11.5 -2.0 0.0
      vertex 8.5 -10.5 0.0
      vertex 7.5 -2.0 0.0
    endloop
  endfacet
  facet normal 0.0 0.0 -1.0
    outer loop
      vertex 21.0 -2.0 0.0
      vertex 19.0 0.0 0.0
      vertex 21.0 12.0 0.0
    endloop
  endfacet
  facet normal 0.0 0.0 -1.0
    outer loop
      vertex 11.5 -2.0 0.0
      vertex 10.5 -10.5 0.0
      vertex 8.5 -10.5 0.0
    endloop
  endfacet
  facet normal 0.0 0.0 -1.0
    outer loop
      vertex 19.0 0.0 0.0
      vertex 19.0 12.0 0.0
      vertex 21.0 12.0 0.0
    endloop
  endfacet
  facet normal -0.0 -0.0 -1.0
    outer loop
      vertex 9.735294117647058 -20.999999999999996 0.0
      vertex 3.552713678800501E-15 -21.0 0.0
      vertex 9.540100250626566 -19.340852130325814 0.0
    endloop
  endfacet
  facet normal -0.0 -0.0 -1.0
    outer loop
      vertex 9.540100250626566 -19.340852130325814 0.0
      vertex 3.552713678800501E-15 -21.0 0.0
      vertex 7.5000000000000036 -18.999999999999996 0.0
    endloop
  endfacet
  facet normal -0.0 -0.0 -1.0
    outer loop
      vertex 9.540100250626566 -19.340852130325814 0.0
      vertex 7.5000000000000036 -18.999999999999996 0.0
      vertex 9.5 -18.999999999999996 0.0
    endloop
  endfacet
  facet normal 0.0 0.0 -1.0
    outer loop
      vertex -1.9999999999999964 -19.0 0.0
      vertex 7.5000000000000036 -18.999999999999996 0.0
      vertex 3.552713678800501E-15 -21.0 0.0
    endloop
  endfacet
  facet normal -0.0 -0.0 -1.0
    outer loop
      vertex 9.499999999999998 -18.999999999999996 0.0
      vertex 7.5000000000000036 -18.999999999999996 0.0
      vertex 9.0 -14.750000000000004 0.0
    endloop
  endfacet
  facet normal 0.0 0.0 -1.0
    outer loop
      vertex -1.9999999999999964 -19.0 0.0
      vertex 3.552713678800501E-15 -21.0 0.0
      vertex -1.9999999999999964 -33.0 0.0
    endloop
  endfacet
  facet normal -0.0 -0.0 -1.0
    outer loop
      vertex 9.0 -14.750000000000005 0.0
      vertex 7.5000000000000036 -18.999999999999996 0.0
      vertex 8.500000000000002 -10.499999999999998 0.0
    endloop
  endfacet
  facet normal 0.0 -0.0 -1.0
    outer loop
      vertex 3.552713678800501E-15 -21.0 0.0
      vertex 3.552713678800501E-15 -33.0 0.0
      vertex -1.9999999999999964 -33.0 0.0
    endloop
  endfacet
  facet normal 0.0 0.0 -1.0
    outer loop
      vertex 19.000000000000004 -33.0 0.0
      vertex 19.000000000000004 -20.999999999999996 0.0
      vertex 21.000000000000004 -33.0 0.0
    endloop
  endfacet
  facet normal 0.0 0.0 -1.0
    outer loop
      vertex 19.000000000000004 -20.999999999999996 0.0
      vertex 21.000000000000004 -18.999999999999996 0.0
      vertex 21.000000000000004 -33.0 0.0
    endloop
  endfacet
  facet normal 0.0 0.0 -1.0
    outer loop
      vertex 11.500000000000004 -18.999999999999996 0.0
      vertex 21.000000000000004 -18.999999999999996 0.0
      vertex 19.000000000000004 -20.999999999999996 0.0
    endloop
  endfacet
  facet normal -0.0 -0.0 -1.0
    outer loop
      vertex 9.735294117647058 -20.999999999999996 0.0
      vertex 9.540100250626566 -19.340852130325814 0.0
      vertex 11.500000000000004 -18.999999999999996 0.0
    endloop
  endfacet
  facet normal -0.0 -0.0 -1.0
    outer loop
      vertex 9.735294117647058 -20.999999999999996 0.0
      vertex 11.500000000000004 -18.999999999999996 0.0
      vertex 19.000000000000004 -20.999999999999996 0.0
    endloop
  endfacet
  facet normal -0.0 -0.0 -1.0
    outer loop
      vertex 9.540100250626566 -19.340852130325814 0.0
      vertex 9.5 -18.999999999999996 0.0
      vertex 11.500000000000004 -18.999999999999996 0.0
    endloop
  endfacet
  facet normal -0.0 -0.0 -1.0
    outer loop
      vertex 9.499999999999998 -18.999999999999996 0.0
      vertex 9.0 -14.750000000000004 0.0
      vertex 10.500000000000002 -10.499999999999998 0.0
    endloop
  endfacet
  facet normal -0.0 -0.0 -1.0
    outer loop
      vertex 9.499999999999998 -18.999999999999996 0.0
      vertex 10.500000000000002 -10.499999999999998 0.0
      vertex 11.500000000000004 -18.999999999999996 0.0
    endloop
  endfacet
  facet normal -0.0 -0.0 -1.0
    outer loop
      vertex 9.0 -14.750000000000005 0.0
      vertex 8.500000000000002 -10.499999999999998 0.0
      vertex 10.500000000000002 -10.499999999999998 0.0
    endloop
  endfacet
  facet normal 0.0 1.0 0.0
    outer loop
      vertex 19.0 12.0 0.0
      vertex 19.0 12.0 10.0
      vertex 21.0 12.0 10.0
    endloop
  endfacet
  facet normal 0.0 1.0 0.0
    outer loop
      vertex 19.0 12.0 0.0
      vertex 21.0 12.0 10.0
      vertex 21.0 12.0 0.0
    endloop
  endfacet
  facet normal 0.0 1.0 0.0
    outer loop
      vertex -2.0 12.0 0.0
      vertex -2.0 12.0 10.0
      vertex 0.0 12.0 10.0
    endloop
  endfacet
  facet normal 0.0 1.0 0.0
    outer loop
      vertex -2.0 12.0 0.0
      vertex 0.0 12.0 10.0
      vertex 0.0 12.0 0.0
    endloop
  endfacet
  facet normal -1.0 0.0 0.0
    outer loop
      vertex -2.0 -2.0 0.0
      vertex -2.0 -2.0 10.0
      vertex -2.0 12.0 10.0
    endloop
  endfacet
  facet normal -1.0 0.0 0.0
    outer loop
      vertex -2.0 -2.0 0.0
      vertex -2.0 12.0 10.0
      vertex -2.0 12.0 0.0
    endloop
  endfacet
  facet normal -1.0 0.0 0.0
    outer loop
      vertex -1.9999999999999964 -33.0 0.0
      vertex -1.9999999999999964 -33.0 10.0
      vertex -1.9999999999999964 -19.0 10.0
    endloop
  endfacet
  facet normal -1.0 0.0 0.0
    outer loop
      vertex -1.9999999999999964 -33.0 0.0
      vertex -1.9999999999999964 -19.0 10.0
      vertex -1.9999999999999964 -19.0 0.0
    endloop
  endfacet
  facet normal 0.0 -1.0 0.0
    outer loop
      vertex 21.0 -2.0 0.0
      vertex 21.0 -2.0 10.0
      vertex 11.5 -2.0 10.0
    endloop
  endfacet
  facet normal 0.0 -1.0 0.0
    outer loop
      vertex 21.0 -2.0 0.0
      vertex 11.5 -2.0 10.0
      vertex 11.5 -2.0 0.0
    endloop
  endfacet
  facet normal 0.0 -1.0 0.0
    outer loop
      vertex 7.5 -2.0 0.0
      vertex 7.5 -2.0 10.0
      vertex -2.0 -2.0 10.0
    endloop
  endfacet
  facet normal 0.0 -1.0 0.0
    outer loop
      vertex 7.5 -2.0 0.0
      vertex -2.0 -2.0 10.0
      vertex -2.0 -2.0 0.0
    endloop
  endfacet
  facet normal -0.9931506043228763 -0.11684124756739721 0.0
    outer loop
      vertex 8.5 -10.5 0.0
      vertex 8.5 -10.5 10.0
      vertex 7.5 -2.0 10.0
    endloop
  endfacet
  facet normal -0.9931506043228763 -0.11684124756739721 0.0
    outer loop
      vertex 8.5 -10.5 0.0
      vertex 7.5 -2.0 10.0
      vertex 7.5 -2.0 0.0
    endloop
  endfacet
  facet normal 0.0 -1.0 0.0
    outer loop
      vertex 3.552713678800501E-15 -33.0 0.0
      vertex 3.552713678800501E-15 -33.0 10.0
      vertex -1.9999999999999964 -33.0 10.0
    endloop
  endfacet
  facet normal 0.0 -1.0 0.0
    outer loop
      vertex 3.552713678800501E-15 -33.0 0.0
      vertex -1.9999999999999964 -33.0 10.0
      vertex -1.9999999999999964 -33.0 0.0
    endloop
  endfacet
  facet normal -3.739698609263685E-16 1.0 0.0
    outer loop
      vertex -1.9999999999999964 -19.0 0.0
      vertex -1.9999999999999964 -19.0 10.0
      vertex 7.5000000000000036 -18.999999999999996 10.0
    endloop
  endfacet
  facet normal -3.739698609263685E-16 1.0 0.0
    outer loop
      vertex -1.9999999999999964 -19.0 0.0
      vertex 7.5000000000000036 -18.999999999999996 10.0
      vertex 7.5000000000000036 -18.999999999999996 0.0
    endloop
  endfacet
  facet normal -0.9931506043228763 0.11684124756739701 0.0
    outer loop
      vertex 7.5000000000000036 -18.999999999999996 0.0
      vertex 7.5000000000000036 -18.999999999999996 10.0
      vertex 8.500000000000002 -10.499999999999998 10.0
    endloop
  endfacet
  facet normal -0.9931506043228763 0.11684124756739701 0.0
    outer loop
      vertex 7.5000000000000036 -18.999999999999996 0.0
      vertex 8.500000000000002 -10.499999999999998 10.0
      vertex 8.500000000000002 -10.499999999999998 0.0
    endloop
  endfacet
  facet normal 0.0 0.0 1.0
    outer loop
      vertex 9.0 -14.750000000000004 10.0
      vertex 7.5000000000000036 -18.999999999999996 10.0
      vertex 9.499999999999998 -18.999999999999996 10.0
    endloop
  endfacet
  facet normal 0.0 0.0 1.0
    outer loop
      vertex 8.500000000000002 -10.499999999999998 10.0
      vertex 7.5000000000000036 -18.999999999999996 10.0
      vertex 9.0 -14.750000000000005 10.0
    endloop
  endfacet
  facet normal 1.0 0.0 -0.0
    outer loop
      vertex 3.552713678800501E-15 -21.0 0.0
      vertex 3.552713678800501E-15 -21.0 10.0
      vertex 3.552713678800501E-15 -33.0 10.0
    endloop
  endfacet
  facet normal 1.0 0.0 -0.0
    outer loop
      vertex 3.552713678800501E-15 -21.0 0.0
      vertex 3.552713678800501E-15 -33.0 10.0
      vertex 3.552713678800501E-15 -33.0 0.0
    endloop
  endfacet
  facet normal 3.649313144387224E-16 -1.0 0.0
    outer loop
      vertex 9.735294117647056 -20.999999999999996 10.0
      vertex 3.552713678800501E-15 -21.0 10.0
      vertex 3.552713678800501E-15 -21.0 0.0
    endloop
  endfacet
  facet normal 3.649313144387224E-16 -1.0 0.0
    outer loop
      vertex 9.735294117647056 -20.999999999999996 10.0
      vertex 3.552713678800501E-15 -21.0 0.0
      vertex 9.735294117647058 -20.999999999999996 0.0
    endloop
  endfacet
  facet normal 0.0 0.0 1.0
    outer loop
      vertex 9.540100250626566 -19.340852130325814 10.0
      vertex 3.552713678800501E-15 -21.0 10.0
      vertex 9.735294117647058 -20.999999999999996 10.0
    endloop
  endfacet
  facet normal 0.0 0.0 1.0
    outer loop
      vertex 9.5 -18.999999999999996 10.0
      vertex 7.5000000000000036 -18.999999999999996 10.0
      vertex 3.552713678800501E-15 -21.0 10.0
    endloop
  endfacet
  facet normal 0.0 0.0 1.0
    outer loop
      vertex 9.5 -18.999999999999996 10.0
      vertex 3.552713678800501E-15 -21.0 10.0
      vertex 9.540100250626566 -19.340852130325814 10.0
    endloop
  endfacet
  facet normal 0.0 0.0 1.0
    outer loop
      vertex 3.552713678800501E-15 -21.0 10.0
      vertex 7.5000000000000036 -18.999999999999996 10.0
      vertex 3.552713678800501E-15 -19.0 10.0
    endloop
  endfacet
  facet normal 0.0 -0.0 1.0
    outer loop
      vertex 3.552713678800501E-15 -21.0 10.0
      vertex 3.552713678800501E-15 -19.0 10.0
      vertex -1.9999999999999964 -19.0 10.0
    endloop
  endfacet
  facet normal 0.0 0.0 1.0
    outer loop
      vertex -1.9999999999999964 -33.0 10.0
      vertex 3.552713678800501E-15 -21.0 10.0
      vertex -1.9999999999999964 -19.0 10.0
    endloop
  endfacet
  facet normal 0.0 0.0 1.0
    outer loop
      vertex -1.9999999999999964 -33.0 10.0
      vertex 3.552713678800501E-15 -33.0 10.0
      vertex 3.552713678800501E-15 -21.0 10.0
    endloop
  endfacet
  facet normal 0.0 -1.0 0.0
    outer loop
      vertex 21.000000000000004 -33.0 0.0
      vertex 21.000000000000004 -33.0 10.0
      vertex 19.000000000000004 -33.0 10.0
    endloop
  endfacet
  facet normal 0.0 -1.0 0.0
    outer loop
      vertex 21.000000000000004 -33.0 0.0
      vertex 19.000000000000004 -33.0 10.0
      vertex 19.000000000000004 -33.0 0.0
    endloop
  endfacet
  facet normal 1.0 0.0 -0.0
    outer loop
      vertex 21.000000000000004 -18.999999999999996 0.0
      vertex 21.000000000000004 -18.999999999999996 10.0
      vertex 21.000000000000004 -33.0 10.0
    endloop
  endfacet
  facet normal 1.0 0.0 -0.0
    outer loop
      vertex 21.000000000000004 -18.999999999999996 0.0
      vertex 21.000000000000004 -33.0 10.0
      vertex 21.000000000000004 -33.0 0.0
    endloop
  endfacet
  facet normal 0.0 1.0 0.0
    outer loop
      vertex 11.500000000000004 -18.999999999999996 0.0
      vertex 11.500000000000004 -18.999999999999996 10.0
      vertex 21.000000000000004 -18.999999999999996 10.0
    endloop
  endfacet
  facet normal 0.0 1.0 0.0
    outer loop
      vertex 11.500000000000004 -18.999999999999996 0.0
      vertex 21.000000000000004 -18.999999999999996 10.0
      vertex 21.000000000000004 -18.999999999999996 0.0
    endloop
  endfacet
  facet normal 0.9931506043228763 0.11684124756739743 -0.0
    outer loop
      vertex 10.500000000000002 -10.499999999999998 0.0
      vertex 10.500000000000002 -10.499999999999998 10.0
      vertex 11.500000000000004 -18.999999999999996 10.0
    endloop
  endfacet
  facet normal 0.9931506043228763 0.11684124756739743 -0.0
    outer loop
      vertex 10.500000000000002 -10.499999999999998 0.0
      vertex 11.500000000000004 -18.999999999999996 10.0
      vertex 11.500000000000004 -18.999999999999996 0.0
    endloop
  endfacet
  facet normal 0.0 0.0 1.0
    outer loop
      vertex 11.500000000000004 -18.999999999999996 10.0
      vertex 10.500000000000002 -10.499999999999998 10.0
      vertex 9.0 -14.750000000000004 10.0
    endloop
  endfacet
  facet normal 0.0 0.0 1.0
    outer loop
      vertex 11.500000000000004 -18.999999999999996 10.0
      vertex 9.0 -14.750000000000004 10.0
      vertex 9.499999999999998 -18.999999999999996 10.0
    endloop
  endfacet
  facet normal 0.0 0.0 1.0
    outer loop
      vertex 10.500000000000002 -10.499999999999998 10.0
      vertex 8.500000000000002 -10.499999999999998 10.0
      vertex 9.0 -14.750000000000005 10.0
    endloop
  endfacet
  facet normal 0.0 -1.0 0.0
    outer loop
      vertex 19.000000000000004 -20.999999999999996 0.0
      vertex 19.000000000000004 -20.999999999999996 10.0
      vertex 9.735294117647056 -20.999999999999996 10.0
    endloop
  endfacet
  facet normal 0.0 -1.0 0.0
    outer loop
      vertex 19.000000000000004 -20.999999999999996 0.0
      vertex 9.735294117647056 -20.999999999999996 10.0
      vertex 9.735294117647058 -20.999999999999996 0.0
    endloop
  endfacet
  facet normal -1.0 0.0 0.0
    outer loop
      vertex 19.000000000000004 -33.0 0.0
      vertex 19.000000000000004 -33.0 10.0
      vertex 19.000000000000004 -20.999999999999996 10.0
    endloop
  endfacet
  facet normal -1.0 0.0 0.0
    outer loop
      vertex 19.000000000000004 -33.0 0.0
      vertex 19.000000000000004 -20.999999999999996 10.0
      vertex 19.000000000000004 -20.999999999999996 0.0
    endloop
  endfacet
  facet normal 0.0 0.0 1.0
    outer loop
      vertex 21.000000000000004 -33.0 10.0
      vertex 19.000000000000004 -20.999999999999996 10.0
      vertex 19.000000000000004 -33.0 10.0
    endloop
  endfacet
  facet normal 0.0 -0.0 1.0
    outer loop
      vertex 21.000000000000004 -33.0 10.0
      vertex 21.000000000000004 -20.999999999999993 10.0
      vertex 19.000000000000004 -20.999999999999996 10.0
    endloop
  endfacet
  facet normal 0.0 -0.0 1.0
    outer loop
      vertex 21.000000000000004 -20.999999999999993 10.0
      vertex 21.000000000000004 -18.999999999999996 10.0
      vertex 19.000000000000004 -20.999999999999996 10.0
    endloop
  endfacet
  facet normal 0.0 -0.0 1.0
    outer loop
      vertex 19.000000000000004 -20.999999999999996 10.0
      vertex 21.000000000000004 -18.999999999999996 10.0
      vertex 11.500000000000004 -18.999999999999996 10.0
    endloop
  endfacet
  facet normal 0.0 0.0 1.0
    outer loop
      vertex 19.000000000000004 -20.999999999999996 10.0
      vertex 11.500000000000004 -18.999999999999996 10.0
      vertex 9.540100250626566 -19.340852130325814 10.0
    endloop
  endfacet
  facet normal 0.0 0.0 1.0
    outer loop
      vertex 19.000000000000004 -20.999999999999996 10.0
      vertex 9.540100250626566 -19.340852130325814 10.0
      vertex 9.735294117647058 -20.999999999999996 10.0
    endloop
  endfacet
  facet normal 0.0 0.0 1.0
    outer loop
      vertex 11.500000000000004 -18.999999999999996 10.0
      vertex 9.5 -18.999999999999996 10.0
      vertex 9.540100250626566 -19.340852130325814 10.0
    endloop
  endfacet
  facet normal 0.9931506043228763 -0.11684124756739721 0.0
    outer loop
      vertex 11.5 -2.0 0.0
      vertex 11.5 -2.0 10.0
      vertex 10.5 -10.5 10.0
    endloop
  endfacet
  facet normal 0.9931506043228763 -0.11684124756739721 0.0
    outer loop
      vertex 11.5 -2.0 0.0
      vertex 10.5 -10.5 10.0
      vertex 10.5 -10.5 0.0
    endloop
  endfacet
  facet normal 0.0 -0.0 1.0
    outer loop
      vertex 10.0 -6.249999999999999 10.0
      vertex 11.5 -2.0 10.0
      vertex 9.5 -2.0 10.0
    endloop
  endfacet
  facet normal 0.0 -0.0 1.0
    outer loop
      vertex 10.5 -10.5 10.0
      vertex 11.5 -2.0 10.0
      vertex 10.0 -6.249999999999997 10.0
    endloop
  endfacet
  facet normal 0.0 0.0 1.0
    outer loop
      vertex 7.5 -2.0 10.0
      vertex 8.5 -10.5 10.0
      vertex 10.0 -6.249999999999999 10.0
    endloop
  endfacet
  facet normal 0.0 0.0 1.0
    outer loop
      vertex 7.5 -2.0 10.0
      vertex 10.0 -6.249999999999999 10.0
      vertex 9.5 -2.0 10.0
    endloop
  endfacet
  facet normal 0.0 0.0 1.0
    outer loop
      vertex 8.5 -10.5 10.0
      vertex 10.5 -10.5 10.0
      vertex 10.0 -6.249999999999997 10.0
    endloop
  endfacet
  facet normal 1.0 0.0 -0.0
    outer loop
      vertex 21.0 12.0 0.0
      vertex 21.0 12.0 10.0
      vertex 21.0 -2.0 10.0
    endloop
  endfacet
  facet normal 1.0 0.0 -0.0
    outer loop
      vertex 21.0 12.0 0.0
      vertex 21.0 -2.0 10.0
      vertex 21.0 -2.0 0.0
    endloop
  endfacet
  facet normal -1.0 0.0 0.0
    outer loop
      vertex 19.0 0.0 0.0
      vertex 19.0 0.0 10.0
      vertex 19.0 12.0 10.0
    endloop
  endfacet
  facet normal -1.0 0.0 0.0
    outer loop
      vertex 19.0 0.0 0.0
      vertex 19.0 12.0 10.0
      vertex 19.0 12.0 0.0
    endloop
  endfacet
  facet normal -0.0 1.0 0.0
    outer loop
      vertex 9.26470588235294 0.0 10.0
      vertex 19.0 0.0 10.0
      vertex 19.0 0.0 0.0
    endloop
  endfacet
  facet normal -0.0 1.0 0.0
    outer loop
      vertex 9.26470588235294 0.0 10.0
      vertex 19.0 0.0 0.0
      vertex 9.26470588235294 0.0 0.0
    endloop
  endfacet
  facet normal 0.0 1.0 0.0
    outer loop
      vertex 0.0 0.0 0.0
      vertex 0.0 0.0 10.0
      vertex 9.26470588235294 0.0 10.0
    endloop
  endfacet
  facet normal 0.0 1.0 0.0
    outer loop
      vertex 0.0 0.0 0.0
      vertex 9.26470588235294 0.0 10.0
      vertex 9.26470588235294 0.0 0.0
    endloop
  endfacet
  facet normal 1.0 0.0 -0.0
    outer loop
      vertex 0.0 12.0 0.0
      vertex 0.0 12.0 10.0
      vertex 0.0 0.0 10.0
    endloop
  endfacet
  facet normal 1.0 0.0 -0.0
    outer loop
      vertex 0.0 12.0 0.0
      vertex 0.0 0.0 10.0
      vertex 0.0 0.0 0.0
    endloop
  endfacet
  facet normal -0.0 0.0 1.0
    outer loop
      vertex -2.0 12.0 10.0
      vertex 0.0 0.0 10.0
      vertex 0.0 12.0 10.0
    endloop
  endfacet
  facet normal 0.0 0.0 1.0
    outer loop
      vertex -2.0 12.0 10.0
      vertex -2.0 0.0 10.0
      vertex 0.0 0.0 10.0
    endloop
  endfacet
  facet normal 0.0 -0.0 1.0
    outer loop
      vertex 9.459899749373433 -1.6591478696741857 10.0
      vertex 19.0 0.0 10.0
      vertex 9.26470588235294 0.0 10.0
    endloop
  endfacet
  facet normal 0.0 0.0 1.0
    outer loop
      vertex 9.499999999999998 -2.0 10.0
      vertex 11.5 -2.0 10.0
      vertex 19.0 0.0 10.0
    endloop
  endfacet
  facet normal 0.0 0.0 1.0
    outer loop
      vertex 9.499999999999998 -2.0 10.0
      vertex 19.0 0.0 10.0
      vertex 9.459899749373433 -1.6591478696741855 10.0
    endloop
  endfacet
  facet normal 0.0 0.0 1.0
    outer loop
      vertex 19.0 0.0 10.0
      vertex 11.5 -2.0 10.0
      vertex 19.0 -2.0 10.0
    endloop
  endfacet
  facet normal -0.0 0.0 1.0
    outer loop
      vertex -2.0 0.0 10.0
      vertex -2.0 -2.0 10.0
      vertex 0.0 0.0 10.0
    endloop
  endfacet
  facet normal 0.0 0.0 1.0
    outer loop
      vertex 0.0 0.0 10.0
      vertex -2.0 -2.0 10.0
      vertex 7.5 -2.0 10.0
    endloop
  endfacet
  facet normal 0.0 0.0 1.0
    outer loop
      vertex 0.0 0.0 10.0
      vertex 7.5 -2.0 10.0
      vertex 9.459899749373433 -1.6591478696741857 10.0
    endloop
  endfacet
  facet normal 0.0 0.0 1.0
    outer loop
      vertex 0.0 0.0 10.0
      vertex 9.459899749373433 -1.6591478696741857 10.0
      vertex 9.26470588235294 0.0 10.0
    endloop
  endfacet
  facet normal 0.0 0.0 1.0
    outer loop
      vertex 7.5 -2.0 10.0
      vertex 9.499999999999998 -2.0 10.0
      vertex 9.459899749373433 -1.6591478696741855 10.0
    endloop
  endfacet
  facet normal 0.0 0.0 1.0
    outer loop
      vertex 19.0 0.0 10.0
      vertex 19.0 -2.0 10.0
      vertex 21.0 -2.0 10.0
    endloop
  endfacet
  facet normal 0.0 0.0 1.0
    outer loop
      vertex 21.0 12.0 10.0
      vertex 19.0 0.0 10.0
      vertex 21.0 -2.0 10.0
    endloop
  endfacet
  facet normal 0.0 0.0 1.0
    outer loop
      vertex 21.0 12.0 10.0
      vertex 19.0 12.0 10.0
      vertex 19.0 0.0 10.0
    endloop
  endfacet
endsolid v3d.csg
