solid v3d.csg
  facet normal 0.0 0.0 -1.0
    outer loop
      vertex 42.0 -2.0 0.0
      vertex 10.0 -2.0 0.0
      vertex 10.0 -0.47619047619047616 0.0
    endloop
  endfacet
  facet normal 0.0 0.0 -1.0
    outer loop
      vertex 42.0 -2.0 0.0
      vertex 10.0 -0.4761904761904763 0.0
      vertex 10.0 0.0 0.0
    endloop
  endfacet
  facet normal 0.0 0.0 -1.0
    outer loop
      vertex 42.0 -2.0 0.0
      vertex 10.0 0.0 0.0
      vertex 40.0 0.0 0.0
    endloop
  endfacet
  facet normal 0.0 0.0 -1.0
    outer loop
      vertex 42.0 -2.0 0.0
      vertex 40.0 0.0 0.0
      vertex 40.0 19.0 0.0
    endloop
  endfacet
  facet normal 0.0 -0.0 -1.0
    outer loop
      vertex 42.0 21.0 0.0
      vertex 42.0 -2.0 0.0
      vertex 40.0 19.0 0.0
    endloop
  endfacet
  facet normal 0.0 0.0 -1.0
    outer loop
      vertex 42.0 21.0 0.0
      vertex 40.0 19.0 0.0
      vertex 37.0 19.0 0.0
    endloop
  endfacet
  facet normal 0.0 0.0 -1.0
    outer loop
      vertex 3.0 19.0 0.0
      vertex 0.0 19.0 0.0
      vertex -2.0 21.0 0.0
    endloop
  endfacet
  facet normal -0.0 0.0 -1.0
    outer loop
      vertex 0.0 19.0 0.0
      vertex -2.0 -2.0 0.0
      vertex -2.0 21.0 0.0
    endloop
  endfacet
  facet normal 0.0 -0.0 -1.0
    outer loop
      vertex 0.0 19.0 0.0
      vertex 0.0 0.0 0.0
      vertex -2.0 -2.0 0.0
    endloop
  endfacet
  facet normal 0.0 0.0 -1.0
    outer loop
      vertex 10.0 -2.0 0.0
      vertex -2.0 -2.0 0.0
      vertex 0.0 0.0 0.0
    endloop
  endfacet
  facet normal 0.0 0.0 -1.0
    outer loop
      vertex 10.0 -2.0 0.0
      vertex 0.0 0.0 0.0
      vertex 10.0 -0.47619047619047616 0.0
    endloop
  endfacet
  facet normal 0.0 0.0 -1.0
    outer loop
      vertex 10.0 -0.4761904761904763 0.0
      vertex 0.0 0.0 0.0
      vertex 10.0 0.0 0.0
    endloop
  endfacet
  facet normal -3.700743415417188E-17 0.0 -1.0
    outer loop
      vertex 10.0 -6.0 -4.440892098500626E-16
      vertex -2.0 -6.0 0.0
      vertex -2.0 -2.0 0.0
    endloop
  endfacet
  facet normal -3.700743415417188E-17 0.0 -1.0
    outer loop
      vertex 10.0 -6.0 -4.440892098500626E-16
      vertex -2.0 -2.0 0.0
      vertex 10.0 -2.0 -6.661338147750939E-16
    endloop
  endfacet
  facet normal -3.700743415417188E-17 0.0 -1.0
    outer loop
      vertex 42.0 -6.0 -4.440892098500626E-16
      vertex 30.0 -6.0 0.0
      vertex 30.0 -2.0 0.0
    endloop
  endfacet
  facet normal -3.700743415417188E-17 0.0 -1.0
    outer loop
      vertex 42.0 -6.0 -4.440892098500626E-16
      vertex 30.0 -2.0 0.0
      vertex 42.0 -2.0 -6.661338147750939E-16
    endloop
  endfacet
  facet normal 0.0 -1.0 0.0
    outer loop
      vertex 40.0 19.0 0.0
      vertex 40.0 19.0 20.0
      vertex 37.0 19.0 20.0
    endloop
  endfacet
  facet normal 0.0 -1.0 0.0
    outer loop
      vertex 40.0 19.0 0.0
      vertex 37.0 19.0 20.0
      vertex 37.0 19.0 0.0
    endloop
  endfacet
  facet normal 0.0 -1.0 0.0
    outer loop
      vertex 3.0 19.0 0.0
      vertex 3.0 19.0 20.0
      vertex 0.0 19.0 20.0
    endloop
  endfacet
  facet normal 0.0 -1.0 0.0
    outer loop
      vertex 3.0 19.0 0.0
      vertex 0.0 19.0 20.0
      vertex 0.0 19.0 0.0
    endloop
  endfacet
  facet normal -1.0 0.0 0.0
    outer loop
      vertex -2.0 -2.0 0.0
      vertex -2.0 -2.0 20.0
      vertex -2.0 19.0 20.0
    endloop
  endfacet
  facet normal -1.0 0.0 0.0
    outer loop
      vertex -2.0 -2.0 0.0
      vertex -2.0 19.0 20.0
      vertex -2.0 19.0 0.0
    endloop
  endfacet
  facet normal -1.0 0.0 0.0
    outer loop
      vertex -2.0 -4.0 2.0
      vertex -2.0 -1.9999999999999998 2.0
      vertex -2.0 -2.0 0.0
    endloop
  endfacet
  facet normal -1.0 0.0 0.0
    outer loop
      vertex -2.0 -4.0 2.0
      vertex -2.0 -2.0 0.0
      vertex -2.0 -4.0 0.0
    endloop
  endfacet
  facet normal -1.0 0.0 0.0
    outer loop
      vertex -2.0 -6.0 0.0
      vertex -2.0 -4.0 2.0
      vertex -2.0 -4.0 0.0
    endloop
  endfacet
  facet normal -1.0 0.0 -0.0
    outer loop
      vertex -2.0 -5.33884297520661 8.493388429752057
      vertex -2.0 -4.0 2.0
      vertex -2.0 -6.0 0.0
    endloop
  endfacet
  facet normal -1.0 0.0 -0.0
    outer loop
      vertex -2.0 -5.33884297520661 8.493388429752057
      vertex -2.0 -6.0 0.0
      vertex -2.0 -6.0 7.699999999999988
    endloop
  endfacet
  facet normal -1.0 0.0 0.0
    outer loop
      vertex -2.0 -3.9999999999999982 10.1
      vertex -2.0 -4.0 2.0
      vertex -2.0 -5.33884297520661 8.49338842975206
    endloop
  endfacet
  facet normal -1.0 0.0 0.0
    outer loop
      vertex -2.0 -6.0 11.7
      vertex -2.0 -5.33884297520661 8.493388429752057
      vertex -2.0 -6.0 7.699999999999988
    endloop
  endfacet
  facet normal -1.0 0.0 0.0
    outer loop
      vertex -2.0 -6.0 11.7
      vertex -2.0 -3.9999999999999982 10.1
      vertex -2.0 -5.33884297520661 8.49338842975206
    endloop
  endfacet
  facet normal -1.0 -0.0 0.0
    outer loop
      vertex -2.0 -3.5 10.7
      vertex -2.0 -3.9999999999999982 10.1
      vertex -2.0 -6.0 11.7
    endloop
  endfacet
  facet normal 0.0 -1.0 0.0
    outer loop
      vertex 42.0 -2.0 10.1
      vertex 42.0 -2.0 20.0
      vertex 10.0 -2.0 20.0
    endloop
  endfacet
  facet normal 0.0 -1.0 0.0
    outer loop
      vertex 42.0 -2.0 10.1
      vertex 10.0 -2.0 20.0
      vertex 10.0 -2.0 10.099999999999998
    endloop
  endfacet
  facet normal -0.0 -1.0 0.0
    outer loop
      vertex 10.0 -2.0 20.0
      vertex -2.0 -2.0 20.0
      vertex -2.0 -2.0 10.099999999999998
    endloop
  endfacet
  facet normal -0.0 -1.0 0.0
    outer loop
      vertex 10.0 -2.0 20.0
      vertex -2.0 -2.0 10.099999999999998
      vertex 10.0 -2.0 10.1
    endloop
  endfacet
  facet normal 0.0 -1.0 0.0
    outer loop
      vertex 42.0 -2.0 1.9999999999999996
      vertex 42.0 -2.0 10.1
      vertex 10.0 -2.0 10.099999999999998
    endloop
  endfacet
  facet normal 0.0 -1.0 0.0
    outer loop
      vertex 42.0 -2.0 1.9999999999999996
      vertex 10.0 -2.0 10.099999999999998
      vertex 10.0 -2.0 2.0000000000000018
    endloop
  endfacet
  facet normal 0.0 -1.0 0.0
    outer loop
      vertex -2.0 -2.0 10.099999999999998
      vertex -2.0 -2.0 2.0
      vertex 10.0 -2.0 1.9999999999999996
    endloop
  endfacet
  facet normal 0.0 -1.0 0.0
    outer loop
      vertex -2.0 -2.0 10.099999999999998
      vertex 10.0 -2.0 1.9999999999999996
      vertex 10.0 -2.0 10.1
    endloop
  endfacet
  facet normal -0.0 -1.0 0.0
    outer loop
      vertex 30.0 -2.0 2.0000000000000004
      vertex 10.0 -2.0 2.0000000000000018
      vertex 10.0 -2.0 0.0
    endloop
  endfacet
  facet normal -0.0 -1.0 0.0
    outer loop
      vertex 30.0 -2.0 2.0000000000000004
      vertex 10.0 -2.0 0.0
      vertex 30.0 -2.0 0.0
    endloop
  endfacet
  facet normal 1.0 0.0 -0.0
    outer loop
      vertex 10.0 -2.0 -6.661338147750939E-16
      vertex 10.0 -1.9999999999999998 1.9999999999999993
      vertex 10.0 -4.0 1.9999999999999996
    endloop
  endfacet
  facet normal 1.0 0.0 0.0
    outer loop
      vertex 10.0 -2.0 -6.661338147750939E-16
      vertex 10.0 -4.0 1.9999999999999996
      vertex 10.0 -4.0 -5.551115123125783E-16
    endloop
  endfacet
  facet normal 1.0 0.0 0.0
    outer loop
      vertex 10.0 -4.0 1.9999999999999996
      vertex 10.0 -6.0 -4.440892098500626E-16
      vertex 10.0 -4.0 -5.551115123125783E-16
    endloop
  endfacet
  facet normal 1.0 0.0 0.0
    outer loop
      vertex 10.0 -6.0 -4.440892098500626E-16
      vertex 10.0 -4.0 1.9999999999999996
      vertex 10.0 -5.33884297520661 8.493388429752057
    endloop
  endfacet
  facet normal 1.0 0.0 0.0
    outer loop
      vertex 10.0 -6.0 -4.440892098500626E-16
      vertex 10.0 -5.33884297520661 8.493388429752057
      vertex 10.0 -6.0 7.699999999999988
    endloop
  endfacet
  facet normal 1.0 0.0 -0.0
    outer loop
      vertex 10.0 -4.0 1.9999999999999996
      vertex 10.0 -3.9999999999999982 10.1
      vertex 10.0 -5.33884297520661 8.493388429752057
    endloop
  endfacet
  facet normal 1.0 0.0 0.0
    outer loop
      vertex 10.0 -5.33884297520661 8.493388429752057
      vertex 10.0 -6.0 11.7
      vertex 10.0 -6.0 7.699999999999988
    endloop
  endfacet
  facet normal 1.0 0.0 0.0
    outer loop
      vertex 10.0 -3.9999999999999982 10.1
      vertex 10.0 -6.0 11.7
      vertex 10.0 -5.33884297520661 8.493388429752057
    endloop
  endfacet
  facet normal 1.0 0.0 0.0
    outer loop
      vertex 10.0 -6.0 11.7
      vertex 10.0 -3.9999999999999982 10.1
      vertex 10.0 -3.5 10.7
    endloop
  endfacet
  facet normal 1.0 0.0 -0.0
    outer loop
      vertex 42.0 -2.0 -6.661338147750939E-16
      vertex 42.0 -1.9999999999999998 1.9999999999999993
      vertex 42.0 -4.0 1.9999999999999996
    endloop
  endfacet
  facet normal 1.0 0.0 0.0
    outer loop
      vertex 42.0 -2.0 -6.661338147750939E-16
      vertex 42.0 -4.0 1.9999999999999996
      vertex 42.0 -6.0 -4.440892098500626E-16
    endloop
  endfacet
  facet normal 1.0 0.0 0.0
    outer loop
      vertex 42.0 -6.0 -4.440892098500626E-16
      vertex 42.0 -4.0 1.9999999999999996
      vertex 42.0 -6.0 11.7
    endloop
  endfacet
  facet normal 1.0 0.0 -0.0
    outer loop
      vertex 42.0 -4.0 1.9999999999999996
      vertex 42.0 -3.9999999999999982 10.1
      vertex 42.0 -6.0 11.7
    endloop
  endfacet
  facet normal 1.0 0.0 0.0
    outer loop
      vertex 42.0 -6.0 11.7
      vertex 42.0 -3.9999999999999982 10.1
      vertex 42.0 -3.5 10.7
    endloop
  endfacet
  facet normal -0.0 -1.0 0.0
    outer loop
      vertex 42.0 -6.0 11.7
      vertex 30.0 -6.0 11.7
      vertex 30.0 -6.0 0.0
    endloop
  endfacet
  facet normal -0.0 -1.0 0.0
    outer loop
      vertex 42.0 -6.0 11.7
      vertex 30.0 -6.0 0.0
      vertex 42.0 -6.0 -4.440892098500626E-16
    endloop
  endfacet
  facet normal 0.0 0.3713906763541038 0.9284766908852594
    outer loop
      vertex 42.0 -3.5 10.7
      vertex 30.0 -3.5 10.7
      vertex 30.0 -6.0 11.7
    endloop
  endfacet
  facet normal 0.0 0.3713906763541038 0.9284766908852594
    outer loop
      vertex 42.0 -3.5 10.7
      vertex 30.0 -6.0 11.7
      vertex 42.0 -6.0 11.7
    endloop
  endfacet
  facet normal 0.0 0.7682212795973767 -0.6401843996644788
    outer loop
      vertex 42.0 -3.9999999999999982 10.1
      vertex 30.0 -3.9999999999999982 10.1
      vertex 30.0 -3.5 10.7
    endloop
  endfacet
  facet normal 0.0 0.7682212795973767 -0.6401843996644788
    outer loop
      vertex 42.0 -3.9999999999999982 10.1
      vertex 30.0 -3.5 10.7
      vertex 42.0 -3.5 10.7
    endloop
  endfacet
  facet normal -8.115852934372551E-33 1.0 -2.193033135062038E-16
    outer loop
      vertex 42.0 -4.0 1.9999999999999996
      vertex 30.0 -4.0 2.0
      vertex 30.0 -3.9999999999999982 10.1
    endloop
  endfacet
  facet normal -8.115852934372551E-33 1.0 -2.193033135062038E-16
    outer loop
      vertex 42.0 -4.0 1.9999999999999996
      vertex 30.0 -3.9999999999999982 10.1
      vertex 42.0 -3.9999999999999982 10.1
    endloop
  endfacet
  facet normal 5.551115123125783E-17 0.0 1.0
    outer loop
      vertex 42.0 -1.9999999999999998 1.9999999999999993
      vertex 30.0 -1.9999999999999998 2.0
      vertex 30.0 -4.0 2.0
    endloop
  endfacet
  facet normal 5.551115123125783E-17 0.0 1.0
    outer loop
      vertex 42.0 -1.9999999999999998 1.9999999999999993
      vertex 30.0 -4.0 2.0
      vertex 42.0 -4.0 1.9999999999999996
    endloop
  endfacet
  facet normal -1.0 0.0 0.0
    outer loop
      vertex 30.0 -4.0 2.0
      vertex 30.0 -1.9999999999999998 2.0
      vertex 30.0 -2.0 0.0
    endloop
  endfacet
  facet normal -1.0 0.0 0.0
    outer loop
      vertex 30.0 -4.0 2.0
      vertex 30.0 -2.0 0.0
      vertex 30.0 -4.0 0.0
    endloop
  endfacet
  facet normal -1.0 0.0 0.0
    outer loop
      vertex 30.0 -6.0 0.0
      vertex 30.0 -4.0 2.0
      vertex 30.0 -4.0 0.0
    endloop
  endfacet
  facet normal -1.0 0.0 -0.0
    outer loop
      vertex 30.0 -5.33884297520661 8.493388429752057
      vertex 30.0 -4.0 2.0
      vertex 30.0 -6.0 0.0
    endloop
  endfacet
  facet normal -1.0 0.0 -0.0
    outer loop
      vertex 30.0 -5.33884297520661 8.493388429752057
      vertex 30.0 -6.0 0.0
      vertex 30.0 -6.0 7.699999999999988
    endloop
  endfacet
  facet normal -1.0 0.0 0.0
    outer loop
      vertex 30.0 -3.9999999999999982 10.1
      vertex 30.0 -4.0 2.0
      vertex 30.0 -5.33884297520661 8.49338842975206
    endloop
  endfacet
  facet normal -1.0 0.0 0.0
    outer loop
      vertex 30.0 -6.0 11.7
      vertex 30.0 -5.33884297520661 8.493388429752057
      vertex 30.0 -6.0 7.699999999999988
    endloop
  endfacet
  facet normal -1.0 0.0 0.0
    outer loop
      vertex 30.0 -6.0 11.7
      vertex 30.0 -3.9999999999999982 10.1
      vertex 30.0 -5.33884297520661 8.49338842975206
    endloop
  endfacet
  facet normal -1.0 -0.0 0.0
    outer loop
      vertex 30.0 -3.5 10.7
      vertex 30.0 -3.9999999999999982 10.1
      vertex 30.0 -6.0 11.7
    endloop
  endfacet
  facet normal -0.0 -1.0 0.0
    outer loop
      vertex 10.0 -6.0 11.7
      vertex -2.0 -6.0 11.7
      vertex -2.0 -6.0 0.0
    endloop
  endfacet
  facet normal -0.0 -1.0 0.0
    outer loop
      vertex 10.0 -6.0 11.7
      vertex -2.0 -6.0 0.0
      vertex 10.0 -6.0 -4.440892098500626E-16
    endloop
  endfacet
  facet normal 0.0 0.3713906763541038 0.9284766908852594
    outer loop
      vertex 10.0 -3.5 10.7
      vertex -2.0 -3.5 10.7
      vertex -2.0 -6.0 11.7
    endloop
  endfacet
  facet normal 0.0 0.3713906763541038 0.9284766908852594
    outer loop
      vertex 10.0 -3.5 10.7
      vertex -2.0 -6.0 11.7
      vertex 10.0 -6.0 11.7
    endloop
  endfacet
  facet normal 0.0 0.7682212795973767 -0.6401843996644788
    outer loop
      vertex 10.0 -3.9999999999999982 10.1
      vertex -2.0 -3.9999999999999982 10.1
      vertex -2.0 -3.5 10.7
    endloop
  endfacet
  facet normal 0.0 0.7682212795973767 -0.6401843996644788
    outer loop
      vertex 10.0 -3.9999999999999982 10.1
      vertex -2.0 -3.5 10.7
      vertex 10.0 -3.5 10.7
    endloop
  endfacet
  facet normal -8.115852934372551E-33 1.0 -2.193033135062038E-16
    outer loop
      vertex 10.0 -4.0 1.9999999999999996
      vertex -2.0 -4.0 2.0
      vertex -2.0 -3.9999999999999982 10.1
    endloop
  endfacet
  facet normal -8.115852934372551E-33 1.0 -2.193033135062038E-16
    outer loop
      vertex 10.0 -4.0 1.9999999999999996
      vertex -2.0 -3.9999999999999982 10.1
      vertex 10.0 -3.9999999999999982 10.1
    endloop
  endfacet
  facet normal 5.551115123125783E-17 0.0 1.0
    outer loop
      vertex 10.0 -1.9999999999999998 1.9999999999999993
      vertex -2.0 -1.9999999999999998 2.0
      vertex -2.0 -4.0 2.0
    endloop
  endfacet
  facet normal 5.551115123125783E-17 0.0 1.0
    outer loop
      vertex 10.0 -1.9999999999999998 1.9999999999999993
      vertex -2.0 -4.0 2.0
      vertex 10.0 -4.0 1.9999999999999996
    endloop
  endfacet
  facet normal 1.0 0.0 0.0
    outer loop
      vertex 42.0 19.0 20.0
      vertex 42.0 -2.0 20.0
      vertex 42.0 -2.0 0.0
    endloop
  endfacet
  facet normal 1.0 0.0 0.0
    outer loop
      vertex 42.0 19.0 20.0
      vertex 42.0 -2.0 0.0
      vertex 42.0 19.0 0.0
    endloop
  endfacet
  facet normal -1.0 0.0 0.0
    outer loop
      vertex 40.0 0.0 0.0
      vertex 40.0 0.0 20.0
      vertex 40.0 19.0 20.0
    endloop
  endfacet
  facet normal -1.0 0.0 0.0
    outer loop
      vertex 40.0 0.0 0.0
      vertex 40.0 19.0 20.0
      vertex 40.0 19.0 0.0
    endloop
  endfacet
  facet normal -0.0 1.0 0.0
    outer loop
      vertex 10.0 0.0 20.0
      vertex 40.0 0.0 20.0
      vertex 40.0 0.0 0.0
    endloop
  endfacet
  facet normal -0.0 1.0 0.0
    outer loop
      vertex 10.0 0.0 20.0
      vertex 40.0 0.0 0.0
      vertex 10.0 0.0 0.0
    endloop
  endfacet
  facet normal 0.0 1.0 0.0
    outer loop
      vertex 0.0 0.0 0.0
      vertex 0.0 0.0 20.0
      vertex 10.0 0.0 20.0
    endloop
  endfacet
  facet normal 0.0 1.0 0.0
    outer loop
      vertex 0.0 0.0 0.0
      vertex 10.0 0.0 20.0
      vertex 10.0 0.0 0.0
    endloop
  endfacet
  facet normal 1.0 0.0 -0.0
    outer loop
      vertex 0.0 19.0 0.0
      vertex 0.0 19.0 20.0
      vertex 0.0 0.0 20.0
    endloop
  endfacet
  facet normal 1.0 0.0 -0.0
    outer loop
      vertex 0.0 19.0 0.0
      vertex 0.0 0.0 20.0
      vertex 0.0 0.0 0.0
    endloop
  endfacet
  facet normal 0.0 0.0 1.0
    outer loop
      vertex -2.0 19.0 20.0
      vertex -2.0 0.0 20.0
      vertex -1.8095238095238095 0.0 20.0
    endloop
  endfacet
  facet normal 0.0 0.0 1.0
    outer loop
      vertex -2.0 19.0 20.0
      vertex -1.8095238095238095 0.0 20.0
      vertex 0.0 19.0 20.0
    endloop
  endfacet
  facet normal 0.0 -0.0 1.0
    outer loop
      vertex 0.0 0.0 20.0
      vertex 0.0 19.0 20.0
      vertex -1.8095238095238095 0.0 20.0
    endloop
  endfacet
  facet normal 0.0 0.0 1.0
    outer loop
      vertex 10.0 -2.0 20.0
      vertex 40.0 -2.0 20.0
      vertex 40.0 -1.9047619047619047 20.0
    endloop
  endfacet
  facet normal 0.0 0.0 1.0
    outer loop
      vertex 10.0 -2.0 20.0
      vertex 40.0 -1.9047619047619047 20.0
      vertex 10.0 -0.4761904761904763 20.0
    endloop
  endfacet
  facet normal 0.0 0.0 1.0
    outer loop
      vertex 40.0 0.0 20.0
      vertex 10.0 0.0 20.0
      vertex 10.0 -0.47619047619047616 20.0
    endloop
  endfacet
  facet normal 0.0 0.0 1.0
    outer loop
      vertex 40.0 0.0 20.0
      vertex 10.0 -0.47619047619047616 20.0
      vertex 40.0 -1.9047619047619047 20.0
    endloop
  endfacet
  facet normal -0.0 0.0 1.0
    outer loop
      vertex -2.0 0.0 20.0
      vertex -2.0 -2.0 20.0
      vertex -1.8095238095238095 0.0 20.0
    endloop
  endfacet
  facet normal 0.0 0.0 1.0
    outer loop
      vertex -2.0 -2.0 20.0
      vertex 0.0 0.0 20.0
      vertex -1.8095238095238095 0.0 20.0
    endloop
  endfacet
  facet normal 0.0 0.0 1.0
    outer loop
      vertex 0.0 0.0 20.0
      vertex -2.0 -2.0 20.0
      vertex 10.0 -2.0 20.0
    endloop
  endfacet
  facet normal 0.0 0.0 1.0
    outer loop
      vertex 0.0 0.0 20.0
      vertex 10.0 -2.0 20.0
      vertex 10.0 -0.4761904761904763 20.0
    endloop
  endfacet
  facet normal 0.0 0.0 1.0
    outer loop
      vertex 10.0 0.0 20.0
      vertex 0.0 0.0 20.0
      vertex 10.0 -0.47619047619047616 20.0
    endloop
  endfacet
  facet normal 0.0 0.0 1.0
    outer loop
      vertex 40.0 -2.0 20.0
      vertex 42.0 -2.0 20.0
      vertex 40.0 -1.9047619047619047 20.0
    endloop
  endfacet
  facet normal 0.0 0.0 1.0
    outer loop
      vertex 40.0 0.0 20.0
      vertex 40.0 -1.9047619047619047 20.0
      vertex 42.0 -2.0 20.0
    endloop
  endfacet
  facet normal 0.0 0.0 1.0
    outer loop
      vertex 40.0 19.0 20.0
      vertex 40.0 0.0 20.0
      vertex 42.0 -2.0 20.0
    endloop
  endfacet
  facet normal -0.0 0.0 1.0
    outer loop
      vertex 40.0 19.0 20.0
      vertex 42.0 -2.0 20.0
      vertex 42.0 19.0 20.0
    endloop
  endfacet
  facet normal 0.3713906763541037 0.9284766908852593 -0.0
    outer loop
      vertex -2.0 21.0 0.0
      vertex -2.0 21.0 20.0
      vertex 3.0 19.0 20.0
    endloop
  endfacet
  facet normal 0.3713906763541037 0.9284766908852593 -0.0
    outer loop
      vertex -2.0 21.0 0.0
      vertex 3.0 19.0 20.0
      vertex 3.0 19.0 0.0
    endloop
  endfacet
  facet normal 1.0 0.0 -0.0
    outer loop
      vertex 42.0 21.0 0.0
      vertex 42.0 21.0 20.0
      vertex 42.0 19.0 20.0
    endloop
  endfacet
  facet normal 1.0 0.0 -0.0
    outer loop
      vertex 42.0 21.0 0.0
      vertex 42.0 19.0 20.0
      vertex 42.0 19.0 0.0
    endloop
  endfacet
  facet normal -0.3713906763541037 0.9284766908852593 0.0
    outer loop
      vertex 37.0 19.0 0.0
      vertex 37.0 19.0 20.0
      vertex 42.0 21.0 20.0
    endloop
  endfacet
  facet normal -0.3713906763541037 0.9284766908852593 0.0
    outer loop
      vertex 37.0 19.0 0.0
      vertex 42.0 21.0 20.0
      vertex 42.0 21.0 0.0
    endloop
  endfacet
  facet normal 0.0 0.0 1.0
    outer loop
      vertex 40.0 19.0 20.0
      vertex 42.0 19.0 20.0
      vertex 42.0 21.0 20.0
    endloop
  endfacet
  facet normal 0.0 0.0 1.0
    outer loop
      vertex 37.0 19.0 20.0
      vertex 40.0 19.0 20.0
      vertex 42.0 21.0 20.0
    endloop
  endfacet
  facet normal -1.0 0.0 0.0
    outer loop
      vertex -2.0 19.0 20.0
      vertex -2.0 21.0 20.0
      vertex -2.0 21.0 0.0
    endloop
  endfacet
  facet normal -1.0 0.0 0.0
    outer loop
      vertex -2.0 19.0 20.0
      vertex -2.0 21.0 0.0
      vertex -2.0 19.0 0.0
    endloop
  endfacet
  facet normal 0.0 0.0 1.0
    outer loop
      vertex -2.0 21.0 20.0
      vertex 0.0 19.0 20.0
      vertex 3.0 19.0 20.0
    endloop
  endfacet
  facet normal 0.0 0.0 1.0
    outer loop
      vertex -2.0 21.0 20.0
      vertex -2.0 19.0 20.0
      vertex 0.0 19.0 20.0
    endloop
  endfacet
endsolid v3d.csg
